<?xml version="1.0" encoding="utf-8"?>
<!-- Generator: Adobe Illustrator 23.0.3, SVG Export Plug-In . SVG Version: 6.00 Build 0)  -->
<svg version="1.1" xmlns="http://www.w3.org/2000/svg" xmlns:xlink="http://www.w3.org/1999/xlink" x="0px" y="0px"
	 viewBox="0 0 2000 2000" style="enable-background:new 0 0 2000 2000;" xml:space="preserve">
<style type="text/css">
	.st0{fill:#EA2482;}
	.st1{opacity:0.5;}
	.st2{opacity:0.5;clip-path:url(#SVGID_2_);}
	.st3{opacity:0.5;clip-path:url(#SVGID_4_);}
	.st4{fill:#222559;}
	.st5{fill:#DBA967;}
	.st6{fill:#FFC569;}
	.st7{fill:#331B0E;}
	.st8{fill:#512C0E;}
	.st9{fill:#603913;}
	.st10{fill:#0072BB;}
	.st11{fill:#00AEEF;}
	.st12{fill:#FF0000;}
	.st13{fill:#770000;}
	.st14{fill:#8E6F49;}
	.st15{fill:#FFDB80;}
	.st16{fill:none;stroke:#FFDB80;stroke-width:2;stroke-miterlimit:10;}
	.st17{fill:#FFFFFF;}
	.st18{opacity:0.5;fill:#FFFFFF;}
	.st19{opacity:0.7;fill:#C2C6CC;}
	.st20{fill:#AF6E58;}
	.st21{fill:#EF5B50;}
	.st22{fill:#E54B48;}
	.st23{fill:#C69759;}
	.st24{fill:#B78B55;}
	.st25{fill:#DBA85E;}
	.st26{fill:#3C2415;}
	.st27{fill:none;}
	.st28{fill:#005D91;}
	.st29{fill:#28150B;}
	.st30{opacity:0.4;fill:#FFC569;}
	.st31{fill:#F9B500;}
	.st32{fill:none;stroke:#800000;stroke-width:4;stroke-miterlimit:10;}
	.st33{fill:none;stroke:#800000;stroke-width:2;stroke-miterlimit:10;}
	.st34{fill:#F9B500;stroke:#000000;stroke-miterlimit:10;}
	.st35{fill:#FF7A00;}
	.st36{fill:#9B135B;}
	.st37{fill:#F98000;}
	.st38{display:none;}
	.st39{display:inline;}
	.st40{opacity:0.3;}
	.st41{clip-path:url(#SVGID_6_);}
	.st42{opacity:0.41;fill:none;stroke:#000000;stroke-width:2;stroke-miterlimit:10;}
	.st43{opacity:0.41;}
	.st44{fill:#EAB363;}
	.st45{opacity:0.2;}
	.st46{opacity:0.1;}
	.st47{fill:#CC0412;}
	.st48{fill:#D82E3A;}
	.st49{fill:#99222A;}
	.st50{fill:#C14848;}
	.st51{opacity:0.26;}
	.st52{fill:#7CAF00;}
	.st53{opacity:0.39;}
	.st54{fill:#BE1F24;}
	.st55{opacity:0.18;}
	.st56{fill:#008BD8;}
	.st57{fill:#005584;}
	.st58{fill:#E05656;}
	.st59{fill:#E57776;}
	.st60{fill:#486B02;}
	.st61{fill:#FAD35A;}
	.st62{fill:#D23C35;}
	.st63{opacity:0.32;}
	.st64{fill:#3C5402;}
	.st65{clip-path:url(#SVGID_8_);}
	.st66{clip-path:url(#SVGID_10_);}
	.st67{clip-path:url(#SVGID_12_);}
	.st68{clip-path:url(#SVGID_14_);}
	.st69{fill:none;stroke:#800000;stroke-width:8;stroke-miterlimit:10;}
	.st70{fill:#F9B500;stroke:#000000;stroke-width:2;stroke-miterlimit:10;}
	.st71{fill:none;stroke:#800000;stroke-width:4.8586;stroke-miterlimit:10;}
	.st72{fill:#F9B500;stroke:#000000;stroke-width:1.2146;stroke-miterlimit:10;}
	.st73{fill:#00507C;}
</style>
<g id="Layer_1">
	<g>
		<path class="st60" d="M805.92,2222.64c-6.96,0.82,3.1,945.87,3.1,945.87l142.43,34.28l247.23,17.53l12.27-7.01
			c0,0-7.54-50.85-1.75-133.26c17.41-247.94,63.13-751.75,57.86-776.75c-7.01-33.31-35.07-703.11-35.07-703.11l-49.09-96.44
			L805.92,2222.64z"/>
		<path class="st60" d="M1321.42,1255.64c0,0-26.84,112.81,29.81,207.78c59.62,99.94,138.52,234.08,84.16,549.69
			c-50.79,294.93-18.74,135.98-42.08,341.03c-3.51,30.85-35.74,281.15-33.31,312.1c8.04,102.57,32.2,459.25,40.33,494.46
			c0,0-196.38,15.78-196.38,26.3c0,10.52,0-1331.7,0-1331.7l-36.82-297.2L1321.42,1255.64z"/>
		<path class="st63" d="M1279,1502.55c0,0-208.88,667.32-485.02,851.04"/>
		<path class="st6" d="M1323.17,1262.66l-100.82,226.19l137.64-11.4C1359.99,1477.45,1310.9,1407.31,1323.17,1262.66z"/>
		<path class="st50" d="M1200.43,1480.95c0,0,70.14-5.26,157.81-10.52l7.01,15.78c0,0-119.23,22.79-182.35,17.53
			C1119.78,1498.49,1200.43,1480.95,1200.43,1480.95z"/>
		<path class="st44" d="M1528.32,1032.09c0,0,29.81,289.31-40.33,301.58c-70.14,12.27-106.96-38.57-106.96-38.57l-49.09-247.23
			L1528.32,1032.09z"/>
		<path class="st49" d="M1038.46,643.81c-3.74,4.03-170.39,49.62-170.39,49.62l-39.11-314.84l87.34-219.41l142.11-99.23
			l186.99,16.96l101.99,256.69l-51.06,320.74l-35.06,25.48l-241.46,39.08L1038.46,643.81z"/>
		<path class="st5" d="M1294.29,352.62h-3.76c-6.19,0-11.25,5.06-11.25,11.25v59.6c0,6.19,5.06,11.25,11.25,11.25h3.76
			c2.32,0,4.48-0.71,6.28-1.93c3.7-2.5,5.39-7.09,4.56-11.48l-2.67-14.06c-1.36-7.18-1.48-14.53-0.34-21.75l3.42-21.64
			C1305.53,357.68,1300.47,352.62,1294.29,352.62z"/>
		<path class="st5" d="M972.29,352.62h3.76c6.19,0,11.25,5.06,11.25,11.25v59.6c0,6.19-5.06,11.25-11.25,11.25h-3.76
			c-2.32,0-4.48-0.71-6.28-1.93c-3.7-2.5-5.39-7.09-4.56-11.48l2.67-14.06c1.36-7.18,1.48-14.53,0.34-21.75l-3.42-21.64
			C961.05,357.68,966.11,352.62,972.29,352.62z"/>
		<path class="st6" d="M1287.33,357.61c0,33.3-3.45,74.46-19.95,124.52c-21.05,63.86-81.94,103.59-140.86,102.84
			c-55.49-0.71-109.17-38.16-128.4-98.48c-17.15-53.81-23.69-104.18-23.69-138.99c0-125.3,28.52-216.77,153.82-216.77
			S1287.33,232.31,1287.33,357.61z"/>
		<path d="M1126.71,46.55c0,0,103.6-56.3,190.22,73.58c29.42,44.12,44.91,96.26,42.75,149.25c-2.03,49.57-18.95,107.96-78.53,143.23
			c0,0,32.46-120.58-48.99-165.95c-2.07-1.15-4.28-2.03-6.58-2.63c-16.48-4.31-92.48-25.71-98.87-55.45c0,0-28.77,34.52-71.81,45.56
			c-12.64,3.24-24.56,8.92-34.63,17.22c-26.45,21.8-61.89,70.74-38.46,168.87c0,0-49.86-22.94-73.86-99.46
			c-20.78-66.28-10.39-138.22,26.52-197.06C970,67.07,1031.82,8.93,1126.71,46.55z"/>
		<g>
			<path class="st31" d="M1282.89,431.86 M1290.01,422.07 M1291.48,425.52c9.34-9.86,24.34-12.98,37.17-6.68
				c15.79,7.75,22.3,26.84,14.54,42.63c-7.75,15.79-26.84,22.29-42.62,14.54c-15.79-7.75-22.3-26.83-14.55-42.62l-3.13-1.54
				c-8.59,17.48-1.35,38.7,16.14,47.29c17.48,8.59,38.7,1.35,47.29-16.14c8.59-17.49,1.35-38.7-16.13-47.29
				c-13.73-6.74-29.76-3.73-40.18,6.35L1291.48,425.52 M1291.48,425.52"/>
			<path class="st71" d="M1292.67,427.18c8.73-9.46,22.96-12.51,35.1-6.54c14.8,7.27,20.9,25.16,13.63,39.96
				c-7.27,14.8-25.15,20.9-39.95,13.63c-14.8-7.27-20.9-25.15-13.64-39.95"/>
			<g>
				<path class="st31" d="M1295.63,419.11c2.59,1.27,3.65,4.4,2.38,6.98c-1.27,2.59-4.4,3.65-6.98,2.38
					c-2.59-1.27-3.65-4.4-2.38-6.98C1289.92,418.9,1293.05,417.84,1295.63,419.11z"/>
				<g>
					<path d="M1298.81,426.48c-1.48,3.02-5.15,4.27-8.17,2.79c-3.02-1.48-4.26-5.15-2.78-8.16c1.48-3.02,5.14-4.27,8.16-2.78
						C1299.04,419.8,1300.29,423.46,1298.81,426.48z M1289.44,421.88c-1.06,2.15-0.16,4.75,1.98,5.81c2.14,1.05,4.75,0.17,5.81-1.98
						c1.05-2.14,0.16-4.75-1.98-5.8C1293.1,418.85,1290.49,419.73,1289.44,421.88z"/>
				</g>
			</g>
		</g>
		<g>
			<path class="st31" d="M979.97,433.37 M972.85,423.58 M971.38,427.04l1.47-3.45c-10.41-10.08-26.44-13.1-40.18-6.35
				c-17.48,8.59-24.72,29.8-16.13,47.29c8.59,17.48,29.8,24.72,47.29,16.14c17.48-8.59,24.72-29.8,16.14-47.29l-3.13,1.54
				c7.75,15.79,1.24,34.87-14.55,42.62c-15.79,7.75-34.87,1.25-42.62-14.54c-7.76-15.79-1.24-34.88,14.54-42.63
				C947.04,414.06,962.04,417.18,971.38,427.04 M971.38,427.04"/>
			<path class="st71" d="M970.19,428.69c-8.73-9.46-22.96-12.51-35.1-6.54c-14.8,7.27-20.9,25.16-13.63,39.96
				c7.27,14.8,25.15,20.9,39.95,13.63c14.8-7.27,20.9-25.15,13.64-39.95"/>
			<g>
				<path class="st31" d="M967.22,420.62c-2.59,1.27-3.65,4.4-2.38,6.98c1.27,2.59,4.4,3.65,6.98,2.38c2.59-1.27,3.65-4.4,2.38-6.98
					C972.94,420.42,969.81,419.35,967.22,420.62z"/>
				<g>
					<path d="M966.84,419.83c3.02-1.48,6.68-0.23,8.16,2.78c1.48,3.02,0.24,6.68-2.78,8.16c-3.02,1.48-6.68,0.23-8.17-2.79
						C962.57,424.98,963.82,421.32,966.84,419.83z M967.62,421.42c-2.14,1.05-3.04,3.66-1.98,5.8c1.06,2.15,3.66,3.03,5.81,1.98
						c2.14-1.05,3.04-3.66,1.98-5.81C972.36,421.25,969.76,420.37,967.62,421.42z"/>
				</g>
			</g>
		</g>
		<path class="st6" d="M872.8,681.72c0,0,98.31-39.55,154.41-44.54l8.73-102.22l36.15-58.59l84.77,17.45l57.34,4.99l19.95,13.71
			v130.89l92.25,16.21l-34.9,58.59c0,0-147.1,120.92-154.58,124.66c-7.48,3.74-183.25,102.22-183.25,102.22l-23.69-4.99
			l-66.07-84.77v-77.29L872.8,681.72z"/>
		<path class="st60" d="M842.32,1131.04l82.14-212.78l189.56-170.6l113.73-56.87l113.73-37.91c0,0,113.73,18.96,145.75,132.81
			c0,0-334.18,1276.13-686.57,1566.7c-199.89,164.82,79.6-217.32,79.6-217.32"/>
		<path class="st40" d="M880.26,1291.47c-2.91-8.01,143.53,410.22,23.75,773.88c-14.63,44.42-123.39,430.71-138.16,451.03"/>
		<g class="st40">
			<path d="M870.93,647.79c3.64-2.54,7.3-5.03,10.96-7.52c0.86-0.6,1.94-1.35,3.12-1.75c1.17-0.43,2.44-0.64,3.72-0.62
				c2.57,0.12,4.93,0.93,7.06,2.32c2.11,1.38,3.88,3.33,5.06,5.63c0.59,1.15,1.06,2.38,1.33,3.66c0.17,0.64,0.23,1.29,0.32,1.94
				l0.05,0.99l0.01,0.25l0,0.06l0,0.03c-1.07,2.92-0.3,0.81-0.54,1.47l-0.01,0.01l-0.06,0.09l-0.24,0.34l-7.59,10.91l-1.11-5.01
				c1.25,0.59,2.24,1.14,3.31,1.78c1.05,0.63,2.07,1.31,3.07,2.04c2,1.47,3.91,3.16,5.61,5.27c1.68,2.08,3.15,4.68,3.77,7.75
				c0.29,1.53,0.35,3.14,0.17,4.71c-0.19,1.57-0.63,3.06-1.19,4.46c-3.38,8.32-6.79,16.6-10.24,24.88l0-4.84
				c0.81,1.63,1.53,3.12,2.25,4.68c0.73,1.54,1.43,3.08,2.12,4.63c1.4,3.09,2.67,6.22,3.99,9.33c2.53,6.26,5,12.55,7.26,18.91
				c4.51,12.73,8.59,25.62,11.92,38.74l1.3,4.91l1.16,4.94c0.76,3.3,1.58,6.59,2.29,9.9c1.29,6.65,2.73,13.28,3.73,19.99
				c2.39,13.37,3.68,26.93,4.75,40.51l-17.13-5.94l2.51-2.84c0.82-0.93,1.65-1.81,2.47-2.72c1.64-1.81,3.3-3.58,4.98-5.33
				c1.67-1.77,3.36-3.49,5.06-5.21c1.7-1.72,3.38-3.47,5.12-5.14c3.45-3.38,6.89-6.78,10.43-10.06l5.28-4.96l5.38-4.84
				c14.42-12.84,29.37-25.09,44.97-36.5c15.5-11.54,31.85-21.97,48.57-31.73l12.67-7.12l12.97-6.58c2.16-1.08,4.33-2.22,6.49-3.25
				l6.47-3.06c4.32-2.03,8.63-4.07,12.97-6.05c17.31-8.03,34.83-15.66,52.5-22.96c4.44-1.78,8.85-3.61,13.31-5.34l13.38-5.19
				l13.48-4.92c4.5-1.61,9.04-3.16,13.56-4.72c18.15-6.08,36.52-11.56,55.13-15.99c18.61-4.41,37.41-7.95,56.34-10.15
				c-36.79,9.96-72.41,22.7-107.16,37.5c-4.33,1.89-8.69,3.69-13.01,5.6l-12.93,5.78l-12.88,5.9c-4.29,1.97-8.54,4.04-12.81,6.05
				c-4.28,2-8.53,4.07-12.78,6.13c-4.26,2.05-8.51,4.11-12.73,6.23l-12.71,6.29l-12.67,6.38l-12.64,6.46l-6.33,3.21
				c-2.1,1.07-4.11,2.21-6.17,3.31l-12.27,6.65c-4,2.39-8.01,4.76-12.02,7.11c-4.05,2.29-7.94,4.87-11.87,7.37
				c-3.91,2.53-7.9,4.94-11.7,7.65l-11.55,7.89l-11.33,8.23c-14.95,11.18-29.57,22.85-43.58,35.23l-5.26,4.63l-5.18,4.72
				c-3.48,3.12-6.85,6.35-10.24,9.56c-1.71,1.59-3.34,3.25-5.01,4.87c-1.67,1.63-3.33,3.26-4.95,4.93
				c-1.63,1.66-3.28,3.29-4.87,4.96c-0.8,0.83-1.62,1.66-2.39,2.49l-2.28,2.44l-15.92,17.06l-1.21-23
				c-0.68-12.95-1.59-25.93-3.34-38.85c-1.61-12.93-3.85-25.8-6.5-38.61c-0.7-3.19-1.31-6.41-2.09-9.59l-2.25-9.56l-2.46-9.51
				c-0.81-3.17-1.77-6.31-2.64-9.47c-1.81-6.3-3.73-12.57-5.77-18.79c-1.07-3.09-2.09-6.21-3.22-9.27c-0.54-1.55-1.1-3.08-1.67-4.6
				c-0.56-1.51-1.16-3.07-1.72-4.47l-1.08-2.72l1.08-2.11l6.12-11.97l6.18-11.94c0.33-0.65,0.61-1.3,0.75-1.94
				c0.14-0.65,0.19-1.3,0.14-1.98c-0.13-1.36-0.68-2.9-1.67-4.4c-0.97-1.51-2.28-2.97-3.77-4.31c-0.74-0.67-1.53-1.32-2.34-1.93
				c-0.79-0.6-1.71-1.22-2.45-1.67l-3.59-2.19l2.48-2.81l8.78-9.98l0.27-0.31l0.07-0.08l0.01-0.01c-0.24,0.65,0.54-1.46-0.53,1.45
				l0-0.02l0-0.04l0.01-0.17l0.05-0.67c-0.02-0.45,0.01-0.9-0.06-1.35c-0.07-0.9-0.31-1.79-0.62-2.66
				c-0.64-1.73-1.76-3.32-3.22-4.54c-0.72-0.63-1.55-1.12-2.42-1.56c-0.44-0.21-0.89-0.4-1.36-0.55c-0.47-0.18-0.9-0.28-1.37-0.36
				c-0.93-0.15-1.89-0.12-2.84,0.08c-0.97,0.19-1.79,0.61-2.83,1.14C878.89,643.88,874.92,645.85,870.93,647.79z"/>
		</g>
		<path class="st60" d="M658.64,2301.54c64.31-607.51-73.5-815.6-85.95-933.93c-26.4-251.07,110.47-545.92,177.55-770.24
			c88.51-296.01,79.88-321.14,141.86-419.74c133-211.61,208.14-137.48,230.96-137.45c27.29,0.04,39.54-8.9,57.06-9.96
			c52.56-3.18,90.29,2.53,148.32,109.39c143.78,264.76,74.64,599.17,74.64,599.17l-141.62-37.45c0,0,60.81-134.82,60.81-140.8
			s4.13-164.15,4.13-164.15l-9.32-82.16l-37.79-125.45l-89.94-84.43L1108.1,71l-112.03,40l-90.55,140.25l-15.11,157.1l15.11,158.19
			L872.8,679.26c0,0,18.56,165.1,23.55,162.43c4.99-2.67,16.21,234.68,16.21,234.68l-63.76,86c0,0,92.46,610.58,47.96,903.74
			c-9.76,64.28-129.41,451.1-129.41,451.1S657.7,2310.35,658.64,2301.54z"/>
		<path class="st0" d="M888.5,526.28c-2.3-48.54-7.15-187.6,7.8-272.14c0,0,7.97-163.19,182.67-188.46
			c190.72-27.58,339.83,267.91,217.36,588.65l-23.83-4.19c0,0,98.74-221.53,22.08-384.69S1158.63,90.61,1158.63,90.61
			s-67.81-19.32-133.88,21.82s-119.22,146.7-104.71,341.51c0,0,8.73,85.04,0,105.61c-8.73,20.57-46.75,100.13-21.19,166.19
			c25.56,66.07,57.97,217.53,1.25,362.76H872.8l2.98-34.28c0,0,37.7-179.91-0.89-287.52c-19.74-55.03-22.4-114.81-6.02-170.94
			c4.39-15.04,9.02-28.13,13.24-37.16C886.82,548.51,889.03,537.42,888.5,526.28z"/>
		<path class="st63" d="M1272.32,1079.43c0,0-159.56,876.7-448.87,1143.21"/>
		<path class="st63" d="M1382.79,679.65c-201.64,129.75-256,608.43-445.36,843.38"/>
		<path class="st0" d="M858.14,1308.88c0,0,18.06,113.5,34.68,229.5c20.57,143.66,14.74,289.87-17.16,431.44l-108.25,480.47
			l-1.56,66.1c45.44-125.99,139.18-483.96,161.27-703.49c22.15-220.09-42.51-447.6-46.86-521.41L858.14,1308.88z"/>
		<path class="st0" d="M1325.18,652.57c-7.63-0.22-269.26,58.85-405.14,220.9v72.85c0,0,138.37-184.77,444.17-283.52
			C1364.2,662.81,1335.26,652.86,1325.18,652.57z"/>
		<g class="st40">
			<path d="M801.55,719.31c-1.22,3.21-2.67,6.33-4.12,9.43l-4.35,9.3l-8.74,18.52c-5.75,12.36-11.4,24.73-16.8,37.18
				c-10.85,24.89-20.94,50-30.05,75.42c-1.15,3.17-2.29,6.35-3.39,9.54c-1.12,3.18-2.22,6.37-3.28,9.57l-3.22,9.58
				c-1.06,3.2-2.12,6.39-3.12,9.61c-4.05,12.85-7.97,25.72-11.53,38.69c-3.56,12.97-6.94,25.98-9.93,39.08
				c-3.04,13.08-5.88,26.21-8.28,39.41c-9.87,52.76-14.99,106.36-14.73,160.18c0.06,13.45,0.5,26.92,1.15,40.39l0.63,10.1l0.32,5.05
				l0.41,5.05l0.8,10.11l1,10.1c2.62,26.96,6.87,53.82,11.64,80.81c-4.93-12.77-9.59-25.71-13.42-38.91
				c-2.08-6.56-3.74-13.23-5.57-19.87c-0.88-3.33-1.63-6.68-2.45-10.03c-0.81-3.35-1.62-6.7-2.32-10.07
				c-3-13.46-5.32-27.07-7.37-40.73c-0.92-6.84-1.88-13.69-2.55-20.57c-0.35-3.44-0.78-6.87-1.05-10.32l-0.84-10.34
				c-3.98-55.23-0.43-111.08,9.82-165.54c2.6-13.61,5.56-27.15,8.88-40.59c1.67-6.72,3.49-13.4,5.32-20.07l2.84-9.98l3.03-9.92
				c4.15-13.19,8.57-26.3,13.46-39.22c1.19-3.24,2.44-6.46,3.69-9.68c1.24-3.22,2.5-6.44,3.82-9.62c1.29-3.2,2.63-6.38,3.98-9.56
				c1.33-3.18,2.7-6.35,4.09-9.51c11.11-25.26,23.55-49.88,37.33-73.67c6.91-11.89,14.11-23.59,21.66-35.04
				c3.76-5.74,7.63-11.4,11.53-17.02C793.77,730.55,797.79,725.02,801.55,719.31z"/>
		</g>
		<circle class="st12" cx="1131.96" cy="319.6" r="13.99"/>
		<circle class="st13" cx="1131.96" cy="319.6" r="11.14"/>
		<path class="st14" d="M1107.32,553.64c3.01-3.34,6.88-5.79,11.01-7.61c4.16-1.79,8.7-2.87,13.32-3c2.31-0.05,4.63,0.11,6.91,0.53
			c2.27,0.45,4.5,1.09,6.61,2.01c4.21,1.84,7.95,4.59,10.76,8.07c-4.12-1.74-8.05-3.26-12.06-4.19c-2-0.47-4.01-0.79-6.02-1.01
			c-2.01-0.19-4.03-0.26-6.06-0.21c-4.05,0.1-8.11,0.72-12.17,1.66C1115.56,550.85,1111.5,552.12,1107.32,553.64z"/>
		<path class="st14" d="M1034.69,549.56c0,0,102.71,92.41,199.45-11.75C1234.14,537.81,1149.04,704.52,1034.69,549.56z"/>
		<path class="st14" d="M1160.87,444.52c2.02,2.07,3.45,4.76,3.95,7.68c0.53,2.91,0.16,6-1.07,8.74c-1.2,2.75-3.22,5.16-5.79,6.79
			c-0.66,0.38-1.28,0.83-2.01,1.08c-0.71,0.28-1.4,0.63-2.15,0.77c-1.46,0.44-3.03,0.53-4.5,0.59l0.68-0.3l-3.18,3.6
			c-0.51,0.6-1.09,1.2-1.7,1.81c-0.29,0.31-0.63,0.56-0.96,0.83c-0.34,0.26-0.64,0.56-1.01,0.77c-1.39,0.98-2.96,1.7-4.57,2.24
			c-1.63,0.5-3.33,0.74-5.03,0.78c-1.71-0.03-3.4-0.29-5.03-0.78c-1.61-0.55-3.17-1.26-4.57-2.24c-0.36-0.22-0.67-0.52-1.01-0.78
			c-0.33-0.27-0.67-0.52-0.96-0.84l-0.9-0.9l-0.81-0.9l-3.19-3.59l0.68,0.3c-1.47-0.07-3.04-0.15-4.5-0.59
			c-0.75-0.14-1.44-0.49-2.15-0.77c-0.73-0.25-1.35-0.7-2.01-1.08c-2.57-1.63-4.59-4.04-5.79-6.79c-1.23-2.74-1.61-5.83-1.07-8.74
			c0.51-2.92,1.94-5.61,3.96-7.68c-1.79,2.26-2.98,4.97-3.28,7.78c-0.31,2.8,0.25,5.65,1.5,8.13c1.25,2.47,3.18,4.57,5.52,5.96
			c2.36,1.4,5.06,1.98,7.82,1.95l0.4,0l0.28,0.31l3.27,3.52l0.82,0.87l0.81,0.79c0.26,0.28,0.56,0.5,0.85,0.73
			c0.3,0.22,0.57,0.49,0.9,0.68c1.24,0.85,2.61,1.47,4.03,1.94c1.44,0.42,2.93,0.63,4.43,0.65c1.5-0.03,2.99-0.23,4.43-0.65
			c1.42-0.47,2.8-1.08,4.03-1.94c0.33-0.18,0.6-0.45,0.9-0.68c0.29-0.24,0.6-0.45,0.86-0.73c0.53-0.52,1.08-1.04,1.62-1.66
			l3.26-3.53l0.28-0.31l0.4,0c2.77,0.03,5.47-0.55,7.82-1.95c2.34-1.38,4.28-3.49,5.53-5.96c1.24-2.47,1.81-5.32,1.5-8.13
			C1163.85,449.49,1162.67,446.79,1160.87,444.52z"/>
		<circle class="st72" cx="1157.04" cy="453.94" r="5"/>
		<g>
			<g>
				<path class="st9" d="M1158.01,341.41c3.18-4.58,34.79-8.85,58.15-11.72c4.14-0.59,30.13-1.09,45.12,9.96
					c-11.49-2.76-24.67-3.61-48.48,0.75c-14.62,2.68-44.66,12.87-50.76,12.99C1158.67,353.45,1154.45,346.53,1158.01,341.41z"/>
				<path class="st9" d="M1107.08,341.41c-3.19-4.58-34.79-8.85-58.15-11.72c-4.14-0.59-30.12-1.09-45.12,9.96
					c11.49-2.76,24.66-3.61,48.48,0.75c14.62,2.68,44.66,12.87,50.76,12.99C1106.41,353.45,1110.63,346.53,1107.08,341.41z"/>
			</g>
			<g>
				<g>
					<path class="st17" d="M1245.37,372.43c0,0-26.29-18.48-47.56-10.35c-21.27,8.13-30.88,23.73-34.19,34.18
						c0,0,2.7-3.09,13.96-0.38C1188.83,398.57,1224.23,405.3,1245.37,372.43z"/>
					<g>
						<path class="st8" d="M1187.2,367.01c0,0-10.6,20.43,9.91,30.9c2.93-0.12,17.21-0.13,21.72-5.35
							c4.52-5.22,12.17-20.34-4.86-31.81C1202.85,360.41,1196.07,360.93,1187.2,367.01z"/>
						<path class="st7" d="M1215.16,379.16c0,5.54-4.56,10.03-10.2,10.03c-5.63,0-10.19-4.49-10.19-10.03
							c0-5.54,4.56-10.03,10.19-10.03C1210.6,369.13,1215.16,373.63,1215.16,379.16z"/>
						<path class="st17" d="M1197.29,376.69c0,2.14-1.73,3.88-3.87,3.88c-2.14,0-3.88-1.73-3.88-3.88c0-2.14,1.74-3.88,3.88-3.88
							C1195.56,372.81,1197.29,374.55,1197.29,376.69z"/>
						<path class="st18" d="M1189.54,386.63c0,0,16.23,13.9,30.85-3.07C1215.69,391.5,1205.9,402.9,1189.54,386.63z"/>
						<path class="st19" d="M1163.62,396.25c5.49-11.39,28.99-46.65,76.14-17.09c1.99-3.35,3.78-6.35,3.78-6.35
							S1184.71,332.06,1163.62,396.25z"/>
						<path class="st20" d="M1163.62,396.25c1.11-3.99,2.81-7.8,4.85-11.41c2.05-3.6,4.51-6.98,7.37-9.99
							c5.72-6.02,13.26-10.32,21.41-12.03c8.15-1.78,16.64-1.2,24.72,0.62c8.11,1.84,15.89,4.89,23.33,8.54l0.21,0.1l-0.08,0.21
							c-1.46,3.62-3.65,6.85-6.15,9.78c-1.27,1.46-2.64,2.82-4.07,4.11c-1.47,1.25-2.97,2.46-4.59,3.52
							c-6.4,4.33-13.89,6.85-21.49,7.98c-3.81,0.55-7.66,0.75-11.5,0.74c-3.84-0.06-7.68-0.36-11.49-0.88
							c-3.83-0.47-7.49-1.71-11.28-2.32c-1.89-0.32-3.81-0.51-5.72-0.41C1167.23,394.91,1165.31,395.33,1163.62,396.25z
							 M1163.62,396.25c1.68-0.94,3.6-1.38,5.51-1.5c1.92-0.12,3.85,0.06,5.74,0.35c3.8,0.57,7.49,1.77,11.29,2.2
							c3.8,0.48,7.63,0.78,11.46,0.82c3.83,0,7.66-0.21,11.45-0.77c7.55-1.16,14.97-3.68,21.3-8c1.6-1.05,3.08-2.26,4.53-3.5
							c1.42-1.28,2.77-2.63,4.01-4.08c2.46-2.9,4.62-6.14,6.02-9.65l0.13,0.31c-7.43-3.61-15.14-6.72-23.2-8.56
							c-8.03-1.84-16.46-2.45-24.55-0.71c-8.09,1.67-15.58,5.91-21.3,11.87c-2.88,2.96-5.37,6.3-7.45,9.87
							C1166.52,388.49,1164.78,392.28,1163.62,396.25z"/>
						<path class="st7" d="M1163.62,396.25c0,0,7.34-24.53,30.98-31.26c11.84-3.37,27.79-1.51,48.94,8.62
							c1.86,1.08,7.71,0.61,12.2-2.33c-6.11-0.53-38.33-22-64.34-11.27C1180.1,364.67,1169.87,374.62,1163.62,396.25z"/>
					</g>
				</g>
				<g>
					<path class="st17" d="M1019.72,372.43c0,0,26.29-18.48,47.56-10.35c21.27,8.13,30.88,23.73,34.18,34.18
						c0,0-2.7-3.09-13.95-0.38C1076.25,398.57,1040.85,405.3,1019.72,372.43z"/>
					<g>
						<path class="st8" d="M1077.87,367.01c0,0,10.6,20.43-9.91,30.9c-2.92-0.12-17.2-0.13-21.72-5.35
							c-4.51-5.22-12.17-20.34,4.87-31.81C1062.23,360.41,1069.01,360.93,1077.87,367.01z"/>
						<path class="st7" d="M1049.92,379.16c0,5.54,4.56,10.03,10.2,10.03c5.62,0,10.19-4.49,10.19-10.03
							c0-5.54-4.57-10.03-10.19-10.03C1054.49,369.13,1049.92,373.63,1049.92,379.16z"/>
						<path class="st17" d="M1067.79,376.69c0,2.14,1.74,3.88,3.88,3.88c2.14,0,3.87-1.73,3.87-3.88c0-2.14-1.73-3.88-3.87-3.88
							C1069.52,372.81,1067.79,374.55,1067.79,376.69z"/>
						<path class="st18" d="M1075.54,386.63c0,0-16.22,13.9-30.85-3.07C1049.39,391.5,1059.17,402.9,1075.54,386.63z"/>
						<path class="st19" d="M1101.46,396.25c-5.49-11.39-29-46.65-76.14-17.09c-1.99-3.35-3.78-6.35-3.78-6.35
							S1080.37,332.06,1101.46,396.25z"/>
						<path class="st20" d="M1101.46,396.25c-1.16-3.98-2.9-7.77-4.96-11.35c-2.08-3.57-4.57-6.91-7.45-9.87
							c-5.72-5.96-13.21-10.2-21.3-11.87c-8.09-1.74-16.52-1.13-24.55,0.71c-8.06,1.85-15.78,4.95-23.21,8.56l0.13-0.31
							c1.4,3.51,3.57,6.74,6.02,9.65c1.25,1.44,2.6,2.8,4.01,4.08c1.45,1.24,2.93,2.45,4.53,3.5c6.33,4.32,13.75,6.84,21.3,8
							c3.79,0.56,7.62,0.78,11.45,0.77c3.83-0.04,7.66-0.34,11.46-0.82c3.81-0.43,7.49-1.63,11.29-2.2c1.9-0.3,3.82-0.48,5.74-0.35
							C1097.86,394.87,1099.78,395.32,1101.46,396.25z M1101.46,396.25c-1.69-0.92-3.61-1.35-5.52-1.44
							c-1.92-0.1-3.83,0.1-5.72,0.41c-3.79,0.61-7.45,1.84-11.28,2.32c-3.81,0.52-7.65,0.82-11.49,0.88
							c-3.84,0.02-7.69-0.19-11.5-0.74c-7.6-1.14-15.08-3.65-21.49-7.98c-1.62-1.05-3.12-2.27-4.59-3.52
							c-1.44-1.29-2.81-2.65-4.07-4.11c-2.5-2.94-4.69-6.16-6.15-9.78l-0.08-0.21l0.21-0.1c7.44-3.65,15.22-6.7,23.33-8.54
							c8.08-1.82,16.57-2.4,24.72-0.62c8.15,1.71,15.69,6.01,21.42,12.03c2.87,3.01,5.33,6.38,7.38,9.99
							C1098.65,388.45,1100.35,392.26,1101.46,396.25z"/>
						<path class="st7" d="M1101.46,396.25c0,0-7.33-24.53-30.97-31.26c-11.85-3.37-27.79-1.51-48.95,8.62
							c-1.86,1.08-7.71,0.61-12.2-2.33c6.1-0.53,38.33-22,64.34-11.27C1084.98,364.67,1095.22,374.62,1101.46,396.25z"/>
					</g>
				</g>
			</g>
			<g>
				<path class="st21" d="M1132.92,513.73c16.92-0.36,34.62-5.1,48.65-18.52c0,0-10.9,3.5-17.95,3.5c-7,0-26.31-8.55-31.08-0.14
					c-4.76-8.41-24.09,0.14-31.09,0.14c-7.04,0-17.94-3.5-17.94-3.5c14.02,13.42,31.72,18.16,48.65,18.52v0.04
					c0.13,0,0.25-0.02,0.38-0.02c0.13,0,0.26,0.02,0.38,0.02V513.73z"/>
				<path class="st22" d="M1083.51,495.21c6.08,5.18,17.35,34.42,49.5,34.42c25.65,0,37.63-17.82,48.56-34.42
					c-5.97,5.47-21.43,16.24-47.03,15.82C1119,510.78,1101.6,510.61,1083.51,495.21z"/>
			</g>
		</g>
		<g>
			<g>
				<g>
					<path class="st31" d="M1124.17,855.19l-0.88-0.5c-42.09-24.15-73.89-81.11-93.15-124.64c-20.81-47.03-31.89-88.96-32-89.38
						c-0.25-0.94,0.32-1.9,1.26-2.15c0.94-0.25,1.9,0.32,2.15,1.26c0.11,0.42,11.13,42.11,31.84,88.89
						c18.91,42.72,49.96,98.49,90.78,122.45c40.83-23.96,71.88-79.76,90.8-122.49c20.7-46.78,31.71-88.42,31.81-88.84
						c0.25-0.94,1.21-1.51,2.16-1.26c0.94,0.24,1.5,1.21,1.26,2.15c-0.11,0.42-11.19,42.34-32,89.38
						c-19.26,43.53-51.06,100.49-93.15,124.64L1124.17,855.19z"/>
				</g>
				<g>
					<g>
						<g>
							<path class="st31" d="M1000.93,640.09c-4.27,0.59-7.18,4.27-6.52,8.21c0.68,3.95,4.67,6.66,8.92,6.05
								c4.27-0.59,7.18-4.26,6.51-8.21C1009.19,642.2,1005.2,639.5,1000.93,640.09z"/>
							<path class="st35" d="M1007.85,651.05c0,0-9.01,3.35-12.48-4.61c0,0-1.63,5.02,3.66,7.36
								C1004.32,656.14,1007.37,651.29,1007.85,651.05z"/>
							<path class="st17" d="M1008,648.51c0,0,0.85-3.62-2.5-6.01c-2.63-1.89-7.12-0.46-8.38,1.74c0,0,4.98-2.82,7.92-0.83
								C1006.74,644.55,1007.36,646.14,1008,648.51z"/>
							<g>
								<path d="M1002.15,654.87L1002.15,654.87c-4.08,0-7.52-2.73-8.17-6.5c-0.32-1.93,0.15-3.87,1.33-5.48
									c1.28-1.75,3.31-2.93,5.57-3.24c0.4-0.06,0.82-0.08,1.23-0.08c4.11,0,7.54,2.73,8.18,6.5c0.33,1.93-0.14,3.87-1.31,5.47
									c-1.28,1.75-3.31,2.93-5.57,3.24C1002.99,654.84,1002.57,654.87,1002.15,654.87z M1002.1,640.45
									c-0.37,0-0.74,0.02-1.11,0.08c-2.02,0.28-3.83,1.33-4.97,2.89c-1.03,1.41-1.45,3.12-1.16,4.81c0.56,3.29,3.7,5.77,7.3,5.77
									l0,0c0.37,0,0.75-0.03,1.13-0.08c2.02-0.28,3.83-1.33,4.97-2.88c1.03-1.41,1.44-3.12,1.16-4.81
									C1008.86,642.93,1005.72,640.45,1002.1,640.45z"/>
							</g>
						</g>
						<g>
							<path class="st31" d="M1004.46,653.98c-4.26,0.59-7.18,4.27-6.51,8.2c0.68,3.95,4.67,6.66,8.92,6.05
								c4.26-0.59,7.17-4.26,6.51-8.21C1012.71,656.09,1008.72,653.38,1004.46,653.98z"/>
							<path class="st35" d="M1011.37,664.94c0,0-9,3.36-12.48-4.61c0,0-1.63,5.02,3.66,7.36
								C1007.84,670.03,1010.9,665.18,1011.37,664.94z"/>
							<path class="st17" d="M1011.53,662.4c0,0,0.85-3.63-2.5-6.01c-2.63-1.89-7.12-0.46-8.39,1.74c0,0,4.99-2.82,7.92-0.83
								C1010.27,658.44,1010.89,660.03,1011.53,662.4z"/>
							<g>
								<path d="M1005.68,668.76L1005.68,668.76c-4.09,0-7.52-2.74-8.17-6.51c-0.33-1.93,0.14-3.87,1.33-5.48
									c1.28-1.75,3.31-2.93,5.56-3.24c0.41-0.05,0.83-0.08,1.24-0.08c4.1,0,7.54,2.73,8.18,6.5c0.33,1.93-0.14,3.87-1.32,5.47
									c-1.28,1.75-3.3,2.93-5.56,3.24C1006.52,668.73,1006.1,668.76,1005.68,668.76z M1005.63,654.33c-0.37,0-0.74,0.02-1.11,0.08
									c-2.02,0.28-3.83,1.33-4.97,2.89c-1.04,1.41-1.46,3.12-1.17,4.81c0.57,3.29,3.71,5.77,7.3,5.77l0,0
									c0.37,0,0.75-0.02,1.13-0.08c2.02-0.28,3.83-1.34,4.97-2.89c1.03-1.41,1.44-3.12,1.15-4.81
									C1012.38,656.81,1009.24,654.33,1005.63,654.33z"/>
							</g>
						</g>
						<g>
							<path class="st31" d="M1009.53,668.3c-4.27,0.59-7.18,4.27-6.52,8.21c0.68,3.95,4.67,6.66,8.92,6.05
								c4.27-0.59,7.18-4.27,6.51-8.21C1017.78,670.42,1013.8,667.71,1009.53,668.3z"/>
							<path class="st35" d="M1016.45,679.27c0,0-9.01,3.35-12.48-4.61c0,0-1.63,5.01,3.65,7.36
								C1012.92,684.36,1015.96,679.51,1016.45,679.27z"/>
							<path class="st17" d="M1016.6,676.72c0,0,0.85-3.62-2.5-6.01c-2.63-1.88-7.12-0.46-8.38,1.75c0,0,4.98-2.82,7.92-0.83
								C1015.34,672.77,1015.96,674.35,1016.6,676.72z"/>
							<g>
								<path d="M1010.75,683.09L1010.75,683.09c-4.08,0-7.52-2.73-8.17-6.51c-0.32-1.93,0.14-3.87,1.33-5.47
									c1.28-1.75,3.31-2.93,5.57-3.24c0.4-0.06,0.82-0.09,1.23-0.09c4.11,0,7.54,2.73,8.18,6.5c0.33,1.93-0.14,3.87-1.31,5.48
									c-1.28,1.75-3.31,2.92-5.57,3.24C1011.59,683.06,1011.16,683.09,1010.75,683.09z M1010.7,668.67
									c-0.37,0-0.74,0.02-1.11,0.08c-2.02,0.27-3.83,1.33-4.97,2.88c-1.04,1.41-1.46,3.12-1.16,4.81c0.56,3.29,3.7,5.78,7.3,5.78
									l0,0c0.37,0,0.75-0.03,1.13-0.08c2.02-0.28,3.83-1.33,4.97-2.89c1.03-1.41,1.44-3.11,1.16-4.81
									C1017.46,671.14,1014.31,668.67,1010.7,668.67z"/>
							</g>
						</g>
					</g>
					<g>
						<g>
							<path class="st31" d="M1026.08,713.52c-4.18,1.03-6.7,5-5.63,8.84c1.09,3.86,5.34,6.13,9.51,5.09
								c4.18-1.03,6.68-4.98,5.61-8.84C1034.5,714.76,1030.25,712.49,1026.08,713.52z"/>
							<path class="st35" d="M1034.1,723.71c0,0-8.6,4.27-12.89-3.29c0,0-1.1,5.16,4.4,6.93
								C1031.12,729.13,1033.65,723.99,1034.1,723.71z"/>
							<path class="st17" d="M1033.99,721.16c0,0,0.46-3.7-3.12-5.72c-2.81-1.6-7.12,0.29-8.16,2.61c0,0,4.66-3.33,7.79-1.65
								C1032.32,717.36,1033.11,718.87,1033.99,721.16z"/>
							<g>
								<path d="M1027.91,728.14L1027.91,728.14c-3.7,0-6.94-2.33-7.88-5.66c-0.52-1.88-0.26-3.86,0.75-5.58
									c1.09-1.87,2.98-3.26,5.19-3.8c0.7-0.17,1.43-0.26,2.14-0.26c3.71,0,6.95,2.33,7.88,5.66c0.52,1.88,0.26,3.86-0.74,5.58
									c-1.09,1.87-2.98,3.25-5.19,3.8C1029.36,728.05,1028.64,728.14,1027.91,728.14z M1028.12,713.71c-0.65,0-1.3,0.08-1.93,0.24
									c-1.98,0.49-3.67,1.72-4.65,3.39c-0.89,1.51-1.12,3.25-0.66,4.9c0.83,2.95,3.73,5.02,7.04,5.02l0,0
									c0.65,0,1.3-0.08,1.94-0.24c1.98-0.49,3.67-1.72,4.64-3.39c0.89-1.51,1.11-3.26,0.65-4.91
									C1034.32,715.78,1031.43,713.71,1028.12,713.71z"/>
							</g>
						</g>
						<g>
							<path class="st31" d="M1031.03,726.97c-4.18,1.03-6.69,5-5.62,8.84c1.09,3.86,5.34,6.14,9.51,5.09
								c4.18-1.03,6.69-4.99,5.61-8.84C1039.46,728.21,1035.22,725.93,1031.03,726.97z"/>
							<path class="st35" d="M1039.05,737.15c0,0-8.6,4.27-12.89-3.29c0,0-1.09,5.16,4.41,6.93
								C1036.08,742.58,1038.61,737.44,1039.05,737.15z"/>
							<path class="st17" d="M1038.95,734.6c0,0,0.47-3.7-3.11-5.72c-2.82-1.6-7.13,0.28-8.16,2.61c0,0,4.66-3.33,7.79-1.65
								C1037.28,730.8,1038.06,732.31,1038.95,734.6z"/>
							<g>
								<path d="M1032.87,741.59L1032.87,741.59c-3.7,0-6.94-2.33-7.88-5.67c-0.52-1.88-0.26-3.86,0.74-5.58
									c1.09-1.87,2.99-3.26,5.2-3.8c0.7-0.17,1.42-0.27,2.14-0.27c3.72,0,6.96,2.33,7.88,5.66c0.53,1.88,0.27,3.87-0.74,5.59
									c-1.09,1.87-2.98,3.26-5.19,3.8C1034.32,741.5,1033.59,741.59,1032.87,741.59z M1033.07,727.16c-0.65,0-1.3,0.08-1.93,0.24
									c-1.98,0.49-3.67,1.72-4.65,3.39c-0.89,1.51-1.12,3.25-0.65,4.9c0.83,2.95,3.73,5.01,7.03,5.01c0.65,0,1.31-0.08,1.94-0.24
									c1.98-0.49,3.68-1.72,4.65-3.39c0.88-1.51,1.11-3.25,0.65-4.9C1039.29,729.22,1036.39,727.16,1033.07,727.16z"/>
							</g>
						</g>
						<g>
							<path class="st31" d="M1037.57,740.69c-4.18,1.03-6.7,5-5.62,8.84c1.09,3.85,5.34,6.13,9.51,5.09
								c4.18-1.03,6.69-4.99,5.61-8.84C1046,741.93,1041.76,739.65,1037.57,740.69z"/>
							<path class="st35" d="M1045.6,750.87c0,0-8.6,4.28-12.89-3.29c0,0-1.1,5.16,4.4,6.93
								C1042.62,756.29,1045.14,751.15,1045.6,750.87z"/>
							<path class="st17" d="M1045.49,748.32c0,0,0.46-3.7-3.12-5.72c-2.81-1.6-7.12,0.28-8.16,2.61c0,0,4.66-3.33,7.79-1.65
								C1043.82,744.52,1044.6,746.03,1045.49,748.32z"/>
							<g>
								<path d="M1039.41,755.31c-3.7,0-6.94-2.33-7.88-5.66c-0.52-1.88-0.26-3.87,0.75-5.59c1.09-1.87,2.98-3.26,5.19-3.8
									c0.7-0.17,1.43-0.26,2.14-0.26c3.71,0,6.95,2.32,7.88,5.66c0.52,1.88,0.26,3.87-0.74,5.59c-1.09,1.87-2.98,3.26-5.19,3.8
									C1040.86,755.22,1040.14,755.31,1039.41,755.31z M1039.61,740.88c-0.65,0-1.3,0.08-1.93,0.24
									c-1.98,0.49-3.67,1.72-4.65,3.39c-0.89,1.51-1.12,3.25-0.66,4.9c0.84,2.95,3.73,5.02,7.03,5.02c0.65,0,1.3-0.08,1.94-0.24
									c1.98-0.49,3.67-1.72,4.64-3.39c0.89-1.51,1.12-3.25,0.65-4.9C1045.82,742.94,1042.93,740.88,1039.61,740.88z"/>
							</g>
						</g>
					</g>
					<g>
						<g>
							<path class="st31" d="M1057.31,774.92c-4.02,1.56-6,5.81-4.45,9.48c1.57,3.69,6.08,5.41,10.08,3.84
								c4.01-1.56,6-5.8,4.44-9.49C1065.83,775.08,1061.33,773.36,1057.31,774.92z"/>
							<path class="st35" d="M1066.57,784c0,0-7.99,5.34-13.2-1.61c0,0-0.43,5.26,5.25,6.32
								C1064.31,789.76,1066.16,784.34,1066.57,784z"/>
							<path class="st17" d="M1066.14,781.48c0,0-0.01-3.72-3.82-5.27c-2.99-1.23-7.04,1.19-7.76,3.63c0,0,4.2-3.89,7.52-2.63
								C1064,777.93,1064.97,779.32,1066.14,781.48z"/>
							<g>
								<path d="M1059.89,789.27L1059.89,789.27c-3.3,0-6.21-1.84-7.43-4.68c-0.76-1.8-0.75-3.8,0.03-5.64
									c0.84-1.99,2.54-3.61,4.66-4.43c1.03-0.4,2.11-0.61,3.22-0.61c3.3,0,6.21,1.84,7.42,4.68c0.76,1.79,0.75,3.8-0.02,5.63
									c-0.84,1.99-2.54,3.61-4.66,4.43C1062.07,789.06,1060.99,789.27,1059.89,789.27z M1060.37,774.79
									c-0.99,0-1.97,0.18-2.9,0.54c-1.9,0.74-3.42,2.18-4.18,3.96c-0.68,1.62-0.69,3.37-0.02,4.95c1.07,2.51,3.67,4.14,6.61,4.14
									l0,0c0.99,0,1.97-0.18,2.9-0.55c1.9-0.74,3.42-2.18,4.17-3.96c0.68-1.61,0.69-3.37,0.02-4.95
									C1065.91,776.41,1063.32,774.79,1060.37,774.79z"/>
							</g>
						</g>
						<g>
							<path class="st31" d="M1063.95,787.63c-4.02,1.55-6,5.81-4.45,9.48c1.57,3.68,6.08,5.4,10.08,3.83c4.01-1.56,6-5.8,4.43-9.48
								C1072.46,787.78,1067.96,786.06,1063.95,787.63z"/>
							<path class="st35" d="M1073.21,796.7c0,0-7.99,5.34-13.21-1.62c0,0-0.43,5.26,5.26,6.32
								C1070.94,802.46,1072.8,797.04,1073.21,796.7z"/>
							<path class="st17" d="M1072.77,794.18c0,0-0.01-3.73-3.82-5.27c-2.99-1.23-7.03,1.19-7.76,3.63c0,0,4.2-3.9,7.52-2.63
								C1070.63,790.63,1071.6,792.03,1072.77,794.18z"/>
							<g>
								<path d="M1066.52,801.96L1066.52,801.96c-3.3,0-6.22-1.84-7.43-4.68c-0.76-1.8-0.75-3.8,0.02-5.63
									c0.84-2,2.55-3.61,4.67-4.43c1.03-0.4,2.11-0.61,3.21-0.61c3.31,0,6.22,1.84,7.42,4.68c0.77,1.8,0.76,3.8-0.01,5.63
									c-0.84,2-2.54,3.61-4.67,4.43C1068.71,801.75,1067.62,801.96,1066.52,801.96z M1067,787.49c-0.99,0-1.97,0.18-2.89,0.55
									c-1.9,0.74-3.43,2.18-4.18,3.96c-0.68,1.61-0.7,3.37-0.03,4.94c1.08,2.52,3.68,4.15,6.62,4.15l0,0
									c0.99,0,1.97-0.18,2.89-0.55c1.91-0.74,3.43-2.18,4.18-3.96c0.68-1.61,0.68-3.36,0.02-4.94
									C1072.55,789.11,1069.96,787.49,1067,787.49z"/>
							</g>
						</g>
						<g>
							<path class="st31" d="M1072.19,800.39c-4.01,1.56-6,5.81-4.45,9.49c1.57,3.68,6.08,5.4,10.08,3.83
								c4.01-1.56,6-5.81,4.43-9.49C1080.7,800.55,1076.2,798.84,1072.19,800.39z"/>
							<path class="st35" d="M1081.44,809.47c0,0-7.99,5.34-13.2-1.61c0,0-0.43,5.26,5.26,6.32
								C1079.18,815.24,1081.03,809.81,1081.44,809.47z"/>
							<path class="st17" d="M1081.01,806.96c0,0-0.01-3.73-3.82-5.27c-2.99-1.24-7.03,1.19-7.76,3.62c0,0,4.2-3.89,7.52-2.63
								C1078.87,803.4,1079.84,804.8,1081.01,806.96z"/>
							<g>
								<path d="M1074.76,814.74L1074.76,814.74c-3.3,0-6.21-1.84-7.43-4.68c-0.76-1.8-0.75-3.8,0.02-5.63
									c0.85-2,2.55-3.61,4.67-4.44c1.03-0.4,2.12-0.61,3.21-0.61c3.31,0,6.22,1.84,7.42,4.68c0.76,1.79,0.76,3.8-0.02,5.63
									c-0.84,2-2.54,3.61-4.66,4.44C1076.94,814.53,1075.86,814.74,1074.76,814.74z M1075.24,800.26c-0.99,0-1.96,0.18-2.89,0.54
									c-1.9,0.74-3.42,2.18-4.18,3.96c-0.68,1.61-0.69,3.37-0.02,4.94c1.08,2.51,3.67,4.14,6.61,4.14l0,0
									c0.99,0,1.97-0.18,2.9-0.55c1.9-0.74,3.42-2.19,4.17-3.96c0.68-1.61,0.69-3.37,0.02-4.94
									C1080.78,801.89,1078.19,800.26,1075.24,800.26z"/>
							</g>
						</g>
					</g>
					<g>
						<g>
							<path class="st31" d="M1091.69,825.08c-3.29,2.78-3.8,7.45-1.14,10.42c2.69,2.98,7.5,3.14,10.78,0.36
								c3.29-2.77,3.79-7.43,1.12-10.41C1099.8,822.47,1094.98,822.3,1091.69,825.08z"/>
							<path class="st35" d="M1103.39,830.67c0,0-5.83,7.64-13.01,2.75c0,0,1.3,5.12,7.02,4.27
								C1103.11,836.85,1103.11,831.12,1103.39,830.67z"/>
							<path class="st17" d="M1102.16,828.43c0,0-1.22-3.52-5.32-3.75c-3.23-0.2-6.27,3.4-6.17,5.95c0,0,2.71-5.04,6.26-4.93
								C1098.99,825.76,1100.35,826.76,1102.16,828.43z"/>
							<g>
								<path d="M1095.98,838.28L1095.98,838.28c-2.23,0-4.34-0.91-5.76-2.49c-1.3-1.46-1.94-3.35-1.79-5.34
									c0.15-2.16,1.24-4.24,2.98-5.71c1.59-1.34,3.59-2.08,5.63-2.08c2.23,0,4.33,0.91,5.74,2.5c1.31,1.45,1.95,3.35,1.81,5.33
									c-0.15,2.16-1.24,4.24-2.98,5.71C1100.03,837.54,1098.03,838.28,1095.98,838.28z M1097.04,823.54
									c-1.84,0-3.64,0.67-5.07,1.87c-1.56,1.31-2.53,3.17-2.67,5.1c-0.12,1.75,0.43,3.41,1.57,4.69c1.25,1.4,3.12,2.2,5.1,2.2l0,0
									c1.84,0,3.63-0.67,5.06-1.88c1.56-1.31,2.53-3.17,2.67-5.09c0.12-1.75-0.44-3.41-1.59-4.68
									C1100.88,824.34,1099.02,823.54,1097.04,823.54z"/>
							</g>
						</g>
						<g>
							<path class="st31" d="M1102.08,834.94c-3.3,2.77-3.8,7.44-1.14,10.42c2.69,2.97,7.5,3.14,10.78,0.36
								c3.29-2.78,3.8-7.43,1.13-10.41C1110.18,832.34,1105.37,832.17,1102.08,834.94z"/>
							<path class="st35" d="M1113.77,840.54c0,0-5.83,7.64-13.01,2.75c0,0,1.3,5.12,7.02,4.27
								C1113.5,846.72,1113.5,840.99,1113.77,840.54z"/>
							<path class="st17" d="M1112.55,838.3c0,0-1.21-3.52-5.32-3.75c-3.23-0.2-6.27,3.4-6.17,5.94c0,0,2.71-5.04,6.26-4.92
								C1109.37,835.63,1110.74,836.63,1112.55,838.3z"/>
							<g>
								<path d="M1106.37,848.15L1106.37,848.15c-2.23,0-4.34-0.91-5.76-2.5c-1.3-1.46-1.94-3.35-1.8-5.34
									c0.15-2.16,1.24-4.24,2.98-5.71c1.59-1.34,3.59-2.08,5.63-2.08c2.24,0,4.33,0.91,5.75,2.5c1.31,1.45,1.95,3.35,1.81,5.33
									c-0.15,2.16-1.24,4.24-2.98,5.7C1110.41,847.4,1108.42,848.15,1106.37,848.15z M1107.43,833.41c-1.83,0-3.63,0.66-5.07,1.87
									c-1.56,1.31-2.53,3.17-2.67,5.09c-0.12,1.75,0.44,3.42,1.58,4.69c1.25,1.4,3.12,2.2,5.1,2.2l0,0c1.84,0,3.63-0.67,5.06-1.88
									c1.56-1.31,2.54-3.17,2.67-5.09c0.12-1.75-0.44-3.41-1.58-4.68C1111.26,834.21,1109.41,833.41,1107.43,833.41z"/>
							</g>
						</g>
					</g>
				</g>
				<g>
					<g>
						<g>
							<path class="st31" d="M1248.61,640.09c4.27,0.59,7.18,4.27,6.52,8.21c-0.68,3.95-4.67,6.66-8.92,6.05
								c-4.26-0.59-7.17-4.26-6.5-8.21C1240.36,642.2,1244.35,639.5,1248.61,640.09z"/>
							<path class="st35" d="M1241.7,651.05c0,0,9.01,3.35,12.48-4.61c0,0,1.63,5.02-3.66,7.36
								C1245.23,656.14,1242.17,651.29,1241.7,651.05z"/>
							<path class="st17" d="M1241.54,648.51c0,0-0.85-3.62,2.5-6.01c2.63-1.89,7.12-0.46,8.39,1.74c0,0-4.98-2.82-7.93-0.83
								C1242.8,644.55,1242.18,646.14,1241.54,648.51z"/>
							<g>
								<path d="M1247.39,654.87c-0.42,0-0.84-0.03-1.25-0.09c-2.26-0.31-4.28-1.49-5.56-3.24c-1.18-1.6-1.65-3.55-1.32-5.48
									c0.64-3.76,4.08-6.49,8.18-6.49c0.41,0,0.83,0.02,1.24,0.08c2.25,0.31,4.28,1.49,5.56,3.24c1.18,1.6,1.65,3.55,1.32,5.47
									C1254.91,652.14,1251.48,654.87,1247.39,654.87z M1247.44,640.45c-3.61,0-6.75,2.48-7.31,5.76
									c-0.29,1.69,0.12,3.4,1.16,4.81c1.14,1.55,2.95,2.6,4.97,2.88c0.37,0.05,0.75,0.08,1.13,0.08c3.59,0,6.74-2.48,7.3-5.78
									c0.28-1.68-0.13-3.39-1.16-4.8c-1.15-1.56-2.96-2.61-4.98-2.89C1248.18,640.47,1247.8,640.45,1247.44,640.45z"/>
							</g>
						</g>
						<g>
							<path class="st31" d="M1245.08,653.98c4.26,0.59,7.18,4.27,6.51,8.2c-0.68,3.95-4.66,6.66-8.92,6.05
								c-4.26-0.59-7.17-4.26-6.5-8.21C1236.84,656.09,1240.82,653.38,1245.08,653.98z"/>
							<path class="st35" d="M1238.17,664.94c0,0,9.01,3.36,12.48-4.61c0,0,1.63,5.02-3.66,7.36
								C1241.7,670.03,1238.65,665.18,1238.17,664.94z"/>
							<path class="st17" d="M1238.01,662.4c0,0-0.85-3.63,2.5-6.01c2.63-1.89,7.11-0.46,8.38,1.74c0,0-4.98-2.82-7.92-0.83
								C1239.27,658.44,1238.65,660.03,1238.01,662.4z"/>
							<g>
								<path d="M1243.87,668.76c-0.42,0-0.84-0.04-1.25-0.09c-2.26-0.32-4.28-1.5-5.56-3.24c-1.18-1.6-1.64-3.55-1.31-5.47
									c0.64-3.77,4.07-6.5,8.17-6.5c0.41,0,0.83,0.03,1.24,0.08c2.25,0.31,4.28,1.49,5.57,3.24c1.18,1.6,1.65,3.55,1.32,5.48
									C1251.38,666.02,1247.95,668.76,1243.87,668.76z M1243.91,654.33c-3.61,0-6.75,2.48-7.3,5.76c-0.29,1.69,0.12,3.4,1.16,4.81
									c1.14,1.55,2.95,2.61,4.97,2.89c0.38,0.05,0.76,0.08,1.14,0.08c3.59,0,6.73-2.48,7.3-5.77c0.29-1.69-0.12-3.4-1.16-4.81
									c-1.14-1.56-2.95-2.61-4.97-2.89C1244.65,654.36,1244.28,654.33,1243.91,654.33z"/>
							</g>
						</g>
						<g>
							<path class="st31" d="M1240.01,668.3c4.27,0.59,7.18,4.27,6.52,8.21c-0.68,3.95-4.66,6.66-8.92,6.05
								c-4.26-0.59-7.17-4.27-6.5-8.21C1231.76,670.42,1235.75,667.71,1240.01,668.3z"/>
							<path class="st35" d="M1233.1,679.27c0,0,9.01,3.35,12.48-4.61c0,0,1.63,5.01-3.66,7.36
								C1236.63,684.36,1233.57,679.51,1233.1,679.27z"/>
							<path class="st17" d="M1232.94,676.72c0,0-0.85-3.62,2.5-6.01c2.63-1.88,7.12-0.46,8.39,1.75c0,0-4.98-2.82-7.92-0.83
								C1234.2,672.77,1233.58,674.35,1232.94,676.72z"/>
							<g>
								<path d="M1238.79,683.09c-0.41,0-0.84-0.03-1.25-0.09c-2.26-0.32-4.28-1.49-5.56-3.24c-1.18-1.6-1.65-3.55-1.32-5.48
									c0.64-3.77,4.08-6.5,8.18-6.5c0.41,0,0.83,0.03,1.24,0.09c2.25,0.31,4.28,1.49,5.56,3.24c1.18,1.6,1.65,3.55,1.33,5.47
									C1246.31,680.35,1242.88,683.09,1238.79,683.09z M1238.84,668.67c-3.61,0-6.75,2.48-7.3,5.76c-0.29,1.69,0.12,3.4,1.15,4.81
									c1.14,1.56,2.95,2.61,4.97,2.89c0.37,0.05,0.76,0.08,1.13,0.08c3.59,0,6.74-2.48,7.3-5.78c0.28-1.69-0.13-3.39-1.16-4.81
									c-1.14-1.55-2.96-2.61-4.98-2.88C1239.58,668.69,1239.21,668.67,1238.84,668.67z"/>
							</g>
						</g>
					</g>
					<g>
						<g>
							<path class="st31" d="M1223.46,713.52c4.18,1.03,6.7,5,5.63,8.84c-1.09,3.86-5.34,6.13-9.51,5.09
								c-4.18-1.03-6.69-4.98-5.62-8.84C1215.04,714.76,1219.28,712.49,1223.46,713.52z"/>
							<path class="st35" d="M1215.44,723.71c0,0,8.61,4.27,12.89-3.29c0,0,1.09,5.16-4.41,6.93
								C1218.42,729.13,1215.89,723.99,1215.44,723.71z"/>
							<path class="st17" d="M1215.55,721.16c0,0-0.47-3.7,3.11-5.72c2.82-1.6,7.13,0.29,8.16,2.61c0,0-4.66-3.33-7.79-1.65
								C1217.22,717.36,1216.44,718.87,1215.55,721.16z"/>
							<g>
								<path d="M1221.63,728.14c-0.72,0-1.45-0.09-2.15-0.27c-2.21-0.55-4.11-1.93-5.19-3.8c-1-1.72-1.27-3.71-0.74-5.59
									c0.93-3.33,4.17-5.66,7.88-5.66c0.71,0,1.44,0.09,2.14,0.26c2.2,0.55,4.1,1.93,5.19,3.8c1,1.72,1.27,3.71,0.74,5.58
									C1228.57,725.81,1225.33,728.14,1221.63,728.14z M1221.43,713.71c-3.32,0-6.22,2.07-7.04,5.01
									c-0.46,1.65-0.23,3.4,0.65,4.91c0.97,1.66,2.66,2.9,4.65,3.39c0.64,0.16,1.29,0.24,1.94,0.24c3.31,0,6.2-2.07,7.04-5.02
									c0.46-1.65,0.22-3.39-0.66-4.9c-0.97-1.67-2.67-2.9-4.65-3.39C1222.72,713.79,1222.08,713.71,1221.43,713.71z"/>
							</g>
						</g>
						<g>
							<path class="st31" d="M1218.51,726.97c4.18,1.03,6.7,5,5.62,8.84c-1.09,3.86-5.34,6.14-9.51,5.09
								c-4.18-1.03-6.69-4.99-5.61-8.84C1210.08,728.21,1214.33,725.93,1218.51,726.97z"/>
							<path class="st35" d="M1210.48,737.15c0,0,8.6,4.27,12.89-3.29c0,0,1.1,5.16-4.41,6.93
								C1213.46,742.58,1210.94,737.44,1210.48,737.15z"/>
							<path class="st17" d="M1210.59,734.6c0,0-0.46-3.7,3.12-5.72c2.81-1.6,7.12,0.28,8.16,2.61c0,0-4.66-3.33-7.8-1.65
								C1212.26,730.8,1211.48,732.31,1210.59,734.6z"/>
							<g>
								<path d="M1216.67,741.59c-0.72,0-1.45-0.09-2.16-0.27c-2.21-0.55-4.1-1.93-5.19-3.8c-1-1.72-1.26-3.7-0.74-5.59
									c0.93-3.33,4.17-5.66,7.88-5.66c0.72,0,1.44,0.09,2.15,0.27c2.21,0.54,4.1,1.93,5.19,3.8c1,1.72,1.27,3.7,0.75,5.58
									C1223.61,739.26,1220.37,741.59,1216.67,741.59z M1216.47,727.16c-3.32,0-6.21,2.06-7.03,5.01
									c-0.46,1.65-0.23,3.39,0.65,4.9c0.97,1.67,2.67,2.9,4.65,3.39c0.64,0.16,1.29,0.24,1.94,0.24c3.3,0,6.2-2.06,7.04-5.02
									c0.46-1.65,0.23-3.39-0.66-4.9c-0.97-1.67-2.67-2.91-4.65-3.39C1217.76,727.23,1217.12,727.16,1216.47,727.16z"/>
							</g>
						</g>
						<g>
							<path class="st31" d="M1211.96,740.69c4.18,1.03,6.7,5,5.63,8.84c-1.09,3.85-5.34,6.13-9.51,5.09
								c-4.18-1.03-6.69-4.99-5.61-8.84C1203.54,741.93,1207.79,739.65,1211.96,740.69z"/>
							<path class="st35" d="M1203.94,750.87c0,0,8.61,4.28,12.89-3.29c0,0,1.09,5.16-4.41,6.93
								C1206.93,756.29,1204.39,751.15,1203.94,750.87z"/>
							<path class="st17" d="M1204.06,748.32c0,0-0.47-3.7,3.11-5.72c2.82-1.6,7.13,0.28,8.16,2.61c0,0-4.66-3.33-7.79-1.65
								C1205.72,744.52,1204.94,746.03,1204.06,748.32z"/>
							<g>
								<path d="M1210.13,755.31c-0.72,0-1.44-0.09-2.15-0.27c-2.21-0.55-4.11-1.93-5.19-3.8c-1-1.72-1.27-3.7-0.74-5.59
									c0.93-3.33,4.17-5.66,7.88-5.66c0.73,0,1.44,0.09,2.15,0.26c2.21,0.55,4.11,1.93,5.2,3.8c1,1.72,1.27,3.7,0.74,5.58
									C1217.07,752.98,1213.83,755.31,1210.13,755.31z M1209.93,740.88c-3.32,0-6.21,2.06-7.03,5.01
									c-0.46,1.65-0.23,3.39,0.65,4.9c0.97,1.67,2.66,2.91,4.65,3.39c0.64,0.16,1.29,0.24,1.94,0.24c3.31,0,6.2-2.07,7.04-5.03
									c0.46-1.65,0.23-3.39-0.65-4.9c-0.97-1.67-2.67-2.91-4.65-3.39C1211.23,740.96,1210.58,740.88,1209.93,740.88z"/>
							</g>
						</g>
					</g>
					<g>
						<g>
							<path class="st31" d="M1192.23,774.92c4.02,1.56,6,5.81,4.45,9.48c-1.57,3.69-6.08,5.41-10.08,3.84
								c-4.01-1.56-6-5.8-4.43-9.49C1183.71,775.08,1188.22,773.36,1192.23,774.92z"/>
							<path class="st35" d="M1182.97,784c0,0,7.99,5.34,13.21-1.61c0,0,0.43,5.26-5.26,6.32
								C1185.23,789.76,1183.38,784.34,1182.97,784z"/>
							<path class="st17" d="M1183.4,781.48c0,0,0.01-3.72,3.82-5.27c2.99-1.23,7.03,1.19,7.76,3.63c0,0-4.2-3.89-7.52-2.63
								C1185.54,777.93,1184.57,779.32,1183.4,781.48z"/>
							<g>
								<path d="M1189.65,789.27c-1.1,0-2.18-0.21-3.22-0.61c-2.12-0.83-3.82-2.44-4.66-4.43c-0.77-1.84-0.78-3.84-0.01-5.64
									c1.2-2.84,4.11-4.68,7.41-4.68c1.1,0,2.18,0.2,3.21,0.61c2.12,0.82,3.82,2.44,4.67,4.43c0.78,1.84,0.78,3.84,0.03,5.63
									C1195.87,787.42,1192.95,789.27,1189.65,789.27z M1189.17,774.79c-2.95,0-5.54,1.62-6.61,4.14
									c-0.67,1.58-0.67,3.34,0.02,4.95c0.75,1.78,2.27,3.21,4.17,3.96c0.93,0.36,1.91,0.55,2.9,0.55c2.95,0,5.54-1.63,6.62-4.15
									c0.67-1.57,0.65-3.33-0.03-4.94c-0.75-1.78-2.28-3.22-4.18-3.96C1191.13,774.97,1190.16,774.79,1189.17,774.79z"/>
							</g>
						</g>
						<g>
							<path class="st31" d="M1185.59,787.63c4.01,1.55,6,5.81,4.44,9.48c-1.57,3.68-6.08,5.4-10.08,3.83
								c-4.01-1.56-5.99-5.8-4.44-9.48C1177.07,787.78,1181.58,786.06,1185.59,787.63z"/>
							<path class="st35" d="M1176.34,796.7c0,0,7.99,5.34,13.2-1.62c0,0,0.43,5.26-5.26,6.32S1176.75,797.04,1176.34,796.7z"/>
							<path class="st17" d="M1176.77,794.18c0,0,0.01-3.73,3.82-5.27c2.99-1.23,7.03,1.19,7.75,3.63c0,0-4.2-3.9-7.52-2.63
								C1178.9,790.63,1177.94,792.03,1176.77,794.18z"/>
							<g>
								<path d="M1183.02,801.96c-1.11,0-2.19-0.21-3.22-0.61c-2.12-0.82-3.83-2.44-4.66-4.43c-0.77-1.83-0.78-3.83-0.02-5.63
									c1.2-2.84,4.11-4.68,7.42-4.68c1.09,0,2.18,0.2,3.21,0.61c2.12,0.82,3.82,2.44,4.66,4.43c0.78,1.84,0.78,3.83,0.03,5.63
									C1189.23,800.13,1186.31,801.96,1183.02,801.96z M1182.54,787.49c-2.95,0-5.55,1.62-6.61,4.14
									c-0.67,1.58-0.67,3.33,0.01,4.94c0.75,1.78,2.28,3.22,4.18,3.96c0.93,0.37,1.91,0.55,2.9,0.55c2.94,0,5.54-1.63,6.61-4.15
									c0.67-1.57,0.66-3.33-0.02-4.94c-0.76-1.78-2.28-3.22-4.18-3.96C1184.5,787.67,1183.53,787.49,1182.54,787.49z"/>
							</g>
						</g>
						<g>
							<path class="st31" d="M1177.35,800.39c4.02,1.56,6,5.81,4.45,9.49c-1.57,3.68-6.08,5.4-10.08,3.83
								c-4.01-1.56-6-5.81-4.44-9.49C1168.84,800.55,1173.34,798.84,1177.35,800.39z"/>
							<path class="st35" d="M1168.1,809.47c0,0,7.99,5.34,13.21-1.61c0,0,0.43,5.26-5.26,6.32
								C1170.36,815.24,1168.51,809.81,1168.1,809.47z"/>
							<path class="st17" d="M1168.53,806.96c0,0,0.01-3.73,3.83-5.27c2.99-1.24,7.03,1.19,7.75,3.62c0,0-4.2-3.89-7.52-2.63
								C1170.67,803.4,1169.7,804.8,1168.53,806.96z"/>
							<g>
								<path d="M1174.78,814.74c-1.1,0-2.18-0.21-3.22-0.61c-2.12-0.83-3.83-2.44-4.67-4.44c-0.77-1.83-0.78-3.83-0.01-5.63
									c1.2-2.85,4.11-4.68,7.42-4.68c1.1,0,2.18,0.2,3.21,0.61c2.12,0.83,3.83,2.44,4.67,4.44c0.78,1.83,0.78,3.83,0.02,5.63
									C1181,812.9,1178.08,814.74,1174.78,814.74z M1174.3,800.26c-2.95,0-5.54,1.62-6.61,4.14c-0.67,1.58-0.66,3.34,0.02,4.95
									c0.75,1.77,2.27,3.21,4.18,3.96c0.93,0.36,1.91,0.55,2.89,0.55c2.95,0,5.54-1.63,6.62-4.14c0.67-1.57,0.65-3.33-0.03-4.94
									c-0.75-1.78-2.28-3.23-4.17-3.96C1176.27,800.45,1175.29,800.26,1174.3,800.26z"/>
							</g>
						</g>
					</g>
					<g>
						<g>
							<path class="st31" d="M1157.85,825.08c3.29,2.78,3.8,7.45,1.14,10.42c-2.68,2.98-7.5,3.14-10.78,0.36
								c-3.29-2.77-3.79-7.43-1.12-10.41C1149.75,822.47,1154.56,822.3,1157.85,825.08z"/>
							<path class="st35" d="M1146.15,830.67c0,0,5.83,7.64,13.02,2.75c0,0-1.3,5.12-7.02,4.27
								C1146.43,836.85,1146.43,831.12,1146.15,830.67z"/>
							<path class="st17" d="M1147.38,828.43c0,0,1.21-3.52,5.32-3.75c3.23-0.2,6.27,3.4,6.17,5.95c0,0-2.72-5.04-6.26-4.93
								C1150.56,825.76,1149.18,826.76,1147.38,828.43z"/>
							<g>
								<path d="M1153.56,838.28c-2.04,0-4.04-0.74-5.63-2.09c-1.74-1.47-2.83-3.55-2.98-5.71c-0.14-1.98,0.5-3.88,1.81-5.34
									c1.41-1.58,3.51-2.49,5.75-2.49c2.04,0,4.04,0.74,5.63,2.09c1.74,1.46,2.83,3.54,2.98,5.7c0.14,1.99-0.5,3.89-1.8,5.34
									C1157.89,837.37,1155.79,838.28,1153.56,838.28z M1152.5,823.54c-1.99,0-3.84,0.8-5.09,2.19c-1.14,1.28-1.71,2.94-1.58,4.69
									c0.13,1.93,1.1,3.78,2.66,5.09c1.43,1.21,3.23,1.88,5.06,1.88c1.99,0,3.85-0.8,5.11-2.2c1.14-1.27,1.7-2.94,1.57-4.68
									c-0.14-1.93-1.11-3.79-2.67-5.1C1156.14,824.21,1154.34,823.54,1152.5,823.54z"/>
							</g>
						</g>
						<g>
							<path class="st31" d="M1147.47,834.94c3.29,2.77,3.8,7.44,1.13,10.42c-2.68,2.97-7.5,3.14-10.78,0.36
								c-3.29-2.78-3.8-7.43-1.12-10.41C1139.36,832.34,1144.17,832.17,1147.47,834.94z"/>
							<path class="st35" d="M1135.77,840.54c0,0,5.83,7.64,13.01,2.75c0,0-1.3,5.12-7.02,4.27
								C1136.04,846.72,1136.05,840.99,1135.77,840.54z"/>
							<path class="st17" d="M1136.99,838.3c0,0,1.21-3.52,5.32-3.75c3.23-0.2,6.27,3.4,6.16,5.94c0,0-2.71-5.04-6.26-4.92
								C1140.16,835.63,1138.8,836.63,1136.99,838.3z"/>
							<g>
								<path d="M1143.16,848.15c-2.04,0-4.04-0.74-5.63-2.09c-1.74-1.46-2.82-3.54-2.98-5.7c-0.14-1.98,0.51-3.88,1.81-5.34
									c1.41-1.58,3.51-2.49,5.75-2.49c2.04,0,4.05,0.74,5.64,2.09c1.73,1.46,2.82,3.54,2.98,5.7c0.14,1.98-0.5,3.88-1.79,5.34
									C1147.5,847.24,1145.4,848.15,1143.16,848.15z M1142.11,833.41c-1.98,0-3.84,0.8-5.09,2.19c-1.15,1.28-1.71,2.94-1.59,4.69
									c0.14,1.92,1.11,3.78,2.67,5.09c1.43,1.21,3.22,1.88,5.06,1.88c1.99,0,3.85-0.8,5.11-2.2c1.14-1.27,1.7-2.94,1.57-4.69
									c-0.14-1.93-1.1-3.78-2.67-5.09C1145.75,834.07,1143.95,833.41,1142.11,833.41z"/>
							</g>
						</g>
					</g>
				</g>
			</g>
			<g>
				<path class="st0" d="M1123.6,894.9c-5.35,0-9.52,25.7-7.08,33.33c3.18,9.95,17.45,9.95,17.35-4.86
					C1133.81,914.16,1127.65,894.9,1123.6,894.9z"/>
				<path class="st17" d="M1128.82,907.1c-7.14-7.85-9.48,16.08-9.48,16.08s-0.37-8.05,1.72-15.27
					C1123.58,899.15,1128.82,907.1,1128.82,907.1z"/>
				<path class="st36" d="M1129.69,904.2c0.64,6.36,1.93,29.47-13.17,24.04c3.18,9.95,17.45,9.95,17.35-4.86
					C1133.84,918.38,1132.01,910.43,1129.69,904.2z"/>
				<g>
					<path d="M1123.87,894.23c-7.36,0.83-8.43,14.95-9.13,20.27c-1,7.4-1.86,18.99,7.94,20.65c9.39,1.59,13.27-6.63,12.62-14.77
						c-0.48-5.98-2.16-12-4.25-17.59c-1.06-2.82-2.87-8.16-6.45-8.59c-0.77-0.09-3.65,1.22-2,1.42c2.53,0.31,4.12,5.15,4.93,7.08
						c1.69,4,2.8,8.26,3.7,12.5c1.27,5.97,2.57,22.3-8.22,17.96c-6.99-2.82-5.92-12.21-5.28-18.15c0.42-3.95,1.21-7.86,2.26-11.68
						c0.31-1.12,2.06-7.59,3.35-7.74C1124.7,895.43,1126.07,893.98,1123.87,894.23z"/>
				</g>
				<g>
					<path class="st31" d="M1145.1,878.91c0,11.18-9.06,20.24-20.24,20.24c-11.18,0-20.24-9.06-20.24-20.24
						c0-11.18,9.06-20.24,20.24-20.24C1136.04,858.68,1145.1,867.74,1145.1,878.91z"/>
					<path class="st17" d="M1110.77,883.07c0,0-2.12-15.89,10.84-18.97c11.38-2.72,16.62,9.03,16.62,9.03s-6.68-7.95-15.36-5.42
						C1113.44,870.46,1110.77,883.07,1110.77,883.07z"/>
					<path class="st37" d="M1129.92,891.74c-11.45,4.37-20.53-2.79-24.3-6.57c2.63,8.11,10.25,13.97,19.25,13.97
						c11.18,0,20.24-9.06,20.24-20.24c0-4.26-1.32-8.21-3.57-11.47C1141.9,873.01,1141.65,887.28,1129.92,891.74z"/>
					<g>
						<path d="M1143.53,879.1c-0.32,10.68-8.26,19.42-19.29,19.09c-9.93-0.3-17.16-9.13-18-18.47c-0.99-11.05,8.44-20.42,19.26-20.1
							c10.42,0.32,17.74,9.9,18.03,19.7c0.04,1.05,3.18,0.41,3.14-0.84c-0.36-12.22-10.37-21.06-22.44-20.69
							c-11.55,0.34-20.84,9.89-21.18,21.31c-0.37,12.34,10.73,21.28,22.44,20.93c11.54-0.34,20.84-9.89,21.18-21.31
							C1146.71,877.38,1143.56,878.02,1143.53,879.1z"/>
					</g>
				</g>
				<g>
					<path class="st31" d="M1135.34,878.91c0,11.18-4.57,20.24-10.21,20.24c-5.64,0-10.21-9.06-10.21-20.24
						c0-11.18,4.57-20.24,10.21-20.24C1130.77,858.68,1135.34,867.74,1135.34,878.91z"/>
					<path class="st17" d="M1118.03,883.07c0,0-1.07-15.89,5.47-18.97c5.75-2.72,8.39,9.03,8.39,9.03s-3.38-7.95-7.75-5.42
						C1119.37,870.46,1118.03,883.07,1118.03,883.07z"/>
					<path class="st37" d="M1127.69,891.74c-5.78,4.37-10.36-2.79-12.26-6.57c1.33,8.11,5.18,13.97,9.71,13.97
						c5.64,0,10.21-9.06,10.21-20.24c0-4.26-0.67-8.21-1.79-11.47C1133.73,873.01,1133.6,887.28,1127.69,891.74z"/>
					<g>
						<path d="M1134.23,879.22c-0.08,4.38-2.3,23.2-10.99,18.69c-6.1-3.17-7.09-13.39-7.2-19.29c-0.08-4.44,2.42-23.14,10.99-18.69
							C1133.13,863.1,1134.12,873.32,1134.23,879.22c0.01,0.45,2.24,0.09,2.23-0.6c-0.11-6.3-2.22-21.95-11.89-20.34
							c-8.91,1.49-10.62,13.72-10.76,20.94c-0.11,6.32,2.36,21.92,11.9,20.34c8.91-1.48,10.62-13.72,10.75-20.94
							C1136.47,878.19,1134.24,878.52,1134.23,879.22z"/>
					</g>
				</g>
				<g>
					<g>
						<path class="st31" d="M1126.09,859.57c-4.71,0.65-9.12-2.35-9.85-6.71c-0.73-4.36,2.5-8.42,7.21-9.07
							c4.72-0.65,9.13,2.36,9.85,6.71C1134.04,854.87,1130.81,858.93,1126.09,859.57z"/>
						<g>
							<path d="M1126.61,843.9c1.96,0.19,3.84,1.13,5.26,2.52c1.39,1.41,2.24,3.32,2.32,5.28c0.11,1.97-0.62,3.96-1.93,5.54
								c-1.32,1.57-3.26,2.7-5.39,3.13c-2.12,0.42-4.4,0.15-6.33-0.77c-1.91-0.94-3.49-2.47-4.3-4.3c-0.84-1.81-0.94-3.86-0.33-5.69
								c0.64-1.81,1.93-3.38,3.61-4.31c-2.91,2.48-3.54,6.46-1.87,9.4c1.6,2.95,5.4,4.61,8.78,3.86c3.41-0.61,6.1-3.57,6.19-6.87
								C1132.81,848.41,1130.39,845.02,1126.61,843.9z"/>
						</g>
					</g>
					<g>
						<path class="st31" d="M1124.04,847.3c-2.62,0.36-4.41,2.63-4,5.04c0.42,2.42,2.87,4.09,5.49,3.72
							c2.61-0.36,4.41-2.62,3.99-5.04C1129.11,848.6,1126.66,846.94,1124.04,847.3z"/>
						<path class="st37" d="M1128.29,854.05c0,0-5.54,2.06-7.67-2.83c0,0-1,3.08,2.25,4.52
							C1126.12,857.17,1128,854.19,1128.29,854.05z"/>
						<g>
							<path d="M1120.18,854.45L1120.18,854.45c-0.44-0.63-0.73-1.33-0.85-2.07c-0.48-2.8,1.56-5.42,4.53-5.83
								c2.16-0.3,4.33,0.63,5.53,2.36c0.44,0.63,0.72,1.32,0.85,2.07c0.48,2.8-1.56,5.42-4.52,5.83
								C1123.55,857.13,1121.38,856.2,1120.18,854.45z M1128.26,849.7c-0.85-1.22-2.43-1.87-4.03-1.65
								c-2.26,0.32-3.82,2.22-3.48,4.26c0.08,0.49,0.27,0.94,0.56,1.36c0.85,1.23,2.44,1.88,4.03,1.65
								c2.26-0.31,3.82-2.22,3.48-4.26C1128.73,850.57,1128.54,850.11,1128.26,849.7z"/>
						</g>
						<path class="st17" d="M1128.39,852.48c0,0,0.52-2.23-1.54-3.7c-1.62-1.16-4.38-0.29-5.16,1.08c0,0,3.07-1.74,4.87-0.51
							C1127.61,850.05,1128,851.02,1128.39,852.48z"/>
					</g>
				</g>
			</g>
		</g>
		<path class="st13" d="M1120.25,214.98c-1.67-5.02-2.42-9.72-2.98-14.45c-0.5-4.71-0.68-9.41-0.48-14.13
			c0.19-4.72,0.76-9.47,1.83-14.2c1.13-4.72,2.63-9.46,5.45-13.95c1.9,4.94,2.77,9.67,3.41,14.42c0.58,4.73,0.78,9.46,0.58,14.21
			c-0.21,4.75-0.81,9.53-1.97,14.27C1124.87,205.87,1123.25,210.61,1120.25,214.98z"/>
		<g class="st40">
			<path d="M1421.52,688.69c-2.34,7.82-3.8,16.25-6.69,23.8c-2.9,7.55-5.93,15.02-8.94,22.49c-6.07,14.9-12.32,29.66-18.53,44.41
				c-12.5,29.44-24.97,58.75-37.12,88.13l-4.53,11.02l-4.47,11.04c-1.55,3.66-2.97,7.36-4.46,11.05l-2.21,5.53
				c-0.7,1.85-1.43,3.7-2.17,5.54c-1.44,3.69-2.97,7.37-4.35,11.08c-1.38,3.72-2.85,7.41-4.3,11.1l-4.18,11.15
				c-1.47,3.7-2.78,7.44-4.16,11.16c-5.49,14.91-10.86,29.89-15.89,45.05c-1.36,3.77-2.5,7.59-3.77,11.39l-1.9,5.71l-1.8,5.74
				c-0.61,1.91-1.19,3.84-1.83,5.75c-0.64,1.92-1.26,3.84-1.81,5.77c-1.18,3.86-2.36,7.73-3.67,11.61
				c-0.11-4.07-0.08-8.13-0.06-12.21c0.03-4.08,0.31-8.13,0.53-12.2c0.12-2.03,0.2-4.08,0.39-6.1l0.58-6.08
				c0.41-4.05,0.81-8.11,1.38-12.14c2.05-16.18,5.27-32.16,9.06-48c3.78-15.84,8.38-31.46,13.52-46.88
				c5.19-15.4,10.77-30.66,17.03-45.63c12.43-29.97,26.7-59.11,42.65-87.26c8-14.06,16.4-27.89,25.27-41.42
				C1403.93,715.75,1411.84,701.74,1421.52,688.69z"/>
		</g>
		<g class="st40">
			<path d="M1342.18,653.39c2.99-9.35,5.61-18.58,8.07-27.81c2.43-9.23,4.69-18.44,6.69-27.66c4.02-18.44,7.23-36.92,9.41-55.53
				c0.62-4.64,1-9.31,1.53-13.97c0.36-4.67,0.86-9.34,1.13-14.02c0.15-2.34,0.38-4.68,0.48-7.03c0.08-2.35,0.23-4.69,0.37-7.04
				c0.18-2.35,0.17-4.7,0.27-7.06c0.08-2.36,0.24-4.72,0.26-7.08c0.03-4.72,0.26-9.46,0.21-14.21l0.06-7.14l-0.07-7.16
				c0.02-2.4,0.02-4.8-0.06-7.2c-0.04-2.4-0.1-4.81-0.09-7.24c0.02-2.43-0.11-4.84-0.14-7.27c-0.03-2.44-0.06-4.88,0-7.36
				c0.99,2.25,1.88,4.53,2.78,6.82c0.86,2.3,1.8,4.58,2.5,6.92c1.49,4.66,3.01,9.36,4.14,14.13l1.74,7.17
				c0.51,2.4,0.94,4.82,1.41,7.24c0.48,2.42,0.91,4.84,1.23,7.28c0.35,2.44,0.71,4.88,1.01,7.32c1.12,9.79,1.75,19.66,1.67,29.54
				c0.08,4.95-0.24,9.88-0.43,14.82c-0.39,4.93-0.73,9.86-1.38,14.77c-1.17,9.82-2.89,19.58-5.25,29.18
				c-0.55,2.41-1.21,4.79-1.85,7.18c-0.32,1.19-0.63,2.39-0.98,3.57l-1.09,3.54c-1.4,4.73-3.04,9.4-4.77,14.02
				c-3.49,9.23-7.55,18.24-12.26,26.89c-2.4,4.31-4.89,8.55-7.63,12.65C1348.39,645.73,1345.49,649.73,1342.18,653.39z"/>
		</g>
		<g class="st40">
			<path d="M883.26,550.36c0.68-0.93,0.88-2.06,1.04-3.16c0.15-1.11,0.21-2.23,0.22-3.35c0.02-2.25-0.12-4.5-0.3-6.76
				c-0.35-4.51-0.89-9.01-1.44-13.52l-3.56-27.07c-2.37-18.07-4.46-36.23-6.02-54.47c-3.08-36.47-4.1-73.31-1.58-110.15
				c0.64-9.2,1.52-18.41,2.61-27.58c1.14-9.13,2.41-18.27,3.96-27.37c1.6-9.1,3.33-18.2,5.52-27.23c1.08-4.51,2.24-9.02,3.47-13.5
				l1.98-6.7c0.71-2.22,1.37-4.45,2.12-6.66c1.45-4.43,3.01-8.82,4.73-13.16c1.68-4.35,3.49-8.66,5.41-12.9
				c3.88-8.49,8.25-16.73,13.09-24.67c9.75-15.83,21.35-30.3,34.32-43.22c-4.88,7.75-9.58,15.55-14.01,23.44
				c-4.4,7.91-8.47,15.94-12.13,24.11c-1.81,4.1-3.59,8.19-5.18,12.36c-1.65,4.14-3.15,8.34-4.59,12.54
				c-1.37,4.24-2.77,8.45-3.98,12.73c-0.63,2.13-1.22,4.28-1.78,6.43c-0.59,2.14-1.13,4.3-1.68,6.46
				c-4.25,17.28-7.3,34.89-9.67,52.66c-1.2,8.88-2.28,17.81-3.16,26.76c-0.99,8.91-1.73,17.84-2.34,26.8
				c-2.5,35.82-2.79,71.92-2.47,108.17c0.12,18.13,0.45,36.3,0.5,54.55c0,9.13-0.02,18.27-0.38,27.45
				c-0.17,4.59-0.44,9.18-0.92,13.78c-0.27,2.3-0.58,4.59-1.06,6.87c-0.24,1.14-0.52,2.27-0.91,3.37
				C884.64,548.47,884.15,549.61,883.26,550.36z"/>
		</g>
		<g class="st40">
			<path d="M770.88,1524.39c4.82,14.11,9.1,28.4,13.08,42.76c4,14.36,7.68,28.81,11.15,43.31c6.91,29.01,12.83,58.26,17.91,87.67
				c10.07,58.83,16.72,118.35,19.14,178.19c0.53,14.96,0.88,29.93,0.94,44.91c-0.07,14.98-0.27,29.97-0.89,44.96
				c-0.7,14.98-1.57,29.96-2.94,44.91c-0.75,7.47-1.41,14.94-2.33,22.4c-0.85,7.46-1.92,14.9-2.94,22.33
				c-4.43,29.71-10.49,59.23-19.09,88.01c-1.12,3.59-2.13,7.19-3.33,10.76l-3.55,10.68c-2.56,7.06-5.06,14.12-7.95,21.04
				c-5.61,13.89-11.99,27.45-19.22,40.49c19.08-56.49,28.7-114.7,33.62-173.23c4.88-58.55,4.99-117.44,2.72-176.27
				c-2.35-58.85-7.21-117.68-13.58-176.46c-3.15-29.4-6.72-58.78-10.54-88.18C779.3,1583.27,775.19,1553.88,770.88,1524.39z"/>
		</g>
		<g>
			<path class="st23" d="M862.98,717.62c0.52,0.37,42.06,71.31-5.56,86.26c-13.19,4.14-33.19-21.06-33.19-21.06
				s-14.43-2.98-17.53-6.5c-3.1-3.52-20.11-63.47-20.11-63.47l3.23-20.83l21.62-14.61l25.05,1.7l33.01,11.95l-1.51,22.62
				L862.98,717.62z"/>
			<path class="st24" d="M787.07,659.32c0.29-0.52,1.72-2.21,2.76-3.43c0.97-1.13,2.12-2.17,3.5-3.04
				c2.99-1.87,5.58-2.27,10.57-3.26l40.31-7.99c9.04-1.79,19.44,0.62,26.71,6.19l29.48,22.58c5.29,4.05,5.47,9.66,3.14,14.34
				l-11.26,24.37c-1.88,3.78-7.13,5.08-12.36,2.76c-7.78-3.45-8.52-7.44-7.65-13.21c1.47-9.76-7.58-21.86-30.78-25.52
				c-23.2-3.66-50.36,5.67-50.36,5.67l1.81-3.38C787.96,671.68,785.33,662.41,787.07,659.32z"/>
			<path class="st23" d="M780.67,662.13c0.29-0.52,1.72-2.21,2.76-3.43c0.97-1.13,2.12-2.17,3.5-3.04
				c2.99-1.87,5.58-2.27,10.57-3.26l40.31-7.99c9.04-1.79,19.44,0.62,26.71,6.19L894,673.18c5.29,4.05,5.47,9.66,3.14,14.34
				l-11.26,24.37c-1.88,3.78-7.13,5.08-12.36,2.76c-7.78-3.45-8.52-7.44-7.65-13.21c1.47-9.76-7.58-21.86-30.78-25.52
				c-23.2-3.66-50.36,5.67-50.36,5.67l1.81-3.38C781.55,674.49,778.92,665.22,780.67,662.13z"/>
			<path class="st25" d="M774.19,667.4c0.29-0.52,1.72-2.21,2.76-3.43c0.97-1.13,2.12-2.17,3.5-3.04c2.99-1.87,5.58-2.27,10.57-3.26
				l40.31-7.99c9.04-1.79,19.44,0.62,26.71,6.19l29.48,22.58c5.29,4.05,5.47,9.66,3.14,14.34l-11.26,24.37
				c-1.88,3.78-7.13,5.08-12.36,2.76c-7.78-3.45-8.52-7.44-7.65-13.21c1.47-9.76-7.58-21.86-30.78-25.52
				c-23.2-3.66-50.36,5.67-50.36,5.67l1.81-3.38C775.08,679.75,772.45,670.49,774.19,667.4z"/>
			<g>
				<path class="st6" d="M875.57,790.54c52.98,113.11,38.25,290.72,37.52,346.32c-0.16,12.08-4.49,91.94-8.12,103.47
					c-46.83,148.34-140.36,37.22-172.2-88.75c-19.03-75.29,12.22-221.62,55.72-342.4c3.62-10.05,4.04-20.97,1.23-31.27l-24.9-91.29
					c-0.03-6.35,4.21-11.92,10.34-13.57l50.9-13.73c4.85-1.31,10.01-0.74,14.45,1.59l26.04,13.64c6.63,3.47,9.97,11.07,8.06,18.3
					l-4.36,16.51c-0.8,3.04-4.1,4.73-7,3.52c-5-2.09-11.44-6.43-10.75-14.84c0.35-4.21-2.27-8.11-6.18-9.69l-9.53-3.85
					c-3.66-1.48-7.78-1.33-11.32,0.42c-6.77,3.35-18.65,8.69-28.32,10.26c-3.39,0.55-4.88,4.57-2.76,7.28
					c4.62,5.91,6.28,10.93,7.17,16.86c1.5,9.92,5.91,19.11,12.64,26.56c10.1,11.19,9.41,29.71,28.3,49.25
					C859.66,812.86,875.57,790.54,875.57,790.54z"/>
				<g>
					<path class="st0" d="M891.54,827.4c-22.73,5.08-46.5,5.52-69.44,1.5c-11.21-1.96-22.24-4.93-32.9-8.91
						c-4.7-1.75-11.36-3.47-15.17-6.87c-0.19,0.28-0.37,0.56-0.56,0.84c0.51-0.54,1.06-1.02,1.67-1.45c1.16-0.91,2.42-1.7,3.74-2.36
						c2.76-1.36,5.75-2.03,8.81-2.22c6.65-0.4,6.7-10.81,0-10.41c-8.94,0.54-31.89,8.71-22.35,21.42c3.8,5.06,11.31,7.19,16.93,9.46
						c7.2,2.9,14.58,5.32,22.09,7.27c29.34,7.62,60.34,8.36,89.94,1.75C900.84,835.98,898.08,825.94,891.54,827.4L891.54,827.4z"/>
				</g>
				<g>
					<path class="st0" d="M895.37,835.96c-11.09,2.4-21.87,6-32.99,8.28c-11.15,2.28-22.51,3.32-33.88,3.23
						c-11.06-0.08-22.09-1.23-32.92-3.53c-3.28-0.7-31.29-6.96-28.78-11.64c-1.5,0.86-3,1.72-4.49,2.58
						c5.08-0.56,10.15-1.12,15.23-1.68c6.58-0.73,6.66-11.14,0-10.41c-4.12,0.46-8.25,0.91-12.37,1.37
						c-3.68,0.41-6.34,0.54-8.03,4.17c-2.54,5.46,0.05,11.56,4.57,15.02c5.57,4.27,13.59,6.08,20.24,7.95
						c7.5,2.11,15.13,3.69,22.84,4.77c15.29,2.15,30.76,2.42,46.09,0.51c16.17-2.01,31.41-7.15,47.27-10.58
						C904.68,844.58,901.91,834.55,895.37,835.96L895.37,835.96z"/>
				</g>
				<path class="st6" d="M870.8,648.09l10.02-9.47c4.26-3.66,10-5.41,15.47-4.15c3.67,0.84,7.07,3.04,8.02,8.06
					c0.78,4.11-0.57,8.33-3.27,11.52c-1.7,2-3.66,6.86-7.44,11.58l-8.77-7.01L870.8,648.09z"/>
			</g>
		</g>
		<g>
			<path class="st23" d="M862.98,717.62c0.52,0.37,42.06,71.31-5.56,86.26c-13.19,4.14-33.19-21.06-33.19-21.06
				s-14.43-2.98-17.53-6.5c-3.1-3.52-20.11-63.47-20.11-63.47l3.23-20.83l21.62-14.61l25.05,1.7l33.01,11.95l-1.51,22.62
				L862.98,717.62z"/>
			<path class="st24" d="M787.07,659.32c0.29-0.52,1.72-2.21,2.76-3.43c0.97-1.13,2.12-2.17,3.5-3.04
				c2.99-1.87,5.58-2.27,10.57-3.26l40.31-7.99c9.04-1.79,19.44,0.62,26.71,6.19l29.48,22.58c5.29,4.05,5.47,9.66,3.14,14.34
				l-11.26,24.37c-1.88,3.78-7.13,5.08-12.36,2.76c-7.78-3.45-8.52-7.44-7.65-13.21c1.47-9.76-7.58-21.86-30.78-25.52
				c-23.2-3.66-50.36,5.67-50.36,5.67l1.81-3.38C787.96,671.68,785.33,662.41,787.07,659.32z"/>
			<path class="st23" d="M780.67,662.13c0.29-0.52,1.72-2.21,2.76-3.43c0.97-1.13,2.12-2.17,3.5-3.04
				c2.99-1.87,5.58-2.27,10.57-3.26l40.31-7.99c9.04-1.79,19.44,0.62,26.71,6.19L894,673.18c5.29,4.05,5.47,9.66,3.14,14.34
				l-11.26,24.37c-1.88,3.78-7.13,5.08-12.36,2.76c-7.78-3.45-8.52-7.44-7.65-13.21c1.47-9.76-7.58-21.86-30.78-25.52
				c-23.2-3.66-50.36,5.67-50.36,5.67l1.81-3.38C781.55,674.49,778.92,665.22,780.67,662.13z"/>
			<path class="st25" d="M774.19,667.4c0.29-0.52,1.72-2.21,2.76-3.43c0.97-1.13,2.12-2.17,3.5-3.04c2.99-1.87,5.58-2.27,10.57-3.26
				l40.31-7.99c9.04-1.79,19.44,0.62,26.71,6.19l29.48,22.58c5.29,4.05,5.47,9.66,3.14,14.34l-11.26,24.37
				c-1.88,3.78-7.13,5.08-12.36,2.76c-7.78-3.45-8.52-7.44-7.65-13.21c1.47-9.76-7.58-21.86-30.78-25.52
				c-23.2-3.66-50.36,5.67-50.36,5.67l1.81-3.38C775.08,679.75,772.45,670.49,774.19,667.4z"/>
			<g>
				<path class="st6" d="M875.57,790.54c52.98,113.11,38.25,290.72,37.52,346.32c-0.16,12.08-4.49,91.94-8.12,103.47
					c-46.83,148.34-140.36,37.22-172.2-88.75c-19.03-75.29,12.22-221.62,55.72-342.4c3.62-10.05,4.04-20.97,1.23-31.27l-24.9-91.29
					c-0.03-6.35,4.21-11.92,10.34-13.57l50.9-13.73c4.85-1.31,10.01-0.74,14.45,1.59l26.04,13.64c6.63,3.47,9.97,11.07,8.06,18.3
					l-4.36,16.51c-0.8,3.04-4.1,4.73-7,3.52c-5-2.09-11.44-6.43-10.75-14.84c0.35-4.21-2.27-8.11-6.18-9.69l-9.53-3.85
					c-3.66-1.48-7.78-1.33-11.32,0.42c-6.77,3.35-18.65,8.69-28.32,10.26c-3.39,0.55-4.88,4.57-2.76,7.28
					c4.62,5.91,6.28,10.93,7.17,16.86c1.5,9.92,5.91,19.11,12.64,26.56c10.1,11.19,9.41,29.71,28.3,49.25
					C859.66,812.86,875.57,790.54,875.57,790.54z"/>
				<g>
					<path class="st13" d="M891.54,827.4c-22.73,5.08-46.5,5.52-69.44,1.5c-11.21-1.96-22.24-4.93-32.9-8.91
						c-4.7-1.75-11.36-3.47-15.17-6.87c-0.19,0.28-0.37,0.56-0.56,0.84c0.51-0.54,1.06-1.02,1.67-1.45c1.16-0.91,2.42-1.7,3.74-2.36
						c2.76-1.36,5.75-2.03,8.81-2.22c6.65-0.4,6.7-10.81,0-10.41c-8.94,0.54-31.89,8.71-22.35,21.42c3.8,5.06,11.31,7.19,16.93,9.46
						c7.2,2.9,14.58,5.32,22.09,7.27c29.34,7.62,60.34,8.36,89.94,1.75C900.84,835.98,898.08,825.94,891.54,827.4L891.54,827.4z"/>
				</g>
				<g>
					<path class="st13" d="M895.37,835.96c-11.09,2.4-21.87,6-32.99,8.28c-11.15,2.28-22.51,3.32-33.88,3.23
						c-11.06-0.08-22.09-1.23-32.92-3.53c-3.28-0.7-31.29-6.96-28.78-11.64c-1.5,0.86-3,1.72-4.49,2.58
						c5.08-0.56,10.15-1.12,15.23-1.68c6.58-0.73,6.66-11.14,0-10.41c-4.12,0.46-8.25,0.91-12.37,1.37
						c-3.68,0.41-6.34,0.54-8.03,4.17c-2.54,5.46,0.05,11.56,4.57,15.02c5.57,4.27,13.59,6.08,20.24,7.95
						c7.5,2.11,15.13,3.69,22.84,4.77c15.29,2.15,30.76,2.42,46.09,0.51c16.17-2.01,31.41-7.15,47.27-10.58
						C904.68,844.58,901.91,834.55,895.37,835.96L895.37,835.96z"/>
				</g>
				<path class="st6" d="M870.8,648.09l10.02-9.47c4.26-3.66,10-5.41,15.47-4.15c3.67,0.84,7.07,3.04,8.02,8.06
					c0.78,4.11-0.57,8.33-3.27,11.52c-1.7,2-3.66,6.86-7.44,11.58l-8.77-7.01L870.8,648.09z"/>
			</g>
		</g>
		<g class="st51">
			<path d="M753.32,1212.69c14.02,3.46,27.91,7.28,41.78,11.16l20.79,5.84c6.92,1.96,13.83,3.94,20.77,5.8
				c6.91,1.9,13.87,3.8,20.76,5.2l2.56,0.49c0.85,0.15,1.65,0.22,2.49,0.29c1.68,0.11,3.39,0.08,5.12-0.02
				c3.46-0.22,6.95-0.75,10.43-1.4c6.96-1.36,13.88-3.24,20.73-5.36c6.87-2.09,13.67-4.45,20.46-6.91
				c-6.35,3.44-12.96,6.41-19.66,9.15c-6.73,2.67-13.6,5.08-20.72,6.82c-3.56,0.87-7.17,1.61-10.9,1.94
				c-1.86,0.17-3.75,0.26-5.67,0.2c-0.95-0.04-1.96-0.11-2.88-0.24l-2.76-0.43l-1.38-0.22l-1.34-0.29l-2.68-0.58
				c-1.79-0.37-3.54-0.82-5.31-1.25c-3.53-0.84-7.02-1.79-10.52-2.7c-6.95-1.97-13.89-3.96-20.79-6.08
				c-6.88-2.17-13.77-4.3-20.6-6.63C780.31,1222.89,766.72,1218.06,753.32,1212.69z"/>
		</g>
		<path class="st49" d="M1487.99,784.86c0,0,54.36,178.85,50.85,263.01h-126.8L1487.99,784.86z"/>
		<path class="st23" d="M840.27,1316.09c0.4,0.6,78.66,50.02,97.28-3c5.16-14.68-22.44-38.15-22.44-38.15s-2.81-16.36-6.65-19.98
			c-3.84-3.62-70.67-25.03-70.67-25.03l-23.56,2.85l-17.25,23.78l0.97,28.26l12.2,37.6l25.52-0.85L840.27,1316.09z"/>
		<path class="st24" d="M777.53,1228.47c-0.59,0.31-2.56,1.85-3.97,2.98c-1.31,1.05-2.52,2.31-3.55,3.83
			c-2.22,3.29-2.76,6.19-4.06,11.77l-10.51,45.06c-2.36,10.1-0.04,21.9,5.95,30.29l24.29,34.03c4.36,6.11,10.66,6.52,16.02,4.08
			l27.85-11.75c4.33-1.97,5.99-7.83,3.57-13.81c-3.59-8.89-8.05-9.87-14.58-9.11c-11.04,1.29-24.32-9.35-27.56-35.6
			c-3.24-26.25,8.28-56.46,8.28-56.46l-3.87,1.91C791.4,1229.93,781.06,1226.62,777.53,1228.47z"/>
		<path class="st23" d="M780.93,1221.36c-0.59,0.31-2.56,1.85-3.97,2.98c-1.31,1.05-2.52,2.31-3.55,3.83
			c-2.22,3.29-2.76,6.19-4.06,11.77L758.84,1285c-2.36,10.1-0.04,21.9,5.95,30.29l24.29,34.03c4.36,6.11,10.66,6.52,16.02,4.08
			l27.85-11.75c4.33-1.97,5.99-7.83,3.57-13.81c-3.59-8.89-8.05-9.87-14.58-9.11c-11.04,1.29-24.32-9.35-27.56-35.6
			c-3.24-26.25,8.28-56.46,8.28-56.46l-3.87,1.91C794.8,1222.83,784.47,1219.52,780.93,1221.36z"/>
		<path class="st25" d="M787.1,1214.28c-0.59,0.31-2.56,1.85-3.97,2.98c-1.31,1.05-2.52,2.31-3.55,3.83
			c-2.22,3.29-2.76,6.19-4.06,11.77l-10.51,45.06c-2.36,10.1-0.04,21.9,5.95,30.29l24.29,34.03c4.36,6.11,10.66,6.52,16.02,4.08
			l27.85-11.75c4.33-1.97,5.99-7.83,3.57-13.81c-3.59-8.89-8.05-9.87-14.58-9.11c-11.04,1.28-24.32-9.35-27.56-35.6
			c-3.24-26.25,8.28-56.46,8.28-56.46l-3.87,1.91C800.97,1215.74,790.64,1212.43,787.1,1214.28z"/>
		<path class="st44" d="M921.86,1333.01c125.29,63.89,325.72,54.02,388.31,55.3c13.6,0.28,103.64-1.58,116.74-5.24
			c168.71-47.1,47.18-156.55-93.38-197.14c-84.01-24.26-249.86,5.38-387.43,49.78c-11.44,3.69-23.75,3.75-35.24,0.2l-101.79-31.47
			c-7.14-0.28-13.57,4.29-15.66,11.12l-17.37,56.76c-1.65,5.4-1.21,11.23,1.24,16.32l14.37,29.81c3.66,7.59,12.08,11.64,20.29,9.76
			l18.75-4.29c3.45-0.79,5.47-4.44,4.22-7.74c-2.16-5.71-6.8-13.12-16.29-12.66c-4.75,0.23-9.04-2.86-10.67-7.32l-3.98-10.87
			c-1.53-4.18-1.2-8.8,0.9-12.72c4.03-7.49,10.49-20.65,12.61-31.48c0.74-3.8,5.33-5.32,8.29-2.83c6.48,5.42,12.07,7.48,18.7,8.71
			c11.11,2.07,21.28,7.38,29.41,15.23c12.21,11.79,33.08,11.71,54.35,33.71C947.57,1315.95,921.86,1333.01,921.86,1333.01z"/>
		<g class="st45">
			<path d="M1475.72,1258.27c-2.23-1.74-4.26-3.7-6.33-5.58l-6.2-5.62c-4.15-3.69-8.34-7.29-12.65-10.72
				c-8.59-6.88-17.61-13.09-27.07-18.52c-4.72-2.74-9.57-5.23-14.53-7.52c-2.45-1.2-4.99-2.2-7.5-3.3
				c-2.54-0.99-5.08-2.04-7.67-2.94c-2.56-0.99-5.19-1.77-7.8-2.67l-3.96-1.18l-1.98-0.6l-2-0.53c-5.33-1.55-10.77-2.65-16.27-3.95
				c2.81-0.1,5.64-0.26,8.46-0.12c1.41,0.03,2.82,0.11,4.24,0.17c1.41,0.1,2.82,0.26,4.23,0.38c2.83,0.23,5.62,0.75,8.44,1.18
				c2.78,0.58,5.59,1.08,8.34,1.84c5.54,1.37,10.95,3.22,16.24,5.38c2.66,1.05,5.23,2.29,7.83,3.49c2.55,1.3,5.09,2.61,7.56,4.04
				c9.91,5.7,19.08,12.65,27.23,20.56c4.07,3.96,7.9,8.16,11.45,12.55C1469.34,1249.01,1472.52,1253.66,1475.72,1258.27z"/>
		</g>
		<g class="st45">
			<path d="M921.64,1333.67c12.03,4.15,24.01,8.39,36.08,12.36c6.04,1.98,12.07,3.97,18.12,5.89l9.09,2.86
				c3.02,0.92,6.04,1.8,9.09,2.59c12.19,3.22,24.65,5.42,37.19,7.25c12.53,1.86,25.13,3.43,37.75,5.02
				c6.31,0.8,12.63,1.61,18.88,2.35l9.43,1.03l9.45,0.9c12.61,1.12,25.27,1.95,37.93,2.63c25.33,1.41,50.7,2.27,76.09,2.74
				c25.38,0.61,50.79,0.8,76.19,0.83c12.7,0.04,25.4,0.03,38.11-0.05l38.11-0.36c12.7-0.15,25.4-0.4,38.1-0.68l9.52-0.21l2.37-0.06
				c0.7-0.02,1.44-0.09,2.18-0.18c1.49-0.18,3.01-0.44,4.52-0.75c6.07-1.27,12.1-3.13,18.02-5.25c11.85-4.24,23.33-9.65,33.98-16.43
				c5.32-3.39,10.4-7.17,15.05-11.46c4.65-4.27,8.87-9.07,12.14-14.54c-2.94,5.65-6.9,10.75-11.35,15.34
				c-4.48,4.57-9.46,8.65-14.68,12.36c-10.48,7.39-21.95,13.3-33.84,18.13c-5.98,2.36-12.06,4.46-18.39,5.99
				c-1.59,0.38-3.19,0.71-4.85,0.97c-0.83,0.12-1.67,0.23-2.56,0.29l-2.4,0.13l-9.53,0.5c-12.71,0.63-25.43,1.11-38.14,1.55
				l-19.08,0.61l-19.08,0.43c-12.72,0.25-25.45,0.43-38.17,0.56c-25.45,0.17-50.9,0.02-76.36-0.45
				c-25.45-0.59-50.91-1.51-76.35-3.12c-12.72-0.85-25.43-1.85-38.13-3.15l-9.52-1.03l-9.51-1.17c-6.35-0.87-12.63-1.83-18.91-2.77
				c-25.11-3.8-50.51-7.16-75.15-14.44c-3.07-0.91-6.11-1.95-9.14-2.99l-8.98-3.24c-5.98-2.18-11.95-4.37-17.89-6.68
				c-5.94-2.29-11.86-4.63-17.75-7.01L921.64,1333.67z"/>
		</g>
		<g>
			<path class="st13" d="M962.73,1352.38c6.57-25.39,7.97-52.12,4.31-78.09c-1.79-12.69-4.71-25.22-8.79-37.36
				c-1.8-5.35-3.48-12.92-7.15-17.33c0.32-0.2,0.64-0.4,0.96-0.6c-0.63,0.55-1.19,1.16-1.69,1.82c-1.07,1.27-2.01,2.66-2.79,4.12
				c-1.63,3.06-2.5,6.39-2.83,9.83c-0.71,7.47-12.42,7.13-11.71-0.39c0.95-10.03,11-35.55,24.95-24.34c5.55,4.46,7.67,13,10,19.41
				c2.99,8.21,5.44,16.61,7.35,25.14c7.47,33.31,7.13,68.22-1.43,101.28C972.03,1363.17,960.84,1359.68,962.73,1352.38
				L962.73,1352.38z"/>
		</g>
		<g>
			<path class="st13" d="M972.22,1357.01c3.12-12.39,7.58-24.39,10.56-36.81c2.99-12.46,4.58-25.2,4.92-38
				c0.33-12.45-0.55-24.91-2.73-37.18c-0.66-3.72-6.65-35.47-12.02-32.83c1.02-1.65,2.05-3.31,3.07-4.96
				c-0.82,5.69-1.65,11.38-2.47,17.07c-1.07,7.38-12.79,7.07-11.71-0.39c0.67-4.62,1.34-9.25,2.01-13.87
				c0.6-4.12,0.84-7.11,4.99-8.88c6.24-2.66,13.01,0.5,16.74,5.7c4.6,6.43,6.33,15.53,8.18,23.07c2.09,8.52,3.58,17.16,4.51,25.88
				c1.84,17.28,1.56,34.71-1.17,51.89c-2.87,18.12-9.23,35.08-13.69,52.79C981.57,1367.81,970.38,1364.32,972.22,1357.01
				L972.22,1357.01z"/>
		</g>
		<path class="st64" d="M1289.86,1498.49l45.55,116.04c3.52,9.12,6.07,18.58,7.59,28.23v0c19.47,123.31,27.5,248.16,23.98,372.95
			l-0.47,16.59c-0.84,29.86-2.6,59.7-5.26,89.45l-25.06,279.8c-8.67,96.79-8.92,194.16-0.75,291v0l59.61,424.47l57.87-36.97
			c-28.05-12.27-128-315.61-17.53-1067.82c0,0,71.89-306.84-70.14-526.02L1289.86,1498.49z"/>
		<polygon class="st63" points="1153.09,1947.36 1395.06,3116.87 1403.5,3111.62 		"/>
		<path class="st55" d="M1128.54,1112.74c0,0,68.38,38.57,138.52-8.77l-12.27,70.14C1254.79,1174.11,1156.6,1156.58,1128.54,1112.74
			z"/>
	</g>
</g>
<g id="Layer_2" class="st38">
</g>
</svg>
