<svg id="Layer_1" data-name="Layer 1" xmlns="http://www.w3.org/2000/svg" viewBox="0 0 40 40"><defs><style>.cls-1{fill:#00d2ff;}.cls-2{fill:#18bdf6;}.cls-3{fill:#fff;}</style></defs><title>Icons40px</title><path class="cls-1" d="M20,40A20,20,0,1,1,40,20,20,20,0,0,1,20,40Z"/><path class="cls-2" d="M29.33,33.33A20,20,0,0,1,13.56,1.08,20,20,0,1,0,35.78,32.25,20,20,0,0,1,29.33,33.33Z"/><path class="cls-3" d="M22.76,31h0a.69.69,0,0,1-.69-.69V15.86a.69.69,0,0,1,.69-.69h0a.69.69,0,1,0,0-1.38H17.24a.69.69,0,0,0,0,1.38h0a.69.69,0,0,1,.69.69V30.34a.69.69,0,0,1-.69.69h0a.69.69,0,1,0,0,1.38h5.52a.69.69,0,1,0,0-1.38Z"/><circle class="cls-3" cx="20" cy="9.66" r="2.07"/></svg>