<svg id="Layer_1" data-name="Layer 1" xmlns="http://www.w3.org/2000/svg" viewBox="0 0 40 40"><defs><style>.cls-1{fill:#ccc;}.cls-2{fill:#e6e6e6;}.cls-3{fill:#b3b3b3;}</style></defs><title>Icons40px</title><path class="cls-1" d="M35.71,24.61l0,1.73,0,.46a2.46,2.46,0,0,0-1.26,1.39H32.14A22,22,0,0,1,35.71,24.61Z"/><path class="cls-1" d="M34.45,28.19a2.46,2.46,0,0,1,1.26-1.39v1.39Z"/><path class="cls-1" d="M35.71,24.61a22,22,0,0,0-3.57,3.58H24.05c0-.29.17-.45.34-.63l4.24-4.24c.16-.16.38-.29.39-.55,1.06,0,2.12,0,3.18,0,.4,0,.54-.11.53-.52,0-.94,0-1.89,0-2.83a.52.52,0,0,1,.22-.39l2.4-2.4c.11-.11.21-.23.38-.22l0,.91c0,2.28,0,4.55,0,6.83Z"/><path class="cls-1" d="M22,4V.09A35.52,35.52,0,0,1,25.69,0c1,0,2,0,3,0,0,.29-.22.43-.39.6C27,2,25.62,3.25,24.39,4.64A5.84,5.84,0,0,0,22,4Z"/><path class="cls-1" d="M29.14,0,31,.06a.89.89,0,0,1-.14.25L25.36,5.8A.55.55,0,0,1,25,6a2.89,2.89,0,0,0-.58-1.37C25.62,3.25,27,2,28.29.67c.17-.17.4-.31.39-.6Z"/><path class="cls-1" d="M25,6a.55.55,0,0,0,.39-.21L30.84.31A.89.89,0,0,0,31,.06L31.45,0l3.68,0c.21,0,.43-.07.61.09l0,.11V3.35l0,.46c-.24,0-.36.2-.5.35-.67.65-1.33,1.32-2,2-.14.14-.26.34-.51.32a2.42,2.42,0,0,0-1.77-2.25,3.06,3.06,0,0,0-3.22.6,3.65,3.65,0,0,0-.92,2.86,3.17,3.17,0,0,0,1.65,3.07c0,.26-.23.39-.38.55L25.9,13.51H22V10.86h0c.33,0,.65,0,1,0a2.14,2.14,0,0,0,2-1.21,1.6,1.6,0,0,0-.6-2.11c-.15-.11-.17-.22,0-.31C24.79,7,24.8,6.45,25,6Z"/><path class="cls-1" d="M35.84.23h-.08l0-.11Z"/><path class="cls-1" d="M32.71,19.42H30.52a11.81,11.81,0,0,1,1.75-1.92c.16-.2.44-.32.44-.63h0c.25,0,.37-.18.51-.32l2-2c.14-.14.26-.33.5-.34l0,1.73,0,.47c-.17,0-.27.11-.38.22L32.93,19A.52.52,0,0,0,32.71,19.42Z"/><path class="cls-1" d="M22,27.61c0-1.61,0-3.22,0-4.84h4.86a.66.66,0,0,1-.27.43L22.4,27.35C22.28,27.48,22.17,27.62,22,27.61Z"/><path class="cls-1" d="M25,6c-.17.44-.18,1-.66,1.22-.15.09-.13.2,0,.31a1.6,1.6,0,0,1,.6,2.11,2.14,2.14,0,0,1-2,1.21c-.33,0-.65,0-1,0V9.6a3.05,3.05,0,0,0,.85-.11.7.7,0,0,0,.51-.62.72.72,0,0,0-.3-.7A2.35,2.35,0,0,0,22,8c0-.34,0-.68,0-1,.21,0,.41-.06.62-.11a.66.66,0,0,0,.52-1c-.23-.51-.69-.45-1.13-.42V4a5.84,5.84,0,0,1,2.42.6A2.89,2.89,0,0,1,25,6Z"/><path class="cls-1" d="M28.45,10.74A3.17,3.17,0,0,1,26.8,7.67a3.65,3.65,0,0,1,.92-2.86,3.06,3.06,0,0,1,3.22-.6,2.42,2.42,0,0,1,1.77,2.25h0c-.34,0-.69,0-1,0s-.68,0-.78-.5-.58-.66-1.08-.66-1,.15-1.12.71a5.7,5.7,0,0,0,0,2.9.92.92,0,0,0,1.24.68c.75-.06,1-.29,1-1h0a5.24,5.24,0,0,1,1.72.11,2.47,2.47,0,0,1-2.19,2.2A4.27,4.27,0,0,1,28.45,10.74Z"/><path class="cls-1" d="M32.71,8.67A5.24,5.24,0,0,0,31,8.56c0-.34.31-.45.48-.67.39-.5,1-.8,1.24-1.43h0c.25,0,.37-.18.51-.32.66-.66,1.32-1.33,2-2,.14-.15.26-.34.5-.35l0,1.74,0,.46c-.24,0-.36.2-.5.34l-2,2C33.07,8.48,33,8.67,32.71,8.67Z"/><path class="cls-1" d="M28.45,10.74a4.27,4.27,0,0,0,2.07.13c-.11.44-.53.63-.79,1-.48.58-1.17,1-1.52,1.68H25.9l2.17-2.22C28.22,11.13,28.44,11,28.45,10.74Z"/><path class="cls-1" d="M28.21,13.5c.35-.7,1-1.1,1.52-1.68.26-.32.68-.51.79-1a2.47,2.47,0,0,0,2.19-2.2c.24,0,.36-.19.51-.34l2-2c.14-.14.26-.34.5-.34l0,7c0,.24,0,.49,0,.74l0,.46c-.24,0-.36.2-.5.34l-2,2c-.14.14-.26.33-.51.32,0-.95,0-1.91,0-2.87,0-.38-.14-.48-.5-.48C30.89,13.52,29.55,13.51,28.21,13.5Z"/><path class="cls-1" d="M24.52,16.87h8.19c0,.31-.28.43-.44.63a11.81,11.81,0,0,0-1.75,1.92h-8.2A11,11,0,0,1,24,17.58C24.16,17.35,24.48,17.22,24.52,16.87Z"/><path class="cls-1" d="M24.52,16.87c0,.35-.36.48-.55.71a11,11,0,0,0-1.65,1.82H22V16.88Z"/><path class="cls-1" d="M32.71,6.46c-.23.63-.85.93-1.24,1.43-.17.22-.47.33-.48.67h0a1.87,1.87,0,0,0-1,1,.92.92,0,0,1-1.24-.68,5.7,5.7,0,0,1,0-2.9c.14-.56.6-.7,1.12-.71s1,.13,1.08.66.4.52.78.5S32.37,6.46,32.71,6.46Z"/><path class="cls-1" d="M29.94,9.6a1.87,1.87,0,0,1,1-1C30.92,9.31,30.69,9.54,29.94,9.6Z"/><path class="cls-1" d="M26.83,22.77a.66.66,0,0,1-.27.43L22.4,27.35c-.12.13-.23.27-.42.26.07.46-.25.52-.57.58h2.64c0-.29.17-.45.34-.63l4.24-4.24c.16-.16.38-.29.39-.55Z"/><path class="cls-2" d="M18.05,37.53c0,.67,0,1.34,0,2,0,.48-.14.47-.48.26-.53-.34-1.11-.62-1.63-1a.8.8,0,0,0-1,0c-.64.42-1.31.79-2,1.18-.17-.22-.07-.42-.13-.6,0-.62,0-1.25,0-1.87,0-.91,0-1.83,0-2.74,0-.69,0-1.39,0-2.08,0-.35.1-.46.45-.46,1.44,0,2.89,0,4.33,0,.33,0,.44.1.43.42,0,.71,0,1.43,0,2.14Z"/><path class="cls-1" d="M10.07.11l.46-.06,6.6,0,1.15,0c0,.26-.22.39-.38.55-1,1-2,2-3,3-.14.15-.34.26-.36.5-.6-.09-.9.22-1,.77,0,.1-.09.2-.13.31a.25.25,0,0,0-.11.24h0c-.27,0-.39.22-.55.37l-4,4c-.15.15-.28.37-.55.38V2A5.94,5.94,0,0,0,10.07.11Z"/><path class="cls-1" d="M14.58,4.12c0-.24.22-.35.36-.5,1-1,2-2,3-3,.16-.16.37-.29.38-.55l.46-.06,1.73.06c0,.2-.13.31-.25.43L16.14,4.62a.57.57,0,0,1-.39.23C15.65,4.14,15.13,4.1,14.58,4.12Z"/><path class="cls-1" d="M8.23,2A5.8,5.8,0,0,1,8.35.11h1.72A5.94,5.94,0,0,1,8.23,2Z"/><path class="cls-1" d="M34.44,30.86v3.91l-11.74,0a1.7,1.7,0,0,0-.74.06.17.17,0,0,1,0-.07V30.86Z"/><path class="cls-1" d="M22,34.78l-3.93,0c0-.71,0-1.43,0-2.14,0-.32-.1-.43-.43-.42-1.44,0-2.89,0-4.33,0-.35,0-.46.11-.45.46,0,.69,0,1.39,0,2.08-1.2,0-2.41,0-3.61,0a2.35,2.35,0,0,1-1.91-.75,2.78,2.78,0,0,1-.44-1.38A2.19,2.19,0,0,1,8.8,30.78a13.12,13.12,0,0,0,2.08,0c2.73.06,5.47,0,8.2,0a14.68,14.68,0,0,0,2.2,0l.7,0v4Z"/><path class="cls-1" d="M15.75,4.85a.57.57,0,0,0,.39-.23L20.22.54c.12-.12.26-.23.25-.43l.46-.06,1,0V4.15c-.61,0-1.22,0-1.84,0-.44,0-.59.1-.59.57,0,1.62,0,3.25,0,4.88-.31,0-.43.29-.63.45s-.46.62-.87.71Z"/><path class="cls-1" d="M15.75,4.85c.77,2,1.54,3.93,2.3,5.9l-.12.12h-.69c-.94,0-.95,0-1.28-.91-.1-.25-.21-.38-.49-.37-.52,0-1,0-1.55,0a.48.48,0,0,0-.54.38c-.31.9-.33.9-1.31.9h-.4c-.3,0-.36-.11-.26-.39.19-.48.35-1,.52-1.46h0A.25.25,0,0,0,12,8.78c.48-1.1.91-2.21,1.28-3.35h0a.25.25,0,0,0,.11-.24c0-.11.1-.21.13-.31.13-.55.43-.86,1-.77S15.65,4.14,15.75,4.85Zm-1,1.34h-.12c-.13.38-.26.76-.38,1.14-.35,1.05-.35,1.05.78,1h.06c.21,0,.33,0,.24-.29C15.11,7.42,14.92,6.8,14.73,6.19Z"/><path class="cls-1" d="M13.31,5.43c-.37,1.14-.8,2.25-1.28,3.35a.25.25,0,0,0-.11.24h0c-.25,0-.37.19-.51.34L8.73,12c-.14.15-.26.34-.5.34V10.17c.27,0,.4-.23.55-.38l4-4C12.92,5.65,13,5.43,13.31,5.43Z"/><path class="cls-1" d="M13.42,5.2a.25.25,0,0,1-.11.24A.25.25,0,0,1,13.42,5.2Z"/><path class="cls-2" d="M29,22.77H22V19.4H32.71c0,.94,0,1.89,0,2.83,0,.41-.13.53-.53.52C31.14,22.75,30.08,22.77,29,22.77Z"/><path class="cls-1" d="M21.39,28.19H13.65c0-.3.17-.45.34-.63l4.26-4.26c.16-.16.37-.29.37-.55l3.35,0v.05c0,1.62,0,3.23,0,4.84C22.05,28.08,21.72,28.13,21.39,28.19Z"/><path class="cls-1" d="M8.23,12.36c.24,0,.36-.19.5-.34l2.69-2.67c.14-.15.26-.34.51-.34-.17.49-.33,1-.52,1.46-.1.28,0,.4.26.39h.4c1,0,1,0,1.31-.9a.48.48,0,0,1,.54-.38c.51,0,1,0,1.55,0,.28,0,.39.12.49.37.33.91.34.9,1.28.91h.69c0,.27-.24.39-.39.55-.67.71-1.42,1.34-2,2.11-1.21,0-2.41,0-3.62,0-.49,0-.69.1-.65.63a13.49,13.49,0,0,1,0,2c-.05.56.15.77.69.69a.58.58,0,0,1-.24.43L8.61,20.35a.5.5,0,0,1-.39.21v-8.2Z"/><path class="cls-1" d="M8.22,20.56a.5.5,0,0,0,.39-.21l3.07-3.07a.58.58,0,0,0,.24-.43,8,8,0,0,1,2.19-.05c0,.24-.13.38-.28.53-.54.53-1.07,1.07-1.61,1.61-.15.15-.32.28-.3.52-.41,0-.8.07-.69.64-.25,0-.36.19-.51.34l-2,2c-.14.15-.26.34-.5.34v-2.2Z"/><path class="cls-1" d="M8.23,22.76c.24,0,.36-.19.5-.34l2-2c.15-.15.26-.34.51-.34,0,.58,0,1.15,0,1.73,0,.87,0,.87.87.91.16,0,.31,0,.46,0h3.86c0,.27-.22.4-.38.56l-4.32,4.32c-.16.16-.38.29-.39.55H11c-.75,0-1.5,0-2.24,0-.44,0-.55-.14-.55-.56,0-1.51,0-3,0-4.53Z"/><path class="cls-1" d="M22,9.6v1.25H20.24c-.54.06-.79-.14-.69-.71a2.71,2.71,0,0,0,0-.57c0-1.63,0-3.26,0-4.88,0-.47.15-.6.59-.57.62,0,1.23,0,1.84,0V5.34c-.85,0-.64,0-.7.94,0,.59.18.74.7.64V8c-.47-.07-.76,0-.72.6.07,1.11-.12,1,.72,1Z"/><path class="cls-1" d="M19.55,9.59a2.71,2.71,0,0,1,0,.57c-.1.57.15.77.69.71l-2,2.1c-.15.16-.37.28-.38.55H15.5c.62-.77,1.37-1.4,2-2.11.15-.16.37-.28.39-.55l.12-.12c.41-.09.57-.48.87-.71S19.24,9.61,19.55,9.59Z"/><path class="cls-2" d="M22,13.5h6.24c1.34,0,2.68,0,4,0,.36,0,.51.1.5.48,0,1,0,1.92,0,2.87H22V13.5Z"/><path class="cls-1" d="M17.81,13.52c0-.27.23-.39.38-.55l2-2.1H22v2.69Z"/><path class="cls-1" d="M14.73,6.19c.19.61.38,1.23.58,1.84.09.25,0,.3-.24.29H15c-1.13.07-1.13.07-.78-1,.12-.38.25-.76.38-1.14Z"/><path class="cls-1" d="M11.92,9A.25.25,0,0,1,12,8.78.25.25,0,0,1,11.92,9Z"/><path class="cls-1" d="M11.34,28.18c0-.26.23-.39.39-.55l4.32-4.32c.16-.16.38-.29.38-.56h2.19c0,.26-.21.39-.37.55L14,27.56c-.17.18-.38.33-.34.63H11.34Z"/><path class="cls-2" d="M18.62,22.75H12.57c-.15,0-.3,0-.46,0-.87,0-.87,0-.87-.91,0-.58,0-1.15,0-1.73s.28-.62.69-.64a9.77,9.77,0,0,0,1.71,0c2.17,0,4.33,0,6.49,0l1.85,0v3.21Z"/><path class="cls-1" d="M22,17.56v2l-1.85,0A5.21,5.21,0,0,1,22,17.56Z"/><path class="cls-2" d="M17.81,13.52l4.16,0v3.22l-7.86,0a8,8,0,0,0-2.19.05c-.54.08-.74-.13-.69-.69a13.49,13.49,0,0,0,0-2c0-.53.16-.64.65-.63,1.21,0,2.41,0,3.62,0Z"/><path class="cls-1" d="M14.11,16.8l7.86,0v.79a5.21,5.21,0,0,0-1.85,1.91c-2.16,0-4.32,0-6.49,0a9.77,9.77,0,0,1-1.71,0c0-.24.15-.37.3-.52.54-.54,1.07-1.08,1.61-1.61C14,17.18,14.15,17,14.11,16.8Z"/><path class="cls-1" d="M22,8A2.35,2.35,0,0,1,23,8.17a.72.72,0,0,1,.3.7.7.7,0,0,1-.51.62A3.05,3.05,0,0,1,22,9.6l0,0V8Z"/><path class="cls-1" d="M22,5.44c.44,0,.9-.09,1.13.42a.66.66,0,0,1-.52,1c-.21,0-.41.08-.62.11V5.44Z"/><path class="cls-1" d="M22,5.44V6.92c-.52.1-.74,0-.7-.64.06-1-.15-1,.7-.94Z"/><path class="cls-1" d="M22,8v1.6c-.84,0-.65.11-.72-1C21.22,8,21.51,7.91,22,8Z"/><path class="cls-2" d="M17.5,5.93H15.09V7a1.59,1.59,0,0,1,.82-.21,1.22,1.22,0,0,1,.88.33,1.25,1.25,0,0,1,.34.92,2.3,2.3,0,0,1-.13.73,2.7,2.7,0,0,1-.4.82l-.87-.48A4,4,0,0,0,16,8.6a1.17,1.17,0,0,0,.11-.51A.51.51,0,0,0,16,7.7a.41.41,0,0,0-.31-.11.6.6,0,0,0-.33.1,1.64,1.64,0,0,0-.28.23V9.77h-1V8.82a2.66,2.66,0,0,1-.5.21,2,2,0,0,1-.58.08A1.79,1.79,0,0,1,12.26,9a1.23,1.23,0,0,1-.55-.46,1.32,1.32,0,0,1,.56-1.94,1.86,1.86,0,0,1,.84-.17,3,3,0,0,1,.42,0,1.94,1.94,0,0,1,.33,0l-.07.83a2.2,2.2,0,0,0-.53-.06.88.88,0,0,0-.55.14.5.5,0,0,0,0,.79.75.75,0,0,0,.41.12,1,1,0,0,0,.55-.15,1.59,1.59,0,0,0,.43-.33V5.93H11.23V5.11H17.5Z"/><path class="cls-2" d="M25.46,5.93V9.77h-1V9.46A3.33,3.33,0,0,1,23,9.75a3.41,3.41,0,0,1-1.09-.17,3.89,3.89,0,0,1-.89-.44,4.56,4.56,0,0,1-.7-.57A7.26,7.26,0,0,1,19.86,8a1.73,1.73,0,0,1-.23-.4,1.33,1.33,0,0,1-.05-.3.65.65,0,0,1,.13-.38.53.53,0,0,1,.46-.18.83.83,0,0,1,.59.22,1.05,1.05,0,0,0,.12-.31,1.84,1.84,0,0,0,0-.33,1.92,1.92,0,0,0-.05-.41H19.35V5.11h6.81v.82ZM23.62,7.75a1.34,1.34,0,0,0,.46-.08,1.76,1.76,0,0,0,.37-.23V5.93h-2.6c0,.07,0,.15,0,.24s0,.2,0,.32a1.38,1.38,0,0,1-.27.9,2.3,2.3,0,0,1-.69.54,4.88,4.88,0,0,0,.53.48,2.36,2.36,0,0,0,.68.37,2.65,2.65,0,0,0,.87.14,2.84,2.84,0,0,0,.84-.1,2.94,2.94,0,0,0,.58-.22V8.26a1.6,1.6,0,0,1-.42.17,2.34,2.34,0,0,1-.56.06,1.4,1.4,0,0,1-.93-.29,1,1,0,0,1-.36-.83,1.08,1.08,0,0,1,.36-.85,1.51,1.51,0,0,1,1-.31h.33a1.53,1.53,0,0,1,.34,0L24.15,7l-.21,0-.26,0c-.37,0-.55.14-.55.41a.36.36,0,0,0,.14.31A.65.65,0,0,0,23.62,7.75Z"/><path class="cls-2" d="M29.85,5.93V8.07a.66.66,0,0,1-.13.44.49.49,0,0,1-.37.13.76.76,0,0,1-.37-.1,1.5,1.5,0,0,1-.36-.26,1.54,1.54,0,0,1-.27-.36.68.68,0,0,1-.11-.37.6.6,0,0,1,.1-.35c.07-.1.21-.14.43-.14h.07V5.93H28V5.11h4.68v.82H32V9.77H31V5.93Z"/><path class="cls-3" d="M34.44,30.86H22v-.7c0-.52,0-1,0-1.54,0-.33.11-.44.43-.43H35.72c0,.74,0,1.48,0,2.22,0,.35-.11.47-.46.44S34.72,30.86,34.44,30.86Z"/><path class="cls-3" d="M21.28,30.8a1,1,0,0,1,.69-.64v.66Z"/><path class="cls-3" d="M22,34.85a1.7,1.7,0,0,1,.74-.06l11.74,0,1.26,0,.07,2.07c.07.58-.2.7-.76.7-4.15,0-8.31,0-12.47,0l-.57,0Z"/><path class="cls-3" d="M18.05,37.53c0-.91,0-1.82,0-2.72l3.93,0a.17.17,0,0,0,0,.07c0,.89,0,1.77,0,2.66Z"/><path class="cls-3" d="M8.23,2v.34c-.24,0-.36.2-.51.34l-3,3c-.15.15-.27.34-.5.36l0-1.85.06-.47a.59.59,0,0,0,.49-.23l3-3A.52.52,0,0,0,7.88.06l.44,0,0,.08A5.8,5.8,0,0,0,8.23,2Z"/><path class="cls-3" d="M7.3,34.07a2.35,2.35,0,0,0,1.91.75c1.2,0,2.41,0,3.61,0,0,.91,0,1.83,0,2.74l-.79,0-1.09,0A9.31,9.31,0,0,1,6.61,37h0l-.24-.17a4.08,4.08,0,0,1-.82-.73c.3-.32.6-.63.89-1S7.18,34.55,7.3,34.07Z"/><path class="cls-3" d="M4.21,6c.23,0,.35-.21.5-.36l3-3c.15-.14.27-.34.51-.34v8.2c-.24,0-.36.2-.51.34L4.82,13.74a.91.91,0,0,1-.61.38l0-7.77Z"/><path class="cls-3" d="M4.21,14.12a.91.91,0,0,0,.61-.38l2.89-2.89c.15-.14.27-.34.51-.34v2.2c-.24,0-.36.19-.51.34l-3,3c-.15.14-.27.34-.5.36l0-1.85Z"/><path class="cls-3" d="M7.88.06A.52.52,0,0,1,7.66.5l-2.95,3a.59.59,0,0,1-.49.23A3.31,3.31,0,0,1,7.88.06Z"/><path class="cls-3" d="M4.21,16.41c.23,0,.35-.22.5-.36l3-3c.15-.15.27-.34.51-.34v8.2c-.24,0-.36.2-.51.34L4.82,24.14a.91.91,0,0,1-.61.38l0-7.77Z"/><path class="cls-3" d="M4.21,26.81l0-1.85c0-.15,0-.29,0-.44a.91.91,0,0,0,.61-.38l2.89-2.89c.15-.14.27-.34.51-.34v2.2c-.24,0-.36.19-.51.34l-3,3C4.56,26.59,4.44,26.79,4.21,26.81Z"/><path class="cls-3" d="M4.21,26.81c.23,0,.35-.22.5-.36l3-3c.15-.15.27-.34.51-.34,0,1.51,0,3,0,4.53,0,.42.11.58.55.56.74,0,1.49,0,2.24,0,0,.25-.2.37-.35.51L9.11,30.26c-.15.14-.33.28-.31.52a2.19,2.19,0,0,0-1.94,1.91c-.26,0-.39.21-.55.37-.58.52-1.07,1.14-1.7,1.61a5.06,5.06,0,0,1-.43-2.34c0-1.72,0-3.45,0-5.18Z"/><path class="cls-3" d="M5.45,36l-.8-1.15,0-.22c.63-.47,1.12-1.09,1.7-1.61.16-.16.29-.37.55-.37a2.78,2.78,0,0,0,.44,1.38c-.12.48-.56.69-.85,1s-.59.64-.89,1Z"/><path class="cls-3" d="M21.39,28.19c0,.29-.25.41-.41.59a16.6,16.6,0,0,0-1.9,2c-2.73,0-5.47.05-8.2,0a17.27,17.27,0,0,1,1.9-2c.16-.18.4-.3.41-.59h8.2Z"/><path class="cls-3" d="M13.19,28.19c0,.29-.25.41-.41.59a17.27,17.27,0,0,0-1.9,2,13.12,13.12,0,0,1-2.08,0c0-.24.16-.38.31-.52l1.54-1.56c.15-.14.35-.26.35-.51h2.19Z"/><path class="cls-3" d="M21.39,28.19c0,.29-.25.41-.41.59a16.6,16.6,0,0,0-1.9,2,14.68,14.68,0,0,0,2.2,0,1,1,0,0,1,.69-.64c0-.52,0-1,0-1.54,0-.28.08-.4.3-.43h-.88Z"/></svg>