<svg id="Layer_1" data-name="Layer 1" xmlns="http://www.w3.org/2000/svg" viewBox="0 0 40 40"><defs><style>.cls-1{fill:#b3b3b3;}.cls-2{fill:#b67f5f;}.cls-3{fill:#e8268e;}.cls-4{fill:#aa1f6f;}.cls-5{fill:#005ca1;}.cls-6{fill:#ccc;}.cls-7{fill:#191919;}.cls-8{fill:#cd916e;}.cls-9{fill:#e6e6e6;}.cls-10{fill:#fff;}.cls-11{fill:#1c1c1c;}.cls-12{fill:#cc3112;}</style></defs><title>Icons40px</title><path class="cls-1" d="M26.85,23.77a9.38,9.38,0,0,1-2.51,1.91v1.61h0V29a2.88,2.88,0,0,0,1.9,2.71h0l2.72,1,.78.28h0l2.54.89c-.46-3.23-2.09-5.79-3-8.6A2.88,2.88,0,0,1,26.85,23.77Z"/><polygon class="cls-1" points="10.23 33 10.23 33 9.37 33.3 9.37 33.3 10.23 33"/><polygon class="cls-2" points="13.73 31.76 13.73 31.76 13.73 31.76 10.97 32.74 11.03 32.72 13.73 31.76"/><path class="cls-2" d="M36.62,40h0V38.49a4.26,4.26,0,0,0-.57-2.15,4.26,4.26,0,0,1,.57,2.15Z"/><polygon class="cls-1" points="8.87 33.48 6.27 34.4 8.83 33.49 8.87 33.48"/><polygon class="cls-3" points="33.73 34.4 32.31 33.89 32.31 33.89 33.73 34.4"/><path class="cls-3" d="M36.05,36.34a4.25,4.25,0,0,0-2.32-1.94A4.25,4.25,0,0,1,36.05,36.34Z"/><polygon class="cls-3" points="29.77 33 32.31 33.89 32.31 33.89 29.77 33 29.77 33"/><path class="cls-3" d="M28.94,32.71h0l-2.72-1h0Z"/><polygon class="cls-4" points="29.77 33 28.99 32.72 29.77 33 29.77 33"/><polygon class="cls-4" points="29.77 33 29.77 33 28.99 32.72 28.94 32.71 29.77 33"/><path class="cls-1" d="M32.29,34h0a.19.19,0,0,1,0-.08L29.77,33l-.33,1Z"/><path class="cls-1" d="M28.4,32.52l.54.19-2.67-.95h0A18.61,18.61,0,0,1,24.9,34h3C28.09,33.45,28.26,33,28.4,32.52Z"/><path class="cls-1" d="M28.4,32.52c-.14.44-.31.93-.49,1.45h1.53l.33-1-.83-.29Z"/><path class="cls-1" d="M3.38,38.49a4.41,4.41,0,0,1,0-.52A4.41,4.41,0,0,0,3.38,38.49Z"/><path class="cls-5" d="M13.76,31.75h0Z"/><path class="cls-1" d="M6.27,34.4A4.32,4.32,0,0,0,3.41,38,4.32,4.32,0,0,1,6.27,34.4Z"/><path class="cls-1" d="M12.86,40c-1-2.25-1.85-4.67-2.63-7l-.86.3C9.9,35.51,10.45,37.77,11,40Z"/><path class="cls-1" d="M20,39.36l-.76.64h1.52Z"/><path class="cls-6" d="M24.34,29V27.29c-.24.11-.48.2-.73.29V34H24.9a18.61,18.61,0,0,0,1.34-2.22A2.88,2.88,0,0,1,24.34,29Z"/><path class="cls-6" d="M20,39.36A28,28,0,0,0,24.9,34H23.61V27.58a11,11,0,0,1-3.61.61,10.84,10.84,0,0,1-4.34-.9h0V29a2.88,2.88,0,0,1-1.9,2.71A25.79,25.79,0,0,0,20,39.36Z"/><path class="cls-6" d="M20,28.19a11,11,0,0,0,3.61-.61V26a9.18,9.18,0,0,1-3.6.72h0a9.31,9.31,0,0,1-4.34-1.06v1.61h0A10.84,10.84,0,0,0,20,28.19Z"/><path class="cls-6" d="M24.34,25.68a6.89,6.89,0,0,1-.73.34v1.56c.25-.09.49-.18.73-.29Z"/><path class="cls-1" d="M12.05,22.41A1.45,1.45,0,1,1,10.6,21a1.5,1.5,0,0,1,.86.28,9.09,9.09,0,0,1-.59-1.71H10.6a2.89,2.89,0,1,0,2.55,4.25,9.14,9.14,0,0,1-1.1-1.44Z"/><path class="cls-6" d="M10.6,21a1.45,1.45,0,1,0,1.45,1.45v-.08a8.8,8.8,0,0,1-.59-1.09A1.5,1.5,0,0,0,10.6,21Z"/><path class="cls-1" d="M29.4,21a1.45,1.45,0,0,1,0,2.89,1.4,1.4,0,0,1-.58-.12,13.33,13.33,0,0,0,.45,1.56h.13a2.89,2.89,0,0,0,0-5.78h-.27a9.09,9.09,0,0,1-.59,1.71A1.5,1.5,0,0,1,29.4,21Z"/><path class="cls-1" d="M28,22.41a.22.22,0,0,1,0-.08,9.84,9.84,0,0,1-1.11,1.44,2.88,2.88,0,0,0,2.42,1.52,13.33,13.33,0,0,1-.45-1.56A1.44,1.44,0,0,1,28,22.41Z"/><path class="cls-6" d="M28.81,23.67v.06a1.4,1.4,0,0,0,.58.12,1.45,1.45,0,0,0,0-2.89,1.5,1.5,0,0,0-.86.28h0A13.19,13.19,0,0,0,28.81,23.67Z"/><path class="cls-6" d="M28.54,21.25A9.26,9.26,0,0,1,28,22.33a.22.22,0,0,0,0,.08,1.44,1.44,0,0,0,.87,1.32v-.06A13.19,13.19,0,0,1,28.54,21.25Z"/><path class="cls-7" d="M31.43,9.77s0,.08,0,.12S31.43,9.81,31.43,9.77Z"/><path class="cls-7" d="M31.29,9.06l.06.3Z"/><path class="cls-7" d="M31.5,10.33s0,.07,0,.11S31.5,10.36,31.5,10.33Z"/><path class="cls-7" d="M31.23,8.8c0,.06,0,.12.05.18S31.25,8.86,31.23,8.8Z"/><path class="cls-7" d="M31.47,10.05s0,.07,0,.11S31.47,10.09,31.47,10.05Z"/><path class="cls-7" d="M31,8c0,.06,0,.13.07.2S31,8.09,31,8Z"/><path class="cls-7" d="M31.17,8.54c0,.06,0,.12,0,.19S31.18,8.6,31.17,8.54Z"/><path class="cls-7" d="M31.09,8.28l.06.19Z"/><path class="cls-7" d="M31.38,9.5s0,.08,0,.12S31.39,9.54,31.38,9.5Z"/><path class="cls-7" d="M31.56,17v0Z"/><path class="cls-7" d="M31.56,11.21v0Z"/><path class="cls-7" d="M31.53,10.61v0Z"/><path class="cls-7" d="M31.55,10.9v0Z"/><path class="cls-8" d="M8.44,17v0Z"/><path class="cls-9" d="M24.34,17.35a.74.74,0,0,1-.63-.36H16.29a.74.74,0,0,1-.63.36A.73.73,0,0,1,15,17H13.61a2.62,2.62,0,0,0-.1.88,9.39,9.39,0,0,0,3.39,6.71h6.71V18.07h5.06s-.08.64-.12,1.57a3.71,3.71,0,0,1,.58-.11,6,6,0,0,0,.14-.74h.38a1.89,1.89,0,0,0,1.91-1.62V17H25A.73.73,0,0,1,24.34,17.35Zm-1.14,3A3.17,3.17,0,0,1,20,22.77a3.17,3.17,0,0,1-3.2-2.38.45.45,0,0,1,.43-.52h5.54A.45.45,0,0,1,23.2,20.39Z"/><path class="cls-9" d="M24.34,24.58v1.1a9.38,9.38,0,0,0,2.51-1.91,2.83,2.83,0,0,1-.34-1.36,2.9,2.9,0,0,1,2-2.77c0-.93.12-1.57.12-1.57H23.61v6.51Z"/><path class="cls-9" d="M16.9,24.58a9.4,9.4,0,0,0,4.56,2,8.78,8.78,0,0,1-1.45.12,9.18,9.18,0,0,0,3.6-.72V24.58Z"/><path class="cls-9" d="M24.34,24.58h-.73V26a6.89,6.89,0,0,0,.73-.34Z"/><path class="cls-9" d="M28.54,21.25h0a9.09,9.09,0,0,0,.59-1.71,3.71,3.71,0,0,0-.58.11C28.53,20.12,28.52,20.67,28.54,21.25Z"/><path class="cls-9" d="M26.51,22.41a2.83,2.83,0,0,0,.34,1.36A9.84,9.84,0,0,0,28,22.33a1.42,1.42,0,0,1,.58-1.08c0-.58,0-1.13,0-1.61A2.9,2.9,0,0,0,26.51,22.41Z"/><polygon class="cls-8" points="28.54 21.24 28.54 21.25 28.54 21.25 28.54 21.24"/><path class="cls-9" d="M28,22.33a9.26,9.26,0,0,0,.58-1.08h0A1.42,1.42,0,0,0,28,22.33Z"/><path class="cls-8" d="M20.86,9.34l.14.2Z"/><path class="cls-8" d="M18.64,10a3.55,3.55,0,0,0,.23-.31A3.55,3.55,0,0,1,18.64,10Z"/><path class="cls-8" d="M21.12,9.71a1.33,1.33,0,0,1,.14.19A1.33,1.33,0,0,0,21.12,9.71Z"/><path class="cls-8" d="M18.1,10.69l.23-.28Z"/><path class="cls-8" d="M17.54,11.3l.24-.26Z"/><path class="cls-8" d="M18.39,10.34l.19-.24Z"/><path class="cls-8" d="M17.85,11l.19-.22Z"/><path class="cls-8" d="M21.38,10.06l.15.18Z"/><path class="cls-8" d="M21.92,10.71l.14.16Z"/><path class="cls-8" d="M23.3,12.1l.11.1Z"/><path class="cls-8" d="M21.65,10.39a2.09,2.09,0,0,1,.14.17A2.09,2.09,0,0,0,21.65,10.39Z"/><path class="cls-8" d="M17,11.84l.24-.22Z"/><path class="cls-8" d="M23.58,12.34a.39.39,0,0,0,.1.08A.39.39,0,0,1,23.58,12.34Z"/><path class="cls-8" d="M22.19,11l.14.14Z"/><path class="cls-8" d="M23,11.85l.12.11Z"/><path class="cls-8" d="M22.47,11.31l.13.14Z"/><path class="cls-8" d="M14.34,13.79l.08,0Z"/><path class="cls-8" d="M13.83,14.06h0Z"/><path class="cls-8" d="M13.64,14.16l0,0Z"/><path class="cls-8" d="M14.13,13.9l.07,0Z"/><path class="cls-8" d="M23.85,12.57l.1.07Z"/><path class="cls-8" d="M14.63,13.62l.11-.06Z"/><path class="cls-8" d="M12.13,14.79h0Z"/><path class="cls-8" d="M11.69,14.93l.05,0Z"/><path class="cls-8" d="M11.89,14.86h0Z"/><path class="cls-8" d="M16.18,12.54l.23-.19Z"/><path class="cls-8" d="M16.74,12.07l.22-.21Z"/><path class="cls-8" d="M16.47,12.3l.19-.16Z"/><path class="cls-8" d="M15.93,12.73l.17-.12Z"/><path class="cls-8" d="M14.86,13.48l.11-.07Z"/><path class="cls-8" d="M15.08,13.34l.21-.14Z"/><path class="cls-8" d="M15.63,13l.22-.16Z"/><path class="cls-8" d="M15.39,13.13l.14-.1Z"/><path class="cls-8" d="M18.91,9.66l.2-.28Z"/><path class="cls-8" d="M20.74,9.16l0,0h0Z"/><path class="cls-8" d="M19.48,8.85h0A.87.87,0,0,0,19.4,9c-.08.12-.16.23-.23.35.07-.11.15-.22.22-.34Z"/><path class="cls-8" d="M25,13.36l0,0Z"/><path class="cls-8" d="M24.68,13.18l0,0Z"/><path class="cls-8" d="M22.87,11.71l-.13-.12Z"/><path class="cls-9" d="M29.76,15.18a3.84,3.84,0,0,1-3.92.34,15.46,15.46,0,0,1-5.47-4.42.56.56,0,0,1-.33.1.65.65,0,0,1-.38-.13,15.75,15.75,0,0,1-4.59,4,3.07,3.07,0,0,0-1.42,1.81.57.57,0,0,0,0,.14H15a.76.76,0,0,1-.1-.37V15.9a.72.72,0,0,1,.72-.72.73.73,0,0,1,.73.72v.72a.76.76,0,0,1-.1.37h7.42a.76.76,0,0,1-.1-.37V15.9a.73.73,0,0,1,.73-.72.72.72,0,0,1,.72.72v.72A.76.76,0,0,1,25,17h6.6v0A1.8,1.8,0,0,0,29.76,15.18Z"/><path class="cls-8" d="M17.5,11.34l-.2.21Z"/><path class="cls-8" d="M25.21,13.52l0,0Z"/><path class="cls-8" d="M28.49,15a11.6,11.6,0,0,0,1.18.19A11.6,11.6,0,0,1,28.49,15Z"/><path class="cls-8" d="M8.44,17v0h0Z"/><path class="cls-8" d="M24.4,13l.07,0Z"/><path class="cls-8" d="M24.13,12.78l.08.06Z"/><path class="cls-1" d="M15.66,17.35a.74.74,0,0,0,.63-.36H15A.73.73,0,0,0,15.66,17.35Z"/><path class="cls-1" d="M16.39,16.62V15.9a.73.73,0,0,0-.73-.72.72.72,0,0,0-.72.72v.72A.76.76,0,0,0,15,17h1.25A.76.76,0,0,0,16.39,16.62Z"/><path class="cls-1" d="M24.34,17.35A.73.73,0,0,0,25,17H23.71A.74.74,0,0,0,24.34,17.35Z"/><path class="cls-1" d="M25.06,16.62V15.9a.72.72,0,0,0-.72-.72.73.73,0,0,0-.73.72v.72a.76.76,0,0,0,.1.37H25A.76.76,0,0,0,25.06,16.62Z"/><path class="cls-10" d="M22.77,19.87H17.23a.45.45,0,0,0-.43.52A3.17,3.17,0,0,0,20,22.77a3.17,3.17,0,0,0,3.2-2.38A.45.45,0,0,0,22.77,19.87Z"/><path class="cls-2" d="M13.15,23.77h0a9.38,9.38,0,0,0,2.51,1.91h0A9.38,9.38,0,0,1,13.15,23.77Z"/><path class="cls-2" d="M10.73,18.79h-.38a1.93,1.93,0,0,1-1.84-1.28,1.93,1.93,0,0,0,1.84,1.28h.38a6,6,0,0,0,.14.74h0A6,6,0,0,1,10.73,18.79Z"/><path class="cls-2" d="M20,26.74h0a9.31,9.31,0,0,1-4.34-1.06h0A9.31,9.31,0,0,0,20,26.74Z"/><path class="cls-2" d="M11.46,21.24a9.09,9.09,0,0,1-.59-1.71h0a9.09,9.09,0,0,0,.59,1.71Z"/><path class="cls-2" d="M12.05,22.33h0a9.14,9.14,0,0,0,1.1,1.44h0A9.14,9.14,0,0,1,12.05,22.33Z"/><path class="cls-2" d="M11.46,21.24a8.8,8.8,0,0,0,.59,1.09h0a8.8,8.8,0,0,1-.59-1.09Z"/><path class="cls-2" d="M15.53,13l.1-.07Z"/><path class="cls-2" d="M15.29,13.2l.1-.07Z"/><path class="cls-2" d="M17.3,11.55l-.07.07Z"/><path class="cls-2" d="M15.85,12.8l.08-.07Z"/><path class="cls-2" d="M15,13.41l.11-.07Z"/><path class="cls-2" d="M16.1,12.61l.08-.07Z"/><path class="cls-2" d="M14.2,13.87l.14-.08Z"/><path class="cls-2" d="M13.67,14.14l.16-.08Z"/><path class="cls-2" d="M13.49,14.23c-.49.23-.94.41-1.33.55a13.29,13.29,0,0,0,1.48-.62Z"/><path class="cls-2" d="M11.94,14.85l.19-.06Z"/><path class="cls-2" d="M11.74,14.91l.15-.05Z"/><path class="cls-2" d="M11.51,15l.18-.05Z"/><path class="cls-2" d="M14.74,13.56l.12-.08Z"/><path class="cls-2" d="M14.42,13.75l.21-.13Z"/><path class="cls-2" d="M9.86,15.22A1.8,1.8,0,0,0,8.44,17,1.8,1.8,0,0,1,9.86,15.22Z"/><path class="cls-2" d="M13.84,14.06a2.69,2.69,0,0,0,.29-.16A2.69,2.69,0,0,1,13.84,14.06Z"/><path class="cls-2" d="M16.41,12.35l.06,0Z"/><path class="cls-2" d="M20.74,9.16l.12.18Z"/><path class="cls-2" d="M25.23,13.54A12.86,12.86,0,0,0,28.49,15,12.86,12.86,0,0,1,25.23,13.54Z"/><path class="cls-2" d="M21,9.54l.12.17Z"/><path class="cls-2" d="M24,12.64l.18.14Z"/><path class="cls-2" d="M18.87,9.71l0-.05Z"/><path class="cls-2" d="M21.26,9.9l.12.16Z"/><path class="cls-2" d="M18.58,10.1l.06-.08Z"/><path class="cls-2" d="M22.33,11.16l.14.15Z"/><path class="cls-2" d="M19.11,9.38l.06-.08Z"/><path class="cls-2" d="M21.79,10.56l.13.15Z"/><path class="cls-2" d="M24.72,13.2l.23.16Z"/><path class="cls-2" d="M25,13.38l.22.14Z"/><path class="cls-2" d="M24.21,12.84l.19.14Z"/><path class="cls-2" d="M21.53,10.24l.12.15Z"/><path class="cls-2" d="M22.06,10.87l.13.15Z"/><path class="cls-2" d="M22.87,11.71l.15.14Z"/><path class="cls-2" d="M17,11.86l0,0Z"/><path class="cls-2" d="M22.74,11.59l-.14-.14Z"/><path class="cls-2" d="M17.5,11.34l0,0Z"/><path class="cls-2" d="M16.66,12.14l.08-.07Z"/><path class="cls-2" d="M23.41,12.2l.17.14Z"/><path class="cls-2" d="M17.78,11l.07-.07Z"/><path class="cls-2" d="M23.68,12.42l.17.15Z"/><path class="cls-2" d="M23.14,12l.16.14Z"/><path class="cls-2" d="M24.47,13l.21.15Z"/><path class="cls-2" d="M29.76,15.18Z"/><path class="cls-2" d="M18,10.75l.06-.06Z"/><path class="cls-2" d="M18.33,10.41l.06-.07Z"/><path class="cls-9" d="M10.87,19.53a9.09,9.09,0,0,0,.59,1.71,1.48,1.48,0,0,1,.59,1.09,9.14,9.14,0,0,0,1.1,1.44,2.83,2.83,0,0,0,.34-1.36A2.88,2.88,0,0,0,10.87,19.53Z"/><path class="cls-9" d="M11.46,21.24a8.8,8.8,0,0,0,.59,1.09A1.48,1.48,0,0,0,11.46,21.24Z"/><path class="cls-9" d="M10.35,18.79h.38a6,6,0,0,0,.14.74,2.88,2.88,0,0,1,2.62,2.88,2.83,2.83,0,0,1-.34,1.36,9.38,9.38,0,0,0,2.51,1.91v-1.1H16.9a9.39,9.39,0,0,1-3.39-6.71,2.62,2.62,0,0,1,.1-.88H8.44v.18a3.4,3.4,0,0,0,.07.34A1.93,1.93,0,0,0,10.35,18.79Z"/><path class="cls-9" d="M16.9,24.58H15.66v1.1A9.31,9.31,0,0,0,20,26.74h0a8.78,8.78,0,0,0,1.45-.12A9.4,9.4,0,0,1,16.9,24.58Z"/><path class="cls-9" d="M15.07,15a15.75,15.75,0,0,0,4.59-4,.94.94,0,0,1-.34-.76V9.42a1.06,1.06,0,0,1,.16-.57L19.39,9c-.07.12-.15.23-.22.34l-.06.08-.2.28,0,.05a3.55,3.55,0,0,1-.23.31l-.06.08-.19.24-.06.07-.23.28-.06.06-.19.22-.07.07-.24.26,0,0-.2.21-.07.07-.24.22,0,0-.22.21-.08.07-.19.16-.06,0-.23.19-.08.07-.17.12-.08.07-.22.16-.1.07-.14.1-.1.07-.21.14-.11.07-.11.07-.12.08-.11.06-.21.13-.08,0-.14.08-.07,0a2.69,2.69,0,0,1-.29.16h0l-.16.08,0,0a13.29,13.29,0,0,1-1.48.62h0l-.19.06h0l-.15.05-.05,0-.18.05c-.3.08-1.27.2-1.27.2a1.58,1.58,0,0,0-.38,0A1.8,1.8,0,0,0,8.44,17v0h5.17a.57.57,0,0,1,0-.14A3.07,3.07,0,0,1,15.07,15Z"/><path class="cls-9" d="M20.76,9.42v.89a.92.92,0,0,1-.39.79,15.46,15.46,0,0,0,5.47,4.42,3.84,3.84,0,0,0,3.92-.34h-.09A11.6,11.6,0,0,1,28.49,15a12.86,12.86,0,0,1-3.26-1.44l0,0L25,13.38l0,0-.23-.16,0,0L24.47,13l-.07,0-.19-.14-.08-.06L24,12.64l-.1-.07-.17-.15a.39.39,0,0,1-.1-.08l-.17-.14-.11-.1L23.14,12,23,11.85l-.15-.14-.13-.12-.14-.14-.13-.14-.14-.15L22.19,11l-.13-.15-.14-.16-.13-.15a2.09,2.09,0,0,0-.14-.17l-.12-.15-.15-.18-.12-.16a1.33,1.33,0,0,0-.14-.19L21,9.54l-.14-.2-.12-.18,0,0A.86.86,0,0,1,20.76,9.42Z"/><path class="cls-11" d="M31.4,9.62l0,.15Z"/><path class="cls-11" d="M31.44,9.89l0,.16Z"/><path class="cls-11" d="M31.56,13h0v0Z"/><path class="cls-11" d="M31.48,10.16c0,.06,0,.11,0,.17S31.49,10.22,31.48,10.16Z"/><path class="cls-11" d="M31.21,8.73l0,.07Z"/><path class="cls-11" d="M31.35,9.36l0,.14Z"/><path class="cls-11" d="M31,8V8Z"/><path class="cls-11" d="M31.28,9V9Z"/><path class="cls-11" d="M31.51,10.44c0,.06,0,.11,0,.17S31.52,10.5,31.51,10.44Z"/><path class="cls-11" d="M31.55,11c0,.07,0,.14,0,.21S31.55,11.07,31.55,11Z"/><path class="cls-11" d="M31.15,8.47l0,.07Z"/><path class="cls-11" d="M31.08,8.23v0Z"/><path class="cls-11" d="M31.53,10.72c0,.06,0,.12,0,.18S31.54,10.78,31.53,10.72Z"/><path class="cls-1" d="M8.44,17a1.8,1.8,0,0,1,1.42-1.75,1.58,1.58,0,0,1,.38,0s1-.12,1.27-.2l.18-.05.05,0,.15-.05h0l.19-.06h0c.39-.14.84-.32,1.33-.55l.15-.07,0,0,.16-.08h0a2.69,2.69,0,0,0,.29-.16l.07,0,.14-.08.08,0,.21-.13.11-.06.12-.08.11-.07.11-.07.21-.14.1-.07.14-.1.1-.07.22-.16.08-.07.17-.12.08-.07.23-.19.06,0,.19-.16.08-.07.22-.21,0,0,.24-.22.07-.07.2-.21,0,0,.24-.26.07-.07.19-.22.06-.06.23-.28.06-.07.19-.24.06-.08a3.55,3.55,0,0,0,.23-.31l0-.05.2-.28.06-.08c.07-.12.15-.23.23-.35a.87.87,0,0,1,.09-.11A.67.67,0,0,1,20,8.53a.74.74,0,0,1,.68.61l0,0,.12.18.14.2.12.17a1.33,1.33,0,0,1,.14.19l.12.16.15.18.12.15a2.09,2.09,0,0,1,.14.17l.13.15.14.16.13.15.14.14.14.15.13.14.14.14.13.12.15.14.12.11.16.14.11.1.17.14a.39.39,0,0,0,.1.08l.17.15.1.07.18.14.08.06.19.14.07,0,.21.15,0,0,.23.16,0,0,.22.14,0,0A12.86,12.86,0,0,0,28.49,15a11.6,11.6,0,0,0,1.18.19h.09A1.8,1.8,0,0,1,31.56,17V13c-.23,0-.47,0-.72,0a9.39,9.39,0,0,1-9.39-9.4A9.24,9.24,0,0,1,22.1.2,11.57,11.57,0,0,1,31,8,11.56,11.56,0,0,0,8.44,11.56V17h0Z"/><path class="cls-1" d="M22.1.2a9.24,9.24,0,0,0-.65,3.41A9.39,9.39,0,0,0,30.84,13c.25,0,.49,0,.72,0V11.21c0-.07,0-.14,0-.21v-.1c0-.06,0-.12,0-.18v-.11c0-.06,0-.11,0-.17s0-.08,0-.11,0-.11,0-.17,0-.07,0-.11l0-.16s0-.08,0-.12l0-.15s0-.08,0-.12l0-.14-.06-.3V9c0-.06,0-.12-.05-.18l0-.07c0-.07,0-.13,0-.19l0-.07-.06-.19v0c0-.07,0-.14-.07-.2V8A11.57,11.57,0,0,0,22.1.2Z"/><polygon class="cls-1" points="10.23 33 10.23 33 10.97 32.74 10.23 33"/><polygon class="cls-1" points="11.03 32.72 10.97 32.74 10.23 33 10.23 33 11.03 32.72"/><polygon class="cls-1" points="9.37 33.3 8.87 33.48 9.37 33.3 9.37 33.3"/><polygon class="cls-1" points="9.37 33.3 9.37 33.3 8.87 33.48 8.83 33.49 9.37 33.3"/><path class="cls-1" d="M25.54,40a62.44,62.44,0,0,0,2.37-6h-3A28,28,0,0,1,20,39.36l.76.64Z"/><path class="cls-1" d="M32.32,34H29.44c-.69,2-1.45,4.09-2.3,6h9.48V38.49a4.34,4.34,0,0,0-2.89-4.09l-1.42-.51A.19.19,0,0,0,32.32,34Z"/><path class="cls-1" d="M25.54,40h1.6c.85-1.94,1.61-4,2.3-6H27.91A62.44,62.44,0,0,1,25.54,40Z"/><path class="cls-1" d="M8,33.79l.83-.3-2.56.91A4.32,4.32,0,0,0,3.41,38a4.41,4.41,0,0,0,0,.52V40H9.55C9,37.93,8.49,35.84,8,33.79Z"/><path class="cls-1" d="M11,32.72l.57-.2A72.31,72.31,0,0,0,14.46,40h4.78l.76-.64a25.79,25.79,0,0,1-6.24-7.61h0Z"/><path class="cls-1" d="M14.46,40a72.31,72.31,0,0,1-2.86-7.48l-.57.2-.8.28c.78,2.33,1.64,4.75,2.63,7Z"/><path class="cls-1" d="M9.37,33.3l-.54.19-.83.3c.49,2.05,1,4.14,1.55,6.21H11C10.45,37.77,9.9,35.51,9.37,33.3Z"/><path class="cls-1" d="M20.6,9l.12.19A.74.74,0,0,0,20,8.53a.67.67,0,0,0-.55.31A.72.72,0,0,1,20.6,9Z"/><path class="cls-12" d="M20.61,9a1.74,1.74,0,0,1,.11.18h0L20.6,9a.72.72,0,0,0-1.11-.11h0A.73.73,0,0,1,20.61,9Z"/><path class="cls-1" d="M19.66,11.07a.65.65,0,0,0,.38.13.56.56,0,0,0,.33-.1c-.13-.15-.25-.31-.37-.48C19.89,10.78,19.77,10.92,19.66,11.07Z"/><path class="cls-1" d="M20.76,10.31V9.42a.86.86,0,0,0,0-.28A1.74,1.74,0,0,0,20.61,9a.73.73,0,0,0-1.13-.11,1.06,1.06,0,0,0-.16.57v.89a.94.94,0,0,0,.34.76c.11-.15.23-.29.34-.45.12.17.24.33.37.48A.92.92,0,0,0,20.76,10.31Z"/></svg>