<svg id="Layer_1" data-name="Layer 1" xmlns="http://www.w3.org/2000/svg" xmlns:xlink="http://www.w3.org/1999/xlink" viewBox="0 0 40 40"><defs><style>.cls-1{fill:none;}.cls-2{clip-path:url(#clip-path);}.cls-3{fill:#ffcf28;}.cls-4{fill:#ff8c1c;}.cls-5{fill:#7fd197;}.cls-6{fill:#00b34a;}.cls-7{fill:#ba5c4a;}.cls-8{fill:#a34c3d;}</style><clipPath id="clip-path"><rect class="cls-1" y="0.39" width="40" height="39.22"/></clipPath></defs><title>Icons40px</title><g class="cls-2"><path class="cls-3" d="M39.94,15a1.16,1.16,0,0,0-.94-.8l-12.4-1.8L21.05,1.12a1.17,1.17,0,0,0-2.1,0L13.4,12.36,1,14.16a1.18,1.18,0,0,0-.65,2l9,8.75L7.21,37.26a1.15,1.15,0,0,0,.46,1.14,1.15,1.15,0,0,0,1.24.09l6.36-3.34h9.46l6.36,3.34a1.18,1.18,0,0,0,1.24-.09,1.15,1.15,0,0,0,.46-1.14L30.67,24.91l9-8.75a1.16,1.16,0,0,0,.29-1.2Zm0,0"/><path class="cls-4" d="M39.94,15a1.16,1.16,0,0,0-.94-.8l-12.4-1.8L21.05,1.12A1.17,1.17,0,0,0,20,.47V35.15h4.73l6.36,3.34a1.18,1.18,0,0,0,1.24-.09,1.15,1.15,0,0,0,.46-1.14L30.67,24.91l9-8.75a1.16,1.16,0,0,0,.29-1.2Zm0,0"/></g><path class="cls-5" d="M20,27.16a6.2,6.2,0,0,0-6.19,6.19v5A1.17,1.17,0,0,0,15,39.55H25a1.17,1.17,0,0,0,1.17-1.17v-5A6.2,6.2,0,0,0,20,27.16Zm0,0"/><path class="cls-6" d="M20,27.16V39.55h5a1.17,1.17,0,0,0,1.17-1.17v-5A6.2,6.2,0,0,0,20,27.16Zm0,0"/><path class="cls-7" d="M20,17.44a6,6,0,1,0,6,6,6,6,0,0,0-6-6Zm0,0"/><path class="cls-8" d="M26,23.47a6,6,0,0,0-6-6V29.51a6,6,0,0,0,6-6Zm0,0"/></svg>