<?xml version="1.0" encoding="utf-8"?>
<!-- Generator: Adobe Illustrator 23.0.3, SVG Export Plug-In . SVG Version: 6.00 Build 0)  -->
<svg version="1.1" xmlns="http://www.w3.org/2000/svg" xmlns:xlink="http://www.w3.org/1999/xlink" x="0px" y="0px"
	 viewBox="0 0 2000 2000" style="enable-background:new 0 0 2000 2000;" xml:space="preserve">
<style type="text/css">
	.st0{fill:#EA2482;}
	.st1{opacity:0.5;}
	.st2{opacity:0.5;clip-path:url(#SVGID_2_);}
	.st3{opacity:0.5;clip-path:url(#SVGID_4_);}
	.st4{fill:#222559;}
	.st5{fill:#DBA967;}
	.st6{fill:#FFC569;}
	.st7{fill:#331B0E;}
	.st8{fill:#512C0E;}
	.st9{fill:#603913;}
	.st10{fill:#0072BB;}
	.st11{fill:#00AEEF;}
	.st12{fill:#FF0000;}
	.st13{fill:#770000;}
	.st14{fill:#8E6F49;}
	.st15{fill:#FFDB80;}
	.st16{fill:none;stroke:#FFDB80;stroke-width:2;stroke-miterlimit:10;}
	.st17{fill:#FFFFFF;}
	.st18{opacity:0.5;fill:#FFFFFF;}
	.st19{opacity:0.7;fill:#C2C6CC;}
	.st20{fill:#AF6E58;}
	.st21{fill:#EF5B50;}
	.st22{fill:#E54B48;}
	.st23{fill:#C69759;}
	.st24{fill:#B78B55;}
	.st25{fill:#DBA85E;}
	.st26{fill:#3C2415;}
	.st27{fill:none;}
	.st28{fill:#005D91;}
	.st29{fill:#28150B;}
	.st30{opacity:0.4;fill:#FFC569;}
	.st31{fill:#F9B500;}
	.st32{fill:none;stroke:#800000;stroke-width:4;stroke-miterlimit:10;}
	.st33{fill:none;stroke:#800000;stroke-width:2;stroke-miterlimit:10;}
	.st34{fill:#F9B500;stroke:#000000;stroke-miterlimit:10;}
	.st35{fill:#FF7A00;}
	.st36{fill:#9B135B;}
	.st37{fill:#F98000;}
	.st38{display:none;}
	.st39{display:inline;}
	.st40{opacity:0.3;}
	.st41{clip-path:url(#SVGID_6_);}
	.st42{opacity:0.41;fill:none;stroke:#000000;stroke-width:2;stroke-miterlimit:10;}
	.st43{opacity:0.41;}
	.st44{fill:#EAB363;}
	.st45{opacity:0.2;}
	.st46{opacity:0.1;}
	.st47{fill:#CC0412;}
	.st48{fill:#D82E3A;}
	.st49{fill:#99222A;}
	.st50{fill:#C14848;}
	.st51{opacity:0.26;}
	.st52{fill:#7CAF00;}
	.st53{opacity:0.39;}
	.st54{fill:#BE1F24;}
	.st55{opacity:0.18;}
	.st56{fill:#008BD8;}
	.st57{fill:#005584;}
	.st58{fill:#E05656;}
	.st59{fill:#E57776;}
	.st60{fill:#486B02;}
	.st61{fill:#FAD35A;}
	.st62{fill:#D23C35;}
	.st63{opacity:0.32;}
	.st64{fill:#3C5402;}
	.st65{clip-path:url(#SVGID_8_);}
	.st66{clip-path:url(#SVGID_10_);}
	.st67{clip-path:url(#SVGID_12_);}
	.st68{clip-path:url(#SVGID_14_);}
	.st69{fill:none;stroke:#800000;stroke-width:8;stroke-miterlimit:10;}
	.st70{fill:#F9B500;stroke:#000000;stroke-width:2;stroke-miterlimit:10;}
	.st71{fill:none;stroke:#800000;stroke-width:4.8586;stroke-miterlimit:10;}
	.st72{fill:#F9B500;stroke:#000000;stroke-width:1.2146;stroke-miterlimit:10;}
	.st73{fill:#00507C;}
</style>
<g id="Layer_1">
	<g>
		<defs>
			<rect id="SVGID_13_" x="82" y="-57" width="1728" height="2064"/>
		</defs>
		<clipPath id="SVGID_2_">
			<use xlink:href="#SVGID_13_"  style="overflow:visible;"/>
		</clipPath>
		<g style="clip-path:url(#SVGID_2_);">
			<path class="st44" d="M1738.89,1703.06c0,0,49.08,476.37-66.4,496.58c-115.48,20.21-176.11-63.52-176.11-63.52l-80.84-407.08
				L1738.89,1703.06z"/>
			<path class="st49" d="M932.3,1063.74c-6.16,6.63-280.57,81.7-280.57,81.7l-64.4-518.41l143.81-361.27l234-163.39l307.89,27.92
				l167.94,422.66l-84.07,528.13l-57.72,41.96l-397.59,64.35L932.3,1063.74z"/>
			<path class="st5" d="M1353.54,584.27h-6.2c-10.18,0-18.52,8.33-18.52,18.52v98.14c0,10.18,8.33,18.52,18.52,18.52h6.2
				c3.82,0,7.38-1.17,10.33-3.17c6.09-4.12,8.88-11.68,7.51-18.9l-4.4-23.15c-2.24-11.82-2.43-23.93-0.56-35.81l5.63-35.63
				C1372.06,592.61,1363.72,584.27,1353.54,584.27z"/>
			<path class="st5" d="M823.35,584.27h6.2c10.18,0,18.52,8.33,18.52,18.52v98.14c0,10.18-8.33,18.52-18.52,18.52h-6.2
				c-3.82,0-7.38-1.17-10.33-3.17c-6.09-4.12-8.88-11.68-7.51-18.9l4.4-23.15c2.25-11.82,2.43-23.93,0.56-35.81l-5.63-35.63
				C804.83,592.61,813.17,584.27,823.35,584.27z"/>
			<path class="st6" d="M1342.09,592.49c0,54.83-5.67,122.6-32.84,205.04c-34.65,105.15-134.91,170.57-231.94,169.34
				c-91.37-1.16-179.76-62.83-211.42-162.16c-28.24-88.6-39-171.54-39-228.87c0-206.32,46.96-356.93,253.28-356.93
				S1342.09,386.17,1342.09,592.49z"/>
			<path d="M1077.61,80.31c0,0,170.58-92.71,313.21,121.16c48.45,72.65,73.95,158.5,70.39,245.75
				c-3.34,81.62-31.2,177.77-129.3,235.85c0,0,53.45-198.54-80.67-273.24c-3.41-1.9-7.05-3.35-10.83-4.34
				c-27.13-7.09-152.28-42.34-162.79-91.3c0,0-47.37,56.85-118.23,75.02c-20.82,5.34-40.44,14.68-57.03,28.35
				c-43.55,35.9-101.9,116.48-63.33,278.06c0,0-82.1-37.77-121.61-163.77c-34.22-109.13-17.11-227.59,43.66-324.48
				C819.58,114.09,921.37,18.35,1077.61,80.31z"/>
			<g>
				<path class="st31" d="M1334.78,714.74 M1346.49,698.62 M1348.92,704.3c15.37-16.24,40.08-21.37,61.2-11
					c25.99,12.77,36.72,44.19,23.95,70.2c-12.77,25.99-44.19,36.71-70.18,23.94c-25.99-12.77-36.72-44.18-23.95-70.18l-5.15-2.53
					c-14.14,28.79-2.22,63.72,26.57,77.86c28.79,14.14,63.72,2.22,77.86-26.57c14.15-28.8,2.23-63.73-26.56-77.87
					c-22.61-11.11-49.01-6.14-66.15,10.46L1348.92,704.3 M1348.92,704.3"/>
				<path class="st69" d="M1350.87,707.03c14.38-15.58,37.8-20.59,57.79-10.77c24.37,11.97,34.42,41.42,22.44,65.8
					c-11.97,24.37-41.42,34.41-65.78,22.44c-24.36-11.97-34.42-41.42-22.45-65.78"/>
				<g>
					<path class="st31" d="M1355.76,693.75c4.26,2.09,6.02,7.24,3.92,11.5c-2.09,4.26-7.24,6.01-11.5,3.92
						c-4.26-2.09-6.02-7.24-3.92-11.5C1346.35,693.41,1351.5,691.65,1355.76,693.75z"/>
					<g>
						<path d="M1360.99,705.89c-2.44,4.97-8.48,7.03-13.45,4.59c-4.97-2.44-7.02-8.47-4.58-13.44c2.44-4.97,8.46-7.03,13.44-4.58
							C1361.37,694.89,1363.43,700.91,1360.99,705.89z M1345.56,698.31c-1.74,3.54-0.27,7.83,3.26,9.56
							c3.53,1.73,7.82,0.28,9.56-3.26c1.73-3.53,0.26-7.82-3.27-9.55C1351.58,693.32,1347.29,694.78,1345.56,698.31z"/>
					</g>
				</g>
			</g>
			<g>
				<path class="st31" d="M835.98,717.23 M824.27,701.12 M821.84,706.8l2.43-5.69c-17.14-16.6-43.54-21.56-66.15-10.46
					c-28.79,14.14-40.71,49.07-26.56,77.87c14.14,28.79,49.07,40.71,77.86,26.57s40.71-49.07,26.57-77.86l-5.15,2.53
					c12.77,25.99,2.04,57.41-23.95,70.18C780.89,802.71,749.47,792,736.7,766c-12.77-26-2.05-57.43,23.95-70.2
					C781.76,685.43,806.47,690.56,821.84,706.8 M821.84,706.8"/>
				<path class="st69" d="M819.89,709.53c-14.38-15.58-37.8-20.59-57.79-10.77c-24.37,11.97-34.42,41.42-22.44,65.8
					c11.97,24.37,41.42,34.41,65.78,22.44c24.36-11.97,34.42-41.42,22.45-65.78"/>
				<g>
					<path class="st31" d="M815,696.24c-4.26,2.09-6.02,7.24-3.92,11.5c2.09,4.26,7.24,6.01,11.5,3.92
						c4.26-2.09,6.02-7.24,3.92-11.5C824.41,695.91,819.26,694.15,815,696.24z"/>
					<g>
						<path d="M814.37,694.94c4.97-2.44,10.99-0.39,13.44,4.58c2.44,4.97,0.39,11-4.58,13.44c-4.97,2.44-11.01,0.38-13.45-4.59
							C807.33,703.41,809.4,697.39,814.37,694.94z M815.65,697.55c-3.53,1.73-5,6.02-3.27,9.55c1.74,3.54,6.03,5,9.56,3.26
							c3.53-1.73,5-6.02,3.26-9.56C823.47,697.28,819.18,695.82,815.65,697.55z"/>
					</g>
				</g>
			</g>
			<path class="st6" d="M659.53,1126.15c0,0,161.88-65.13,254.25-73.34l14.37-168.31l59.53-96.47l139.58,28.74l94.42,8.21
				l32.84,22.58v215.52l151.89,26.68l-57.47,96.47c0,0-242.21,199.1-254.52,205.26s-301.73,168.31-301.73,168.31l-39-8.21
				l-108.79-139.58v-127.26L659.53,1126.15z"/>
			<path class="st60" d="M609.34,1866l135.25-350.35l312.12-280.91l187.27-93.64l187.27-62.42c0,0,187.27,31.21,239.99,218.68
				c0,0-550.26,2101.25-1130.5,2579.69c-329.13,271.39,131.07-357.84,131.07-357.84"/>
			<g class="st40">
				<path d="M656.44,1070.29c5.99-4.18,12.02-8.29,18.05-12.38c1.41-0.99,3.2-2.22,5.14-2.88c1.93-0.71,4.02-1.06,6.13-1.02
					c4.23,0.2,8.12,1.52,11.62,3.83c3.47,2.28,6.38,5.49,8.33,9.28c0.97,1.89,1.75,3.91,2.19,6.02c0.28,1.05,0.37,2.12,0.52,3.2
					l0.09,1.62l0.02,0.41l0,0.1l0,0.05c-1.77,4.8-0.5,1.34-0.89,2.42l-0.01,0.02l-0.1,0.14l-0.39,0.56l-12.49,17.97l-1.83-8.25
					c2.06,0.98,3.69,1.88,5.46,2.94c1.73,1.04,3.41,2.15,5.06,3.36c3.29,2.42,6.45,5.21,9.23,8.67c2.77,3.43,5.19,7.7,6.2,12.76
					c0.48,2.52,0.58,5.16,0.29,7.75c-0.31,2.59-1.04,5.04-1.97,7.35c-5.57,13.71-11.19,27.33-16.86,40.97l0-7.96
					c1.33,2.68,2.52,5.14,3.7,7.7c1.2,2.54,2.36,5.08,3.49,7.63c2.3,5.09,4.39,10.24,6.57,15.36c4.17,10.31,8.23,20.67,11.95,31.14
					c7.43,20.95,14.14,42.19,19.63,63.78l2.13,8.08l1.91,8.14c1.25,5.43,2.6,10.84,3.76,16.3c2.13,10.95,4.49,21.87,6.15,32.92
					c3.93,22.01,6.05,44.34,7.83,66.7l-28.21-9.78l4.13-4.68c1.35-1.54,2.71-2.98,4.06-4.48c2.7-2.98,5.44-5.9,8.2-8.78
					c2.74-2.91,5.54-5.75,8.34-8.58c2.81-2.82,5.57-5.71,8.43-8.47c5.68-5.57,11.35-11.16,17.17-16.57l8.69-8.17l8.87-7.97
					c23.74-21.14,48.36-41.31,74.05-60.1c25.53-19.01,52.44-36.18,79.97-52.25l20.86-11.73l21.36-10.84
					c3.56-1.78,7.13-3.66,10.68-5.35l10.65-5.04c7.11-3.35,14.21-6.69,21.36-9.96c28.51-13.21,57.36-25.78,86.45-37.8
					c7.31-2.93,14.58-5.94,21.91-8.8l22.03-8.54l22.2-8.11c7.42-2.66,14.88-5.21,22.33-7.77c29.89-10.01,60.14-19.03,90.78-26.32
					c30.65-7.26,61.6-13.08,92.77-16.72c-60.57,16.4-119.24,37.38-176.45,61.75c-7.13,3.11-14.31,6.08-21.42,9.22l-21.29,9.51
					l-21.2,9.72c-7.06,3.25-14.06,6.65-21.1,9.97c-7.04,3.29-14.04,6.7-21.04,10.09c-7.01,3.38-14.01,6.77-20.97,10.26l-20.92,10.36
					l-20.87,10.5l-20.81,10.64l-10.42,5.29c-3.46,1.77-6.76,3.63-10.15,5.44l-20.2,10.95c-6.58,3.94-13.19,7.83-19.8,11.7
					c-6.67,3.77-13.07,8.02-19.55,12.13c-6.44,4.17-13,8.14-19.27,12.6l-19.02,12.99l-18.65,13.55
					c-24.62,18.41-48.69,37.63-71.75,58.01l-8.66,7.62l-8.53,7.77c-5.73,5.14-11.28,10.45-16.86,15.74
					c-2.82,2.62-5.51,5.35-8.26,8.03c-2.75,2.68-5.48,5.37-8.14,8.11c-2.69,2.73-5.41,5.42-8.02,8.17c-1.31,1.37-2.67,2.74-3.94,4.1
					l-3.75,4.02l-26.22,28.09l-1.99-37.87c-1.12-21.33-2.61-42.7-5.49-63.97c-2.65-21.29-6.34-42.49-10.71-63.57
					c-1.16-5.26-2.16-10.55-3.44-15.78l-3.71-15.74l-4.05-15.66c-1.34-5.23-2.91-10.39-4.35-15.59
					c-2.97-10.37-6.15-20.69-9.51-30.94c-1.75-5.09-3.45-10.22-5.3-15.26c-0.89-2.54-1.81-5.07-2.75-7.57
					c-0.92-2.49-1.92-5.05-2.84-7.36l-1.78-4.48l1.78-3.48l10.08-19.71l10.17-19.65c0.54-1.08,1-2.14,1.24-3.2
					c0.22-1.06,0.31-2.14,0.23-3.26c-0.22-2.24-1.13-4.77-2.75-7.24c-1.59-2.48-3.75-4.89-6.2-7.09c-1.22-1.11-2.52-2.17-3.86-3.17
					c-1.3-0.98-2.82-2.01-4.03-2.75l-5.91-3.61l4.08-4.63l14.45-16.43l0.45-0.51l0.11-0.13l0.01-0.02
					c-0.39,1.06,0.89-2.41-0.87,2.38l0-0.03l0-0.07l0.02-0.28l0.08-1.11c-0.03-0.73,0.02-1.49-0.1-2.22
					c-0.12-1.49-0.5-2.96-1.03-4.38c-1.06-2.84-2.9-5.46-5.3-7.48c-1.18-1.04-2.56-1.85-3.98-2.56c-0.72-0.35-1.46-0.67-2.23-0.91
					c-0.77-0.3-1.48-0.46-2.26-0.59c-1.53-0.24-3.12-0.2-4.67,0.14c-1.59,0.32-2.95,1-4.65,1.87
					C669.55,1063.85,663.01,1067.1,656.44,1070.29z"/>
			</g>
			<path class="st60" d="M306.89,3793.32C412.78,2793,185.86,2450.37,165.37,2255.54c-43.48-413.4,181.9-898.89,292.35-1268.26
				C603.45,499.88,589.24,458.5,691.29,296.14C910.29-52.29,1034,69.76,1071.58,69.82c44.94,0.07,65.11-14.66,93.96-16.41
				c86.55-5.24,148.67,4.17,244.22,180.12c236.74,435.95,122.9,986.58,122.9,986.58l-233.19-61.67c0,0,100.13-221.99,100.13-231.83
				s6.81-270.29,6.81-270.29l-15.35-135.29l-62.22-206.56l-148.1-139.01l-133.76-54.9l-184.46,65.87l-149.1,230.93l-24.87,258.68
				l24.87,260.46l-53.89,185.62c0,0,30.57,271.85,38.78,267.46s26.68,386.41,26.68,386.41L620,1917.6
				c0,0,152.25,1005.37,78.97,1488.07c-16.07,105.84-213.09,742.77-213.09,742.77S305.35,3807.82,306.89,3793.32z"/>
			<path class="st0" d="M685.38,870.22c-3.79-79.92-11.78-308.9,12.85-448.1c0,0,13.12-268.71,300.79-310.31
				c314.04-45.42,559.56,441.13,357.9,969.26l-39.24-6.91c0,0,162.58-364.76,36.35-633.42s-223.85-287.89-223.85-287.89
				s-111.65-31.82-220.44,35.92S713.41,430.33,737.3,751.11c0,0,14.37,140.03,0,173.9c-14.37,33.87-76.97,164.86-34.89,273.65
				c42.08,108.79,95.45,358.18,2.05,597.31h-44.93l4.91-56.45c0,0,62.08-296.23-1.47-473.42c-32.5-90.62-36.88-189.04-9.92-281.46
				c7.22-24.76,14.85-46.31,21.8-61.19C682.61,906.81,686.25,888.56,685.38,870.22z"/>
			<path class="st63" d="M1317.37,1781.02c0,0-262.73,1443.55-739.1,1882.39"/>
			<path class="st63" d="M1499.26,1122.76c-332.02,213.65-421.52,1001.82-733.32,1388.69"/>
			<path class="st0" d="M1404.4,1078.16c-12.56-0.36-443.36,96.9-667.1,363.74v119.96c0,0,227.83-304.24,731.36-466.83
				C1468.66,1095.01,1421,1078.64,1404.4,1078.16z"/>
			<g class="st40">
				<path d="M542.21,1188.05c-2,5.28-4.4,10.42-6.78,15.53l-7.16,15.32l-14.38,30.49c-9.47,20.35-18.77,40.71-27.67,61.22
					c-17.86,40.98-34.47,82.34-49.48,124.18c-1.9,5.22-3.78,10.45-5.58,15.7c-1.84,5.24-3.66,10.49-5.4,15.76l-5.3,15.78
					c-1.74,5.27-3.49,10.53-5.14,15.82c-6.67,21.16-13.12,42.36-18.99,63.71c-5.86,21.36-11.43,42.78-16.34,64.34
					c-5.01,21.54-9.68,43.15-13.63,64.9c-16.25,86.88-24.68,175.14-24.26,263.75c0.1,22.15,0.82,44.32,1.9,66.51l1.03,16.63
					l0.53,8.32l0.67,8.31l1.32,16.65l1.65,16.63c4.31,44.4,11.31,88.61,19.16,133.07c-8.12-21.03-15.79-42.34-22.1-64.07
					c-3.43-10.8-6.15-21.78-9.17-32.71c-1.45-5.48-2.68-11.01-4.03-16.52c-1.33-5.51-2.66-11.03-3.82-16.58
					c-4.93-22.16-8.76-44.57-12.14-67.07c-1.52-11.27-3.09-22.55-4.19-33.88c-0.57-5.66-1.28-11.32-1.73-16.99l-1.38-17.03
					c-6.56-90.94-0.7-182.9,16.16-272.58c4.27-22.41,9.15-44.7,14.62-66.84c2.75-11.06,5.74-22.06,8.77-33.05l4.68-16.43l4.98-16.34
					c6.84-21.72,14.11-43.3,22.16-64.58c1.96-5.34,4.02-10.64,6.08-15.94c2.04-5.31,4.12-10.6,6.29-15.85
					c2.13-5.27,4.33-10.51,6.55-15.74c2.19-5.24,4.45-10.45,6.73-15.65c18.29-41.58,38.78-82.13,61.47-121.31
					c11.37-19.57,23.23-38.84,35.66-57.7c6.19-9.44,12.56-18.77,18.99-28.03C529.4,1206.55,536.01,1197.46,542.21,1188.05z"/>
			</g>
			<circle class="st12" cx="1086.25" cy="529.9" r="23.03"/>
			<circle class="st13" cx="1086.25" cy="529.9" r="18.35"/>
			<path class="st14" d="M1045.69,915.27c4.95-5.49,11.32-9.53,18.13-12.53c6.85-2.94,14.32-4.73,21.94-4.94
				c3.8-0.07,7.63,0.18,11.38,0.87c3.74,0.75,7.42,1.8,10.89,3.32c6.93,3.03,13.1,7.56,17.71,13.29c-6.78-2.87-13.25-5.36-19.86-6.9
				c-3.3-0.77-6.6-1.3-9.92-1.66c-3.32-0.32-6.64-0.43-9.98-0.35c-6.67,0.17-13.35,1.18-20.04,2.74
				C1059.24,910.68,1052.57,912.75,1045.69,915.27z"/>
			<path class="st14" d="M926.09,908.54c0,0,169.13,152.16,328.42-19.35C1254.51,889.19,1114.37,1163.7,926.09,908.54z"/>
			<path class="st14" d="M1133.86,735.6c3.32,3.41,5.67,7.85,6.51,12.65c0.88,4.79,0.26,9.88-1.77,14.39
				c-1.98,4.52-5.31,8.5-9.54,11.18c-1.08,0.62-2.11,1.37-3.31,1.78c-1.17,0.46-2.3,1.05-3.54,1.27c-2.4,0.73-4.98,0.87-7.41,0.98
				l1.12-0.5l-5.24,5.93c-0.83,0.98-1.8,1.98-2.8,2.98c-0.47,0.52-1.04,0.93-1.58,1.37c-0.56,0.42-1.06,0.92-1.67,1.27
				c-2.3,1.62-4.87,2.79-7.53,3.69c-2.69,0.82-5.48,1.22-8.29,1.28c-2.81-0.05-5.6-0.48-8.29-1.28c-2.66-0.9-5.22-2.08-7.52-3.69
				c-0.6-0.37-1.11-0.85-1.67-1.28c-0.55-0.44-1.11-0.86-1.58-1.38l-1.48-1.49l-1.33-1.48l-5.25-5.92l1.12,0.5
				c-2.42-0.11-5-0.25-7.41-0.98c-1.24-0.22-2.37-0.81-3.54-1.27c-1.19-0.41-2.22-1.16-3.31-1.78c-4.23-2.69-7.56-6.66-9.54-11.18
				c-2.03-4.51-2.65-9.6-1.77-14.39c0.84-4.8,3.19-9.24,6.51-12.65c-2.95,3.73-4.91,8.18-5.39,12.8c-0.51,4.62,0.42,9.31,2.47,13.38
				c2.05,4.07,5.24,7.53,9.1,9.81c3.88,2.31,8.33,3.26,12.88,3.22l0.66-0.01l0.47,0.51l5.38,5.8l1.34,1.44l1.33,1.29
				c0.42,0.46,0.92,0.82,1.41,1.2c0.5,0.37,0.94,0.8,1.48,1.12c2.04,1.41,4.3,2.42,6.64,3.2c2.37,0.69,4.83,1.04,7.29,1.08
				c2.47-0.04,4.93-0.37,7.29-1.07c2.34-0.78,4.61-1.78,6.64-3.2c0.54-0.3,0.98-0.75,1.48-1.11c0.48-0.39,0.99-0.74,1.41-1.2
				c0.88-0.85,1.78-1.72,2.67-2.73l5.36-5.81l0.47-0.51l0.66,0.01c4.55,0.05,9-0.91,12.88-3.22c3.86-2.28,7.04-5.74,9.1-9.81
				c2.05-4.07,2.98-8.77,2.47-13.38C1138.77,743.78,1136.82,739.32,1133.86,735.6z"/>
			<circle class="st70" cx="1127.56" cy="751.11" r="8.23"/>
			<g>
				<g>
					<path class="st9" d="M1129.14,565.8c5.24-7.54,57.29-14.57,95.74-19.29c6.82-0.98,49.61-1.79,74.3,16.39
						c-18.91-4.55-40.62-5.95-79.83,1.23c-24.07,4.41-73.54,21.18-83.58,21.39C1130.23,585.64,1123.29,574.23,1129.14,565.8z"/>
					<path class="st9" d="M1045.28,565.8c-5.25-7.54-57.29-14.57-95.75-19.29c-6.82-0.98-49.6-1.79-74.29,16.39
						c18.91-4.55,40.61-5.95,79.82,1.23c24.07,4.41,73.54,21.18,83.59,21.39C1044.19,585.64,1051.13,574.23,1045.28,565.8z"/>
				</g>
				<g>
					<g>
						<path class="st17" d="M1272.99,616.88c0,0-43.29-30.43-78.31-17.04c-35.03,13.39-50.85,39.07-56.29,56.28
							c0,0,4.44-5.09,22.99-0.63C1179.89,659.93,1238.19,671.01,1272.99,616.88z"/>
						<g>
							<path class="st8" d="M1177.22,607.96c0,0-17.45,33.64,16.31,50.88c4.82-0.19,28.34-0.22,35.77-8.81
								c7.45-8.59,20.04-33.49-8.01-52.38C1202.97,597.09,1191.82,597.95,1177.22,607.96z"/>
							<path class="st7" d="M1223.25,627.97c0,9.12-7.51,16.52-16.79,16.52c-9.27,0-16.78-7.4-16.78-16.52
								c0-9.12,7.51-16.52,16.78-16.52C1215.74,611.45,1223.25,618.86,1223.25,627.97z"/>
							<path class="st17" d="M1193.83,623.91c0,3.53-2.86,6.39-6.38,6.39s-6.39-2.86-6.39-6.39c0-3.53,2.86-6.39,6.39-6.39
								S1193.83,620.37,1193.83,623.91z"/>
							<path class="st18" d="M1181.06,640.27c0,0,26.72,22.88,50.79-5.05C1224.13,648.29,1208.01,667.07,1181.06,640.27z"/>
							<path class="st19" d="M1138.38,656.12c9.04-18.75,47.74-76.81,125.37-28.14c3.28-5.52,6.22-10.46,6.22-10.46
								S1173.11,550.42,1138.38,656.12z"/>
							<path class="st20" d="M1138.38,656.12c1.83-6.57,4.64-12.85,7.98-18.79c3.37-5.93,7.42-11.5,12.14-16.45
								c9.42-9.91,21.84-17,35.26-19.81c13.42-2.93,27.41-1.98,40.71,1.02c13.35,3.03,26.16,8.06,38.41,14.07l0.35,0.17l-0.14,0.34
								c-2.4,5.96-6,11.27-10.12,16.11c-2.09,2.4-4.34,4.64-6.71,6.76c-2.42,2.06-4.89,4.06-7.56,5.79
								c-10.55,7.13-22.88,11.27-35.38,13.14c-6.27,0.9-12.61,1.24-18.94,1.21c-6.33-0.1-12.65-0.59-18.92-1.45
								c-6.31-0.78-12.34-2.81-18.57-3.81c-3.11-0.52-6.27-0.85-9.42-0.68C1144.33,653.9,1141.17,654.6,1138.38,656.12z
								 M1138.38,656.12c2.77-1.54,5.93-2.28,9.08-2.48c3.16-0.2,6.34,0.09,9.46,0.58c6.26,0.94,12.33,2.91,18.59,3.62
								c6.26,0.79,12.56,1.28,18.87,1.35c6.31,0.01,12.62-0.35,18.86-1.28c12.43-1.91,24.66-6.07,35.08-13.17
								c2.63-1.73,5.08-3.71,7.46-5.76c2.33-2.11,4.55-4.34,6.61-6.72c4.05-4.78,7.61-10.1,9.91-15.89l0.21,0.51
								c-12.23-5.95-24.94-11.06-38.21-14.1c-13.21-3.03-27.1-4.03-40.42-1.16c-13.32,2.74-25.66,9.73-35.07,19.55
								c-4.74,4.88-8.84,10.37-12.26,16.25C1143.15,643.33,1140.29,649.57,1138.38,656.12z"/>
							<path class="st7" d="M1138.38,656.12c0,0.01,12.08-40.4,51.01-51.47c19.49-5.56,45.75-2.49,80.58,14.19
								c3.06,1.78,12.69,1.01,20.09-3.84c-10.06-0.88-63.11-36.22-105.94-18.56C1165.52,604.11,1148.67,620.5,1138.38,656.12z"/>
						</g>
					</g>
					<g>
						<path class="st17" d="M901.44,616.88c0,0,43.3-30.43,78.32-17.04c35.03,13.39,50.84,39.07,56.28,56.28
							c0,0-4.45-5.09-22.97-0.63C994.52,659.93,936.23,671.01,901.44,616.88z"/>
						<g>
							<path class="st8" d="M997.2,607.96c0,0,17.46,33.64-16.31,50.88c-4.81-0.19-28.33-0.22-35.77-8.81
								c-7.43-8.59-20.04-33.49,8.01-52.38C971.44,597.09,982.6,597.95,997.2,607.96z"/>
							<path class="st7" d="M951.17,627.97c0,9.12,7.51,16.52,16.79,16.52c9.26,0,16.77-7.4,16.77-16.52
								c0-9.12-7.52-16.52-16.77-16.52C958.69,611.45,951.17,618.86,951.17,627.97z"/>
							<path class="st17" d="M980.59,623.91c0,3.53,2.86,6.39,6.39,6.39c3.52,0,6.37-2.86,6.37-6.39c0-3.53-2.85-6.39-6.37-6.39
								C983.45,617.52,980.59,620.37,980.59,623.91z"/>
							<path class="st18" d="M993.35,640.27c0,0-26.71,22.88-50.79-5.05C950.29,648.29,966.41,667.07,993.35,640.27z"/>
							<path class="st19" d="M1036.04,656.12c-9.04-18.75-47.75-76.81-125.36-28.14c-3.28-5.52-6.22-10.46-6.22-10.46
								S1001.3,550.42,1036.04,656.12z"/>
							<path class="st20" d="M1036.04,656.12c-1.9-6.55-4.77-12.79-8.17-18.69c-3.43-5.88-7.52-11.38-12.27-16.26
								c-9.41-9.82-21.75-16.8-35.08-19.54c-13.32-2.86-27.21-1.87-40.42,1.17c-13.27,3.04-25.98,8.15-38.21,14.1l0.21-0.51
								c2.31,5.78,5.87,11.11,9.92,15.89c2.06,2.38,4.28,4.61,6.61,6.71c2.39,2.05,4.83,4.03,7.46,5.76
								c10.42,7.11,22.64,11.27,35.08,13.17c6.24,0.92,12.55,1.28,18.86,1.28c6.31-0.07,12.61-0.56,18.87-1.35
								c6.27-0.71,12.33-2.68,18.59-3.62c3.12-0.49,6.3-0.78,9.46-0.58C1030.11,653.84,1033.27,654.57,1036.04,656.12z
								 M1036.04,656.12c-2.79-1.51-5.94-2.21-9.09-2.38c-3.15-0.17-6.31,0.16-9.42,0.68c-6.24,1-12.27,3.03-18.57,3.81
								c-6.27,0.86-12.59,1.35-18.92,1.45c-6.33,0.03-12.67-0.31-18.94-1.21c-12.51-1.87-24.84-6.01-35.38-13.15
								c-2.66-1.73-5.14-3.73-7.56-5.79c-2.36-2.12-4.62-4.37-6.71-6.76c-4.12-4.84-7.72-10.15-10.13-16.11l-0.14-0.34l0.35-0.17
								c12.26-6.01,25.07-11.04,38.42-14.06c13.3-3,27.29-3.95,40.71-1.02c13.42,2.81,25.84,9.9,35.26,19.81
								c4.72,4.95,8.77,10.51,12.14,16.45C1031.4,643.27,1034.2,649.54,1036.04,656.12z"/>
							<path class="st7" d="M1036.04,656.12c0,0.01-12.07-40.4-50.99-51.47c-19.5-5.56-45.76-2.49-80.6,14.19
								c-3.06,1.78-12.69,1.01-20.08-3.84c10.05-0.88,63.11-36.22,105.95-18.56C1008.9,604.11,1025.76,620.5,1036.04,656.12z"/>
						</g>
					</g>
				</g>
				<g>
					<path class="st21" d="M1087.84,849.55c27.87-0.6,57.01-8.39,80.1-30.5c0,0-17.95,5.76-29.55,5.76
						c-11.52,0-43.33-14.07-51.17-0.23c-7.84-13.85-39.66,0.23-51.19,0.23c-11.59,0-29.55-5.76-29.55-5.76
						c23.09,22.1,52.23,29.9,80.11,30.5v0.06c0.21,0,0.41-0.03,0.63-0.03c0.21,0,0.42,0.03,0.63,0.03V849.55z"/>
					<path class="st22" d="M1006.48,819.05c10.01,8.53,28.57,56.67,81.5,56.67c42.24,0,61.96-29.34,79.96-56.67
						c-9.84,9.01-35.29,26.75-77.43,26.05C1064.92,844.69,1036.27,844.42,1006.48,819.05z"/>
				</g>
			</g>
			<g>
				<g>
					<g>
						<path class="st31" d="M1073.43,1411.79l-1.45-0.82c-69.3-39.77-121.66-133.55-153.38-205.23
							c-34.27-77.45-52.51-146.48-52.68-147.16c-0.41-1.55,0.52-3.13,2.07-3.54c1.55-0.41,3.13,0.52,3.54,2.07
							c0.18,0.69,18.32,69.34,52.42,146.36c31.13,70.34,82.26,162.17,149.47,201.62c67.23-39.46,118.36-131.32,149.51-201.7
							c34.09-77.03,52.21-145.6,52.38-146.28c0.41-1.55,2-2.48,3.55-2.07c1.55,0.4,2.48,2,2.07,3.54
							c-0.19,0.69-18.42,69.72-52.69,147.16c-31.72,71.67-84.08,165.46-153.38,205.23L1073.43,1411.79z"/>
					</g>
					<g>
						<g>
							<g>
								<path class="st31" d="M870.51,1057.6c-7.02,0.97-11.82,7.03-10.73,13.51c1.13,6.5,7.69,10.97,14.69,9.97
									c7.02-0.98,11.82-7.01,10.71-13.51C884.1,1061.09,877.53,1056.64,870.51,1057.6z"/>
								<path class="st35" d="M881.89,1075.67c0,0-14.83,5.52-20.54-7.59c0,0-2.68,8.27,6.03,12.11
									C876.08,1084.04,881.1,1076.06,881.89,1075.67z"/>
								<path class="st17" d="M882.15,1071.47c0,0,1.4-5.97-4.12-9.89c-4.32-3.11-11.72-0.76-13.8,2.87c0,0,8.21-4.65,13.04-1.36
									C880.07,1064.96,881.09,1067.57,882.15,1071.47z"/>
								<g>
									<path d="M872.51,1081.95L872.51,1081.95c-6.72,0-12.38-4.5-13.45-10.7c-0.53-3.18,0.25-6.38,2.18-9.02
										c2.11-2.88,5.45-4.82,9.17-5.33c0.67-0.1,1.35-0.14,2.02-0.14c6.76,0,12.42,4.5,13.46,10.7c0.54,3.17-0.23,6.37-2.16,9.01
										c-2.11,2.88-5.45,4.82-9.17,5.33C873.89,1081.9,873.2,1081.95,872.51,1081.95z M872.43,1058.2c-0.61,0-1.22,0.04-1.83,0.13
										c-3.33,0.46-6.31,2.19-8.19,4.75c-1.7,2.32-2.39,5.14-1.92,7.91c0.93,5.41,6.1,9.5,12.01,9.5l0,0
										c0.62,0,1.24-0.05,1.86-0.14c3.33-0.46,6.31-2.19,8.19-4.74c1.7-2.33,2.38-5.14,1.91-7.92
										C883.56,1062.28,878.38,1058.2,872.43,1058.2z"/>
								</g>
							</g>
							<g>
								<path class="st31" d="M876.31,1080.48c-7.01,0.97-11.82,7.02-10.72,13.5c1.12,6.5,7.69,10.97,14.69,9.97
									c7.01-0.97,11.81-7.01,10.71-13.51C889.9,1083.96,883.33,1079.5,876.31,1080.48z"/>
								<path class="st35" d="M887.7,1098.53c0,0-14.82,5.53-20.54-7.59c0,0-2.68,8.27,6.03,12.11
									C881.88,1106.9,886.91,1098.92,887.7,1098.53z"/>
								<path class="st17" d="M887.96,1094.34c0,0,1.4-5.98-4.12-9.9c-4.33-3.11-11.72-0.76-13.81,2.87c0,0,8.22-4.65,13.04-1.36
									C885.89,1087.83,886.9,1090.44,887.96,1094.34z"/>
								<g>
									<path d="M878.32,1104.82L878.32,1104.82c-6.73,0-12.39-4.51-13.45-10.71c-0.54-3.17,0.24-6.38,2.18-9.02
										c2.11-2.88,5.45-4.82,9.16-5.33c0.67-0.09,1.36-0.14,2.03-0.14c6.75,0,12.41,4.5,13.46,10.7c0.54,3.17-0.23,6.37-2.17,9.01
										c-2.1,2.88-5.44,4.82-9.16,5.34C879.7,1104.76,879.01,1104.82,878.32,1104.82z M878.24,1081.07
										c-0.61,0-1.22,0.04-1.83,0.13c-3.33,0.46-6.31,2.19-8.19,4.75c-1.71,2.32-2.4,5.14-1.93,7.92c0.94,5.41,6.11,9.5,12.02,9.5
										l0,0c0.62,0,1.24-0.04,1.86-0.13c3.33-0.46,6.31-2.2,8.19-4.75c1.69-2.33,2.38-5.14,1.9-7.91
										C889.36,1085.15,884.19,1081.07,878.24,1081.07z"/>
								</g>
							</g>
							<g>
								<path class="st31" d="M884.66,1104.07c-7.02,0.97-11.82,7.03-10.73,13.51c1.13,6.5,7.69,10.97,14.69,9.97
									c7.02-0.98,11.82-7.02,10.71-13.52C898.24,1107.55,891.69,1103.09,884.66,1104.07z"/>
								<path class="st35" d="M896.05,1122.13c0,0-14.83,5.52-20.54-7.59c0,0-2.68,8.26,6.02,12.11
									C890.24,1130.5,895.26,1122.52,896.05,1122.13z"/>
								<path class="st17" d="M896.3,1117.93c0,0,1.4-5.97-4.12-9.9c-4.33-3.1-11.72-0.76-13.8,2.88c0,0,8.21-4.65,13.04-1.37
									C894.23,1111.42,895.25,1114.03,896.3,1117.93z"/>
								<g>
									<path d="M886.67,1128.41L886.67,1128.41c-6.72,0-12.38-4.5-13.45-10.71c-0.53-3.17,0.24-6.37,2.18-9.01
										c2.11-2.88,5.45-4.82,9.17-5.33c0.67-0.1,1.35-0.15,2.03-0.15c6.76,0,12.42,4.5,13.46,10.7c0.54,3.18-0.22,6.38-2.16,9.02
										c-2.11,2.88-5.45,4.81-9.17,5.33C888.05,1128.36,887.35,1128.41,886.67,1128.41z M886.59,1104.66
										c-0.61,0-1.22,0.04-1.83,0.13c-3.33,0.45-6.31,2.19-8.19,4.74c-1.71,2.33-2.4,5.14-1.92,7.92
										c0.93,5.42,6.1,9.51,12.01,9.51l0,0c0.62,0,1.24-0.05,1.86-0.14c3.33-0.46,6.31-2.19,8.19-4.75
										c1.7-2.32,2.38-5.13,1.91-7.91C897.71,1108.74,892.54,1104.66,886.59,1104.66z"/>
								</g>
							</g>
						</g>
						<g>
							<g>
								<path class="st31" d="M911.91,1178.52c-6.89,1.7-11.02,8.23-9.26,14.56c1.8,6.35,8.8,10.1,15.66,8.37
									c6.88-1.69,11.01-8.21,9.24-14.56C925.78,1180.56,918.79,1176.82,911.91,1178.52z"/>
								<path class="st35" d="M925.12,1195.3c0,0-14.17,7.03-21.22-5.41c0,0-1.81,8.5,7.25,11.42
									C920.22,1204.23,924.37,1195.76,925.12,1195.3z"/>
								<path class="st17" d="M924.94,1191.09c0,0,0.76-6.09-5.14-9.41c-4.63-2.64-11.73,0.47-13.43,4.29c0,0,7.68-5.48,12.83-2.72
									C922.19,1184.84,923.48,1187.32,924.94,1191.09z"/>
								<g>
									<path d="M914.93,1202.6L914.93,1202.6c-6.1,0-11.43-3.83-12.98-9.32c-0.86-3.09-0.43-6.36,1.23-9.2
										c1.8-3.08,4.91-5.36,8.55-6.26c1.15-0.28,2.35-0.43,3.53-0.43c6.12,0,11.45,3.83,12.98,9.32c0.86,3.09,0.43,6.36-1.22,9.2
										c-1.79,3.07-4.91,5.35-8.54,6.25C917.32,1202.45,916.13,1202.6,914.93,1202.6z M915.27,1178.83
										c-1.07,0-2.14,0.14-3.18,0.39c-3.27,0.81-6.05,2.84-7.65,5.59c-1.46,2.48-1.84,5.35-1.09,8.07
										c1.37,4.86,6.14,8.27,11.58,8.27l0,0c1.08,0,2.14-0.14,3.2-0.4c3.26-0.8,6.05-2.84,7.64-5.58
										c1.46-2.49,1.83-5.36,1.08-8.08C925.49,1182.24,920.72,1178.83,915.27,1178.83z"/>
								</g>
							</g>
							<g>
								<path class="st31" d="M920.07,1200.66c-6.88,1.69-11.02,8.23-9.26,14.55c1.79,6.35,8.79,10.11,15.65,8.38
									c6.88-1.7,11.02-8.22,9.24-14.56C933.94,1202.7,926.96,1198.96,920.07,1200.66z"/>
								<path class="st35" d="M933.28,1217.43c0,0-14.17,7.03-21.22-5.41c0,0-1.8,8.5,7.26,11.42
									C928.38,1226.36,932.54,1217.9,933.28,1217.43z"/>
								<path class="st17" d="M933.1,1213.23c0,0,0.77-6.09-5.13-9.41c-4.64-2.64-11.74,0.46-13.43,4.29c0,0,7.68-5.48,12.83-2.72
									C930.36,1206.97,931.64,1209.46,933.1,1213.23z"/>
								<g>
									<path d="M923.09,1224.74L923.09,1224.74c-6.09,0-11.43-3.84-12.97-9.33c-0.86-3.09-0.43-6.36,1.22-9.19
										c1.8-3.08,4.92-5.37,8.56-6.26c1.15-0.28,2.34-0.44,3.52-0.44c6.12,0,11.46,3.83,12.98,9.32c0.87,3.1,0.44,6.37-1.21,9.2
										c-1.79,3.08-4.91,5.36-8.55,6.26C925.49,1224.59,924.29,1224.74,923.09,1224.74z M923.43,1200.97
										c-1.07,0-2.13,0.13-3.18,0.39c-3.26,0.8-6.05,2.84-7.65,5.59c-1.46,2.48-1.84,5.35-1.08,8.07
										c1.37,4.86,6.13,8.26,11.57,8.26c1.08,0,2.15-0.13,3.2-0.39c3.27-0.81,6.06-2.84,7.65-5.59c1.45-2.49,1.83-5.35,1.07-8.07
										C933.66,1204.37,928.89,1200.97,923.43,1200.97z"/>
								</g>
							</g>
							<g>
								<path class="st31" d="M930.84,1223.25c-6.88,1.69-11.03,8.23-9.25,14.56c1.79,6.34,8.79,10.1,15.65,8.38
									c6.88-1.7,11.02-8.22,9.23-14.56C944.71,1225.29,937.73,1221.55,930.84,1223.25z"/>
								<path class="st35" d="M944.05,1240.02c0,0-14.17,7.04-21.22-5.41c0,0-1.81,8.5,7.25,11.42
									C939.15,1248.95,943.3,1240.49,944.05,1240.02z"/>
								<path class="st17" d="M943.87,1235.82c0,0,0.76-6.09-5.14-9.41c-4.63-2.64-11.73,0.46-13.43,4.3c0,0,7.68-5.48,12.83-2.72
									C941.12,1229.57,942.42,1232.04,943.87,1235.82z"/>
								<g>
									<path d="M933.86,1247.33c-6.1,0-11.43-3.84-12.98-9.32c-0.86-3.1-0.43-6.37,1.23-9.2c1.79-3.08,4.91-5.36,8.55-6.26
										c1.15-0.28,2.35-0.43,3.53-0.43c6.12,0,11.45,3.83,12.98,9.31c0.86,3.1,0.43,6.37-1.21,9.2c-1.8,3.08-4.91,5.36-8.55,6.26
										C936.25,1247.18,935.06,1247.33,933.86,1247.33z M934.2,1223.56c-1.07,0-2.14,0.14-3.18,0.39
										c-3.27,0.8-6.05,2.84-7.65,5.59c-1.46,2.49-1.84,5.35-1.09,8.07c1.38,4.86,6.13,8.27,11.58,8.27c1.08,0,2.14-0.14,3.2-0.4
										c3.26-0.8,6.05-2.84,7.64-5.59c1.46-2.48,1.84-5.35,1.08-8.07C944.42,1226.96,939.66,1223.56,934.2,1223.56z"/>
								</g>
							</g>
						</g>
						<g>
							<g>
								<path class="st31" d="M963.34,1279.62c-6.61,2.56-9.88,9.57-7.33,15.61c2.59,6.08,10.01,8.9,16.6,6.32
									c6.6-2.56,9.87-9.56,7.31-15.62C977.36,1279.89,969.96,1277.06,963.34,1279.62z"/>
								<path class="st35" d="M978.58,1294.57c0,0-13.16,8.8-21.74-2.65c0,0-0.7,8.66,8.65,10.4
									C974.86,1304.06,977.91,1295.13,978.58,1294.57z"/>
								<path class="st17" d="M977.87,1290.42c0,0-0.01-6.12-6.29-8.68c-4.93-2.03-11.58,1.97-12.78,5.98c0,0,6.92-6.41,12.39-4.33
									C974.35,1284.57,975.94,1286.87,977.87,1290.42z"/>
								<g>
									<path d="M967.58,1303.24L967.58,1303.24c-5.43,0-10.22-3.03-12.23-7.71c-1.25-2.96-1.23-6.26,0.05-9.29
										c1.39-3.28,4.19-5.95,7.68-7.3c1.7-0.67,3.48-1,5.3-1c5.44,0,10.23,3.02,12.21,7.71c1.25,2.95,1.24,6.25-0.03,9.27
										c-1.39,3.28-4.19,5.94-7.68,7.3C971.18,1302.9,969.4,1303.24,967.58,1303.24z M968.38,1279.41c-1.63,0-3.24,0.29-4.77,0.89
										c-3.13,1.21-5.64,3.59-6.88,6.52c-1.13,2.66-1.14,5.55-0.04,8.15c1.76,4.14,6.05,6.82,10.89,6.82l0,0
										c1.63,0,3.24-0.3,4.77-0.9c3.13-1.22,5.64-3.59,6.87-6.52c1.13-2.65,1.14-5.55,0.03-8.15
										C977.5,1282.08,973.23,1279.41,968.38,1279.41z"/>
								</g>
							</g>
							<g>
								<path class="st31" d="M974.27,1300.54c-6.61,2.55-9.88,9.57-7.33,15.61c2.59,6.07,10.01,8.89,16.6,6.31
									c6.6-2.56,9.87-9.55,7.3-15.61C988.29,1300.79,980.87,1297.97,974.27,1300.54z"/>
								<path class="st35" d="M989.51,1315.49c0,0-13.16,8.79-21.75-2.66c0,0-0.7,8.66,8.66,10.4
									C985.79,1324.97,988.84,1316.05,989.51,1315.49z"/>
								<path class="st17" d="M988.8,1311.34c0,0-0.02-6.13-6.29-8.68c-4.93-2.03-11.58,1.96-12.78,5.98c0,0,6.92-6.42,12.38-4.33
									C985.28,1305.49,986.86,1307.79,988.8,1311.34z"/>
								<g>
									<path d="M978.51,1324.15L978.51,1324.15c-5.43,0-10.23-3.02-12.23-7.71c-1.25-2.96-1.24-6.25,0.04-9.28
										c1.39-3.29,4.2-5.95,7.69-7.3c1.7-0.67,3.48-1,5.29-1c5.45,0,10.24,3.02,12.21,7.7c1.26,2.96,1.25,6.26-0.02,9.27
										c-1.39,3.29-4.19,5.95-7.69,7.3C982.11,1323.8,980.32,1324.15,978.51,1324.15z M979.3,1300.31c-1.63,0-3.24,0.3-4.76,0.9
										c-3.13,1.21-5.65,3.59-6.88,6.52c-1.13,2.65-1.15,5.55-0.05,8.14c1.78,4.15,6.06,6.83,10.9,6.83l0,0
										c1.63,0,3.24-0.3,4.76-0.91c3.14-1.21,5.65-3.59,6.88-6.52c1.11-2.65,1.12-5.54,0.03-8.14
										C988.43,1302.99,984.16,1300.31,979.3,1300.31z"/>
								</g>
							</g>
							<g>
								<path class="st31" d="M987.83,1321.56c-6.6,2.56-9.88,9.57-7.33,15.62c2.59,6.06,10.01,8.89,16.6,6.31
									c6.6-2.57,9.87-9.56,7.3-15.62C1001.85,1321.83,994.44,1319,987.83,1321.56z"/>
								<path class="st35" d="M1003.07,1336.51c0,0-13.16,8.8-21.74-2.65c0,0-0.7,8.66,8.66,10.4
									C999.35,1346,1002.4,1337.07,1003.07,1336.51z"/>
								<path class="st17" d="M1002.36,1332.38c0,0-0.02-6.13-6.29-8.68c-4.93-2.03-11.58,1.96-12.78,5.97c0,0,6.92-6.41,12.38-4.33
									C998.84,1326.51,1000.43,1328.81,1002.36,1332.38z"/>
								<g>
									<path d="M992.07,1345.18L992.07,1345.18c-5.43,0-10.23-3.03-12.23-7.71c-1.25-2.96-1.23-6.26,0.04-9.27
										c1.4-3.29,4.2-5.95,7.69-7.31c1.7-0.67,3.48-1,5.29-1c5.45,0,10.24,3.02,12.22,7.71c1.25,2.96,1.24,6.25-0.03,9.27
										c-1.39,3.29-4.19,5.95-7.68,7.31C995.67,1344.84,993.88,1345.18,992.07,1345.18z M992.86,1321.35
										c-1.62,0-3.23,0.3-4.76,0.89c-3.13,1.21-5.64,3.59-6.88,6.53c-1.13,2.65-1.14,5.55-0.04,8.14
										c1.77,4.14,6.05,6.82,10.89,6.82l0,0c1.63,0,3.24-0.3,4.77-0.9c3.13-1.22,5.64-3.6,6.87-6.52
										c1.13-2.65,1.14-5.55,0.03-8.14C1001.99,1324.02,997.72,1321.35,992.86,1321.35z"/>
								</g>
							</g>
						</g>
						<g>
							<g>
								<path class="st31" d="M1019.94,1362.2c-5.42,4.57-6.25,12.26-1.88,17.15c4.42,4.9,12.36,5.18,17.76,0.6
									c5.41-4.57,6.24-12.24,1.85-17.14C1033.29,1357.91,1025.36,1357.64,1019.94,1362.2z"/>
								<path class="st35" d="M1039.2,1371.41c0,0-9.6,12.58-21.43,4.53c0,0,2.13,8.42,11.55,7.03
									C1038.75,1381.6,1038.74,1372.16,1039.2,1371.41z"/>
								<path class="st17" d="M1037.19,1367.72c0,0-2.01-5.79-8.77-6.17c-5.32-0.32-10.32,5.61-10.15,9.79c0,0,4.47-8.31,10.31-8.11
									C1031.96,1363.33,1034.21,1364.98,1037.19,1367.72z"/>
								<g>
									<path d="M1027.01,1383.94L1027.01,1383.94c-3.68,0-7.14-1.5-9.49-4.1c-2.14-2.4-3.19-5.52-2.95-8.8
										c0.25-3.56,2.03-6.98,4.91-9.4c2.61-2.2,5.91-3.42,9.28-3.42c3.68,0,7.13,1.5,9.45,4.11c2.15,2.39,3.21,5.51,2.98,8.78
										c-0.25,3.56-2.03,6.99-4.9,9.4C1033.67,1382.72,1030.38,1383.94,1027.01,1383.94z M1028.75,1359.68
										c-3.02,0-5.99,1.1-8.35,3.08c-2.57,2.16-4.17,5.22-4.39,8.39c-0.21,2.88,0.71,5.62,2.59,7.72c2.06,2.3,5.14,3.62,8.4,3.62
										l0,0c3.02,0,5.98-1.1,8.34-3.1c2.57-2.16,4.17-5.22,4.39-8.39c0.2-2.88-0.72-5.62-2.61-7.71
										C1035.07,1360.99,1032.02,1359.68,1028.75,1359.68z"/>
								</g>
							</g>
							<g>
								<path class="st31" d="M1037.05,1378.46c-5.43,4.56-6.25,12.25-1.88,17.15c4.42,4.89,12.36,5.18,17.75,0.6
									c5.42-4.57,6.25-12.24,1.86-17.14C1050.4,1374.16,1042.47,1373.89,1037.05,1378.46z"/>
								<path class="st35" d="M1056.3,1387.66c0,0-9.6,12.58-21.42,4.53c0,0,2.14,8.42,11.55,7.03
									C1055.85,1397.85,1055.85,1388.41,1056.3,1387.66z"/>
								<path class="st17" d="M1054.29,1383.97c0,0-2-5.79-8.76-6.17c-5.32-0.32-10.32,5.61-10.15,9.78c0,0,4.47-8.31,10.31-8.1
									C1049.07,1379.58,1051.32,1381.23,1054.29,1383.97z"/>
								<g>
									<path d="M1044.12,1400.19L1044.12,1400.19c-3.68,0-7.14-1.5-9.49-4.11c-2.14-2.4-3.2-5.52-2.96-8.79
										c0.25-3.56,2.04-6.99,4.91-9.4c2.62-2.21,5.92-3.42,9.27-3.42c3.69,0,7.13,1.5,9.46,4.11c2.15,2.39,3.21,5.51,2.97,8.78
										c-0.24,3.56-2.04,6.98-4.9,9.39C1050.78,1398.97,1047.49,1400.19,1044.12,1400.19z M1045.86,1375.93
										c-3.01,0-5.98,1.09-8.35,3.08c-2.56,2.16-4.17,5.21-4.39,8.38c-0.21,2.88,0.72,5.63,2.6,7.72c2.06,2.3,5.14,3.62,8.4,3.62
										l0,0c3.02,0,5.98-1.1,8.33-3.09c2.57-2.16,4.18-5.22,4.39-8.38c0.21-2.88-0.72-5.62-2.6-7.71
										C1052.18,1377.24,1049.12,1375.93,1045.86,1375.93z"/>
								</g>
							</g>
						</g>
					</g>
					<g>
						<g>
							<g>
								<path class="st31" d="M1278.32,1057.6c7.02,0.97,11.83,7.03,10.73,13.51c-1.13,6.5-7.69,10.97-14.69,9.97
									c-7.01-0.98-11.81-7.01-10.7-13.51C1264.74,1061.09,1271.31,1056.64,1278.32,1057.6z"/>
								<path class="st35" d="M1266.94,1075.67c0,0,14.83,5.52,20.55-7.59c0,0,2.68,8.27-6.03,12.11
									C1272.75,1084.04,1267.73,1076.06,1266.94,1075.67z"/>
								<path class="st17" d="M1266.68,1071.47c0,0-1.4-5.97,4.12-9.89c4.33-3.11,11.72-0.76,13.81,2.87c0,0-8.21-4.65-13.05-1.36
									C1268.75,1064.96,1267.74,1067.57,1266.68,1071.47z"/>
								<g>
									<path d="M1276.32,1081.95c-0.69,0-1.38-0.05-2.05-0.15c-3.72-0.51-7.05-2.46-9.16-5.33c-1.94-2.64-2.71-5.84-2.17-9.02
										c1.05-6.19,6.71-10.69,13.46-10.69c0.68,0,1.36,0.04,2.03,0.14c3.71,0.51,7.04,2.46,9.16,5.33
										c1.95,2.64,2.72,5.84,2.18,9.01C1288.7,1077.45,1283.05,1081.95,1276.32,1081.95z M1276.39,1058.2
										c-5.95,0-11.11,4.08-12.03,9.49c-0.47,2.79,0.21,5.6,1.91,7.92c1.88,2.55,4.86,4.28,8.19,4.74
										c0.62,0.09,1.24,0.14,1.86,0.14c5.92,0,11.09-4.09,12.02-9.51c0.47-2.77-0.22-5.59-1.92-7.91
										c-1.89-2.56-4.87-4.29-8.2-4.75C1277.62,1058.24,1277,1058.2,1276.39,1058.2z"/>
								</g>
							</g>
							<g>
								<path class="st31" d="M1272.52,1080.48c7.01,0.97,11.82,7.02,10.72,13.5c-1.12,6.5-7.68,10.97-14.7,9.97
									c-7.01-0.97-11.81-7.01-10.7-13.51C1258.94,1083.96,1265.5,1079.5,1272.52,1080.48z"/>
								<path class="st35" d="M1261.13,1098.53c0,0,14.83,5.53,20.55-7.59c0,0,2.68,8.27-6.03,12.11
									C1266.94,1106.9,1261.92,1098.92,1261.13,1098.53z"/>
								<path class="st17" d="M1260.88,1094.34c0,0-1.4-5.98,4.12-9.9c4.32-3.11,11.71-0.76,13.8,2.87c0,0-8.21-4.65-13.04-1.36
									C1262.95,1087.83,1261.93,1090.44,1260.88,1094.34z"/>
								<g>
									<path d="M1270.51,1104.82c-0.69,0-1.38-0.06-2.06-0.15c-3.72-0.52-7.05-2.47-9.16-5.34c-1.94-2.64-2.7-5.84-2.16-9.01
										c1.05-6.2,6.7-10.7,13.45-10.7c0.68,0,1.36,0.05,2.03,0.14c3.71,0.51,7.05,2.46,9.17,5.33c1.94,2.64,2.71,5.85,2.18,9.02
										C1282.89,1100.31,1277.24,1104.82,1270.51,1104.82z M1270.58,1081.07c-5.94,0-11.11,4.08-12.02,9.49
										c-0.47,2.79,0.21,5.6,1.91,7.92c1.88,2.55,4.85,4.29,8.18,4.75c0.63,0.09,1.25,0.13,1.87,0.13c5.92,0,11.08-4.09,12.01-9.5
										c0.47-2.78-0.21-5.6-1.92-7.92c-1.88-2.56-4.86-4.29-8.19-4.75C1271.82,1081.1,1271.2,1081.07,1270.58,1081.07z"/>
								</g>
							</g>
							<g>
								<path class="st31" d="M1264.17,1104.07c7.02,0.97,11.83,7.03,10.73,13.51c-1.12,6.5-7.68,10.97-14.69,9.97
									c-7.01-0.98-11.81-7.02-10.7-13.52C1250.59,1107.55,1257.15,1103.09,1264.17,1104.07z"/>
								<path class="st35" d="M1252.79,1122.13c0,0,14.83,5.52,20.55-7.59c0,0,2.68,8.26-6.03,12.11
									C1258.6,1130.5,1253.57,1122.52,1252.79,1122.13z"/>
								<path class="st17" d="M1252.52,1117.93c0,0-1.4-5.97,4.12-9.9c4.33-3.1,11.72-0.76,13.81,2.88c0,0-8.21-4.65-13.04-1.37
									C1254.6,1111.42,1253.58,1114.03,1252.52,1117.93z"/>
								<g>
									<path d="M1262.16,1128.41c-0.68,0-1.38-0.05-2.05-0.15c-3.72-0.52-7.05-2.46-9.16-5.33c-1.94-2.64-2.71-5.84-2.17-9.02
										c1.05-6.2,6.71-10.7,13.46-10.7c0.68,0,1.36,0.05,2.03,0.15c3.71,0.51,7.05,2.46,9.16,5.33c1.95,2.64,2.72,5.84,2.18,9.01
										C1274.55,1123.91,1268.89,1128.41,1262.16,1128.41z M1262.24,1104.66c-5.95,0-11.11,4.08-12.02,9.49
										c-0.48,2.79,0.21,5.6,1.9,7.91c1.88,2.56,4.86,4.29,8.19,4.75c0.62,0.09,1.24,0.14,1.86,0.14c5.92,0,11.09-4.09,12.02-9.51
										c0.47-2.78-0.22-5.59-1.92-7.92c-1.88-2.55-4.87-4.29-8.2-4.74C1263.46,1104.7,1262.84,1104.66,1262.24,1104.66z"/>
								</g>
							</g>
						</g>
						<g>
							<g>
								<path class="st31" d="M1236.92,1178.52c6.89,1.7,11.03,8.23,9.27,14.56c-1.79,6.35-8.8,10.1-15.65,8.37
									c-6.88-1.69-11.02-8.21-9.25-14.56C1223.06,1180.56,1230.04,1176.82,1236.92,1178.52z"/>
								<path class="st35" d="M1223.71,1195.3c0,0,14.18,7.03,21.23-5.41c0,0,1.8,8.5-7.26,11.42
									C1228.62,1204.23,1224.45,1195.76,1223.71,1195.3z"/>
								<path class="st17" d="M1223.9,1191.09c0,0-0.77-6.09,5.13-9.41c4.64-2.64,11.74,0.47,13.43,4.29c0,0-7.68-5.48-12.83-2.72
									C1226.64,1184.84,1225.35,1187.32,1223.9,1191.09z"/>
								<g>
									<path d="M1233.89,1202.6c-1.18,0-2.39-0.15-3.54-0.44c-3.64-0.9-6.76-3.18-8.55-6.25c-1.65-2.84-2.08-6.11-1.21-9.21
										c1.53-5.48,6.87-9.31,12.98-9.31c1.17,0,2.37,0.15,3.53,0.43c3.63,0.9,6.75,3.18,8.55,6.26c1.65,2.84,2.09,6.1,1.22,9.2
										C1245.33,1198.76,1239.99,1202.6,1233.89,1202.6z M1233.57,1178.83c-5.47,0-10.23,3.41-11.58,8.26
										c-0.76,2.72-0.38,5.6,1.07,8.08c1.59,2.74,4.38,4.77,7.65,5.58c1.05,0.26,2.12,0.4,3.19,0.4c5.45,0,10.21-3.41,11.59-8.27
										c0.75-2.72,0.36-5.59-1.09-8.07c-1.6-2.75-4.39-4.77-7.65-5.59C1235.71,1178.97,1234.64,1178.83,1233.57,1178.83z"/>
								</g>
							</g>
							<g>
								<path class="st31" d="M1228.76,1200.66c6.88,1.69,11.03,8.23,9.26,14.55c-1.79,6.35-8.79,10.11-15.65,8.38
									c-6.88-1.7-11.02-8.22-9.24-14.56C1214.89,1202.7,1221.88,1198.96,1228.76,1200.66z"/>
								<path class="st35" d="M1215.55,1217.43c0,0,14.17,7.03,21.22-5.41c0,0,1.81,8.5-7.26,11.42
									C1220.45,1226.36,1216.29,1217.9,1215.55,1217.43z"/>
								<path class="st17" d="M1215.73,1213.23c0,0-0.76-6.09,5.14-9.41c4.63-2.64,11.73,0.46,13.43,4.29c0,0-7.68-5.48-12.84-2.72
									C1218.48,1206.97,1217.18,1209.46,1215.73,1213.23z"/>
								<g>
									<path d="M1225.73,1224.74c-1.19,0-2.39-0.15-3.55-0.44c-3.64-0.9-6.75-3.18-8.55-6.26c-1.64-2.83-2.07-6.1-1.21-9.2
										c1.54-5.49,6.87-9.32,12.98-9.32c1.18,0,2.37,0.16,3.53,0.44c3.64,0.89,6.75,3.18,8.55,6.26c1.65,2.83,2.09,6.1,1.23,9.19
										C1237.16,1220.9,1231.82,1224.74,1225.73,1224.74z M1225.4,1200.97c-5.47,0-10.22,3.39-11.58,8.26
										c-0.76,2.72-0.38,5.59,1.07,8.07c1.6,2.75,4.39,4.77,7.65,5.59c1.05,0.26,2.12,0.39,3.2,0.39c5.44,0,10.2-3.39,11.58-8.27
										c0.75-2.71,0.37-5.58-1.09-8.06c-1.6-2.75-4.39-4.78-7.65-5.59C1227.54,1201.1,1226.47,1200.97,1225.4,1200.97z"/>
								</g>
							</g>
							<g>
								<path class="st31" d="M1217.99,1223.25c6.89,1.69,11.03,8.23,9.26,14.56c-1.79,6.34-8.8,10.1-15.65,8.38
									c-6.88-1.7-11.02-8.22-9.24-14.56C1204.12,1225.29,1211.11,1221.55,1217.99,1223.25z"/>
								<path class="st35" d="M1204.78,1240.02c0,0,14.18,7.04,21.23-5.41c0,0,1.8,8.5-7.26,11.42
									C1209.69,1248.95,1205.52,1240.49,1204.78,1240.02z"/>
								<path class="st17" d="M1204.96,1235.82c0,0-0.77-6.09,5.13-9.41c4.64-2.64,11.74,0.46,13.43,4.3c0,0-7.68-5.48-12.83-2.72
									C1207.7,1229.57,1206.42,1232.04,1204.96,1235.82z"/>
								<g>
									<path d="M1214.96,1247.33c-1.18,0-2.38-0.15-3.54-0.44c-3.64-0.9-6.76-3.18-8.55-6.26c-1.65-2.83-2.08-6.1-1.21-9.2
										c1.53-5.49,6.86-9.31,12.97-9.31c1.19,0,2.38,0.15,3.53,0.43c3.64,0.9,6.76,3.18,8.56,6.26c1.65,2.83,2.08,6.1,1.22,9.19
										C1226.4,1243.49,1221.06,1247.33,1214.96,1247.33z M1214.63,1223.56c-5.46,0-10.22,3.39-11.57,8.26
										c-0.76,2.72-0.38,5.59,1.07,8.07c1.59,2.75,4.38,4.78,7.65,5.59c1.05,0.26,2.12,0.4,3.19,0.4c5.45,0,10.21-3.4,11.58-8.28
										c0.76-2.71,0.37-5.58-1.08-8.06c-1.6-2.75-4.39-4.78-7.65-5.59C1216.77,1223.7,1215.71,1223.56,1214.63,1223.56z"/>
								</g>
							</g>
						</g>
						<g>
							<g>
								<path class="st31" d="M1185.49,1279.62c6.61,2.56,9.88,9.57,7.33,15.61c-2.59,6.08-10.01,8.9-16.6,6.32
									c-6.6-2.56-9.87-9.56-7.3-15.62C1171.47,1279.89,1178.88,1277.06,1185.49,1279.62z"/>
								<path class="st35" d="M1170.24,1294.57c0,0,13.16,8.8,21.75-2.65c0,0,0.7,8.66-8.66,10.4
									C1173.97,1304.06,1170.92,1295.13,1170.24,1294.57z"/>
								<path class="st17" d="M1170.96,1290.42c0,0,0.02-6.12,6.29-8.68c4.93-2.03,11.58,1.97,12.78,5.98c0,0-6.92-6.41-12.38-4.33
									C1174.48,1284.57,1172.88,1286.87,1170.96,1290.42z"/>
								<g>
									<path d="M1181.25,1303.24c-1.81,0-3.59-0.34-5.3-1.01c-3.49-1.36-6.29-4.02-7.68-7.3c-1.27-3.02-1.28-6.32-0.02-9.28
										c1.98-4.68,6.76-7.7,12.21-7.7c1.81,0,3.59,0.33,5.29,1c3.49,1.35,6.29,4.02,7.69,7.3c1.28,3.02,1.29,6.32,0.05,9.28
										C1191.48,1300.21,1186.68,1303.24,1181.25,1303.24z M1180.46,1279.41c-4.86,0-9.13,2.67-10.88,6.81
										c-1.1,2.6-1.1,5.5,0.03,8.15c1.23,2.93,3.74,5.29,6.87,6.52c1.54,0.6,3.14,0.9,4.77,0.9c4.85,0,9.13-2.68,10.9-6.83
										c1.1-2.59,1.08-5.48-0.05-8.14c-1.24-2.93-3.75-5.3-6.88-6.52C1183.69,1279.7,1182.08,1279.41,1180.46,1279.41z"/>
								</g>
							</g>
							<g>
								<path class="st31" d="M1174.57,1300.54c6.6,2.55,9.88,9.57,7.32,15.61c-2.58,6.07-10.01,8.89-16.59,6.31
									c-6.6-2.56-9.87-9.55-7.31-15.61C1160.54,1300.79,1167.95,1297.97,1174.57,1300.54z"/>
								<path class="st35" d="M1159.32,1315.49c0,0,13.16,8.79,21.74-2.66c0,0,0.7,8.66-8.66,10.4
									C1163.04,1324.97,1160,1316.05,1159.32,1315.49z"/>
								<path class="st17" d="M1160.04,1311.34c0,0,0.01-6.13,6.29-8.68c4.93-2.03,11.57,1.96,12.77,5.98c0,0-6.92-6.42-12.38-4.33
									C1163.55,1305.49,1161.97,1307.79,1160.04,1311.34z"/>
								<g>
									<path d="M1170.33,1324.15c-1.82,0-3.6-0.34-5.3-1.01c-3.49-1.35-6.3-4.01-7.68-7.3c-1.27-3.01-1.29-6.31-0.03-9.27
										c1.98-4.68,6.77-7.7,12.22-7.7c1.8,0,3.59,0.33,5.29,1c3.49,1.35,6.29,4.01,7.68,7.3c1.28,3.02,1.29,6.31,0.05,9.28
										C1180.56,1321.12,1175.75,1324.15,1170.33,1324.15z M1169.54,1300.31c-4.86,0-9.14,2.67-10.88,6.82
										c-1.1,2.6-1.1,5.49,0.02,8.14c1.24,2.93,3.75,5.3,6.88,6.52c1.54,0.61,3.14,0.91,4.77,0.91c4.84,0,9.12-2.68,10.89-6.83
										c1.1-2.59,1.09-5.49-0.04-8.14c-1.24-2.93-3.75-5.3-6.88-6.52C1172.77,1300.62,1171.16,1300.31,1169.54,1300.31z"/>
								</g>
							</g>
							<g>
								<path class="st31" d="M1161,1321.56c6.61,2.56,9.88,9.57,7.33,15.62c-2.59,6.06-10.01,8.89-16.59,6.31
									c-6.6-2.57-9.88-9.56-7.31-15.62C1146.98,1321.83,1154.39,1319,1161,1321.56z"/>
								<path class="st35" d="M1145.75,1336.51c0,0,13.16,8.8,21.75-2.65c0,0,0.7,8.66-8.66,10.4
									C1149.48,1346,1146.43,1337.07,1145.75,1336.51z"/>
								<path class="st17" d="M1146.47,1332.38c0,0,0.02-6.13,6.3-8.68c4.92-2.03,11.57,1.96,12.77,5.97c0,0-6.92-6.41-12.38-4.33
									C1149.99,1326.51,1148.4,1328.81,1146.47,1332.38z"/>
								<g>
									<path d="M1156.76,1345.18c-1.81,0-3.59-0.34-5.29-1.01c-3.49-1.36-6.3-4.02-7.69-7.31c-1.27-3.01-1.28-6.31-0.02-9.27
										c1.98-4.69,6.77-7.71,12.21-7.71c1.81,0,3.59,0.33,5.29,1c3.49,1.36,6.3,4.02,7.69,7.31c1.28,3.01,1.29,6.31,0.04,9.26
										C1167,1342.15,1162.19,1345.18,1156.76,1345.18z M1155.97,1321.35c-4.86,0-9.13,2.67-10.88,6.81
										c-1.09,2.6-1.09,5.5,0.03,8.15c1.23,2.92,3.74,5.29,6.88,6.52c1.54,0.6,3.14,0.9,4.76,0.9c4.85,0,9.13-2.68,10.9-6.82
										c1.09-2.59,1.08-5.49-0.05-8.14c-1.23-2.93-3.75-5.31-6.87-6.53C1159.21,1321.65,1157.6,1321.35,1155.97,1321.35z"/>
								</g>
							</g>
						</g>
						<g>
							<g>
								<path class="st31" d="M1128.89,1362.2c5.42,4.57,6.25,12.26,1.88,17.15c-4.41,4.9-12.36,5.18-17.76,0.6
									c-5.41-4.57-6.24-12.24-1.85-17.14C1115.54,1357.91,1123.47,1357.64,1128.89,1362.2z"/>
								<path class="st35" d="M1109.62,1371.41c0,0,9.61,12.58,21.44,4.53c0,0-2.14,8.42-11.55,7.03
									C1110.07,1381.6,1110.08,1372.16,1109.62,1371.41z"/>
								<path class="st17" d="M1111.65,1367.72c0,0,2-5.79,8.76-6.17c5.32-0.32,10.32,5.61,10.15,9.79c0,0-4.47-8.31-10.31-8.11
									C1116.87,1363.33,1114.61,1364.98,1111.65,1367.72z"/>
								<g>
									<path d="M1121.81,1383.94c-3.37,0-6.65-1.22-9.26-3.43c-2.87-2.42-4.66-5.84-4.9-9.4c-0.23-3.27,0.82-6.39,2.97-8.79
										c2.33-2.6,5.77-4.1,9.46-4.1c3.36,0,6.65,1.22,9.28,3.43c2.87,2.41,4.66,5.83,4.91,9.39c0.22,3.28-0.82,6.4-2.96,8.8
										C1128.96,1382.45,1125.49,1383.94,1121.81,1383.94z M1120.08,1359.68c-3.28,0-6.32,1.31-8.38,3.61
										c-1.88,2.1-2.81,4.84-2.6,7.72c0.21,3.17,1.82,6.22,4.38,8.39c2.36,2,5.31,3.1,8.34,3.1c3.28,0,6.34-1.32,8.41-3.63
										c1.87-2.09,2.8-4.83,2.59-7.71c-0.22-3.17-1.83-6.23-4.4-8.39C1126.06,1360.78,1123.1,1359.68,1120.08,1359.68z"/>
								</g>
							</g>
							<g>
								<path class="st31" d="M1111.79,1378.46c5.42,4.56,6.25,12.25,1.87,17.15c-4.41,4.89-12.35,5.18-17.75,0.6
									c-5.42-4.57-6.25-12.24-1.85-17.14C1098.43,1374.16,1106.37,1373.89,1111.79,1378.46z"/>
								<path class="st35" d="M1092.52,1387.66c0,0,9.6,12.58,21.43,4.53c0,0-2.13,8.42-11.55,7.03
									C1092.97,1397.85,1092.98,1388.41,1092.52,1387.66z"/>
								<path class="st17" d="M1094.54,1383.97c0,0,2-5.79,8.77-6.17c5.32-0.32,10.32,5.61,10.15,9.78c0,0-4.46-8.31-10.3-8.1
									C1099.76,1379.58,1097.51,1381.23,1094.54,1383.97z"/>
								<g>
									<path d="M1104.7,1400.19c-3.37,0-6.65-1.22-9.27-3.44c-2.87-2.41-4.65-5.83-4.9-9.39c-0.22-3.27,0.83-6.39,2.97-8.79
										c2.33-2.6,5.78-4.1,9.46-4.1c3.37,0,6.66,1.21,9.28,3.43c2.86,2.41,4.65,5.83,4.9,9.39c0.24,3.27-0.82,6.39-2.95,8.79
										C1111.85,1398.7,1108.39,1400.19,1104.7,1400.19z M1102.97,1375.93c-3.27,0-6.32,1.31-8.37,3.61
										c-1.89,2.1-2.81,4.84-2.61,7.72c0.23,3.16,1.82,6.22,4.39,8.38c2.35,2,5.3,3.09,8.33,3.09c3.28,0,6.34-1.32,8.41-3.62
										c1.88-2.09,2.8-4.84,2.59-7.72c-0.22-3.17-1.82-6.22-4.39-8.38C1108.96,1377.02,1106,1375.93,1102.97,1375.93z"/>
								</g>
							</g>
						</g>
					</g>
				</g>
				<g>
					<path class="st0" d="M1072.5,1477.18c-8.81,0-15.67,42.32-11.66,54.89c5.23,16.38,28.73,16.38,28.57-8
						C1089.3,1508.89,1079.16,1477.18,1072.5,1477.18z"/>
					<path class="st17" d="M1081.09,1497.27c-11.75-12.93-15.61,26.48-15.61,26.48s-0.61-13.26,2.83-25.14
						C1072.46,1484.18,1081.09,1497.27,1081.09,1497.27z"/>
					<path class="st36" d="M1082.52,1492.48c1.06,10.48,3.18,48.53-21.69,39.58c5.23,16.38,28.73,16.38,28.57-8
						C1089.34,1515.84,1086.34,1502.75,1082.52,1492.48z"/>
					<g>
						<path d="M1072.94,1476.07c-12.12,1.37-13.87,24.62-15.04,33.37c-1.64,12.19-3.06,31.27,13.08,34
							c15.47,2.61,21.86-10.91,20.78-24.31c-0.79-9.85-3.55-19.75-7-28.97c-1.74-4.64-4.73-13.43-10.62-14.15
							c-1.27-0.16-6.02,2.01-3.3,2.34c4.17,0.51,6.79,8.48,8.12,11.65c2.78,6.59,4.62,13.6,6.1,20.58
							c2.09,9.83,4.23,36.72-13.54,29.56c-11.52-4.64-9.74-20.1-8.7-29.89c0.7-6.5,1.99-12.94,3.73-19.22
							c0.51-1.84,3.39-12.5,5.51-12.75C1074.3,1478.04,1076.56,1475.66,1072.94,1476.07z"/>
					</g>
					<g>
						<path class="st31" d="M1107.89,1450.85c0,18.4-14.92,33.32-33.32,33.32c-18.4,0-33.32-14.92-33.32-33.32
							c0-18.4,14.92-33.32,33.32-33.32C1092.97,1417.53,1107.89,1432.45,1107.89,1450.85z"/>
						<path class="st17" d="M1051.36,1457.7c0,0-3.48-26.16,17.84-31.24c18.75-4.47,27.37,14.87,27.37,14.87
							s-11.01-13.09-25.29-8.92C1055.76,1436.94,1051.36,1457.7,1051.36,1457.7z"/>
						<path class="st37" d="M1082.9,1471.98c-18.85,7.19-33.81-4.6-40.01-10.81c4.33,13.35,16.88,23.01,31.69,23.01
							c18.4,0,33.32-14.92,33.32-33.32c0-7.01-2.17-13.52-5.88-18.88C1102.63,1441.13,1102.21,1464.63,1082.9,1471.98z"/>
						<g>
							<path d="M1105.3,1451.17c-0.53,17.59-13.6,31.98-31.77,31.43c-16.35-0.49-28.26-15.03-29.64-30.41
								c-1.63-18.2,13.89-33.62,31.72-33.09c17.16,0.52,29.21,16.31,29.69,32.44c0.06,1.72,5.23,0.68,5.18-1.39
								c-0.6-20.11-17.07-34.67-36.94-34.08c-19.02,0.57-34.32,16.29-34.88,35.08c-0.61,20.31,17.67,35.05,36.95,34.47
								c19.01-0.57,34.31-16.29,34.88-35.08C1110.54,1448.33,1105.36,1449.39,1105.3,1451.17z"/>
						</g>
					</g>
					<g>
						<path class="st31" d="M1091.82,1450.85c0,18.4-7.52,33.32-16.81,33.32c-9.28,0-16.81-14.92-16.81-33.32
							c0-18.4,7.52-33.32,16.81-33.32C1084.3,1417.53,1091.82,1432.45,1091.82,1450.85z"/>
						<path class="st17" d="M1063.31,1457.7c0,0-1.76-26.16,9-31.24c9.46-4.47,13.81,14.87,13.81,14.87s-5.56-13.09-12.76-8.92
							C1065.52,1436.94,1063.31,1457.7,1063.31,1457.7z"/>
						<path class="st37" d="M1079.22,1471.98c-9.51,7.19-17.06-4.6-20.19-10.81c2.19,13.35,8.52,23.01,15.99,23.01
							c9.29,0,16.81-14.92,16.81-33.32c0-7.01-1.09-13.52-2.95-18.88C1089.17,1441.13,1088.96,1464.63,1079.22,1471.98z"/>
						<g>
							<path d="M1089.99,1451.35c-0.14,7.21-3.79,38.2-18.1,30.77c-10.04-5.22-11.67-22.04-11.85-31.76
								c-0.14-7.32,3.99-38.11,18.1-30.77C1088.18,1424.81,1089.8,1441.64,1089.99,1451.35c0.01,0.74,3.69,0.15,3.67-0.99
								c-0.19-10.37-3.65-36.15-19.58-33.5c-14.67,2.45-17.49,22.59-17.72,34.49c-0.19,10.4,3.89,36.1,19.59,33.49
								c14.66-2.44,17.49-22.59,17.71-34.48C1093.68,1449.66,1090.01,1450.2,1089.99,1451.35z"/>
						</g>
					</g>
					<g>
						<g>
							<path class="st31" d="M1076.6,1419.01c-7.76,1.08-15.02-3.86-16.22-11.05c-1.2-7.18,4.12-13.86,11.88-14.93
								c7.77-1.08,15.03,3.88,16.22,11.06C1089.68,1411.27,1084.36,1417.94,1076.6,1419.01z"/>
							<g>
								<path d="M1077.44,1393.2c3.23,0.31,6.33,1.87,8.67,4.16c2.29,2.33,3.69,5.46,3.83,8.7c0.18,3.24-1.03,6.53-3.18,9.13
									c-2.17,2.59-5.37,4.44-8.87,5.16c-3.49,0.69-7.25,0.25-10.42-1.26c-3.15-1.55-5.75-4.06-7.08-7.07
									c-1.39-2.97-1.55-6.36-0.54-9.36c1.06-2.97,3.18-5.57,5.95-7.1c-4.79,4.09-5.83,10.63-3.07,15.48
									c2.64,4.86,8.88,7.59,14.45,6.35c5.62-1,10.05-5.88,10.19-11.31C1087.65,1400.63,1083.67,1395.05,1077.44,1393.2z"/>
							</g>
						</g>
						<g>
							<path class="st31" d="M1073.21,1398.81c-4.31,0.6-7.27,4.32-6.59,8.31c0.69,3.99,4.73,6.74,9.04,6.12
								c4.31-0.6,7.26-4.31,6.57-8.31C1081.57,1400.95,1077.53,1398.21,1073.21,1398.81z"/>
							<path class="st37" d="M1080.21,1409.91c0,0-9.12,3.4-12.63-4.67c0,0-1.65,5.08,3.7,7.45
								C1076.63,1415.06,1079.73,1410.14,1080.21,1409.91z"/>
							<g>
								<path d="M1066.85,1410.58L1066.85,1410.58c-0.72-1.04-1.19-2.18-1.4-3.41c-0.78-4.62,2.56-8.92,7.46-9.6
									c3.55-0.49,7.12,1.04,9.1,3.89c0.72,1.04,1.18,2.18,1.4,3.4c0.78,4.62-2.56,8.92-7.45,9.61
									C1072.41,1414.98,1068.84,1413.45,1066.85,1410.58z M1080.16,1402.75c-1.4-2.01-4-3.07-6.64-2.71
									c-3.73,0.52-6.29,3.66-5.73,7.01c0.14,0.8,0.45,1.56,0.92,2.24c1.4,2.03,4.01,3.09,6.64,2.71c3.73-0.52,6.29-3.66,5.72-7.01
									C1080.93,1404.19,1080.63,1403.43,1080.16,1402.75z"/>
							</g>
							<path class="st17" d="M1080.37,1407.33c0,0,0.86-3.67-2.53-6.09c-2.66-1.91-7.21-0.47-8.49,1.77c0,0,5.05-2.86,8.02-0.84
								C1079.09,1403.32,1079.73,1404.93,1080.37,1407.33z"/>
						</g>
					</g>
				</g>
			</g>
			<path class="st13" d="M1066.97,357.63c-2.75-8.26-3.99-16.01-4.91-23.8c-0.83-7.76-1.11-15.49-0.8-23.27
				c0.31-7.77,1.25-15.59,3.02-23.39c1.86-7.78,4.33-15.57,8.98-22.97c3.13,8.14,4.57,15.93,5.61,23.74
				c0.95,7.8,1.29,15.58,0.95,23.4c-0.34,7.82-1.33,15.68-3.24,23.5C1074.59,342.63,1071.91,350.43,1066.97,357.63z"/>
			<g class="st40">
				<path d="M1563.03,1137.64c-3.86,12.87-6.26,26.76-11.01,39.19c-4.77,12.44-9.76,24.74-14.72,37.03
					c-10,24.54-20.28,48.84-30.51,73.12c-20.58,48.48-41.12,96.73-61.11,145.11l-7.46,18.15l-7.37,18.18
					c-2.55,6.03-4.89,12.12-7.34,18.19l-3.64,9.11c-1.16,3.05-2.36,6.09-3.57,9.13c-2.38,6.08-4.89,12.13-7.16,18.25
					c-2.28,6.12-4.69,12.2-7.08,18.28l-6.89,18.36c-2.42,6.09-4.57,12.25-6.85,18.38c-9.04,24.55-17.89,49.22-26.16,74.18
					c-2.25,6.2-4.11,12.49-6.2,18.75l-3.12,9.4l-2.97,9.45c-1,3.15-1.96,6.32-3.01,9.47c-1.05,3.16-2.07,6.32-2.98,9.51
					c-1.95,6.36-3.88,12.73-6.05,19.11c-0.18-6.7-0.14-13.39-0.1-20.1c0.04-6.72,0.51-13.38,0.87-20.08
					c0.21-3.35,0.34-6.71,0.65-10.05l0.95-10.01c0.67-6.67,1.33-13.36,2.27-19.99c3.38-26.64,8.68-52.96,14.91-79.03
					c6.22-26.09,13.81-51.81,22.26-77.2c8.55-25.36,17.74-50.49,28.04-75.14c20.46-49.35,43.97-97.33,70.22-143.68
					c13.18-23.15,27-45.92,41.6-68.2C1534.08,1182.19,1547.1,1159.12,1563.03,1137.64z"/>
			</g>
			<g class="st40">
				<path d="M1432.4,1079.5c4.92-15.39,9.24-30.59,13.3-45.79c4-15.21,7.72-30.36,11.02-45.55c6.62-30.37,11.91-60.79,15.49-91.43
					c1.02-7.65,1.65-15.33,2.51-23c0.59-7.69,1.41-15.37,1.86-23.09c0.25-3.85,0.62-7.71,0.79-11.57c0.14-3.86,0.38-7.73,0.61-11.6
					c0.29-3.87,0.28-7.74,0.44-11.62c0.13-3.88,0.39-7.77,0.42-11.65c0.06-7.77,0.43-15.58,0.35-23.4l0.1-11.76l-0.12-11.79
					c0.03-3.95,0.03-7.9-0.1-11.85c-0.06-3.96-0.17-7.92-0.15-11.91c0.03-4-0.18-7.97-0.23-11.98c-0.05-4.01-0.1-8.04,0-12.11
					c1.63,3.7,3.1,7.46,4.58,11.22c1.41,3.78,2.96,7.55,4.12,11.4c2.45,7.68,4.95,15.41,6.82,23.26l2.86,11.8
					c0.84,3.96,1.54,7.94,2.32,11.92c0.79,3.98,1.5,7.97,2.02,11.99c0.57,4.01,1.17,8.03,1.66,12.06
					c1.84,16.12,2.88,32.38,2.76,48.65c0.14,8.14-0.39,16.27-0.72,24.4c-0.65,8.11-1.2,16.24-2.27,24.32
					c-1.93,16.17-4.75,32.24-8.65,48.04c-0.91,3.96-2,7.89-3.04,11.82c-0.52,1.96-1.04,3.93-1.61,5.88l-1.8,5.83
					c-2.31,7.79-5,15.47-7.85,23.08c-5.75,15.2-12.43,30.03-20.19,44.27c-3.94,7.09-8.05,14.08-12.56,20.82
					C1442.62,1066.89,1437.85,1073.48,1432.4,1079.5z"/>
			</g>
			<g class="st40">
				<path d="M676.76,909.87c1.13-1.52,1.45-3.39,1.72-5.2c0.25-1.82,0.34-3.67,0.36-5.52c0.03-3.7-0.19-7.41-0.5-11.12
					c-0.57-7.42-1.47-14.84-2.37-22.26l-5.86-44.57c-3.9-29.76-7.34-59.66-9.91-89.69c-5.06-60.05-6.75-120.71-2.6-181.36
					c1.06-15.15,2.51-30.32,4.29-45.42c1.87-15.04,3.97-30.07,6.53-45.07c2.64-14.98,5.48-29.97,9.08-44.83
					c1.77-7.43,3.69-14.84,5.71-22.23l3.26-11.03c1.17-3.66,2.26-7.33,3.49-10.97c2.4-7.29,4.96-14.53,7.79-21.68
					c2.76-7.17,5.74-14.25,8.91-21.25c6.38-13.98,13.59-27.56,21.55-40.62c16.05-26.07,35.15-49.89,56.51-71.16
					c-8.03,12.76-15.77,25.61-23.07,38.6c-7.24,13.03-13.94,26.25-19.97,39.69c-2.98,6.74-5.91,13.48-8.52,20.35
					c-2.71,6.82-5.19,13.73-7.57,20.65c-2.26,6.97-4.57,13.91-6.56,20.96c-1.04,3.51-2,7.04-2.93,10.58
					c-0.97,3.53-1.86,7.08-2.76,10.63c-7,28.45-12.02,57.45-15.92,86.71c-1.98,14.63-3.75,29.32-5.21,44.07
					c-1.63,14.68-2.84,29.38-3.86,44.12c-4.11,58.99-4.6,118.43-4.07,178.11c0.2,29.85,0.74,59.77,0.82,89.82
					c0,15.03-0.03,30.09-0.62,45.2c-0.28,7.55-0.72,15.12-1.52,22.69c-0.44,3.78-0.96,7.56-1.75,11.31c-0.4,1.87-0.86,3.74-1.5,5.56
					C679.02,906.75,678.21,908.62,676.76,909.87z"/>
			</g>
			<g>
				<path class="st23" d="M643.36,1185.28c0.85,0.61,69.25,117.41-9.16,142.04c-21.71,6.82-54.65-34.67-54.65-34.67
					s-23.77-4.91-28.87-10.7c-5.11-5.79-33.12-104.51-33.12-104.51l5.32-34.29l35.61-24.05l41.25,2.8l54.36,19.68l-2.49,37.25
					L643.36,1185.28z"/>
				<path class="st24" d="M518.37,1089.28c0.48-0.85,2.83-3.65,4.55-5.65c1.6-1.87,3.5-3.58,5.77-5c4.92-3.08,9.19-3.73,17.4-5.36
					l66.37-13.15c14.88-2.95,32.01,1.02,43.98,10.19l48.54,37.17c8.72,6.68,9,15.9,5.17,23.61l-18.54,40.13
					c-3.1,6.22-11.74,8.37-20.35,4.55c-12.81-5.68-14.03-12.25-12.6-21.76c2.42-16.07-12.48-36-50.68-42.03
					c-38.21-6.03-82.93,9.34-82.93,9.34l2.99-5.56C519.83,1109.62,515.5,1094.36,518.37,1089.28z"/>
				<path class="st23" d="M507.82,1093.91c0.48-0.85,2.83-3.65,4.55-5.65c1.6-1.87,3.5-3.58,5.77-5c4.92-3.08,9.19-3.73,17.4-5.36
					l66.37-13.15c14.88-2.95,32.01,1.02,43.98,10.19l48.54,37.17c8.72,6.68,9,15.9,5.17,23.61l-18.54,40.13
					c-3.1,6.22-11.74,8.37-20.35,4.55c-12.81-5.68-14.03-12.25-12.6-21.76c2.42-16.07-12.48-36-50.68-42.03
					c-38.21-6.03-82.93,9.34-82.93,9.34l2.99-5.56C509.28,1114.25,504.95,1098.98,507.82,1093.91z"/>
				<path class="st25" d="M497.16,1102.58c0.48-0.85,2.83-3.65,4.55-5.65c1.6-1.87,3.5-3.58,5.77-5c4.92-3.08,9.19-3.73,17.4-5.36
					l66.37-13.15c14.88-2.95,32.01,1.02,43.98,10.19l48.54,37.17c8.72,6.68,9,15.9,5.17,23.61l-18.54,40.13
					c-3.1,6.22-11.74,8.37-20.35,4.55c-12.81-5.68-14.03-12.25-12.6-21.76c2.42-16.07-12.48-36-50.68-42.03s-82.93,9.34-82.93,9.34
					l2.99-5.56C498.62,1122.92,494.29,1107.66,497.16,1102.58z"/>
				<g>
					<path class="st6" d="M664.09,1305.35c87.24,186.24,62.98,478.7,61.78,570.24c-0.26,19.89-7.39,151.39-13.37,170.37
						c-77.12,244.26-231.11,61.28-283.55-146.14c-31.34-123.97,20.12-364.91,91.75-563.79c5.96-16.55,6.65-34.52,2.02-51.49
						l-41-150.31c-0.06-10.45,6.93-19.62,17.02-22.34l83.81-22.61c7.98-2.15,16.48-1.22,23.79,2.62l42.87,22.46
						c10.91,5.72,16.42,18.22,13.27,30.14l-7.19,27.19c-1.32,5-6.75,7.78-11.52,5.79c-8.24-3.44-18.84-10.58-17.7-24.43
						c0.57-6.93-3.73-13.35-10.18-15.96l-15.68-6.35c-6.03-2.44-12.8-2.19-18.64,0.69c-11.15,5.52-30.7,14.32-46.63,16.89
						c-5.59,0.9-8.03,7.52-4.55,11.98c7.61,9.73,10.34,18,11.81,27.75c2.47,16.34,9.74,31.47,20.81,43.74
						c16.63,18.42,15.49,48.93,46.6,81.09C637.89,1342.09,664.09,1305.35,664.09,1305.35z"/>
					<g>
						<path class="st0" d="M690.39,1366.04c-37.43,8.36-76.56,9.09-114.34,2.47c-18.45-3.24-36.63-8.12-54.18-14.68
							c-7.73-2.89-18.71-5.72-24.98-11.3c-0.31,0.46-0.61,0.92-0.92,1.38c0.83-0.89,1.75-1.69,2.75-2.39
							c1.91-1.5,3.98-2.81,6.16-3.88c4.55-2.24,9.46-3.34,14.5-3.65c10.96-0.67,11.03-17.81,0-17.13
							c-14.71,0.89-52.5,14.34-36.8,35.28c6.25,8.33,18.62,11.85,27.88,15.57c11.85,4.77,24.01,8.76,36.38,11.98
							c48.31,12.55,99.36,13.77,148.09,2.88C705.7,1380.16,701.15,1363.63,690.39,1366.04L690.39,1366.04z"/>
					</g>
					<g>
						<path class="st0" d="M696.69,1380.13c-18.25,3.95-36.01,9.89-54.31,13.63c-18.35,3.75-37.06,5.46-55.78,5.32
							c-18.22-0.13-36.38-2.02-54.2-5.81c-5.4-1.15-51.52-11.45-47.39-19.17c-2.47,1.41-4.93,2.83-7.4,4.24
							c8.36-0.92,16.71-1.85,25.07-2.77c10.84-1.2,10.96-18.35,0-17.13c-6.79,0.75-13.58,1.5-20.37,2.25
							c-6.06,0.67-10.43,0.88-13.22,6.86c-4.19,8.98,0.09,19.04,7.52,24.74c9.18,7.04,22.38,10.01,33.32,13.09
							c12.34,3.47,24.91,6.07,37.61,7.86c25.17,3.54,50.65,3.98,75.89,0.84c26.62-3.31,51.73-11.78,77.83-17.42
							C712.02,1394.33,707.46,1377.8,696.69,1380.13L696.69,1380.13z"/>
					</g>
					<path class="st6" d="M656.23,1070.79l16.5-15.6c7.02-6.02,16.46-8.9,25.47-6.83c6.04,1.39,11.63,5,13.2,13.26
						c1.28,6.76-0.94,13.71-5.39,18.96c-2.79,3.3-6.02,11.3-12.24,19.07l-14.44-11.55L656.23,1070.79z"/>
				</g>
			</g>
			<g>
				<path class="st23" d="M643.36,1185.28c0.85,0.61,69.25,117.41-9.16,142.04c-21.71,6.82-54.65-34.67-54.65-34.67
					s-23.77-4.91-28.87-10.7c-5.11-5.79-33.12-104.51-33.12-104.51l5.32-34.29l35.61-24.05l41.25,2.8l54.36,19.68l-2.49,37.25
					L643.36,1185.28z"/>
				<path class="st24" d="M518.37,1089.28c0.48-0.85,2.83-3.65,4.55-5.65c1.6-1.87,3.5-3.58,5.77-5c4.92-3.08,9.19-3.73,17.4-5.36
					l66.37-13.15c14.88-2.95,32.01,1.02,43.98,10.19l48.54,37.17c8.72,6.68,9,15.9,5.17,23.61l-18.54,40.13
					c-3.1,6.22-11.74,8.37-20.35,4.55c-12.81-5.68-14.03-12.25-12.6-21.76c2.42-16.07-12.48-36-50.68-42.03
					c-38.21-6.03-82.93,9.34-82.93,9.34l2.99-5.56C519.83,1109.62,515.5,1094.36,518.37,1089.28z"/>
				<path class="st23" d="M507.82,1093.91c0.48-0.85,2.83-3.65,4.55-5.65c1.6-1.87,3.5-3.58,5.77-5c4.92-3.08,9.19-3.73,17.4-5.36
					l66.37-13.15c14.88-2.95,32.01,1.02,43.98,10.19l48.54,37.17c8.72,6.68,9,15.9,5.17,23.61l-18.54,40.13
					c-3.1,6.22-11.74,8.37-20.35,4.55c-12.81-5.68-14.03-12.25-12.6-21.76c2.42-16.07-12.48-36-50.68-42.03
					c-38.21-6.03-82.93,9.34-82.93,9.34l2.99-5.56C509.28,1114.25,504.95,1098.98,507.82,1093.91z"/>
				<path class="st25" d="M497.16,1102.58c0.48-0.85,2.83-3.65,4.55-5.65c1.6-1.87,3.5-3.58,5.77-5c4.92-3.08,9.19-3.73,17.4-5.36
					l66.37-13.15c14.88-2.95,32.01,1.02,43.98,10.19l48.54,37.17c8.72,6.68,9,15.9,5.17,23.61l-18.54,40.13
					c-3.1,6.22-11.74,8.37-20.35,4.55c-12.81-5.68-14.03-12.25-12.6-21.76c2.42-16.07-12.48-36-50.68-42.03s-82.93,9.34-82.93,9.34
					l2.99-5.56C498.62,1122.92,494.29,1107.66,497.16,1102.58z"/>
				<g>
					<path class="st6" d="M664.09,1305.35c87.24,186.24,62.98,478.7,61.78,570.24c-0.26,19.89-7.39,151.39-13.37,170.37
						c-77.12,244.26-231.11,61.28-283.55-146.14c-31.34-123.97,20.12-364.91,91.75-563.79c5.96-16.55,6.65-34.52,2.02-51.49
						l-41-150.31c-0.06-10.45,6.93-19.62,17.02-22.34l83.81-22.61c7.98-2.15,16.48-1.22,23.79,2.62l42.87,22.46
						c10.91,5.72,16.42,18.22,13.27,30.14l-7.19,27.19c-1.32,5-6.75,7.78-11.52,5.79c-8.24-3.44-18.84-10.58-17.7-24.43
						c0.57-6.93-3.73-13.35-10.18-15.96l-15.68-6.35c-6.03-2.44-12.8-2.19-18.64,0.69c-11.15,5.52-30.7,14.32-46.63,16.89
						c-5.59,0.9-8.03,7.52-4.55,11.98c7.61,9.73,10.34,18,11.81,27.75c2.47,16.34,9.74,31.47,20.81,43.74
						c16.63,18.42,15.49,48.93,46.6,81.09C637.89,1342.09,664.09,1305.35,664.09,1305.35z"/>
					<g>
						<path class="st13" d="M690.39,1366.04c-37.43,8.36-76.56,9.09-114.34,2.47c-18.45-3.24-36.63-8.12-54.18-14.68
							c-7.73-2.89-18.71-5.72-24.98-11.3c-0.31,0.46-0.61,0.92-0.92,1.38c0.83-0.89,1.75-1.69,2.75-2.39
							c1.91-1.5,3.98-2.81,6.16-3.88c4.55-2.24,9.46-3.34,14.5-3.65c10.96-0.67,11.03-17.81,0-17.13
							c-14.71,0.89-52.5,14.34-36.8,35.28c6.25,8.33,18.62,11.85,27.88,15.57c11.85,4.77,24.01,8.76,36.38,11.98
							c48.31,12.55,99.36,13.77,148.09,2.88C705.7,1380.16,701.15,1363.63,690.39,1366.04L690.39,1366.04z"/>
					</g>
					<g>
						<path class="st13" d="M696.69,1380.13c-18.25,3.95-36.01,9.89-54.31,13.63c-18.35,3.75-37.06,5.46-55.78,5.32
							c-18.22-0.13-36.38-2.02-54.2-5.81c-5.4-1.15-51.52-11.45-47.39-19.17c-2.47,1.41-4.93,2.83-7.4,4.24
							c8.36-0.92,16.71-1.85,25.07-2.77c10.84-1.2,10.96-18.35,0-17.13c-6.79,0.75-13.58,1.5-20.37,2.25
							c-6.06,0.67-10.43,0.88-13.22,6.86c-4.19,8.98,0.09,19.04,7.52,24.74c9.18,7.04,22.38,10.01,33.32,13.09
							c12.34,3.47,24.91,6.07,37.61,7.86c25.17,3.54,50.65,3.98,75.89,0.84c26.62-3.31,51.73-11.78,77.83-17.42
							C712.02,1394.33,707.46,1377.8,696.69,1380.13L696.69,1380.13z"/>
					</g>
					<path class="st6" d="M656.23,1070.79l16.5-15.6c7.02-6.02,16.46-8.9,25.47-6.83c6.04,1.39,11.63,5,13.2,13.26
						c1.28,6.76-0.94,13.71-5.39,18.96c-2.79,3.3-6.02,11.3-12.24,19.07l-14.44-11.55L656.23,1070.79z"/>
				</g>
			</g>
			<path class="st49" d="M1672.48,1295.98c0,0,89.5,294.48,83.73,433.06h-208.79L1672.48,1295.98z"/>
			<path class="st44" d="M740.31,2198.57c206.29,105.2,536.33,88.94,639.39,91.05c22.4,0.46,170.65-2.6,192.23-8.62
				c277.79-77.56,77.69-257.77-153.75-324.61c-138.33-39.95-411.42,8.86-637.93,81.97c-18.84,6.08-39.1,6.18-58.02,0.33
				l-167.61-51.81c-11.76-0.46-22.34,7.06-25.79,18.31l-28.6,93.46c-2.72,8.9-1.99,18.49,2.05,26.88l23.66,49.09
				c6.02,12.5,19.89,19.17,33.41,16.07l30.87-7.06c5.68-1.3,9.01-7.3,6.95-12.75c-3.55-9.4-11.2-21.6-26.82-20.84
				c-7.82,0.38-14.88-4.7-17.58-12.06l-6.55-17.89c-2.52-6.88-1.98-14.49,1.48-20.95c6.63-12.34,17.27-34.01,20.77-51.84
				c1.23-6.25,8.77-8.76,13.66-4.66c10.67,8.93,19.87,12.31,30.79,14.34c18.3,3.4,35.05,12.15,48.43,25.07
				c20.1,19.41,54.47,19.28,89.49,55.5C782.65,2170.47,740.31,2198.57,740.31,2198.57z"/>
			<g class="st45">
				<path d="M1652.27,2075.5c-3.66-2.88-7.04-6.08-10.44-9.18c-3.4-3.11-6.79-6.21-10.2-9.26c-6.83-6.08-13.74-12.01-20.83-17.65
					c-14.14-11.32-29-21.56-44.58-30.5c-7.77-4.51-15.76-8.62-23.92-12.37l-3.05-1.43c-1.02-0.48-2.06-0.89-3.09-1.34
					c-2.08-0.86-4.12-1.81-6.2-2.66c-4.19-1.64-8.36-3.37-12.62-4.84c-4.22-1.63-8.55-2.91-12.84-4.39l-6.52-1.94
					c-1.09-0.33-2.17-0.68-3.27-0.99l-3.3-0.87c-8.78-2.54-17.74-4.36-26.8-6.5c2.31-0.13,4.63-0.16,6.96-0.24l3.49-0.06
					c1.16-0.01,2.32,0.07,3.48,0.1c2.32,0.07,4.65,0.19,6.98,0.29c2.32,0.16,4.64,0.42,6.96,0.63l3.49,0.36
					c1.16,0.15,2.31,0.33,3.47,0.5l6.94,1.08c2.3,0.44,4.59,0.93,6.88,1.41c2.31,0.45,4.58,1.02,6.84,1.62
					c9.12,2.26,18.04,5.3,26.75,8.86c4.38,1.72,8.62,3.78,12.89,5.75l6.27,3.24c2.09,1.08,4.12,2.27,6.18,3.41
					c16.32,9.38,31.41,20.82,44.83,33.86c6.7,6.53,13,13.43,18.86,20.66c2.91,3.63,5.74,7.32,8.43,11.09
					c1.35,1.88,2.68,3.78,3.99,5.69C1649.61,2071.72,1650.91,2073.62,1652.27,2075.5z"/>
			</g>
			<g>
				<path class="st13" d="M807.61,2230.45c10.82-41.81,13.12-85.82,7.1-128.58c-2.94-20.89-7.75-41.52-14.47-61.52
					c-2.96-8.81-5.73-21.27-11.78-28.53c0.53-0.33,1.05-0.65,1.58-0.98c-1.04,0.9-1.96,1.9-2.79,3c-1.76,2.09-3.31,4.38-4.6,6.79
					c-2.69,5.04-4.12,10.52-4.65,16.18c-1.16,12.3-20.45,11.74-19.28-0.65c1.56-16.52,18.12-58.54,41.09-40.08
					c9.14,7.35,12.63,21.4,16.47,31.97c4.92,13.51,8.96,27.36,12.1,41.39c12.3,54.84,11.74,112.33-2.35,166.77
					C822.92,2248.21,804.5,2242.47,807.61,2230.45L807.61,2230.45z"/>
			</g>
			<g>
				<path class="st13" d="M823.24,2238.08c5.13-20.39,12.49-40.15,17.39-60.61c4.92-20.51,7.54-41.5,8.09-62.58
					c0.54-20.51-0.9-41.02-4.49-61.22c-1.09-6.12-10.95-58.41-19.79-54.05c1.68-2.72,3.37-5.44,5.05-8.16
					c-1.36,9.37-2.71,18.74-4.07,28.11c-1.76,12.15-21.06,11.64-19.28-0.65c1.1-7.61,2.2-15.23,3.3-22.84
					c0.98-6.79,1.39-11.71,8.22-14.62c10.27-4.37,21.42,0.82,27.56,9.39c7.57,10.6,10.42,25.56,13.47,37.99
					c3.44,14.02,5.89,28.26,7.42,42.62c3.03,28.46,2.57,57.15-1.92,85.44c-4.73,29.83-15.2,57.77-22.55,86.93
					C838.63,2255.86,820.21,2250.11,823.24,2238.08L823.24,2238.08z"/>
			</g>
			<path class="st55" d="M1080.63,1835.87c0,0,112.6,63.52,228.08-14.44l-20.21,115.48
				C1288.5,1936.92,1126.82,1908.05,1080.63,1835.87z"/>
		</g>
	</g>
</g>
<g id="Layer_2" class="st38">
</g>
</svg>
