<svg id="Layer_1" data-name="Layer 1" xmlns="http://www.w3.org/2000/svg" viewBox="0 0 40 40"><defs><style>.cls-1{fill:#fffad9;}.cls-2{fill:#fff578;}.cls-3{fill:#ff6194;}.cls-4{fill:#ff38b0;}.cls-5{fill:#ffcf28;}.cls-6{fill:#ffb021;}</style></defs><title>Icons40px</title><path class="cls-1" d="M33.81,12.55H6.19A1.18,1.18,0,0,0,5,13.72v22A4.31,4.31,0,0,0,9.33,40H30.67A4.31,4.31,0,0,0,35,35.69v-22a1.18,1.18,0,0,0-1.17-1.17Zm0,0"/><path class="cls-2" d="M33.81,12.55H20V40H30.67A4.31,4.31,0,0,0,35,35.69v-22a1.18,1.18,0,0,0-1.17-1.17Zm0,0"/><path class="cls-3" d="M31.92,6.28H8.08a4.31,4.31,0,0,0-4.31,4.31v3.13A1.17,1.17,0,0,0,4.94,14.9H35.06a1.17,1.17,0,0,0,1.17-1.18V10.59a4.31,4.31,0,0,0-4.31-4.31Zm0,0"/><path class="cls-4" d="M31.92,6.28H20V14.9H35.06a1.17,1.17,0,0,0,1.17-1.18V10.59a4.31,4.31,0,0,0-4.31-4.31Zm0,0"/><path class="cls-5" d="M23.14,0A4.29,4.29,0,0,0,20,1.36a4.31,4.31,0,1,0-3.14,7.26h2v5.1a1.17,1.17,0,1,0,2.34,0V8.62h2a4.31,4.31,0,0,0,0-8.62ZM14.9,4.31a2,2,0,1,1,3.93,0v2h-2a2,2,0,0,1-2-2Zm8.24,2h-2v-2a2,2,0,1,1,2,2Zm0,0"/><path class="cls-5" d="M27.71,24.43a1.17,1.17,0,0,0-.94-.8l-3.95-.57-1.77-3.58a1.17,1.17,0,0,0-2.1,0l-1.77,3.58-3.95.57a1.17,1.17,0,0,0-.94.8,1.16,1.16,0,0,0,.29,1.2l2.86,2.79-.67,3.93a1.16,1.16,0,0,0,.46,1.15,1.21,1.21,0,0,0,1.24.09L20,31.73l3.53,1.86a1.23,1.23,0,0,0,.55.13,1.17,1.17,0,0,0,1.17-1.17,1.09,1.09,0,0,0,0-.26l-.66-3.87,2.86-2.79a1.16,1.16,0,0,0,.29-1.2Zm0,0"/><path class="cls-6" d="M21.17,13.72V8.62h2A4.31,4.31,0,1,0,20,1.36V14.9a1.17,1.17,0,0,0,1.17-1.18Zm0-9.41a2,2,0,1,1,2,2h-2Zm0,0"/><path class="cls-6" d="M27.71,24.43a1.17,1.17,0,0,0-.94-.8l-3.95-.57-1.77-3.58A1.17,1.17,0,0,0,20,18.83h0v12.9l3.53,1.86a1.23,1.23,0,0,0,.55.13,1.17,1.17,0,0,0,1.17-1.17,1.09,1.09,0,0,0,0-.26l-.66-3.87,2.86-2.79a1.16,1.16,0,0,0,.29-1.2Zm0,0"/></svg>