<svg id="Layer_1" data-name="Layer 1" xmlns="http://www.w3.org/2000/svg" xmlns:xlink="http://www.w3.org/1999/xlink" viewBox="0 0 40 40"><defs><style>.cls-1{fill:none;}.cls-2{clip-path:url(#clip-path);}.cls-3{fill:#ff6194;}.cls-4{fill:#ff38b0;}.cls-5{fill:#ffcf28;}.cls-6{fill:#ff8c1c;}.cls-7{fill:#fff3d7;}.cls-8{fill:#ffd763;}</style><clipPath id="clip-path"><rect class="cls-1" x="4.77" width="30.47" height="40"/></clipPath></defs><title>Icons40px</title><g class="cls-2"><path class="cls-3" d="M26.35,24.6a1.2,1.2,0,0,0-1.19,1.19H14.79a1.19,1.19,0,0,0-2.38,0v13a1.19,1.19,0,0,0,.57,1,1.17,1.17,0,0,0,.62.18,1.13,1.13,0,0,0,.54-.13L20,37l5.84,2.92a1.18,1.18,0,0,0,1.72-1.06v-13a1.19,1.19,0,0,0-1.19-1.19Zm0,0"/><path class="cls-4" d="M26.35,24.6a1.2,1.2,0,0,0-1.19,1.19H20V37l5.84,2.92a1.17,1.17,0,0,0,1.16,0,9,9,0,0,1,1.29-1v-13c-.73-.68-1.26-1.22-1.92-1.22Zm0,0"/><path class="cls-5" d="M35.06,14l-1.93-3.73L32.5,6.11a1.19,1.19,0,0,0-.64-.89L28.11,3.34l-2.95-3a1.18,1.18,0,0,0-1-.33L20,.7,15.84,0a1.18,1.18,0,0,0-1,.33l-3,3L8.1,5.22a1.17,1.17,0,0,0-.64.89l-.63,4.14L4.9,14a1.17,1.17,0,0,0,0,1.09L6.83,18.8,7.46,23a1.17,1.17,0,0,0,.64.88l3.75,1.88,3,3a1.21,1.21,0,0,0,1,.34L20,28.35l4.14.69h.19a1.19,1.19,0,0,0,.85-.35l2.95-3,3.75-1.88A1.19,1.19,0,0,0,32.5,23l.63-4.15,1.93-3.73a1.17,1.17,0,0,0,0-1.09Zm0,0"/><path class="cls-6" d="M35.06,14l-1.93-3.73L32.5,6.11a1.19,1.19,0,0,0-.64-.89L28.11,3.34l-2.95-3a1.18,1.18,0,0,0-1-.33L20,.7V28.35l4.14.69h.19a1.19,1.19,0,0,0,.85-.35l2.95-3,3.75-1.88A1.19,1.19,0,0,0,32.5,23l.63-4.15,1.93-3.73a1.17,1.17,0,0,0,0-1.09Zm0,0"/></g><path class="cls-7" d="M20,6.33a8.2,8.2,0,1,0,8.2,8.2A8.2,8.2,0,0,0,20,6.33Zm0,0"/><path class="cls-8" d="M28.18,14.53A8.2,8.2,0,0,0,20,6.33v16.4a8.21,8.21,0,0,0,8.2-8.2Zm0,0"/></svg>