<svg id="Layer_1" data-name="Layer 1" xmlns="http://www.w3.org/2000/svg" xmlns:xlink="http://www.w3.org/1999/xlink" viewBox="0 0 40 40"><defs><style>.cls-1{fill:none;}.cls-2{clip-path:url(#clip-path);}.cls-3{fill:#0059b0;}.cls-4{fill:#73baff;}.cls-5{fill:#0094ff;}.cls-6{fill:#ffcf28;}.cls-7{fill:#ff8c1c;}.cls-8{fill:#ff6b14;}</style><clipPath id="clip-path"><rect class="cls-1" x="5.16" width="29.69" height="40"/></clipPath></defs><title>Icons40px</title><g class="cls-2"><path class="cls-3" d="M27.32.72A1.18,1.18,0,0,0,26.24,0H13.69A1.19,1.19,0,0,0,12.6.72,1.17,1.17,0,0,0,12.86,2l6.27,6.28a1.18,1.18,0,0,0,1.66,0L27.07,2A1.18,1.18,0,0,0,27.32.72Zm0,0"/><path class="cls-4" d="M20.79,6.62,14.52.34A1.17,1.17,0,0,0,13.69,0H8C6.14,0,5.52.86,5.3,1.38s-.38,1.56.9,2.84l8.5,8.49a1.18,1.18,0,0,0,.83.35,1.14,1.14,0,0,0,.82-.35l4.44-4.43a1.16,1.16,0,0,0,0-1.66Zm0,0"/><path class="cls-5" d="M34.62,1.38C34.41.86,33.78,0,32,0H26.24a1.17,1.17,0,0,0-.83.34L14.7,11.06a1.16,1.16,0,0,0-.26,1.27,1.18,1.18,0,0,0,1.09.73H24.4a1.18,1.18,0,0,0,.83-.35l8.5-8.49c1.27-1.28,1.11-2.33.89-2.84Zm0,0"/></g><path class="cls-6" d="M27.57,12.85a1.15,1.15,0,0,0,.51-1,1.17,1.17,0,0,0-1.17-1.18H13a1.17,1.17,0,0,0-.67,2.14,14.65,14.65,0,1,0,15.22,0Zm0,0"/><path class="cls-7" d="M27.57,12.85a1.15,1.15,0,0,0,.51-1,1.17,1.17,0,0,0-1.17-1.18H20V40h0a14.64,14.64,0,0,0,7.61-27.15Zm0,0"/><path class="cls-7" d="M29,22.46a1.19,1.19,0,0,0-1-.8L23.19,21,21,16.54A1.16,1.16,0,0,0,20,15.89a1.18,1.18,0,0,0-1.05.65L16.73,21l-4.87.7a1.18,1.18,0,0,0-.65,2l3.53,3.44L13.91,32a1.17,1.17,0,0,0,.46,1.15,1.2,1.2,0,0,0,1.24.09L20,30.89l4.36,2.3a1.17,1.17,0,0,0,.55.13h0A1.17,1.17,0,0,0,26,32.15a1.09,1.09,0,0,0,0-.26l-.82-4.79,3.52-3.44a1.17,1.17,0,0,0,.3-1.2Zm0,0"/><path class="cls-8" d="M29,22.46a1.19,1.19,0,0,0-1-.8L23.19,21,21,16.54A1.16,1.16,0,0,0,20,15.89h0v15h0l4.36,2.3a1.17,1.17,0,0,0,.55.13h0A1.17,1.17,0,0,0,26,32.15a1.09,1.09,0,0,0,0-.26l-.82-4.79,3.52-3.44a1.17,1.17,0,0,0,.3-1.2Zm0,0"/></svg>