<svg id="Layer_1" data-name="Layer 1" xmlns="http://www.w3.org/2000/svg" xmlns:xlink="http://www.w3.org/1999/xlink" viewBox="0 0 40 40"><defs><style>.cls-1{fill:none;}.cls-2{clip-path:url(#clip-path);}.cls-3{fill:#ffccbd;}.cls-4{fill:#ffcf28;}.cls-5{fill:#0059b0;}.cls-6{fill:#ffa68f;}.cls-7{fill:#00335c;}.cls-8{fill:#ff8c1c;}</style><clipPath id="clip-path"><rect class="cls-1" width="40" height="40"/></clipPath></defs><title>Icons40px</title><g class="cls-2"><path class="cls-3" d="M15.79,22.48,10.91,17.6a4.36,4.36,0,0,0-2.29-1.2V12.27A4.32,4.32,0,0,0,4.31,8h0A4.3,4.3,0,0,0,0,12.27V24.19a4.28,4.28,0,0,0,1.26,3L5.8,31.78v.77A1.17,1.17,0,0,0,7,33.72h8a1.17,1.17,0,0,0,1.17-1.17V23.31a1.17,1.17,0,0,0-.34-.83Zm0,0"/></g><path class="cls-4" d="M29,6.51a1.2,1.2,0,0,0-.95-.8L23.2,5,21.05.65a1.17,1.17,0,0,0-2.1,0L16.8,5,12,5.71a1.2,1.2,0,0,0-1,.8,1.17,1.17,0,0,0,.3,1.2l3.48,3.39L14,15.9A1.15,1.15,0,0,0,14.46,17a1.15,1.15,0,0,0,1.24.09L20,14.87l4.3,2.26a1.18,1.18,0,0,0,.55.14h0A1.18,1.18,0,0,0,26,16.09a1.15,1.15,0,0,0,0-.26l-.81-4.73,3.48-3.39a1.17,1.17,0,0,0,.3-1.2Zm0,0"/><g class="cls-2"><path class="cls-5" d="M16.22,31.38H5.72a1.17,1.17,0,0,0-1.17,1.17v3.14A4.31,4.31,0,0,0,8.86,40h4.22a4.32,4.32,0,0,0,4.31-4.31V32.55a1.17,1.17,0,0,0-1.17-1.17Zm0,0"/><path class="cls-6" d="M38.74,9.22a4.31,4.31,0,0,0-7.36,3V16.4a4.36,4.36,0,0,0-2.29,1.2l-4.88,4.88a1.17,1.17,0,0,0-.34.83v9.24A1.17,1.17,0,0,0,25,33.72h8a1.17,1.17,0,0,0,1.17-1.17v-.77l4.54-4.54a4.28,4.28,0,0,0,1.26-3V12.27a4.31,4.31,0,0,0-1.26-3Zm0,0"/></g><path class="cls-7" d="M34.28,31.38H23.78a1.17,1.17,0,0,0-1.17,1.17v3.14A4.32,4.32,0,0,0,26.92,40h4.22a4.31,4.31,0,0,0,4.31-4.31V32.55a1.17,1.17,0,0,0-1.17-1.17Zm0,0"/><path class="cls-8" d="M29,6.51a1.2,1.2,0,0,0-.95-.8L23.2,5,21.05.65A1.17,1.17,0,0,0,20,0V14.87l4.3,2.26a1.18,1.18,0,0,0,.55.14h0A1.18,1.18,0,0,0,26,16.09a1.15,1.15,0,0,0,0-.26l-.81-4.73,3.48-3.39a1.17,1.17,0,0,0,.3-1.2Zm0,0"/></svg>