<svg id="Layer_1" data-name="Layer 1" xmlns="http://www.w3.org/2000/svg" viewBox="0 0 40 40"><defs><style>.cls-1{fill:#835050;}.cls-2{fill:#fece85;}.cls-3{fill:#fedba6;}.cls-4{fill:#6f4343;}.cls-5{fill:#fee8c7;}.cls-6{fill:#9b5e5e;}.cls-7{fill:#583636;}.cls-8{fill:#fec165;}</style></defs><title>Icons40px</title><path class="cls-1" d="M3.37,29V19a4.25,4.25,0,0,0,.8-.05A14.59,14.59,0,0,1,5.8,19c0,.61,0,1.22,0,1.83V34.91c0,.91,0,1.82,0,2.73,0,.25.08.33.34.33h30.5c.37,0,.77,0,1,.36a1.12,1.12,0,0,1-1,.34H3.27a1.5,1.5,0,0,1-1-.32A.94.94,0,0,1,3.11,38c.19,0,.29,0,.28-.26,0-.55,0-1.11,0-1.67V29Z"/><path class="cls-2" d="M32.18,10.33l2,2v.06c-.16,0-.24.14-.34.24q-3,3-6,6c-.1.1-.23.18-.23.34l-.31,0c-.16,0-.31,0-.47,0H22c0-.2.17-.29.28-.4l7.86-7.87c.11-.11.21-.23.32-.35h1.71Z"/><path class="cls-3" d="M32.12,8.68h.07l.34.32c.59.57.44,1.11-.35,1.33H30.62c0-.16.14-.24.23-.34C31.27,9.54,31.74,9.16,32.12,8.68Z"/><path class="cls-3" d="M31.32,7.91s0,0,0,.07l-1.94,2c-.1.11-.25.19-.26.37H23.58c0-.16.13-.24.23-.34l1.81-1.82c.84-.84,1.66-1.68,2.49-2.52h.08c.83.58,1.69,1.13,2.48,1.77C30.88,7.59,31.1,7.75,31.32,7.91Z"/><path class="cls-4" d="M2.29,38.36a1.5,1.5,0,0,0,1,.32H36.73a1.12,1.12,0,0,0,1-.34l.07,0a1,1,0,0,1-1,1.65H3.2A1,1,0,0,1,2,38.91.81.81,0,0,1,2.29,38.36Z"/><path class="cls-2" d="M34.79,13.14A32,32,0,0,1,37.15,16l.13.14v.08c-.91.81-1.73,1.71-2.6,2.57,0,0,0,.11-.07.17l-.31,0-.46,0H29.06c0-.18.14-.27.25-.38l5.19-5.18A3.47,3.47,0,0,1,34.79,13.14Z"/><path class="cls-2" d="M34.79,13.14a3.47,3.47,0,0,0-.29.25l-5.19,5.18c-.11.11-.25.2-.25.38l-.32,0-1.17,0c0-.16.13-.24.23-.34q3-3,6-6c.1-.1.18-.24.34-.24l.62.63Z"/><path class="cls-3" d="M26.16,4.54l.94.55c0,.18-.15.26-.26.37L22.35,10c-.11.1-.25.19-.26.37H16.53c0-.18.15-.26.26-.37l5-5c.11-.12.27-.21.28-.4Z"/><path class="cls-5" d="M26.16,4.54H15.83a1.45,1.45,0,0,1-.09-.46c.2-.47.67-.67,1-1a1.72,1.72,0,0,0,.33-.33A6.7,6.7,0,0,0,18.14,2,14.5,14.5,0,0,1,20.65.83a1.24,1.24,0,0,0,.5-.28l2.42,1a8.23,8.23,0,0,0,1,.63,23.06,23.06,0,0,1,1.87,1.56c.15.16.31.29.21.53S26.38,4.55,26.16,4.54Z"/><path class="cls-3" d="M22.09,10.33c0-.18.15-.27.26-.37l4.49-4.5c.11-.11.26-.19.26-.37h.15l.86.54c-.83.85-1.65,1.69-2.49,2.53L23.81,10c-.1.1-.23.18-.23.34H22.09Z"/><path class="cls-6" d="M36.65,37.81V38H31.17c0-.17.13-.25.23-.35l4.83-4.83c.11-.11.2-.25.39-.23,0,1.49,0,3,0,4.47C36.64,37.29,36.65,37.55,36.65,37.81Z"/><path class="cls-6" d="M36.62,32.56c-.19,0-.28.12-.39.23L31.4,37.62c-.1.1-.23.18-.23.35H29.68c0-.15.11-.22.21-.31l6.37-6.38c.1-.1.19-.22.36-.19l0,1.17Z"/><path class="cls-6" d="M36.65,30.76l0,.32c-.17,0-.26.09-.36.19l-6.37,6.38c-.1.09-.21.16-.21.31H26.4c0-.86,0-1.72,0-2.58.2,0,.3-.12.42-.23.69-.7,1.39-1.4,2.09-2.09.11-.11.19-.26.37-.26,0,.56,0,1.12,0,1.68a.59.59,0,0,0,.6.59.6.6,0,0,0,.56-.62c0-.41,0-.83,0-1.24,0-.68-.12-.8-.79-.8a.37.37,0,0,1,.15-.27c.72-.72,1.45-1.44,2.17-2.17a.41.41,0,0,1,.27-.15c0,.29,0,.57,0,.86a.63.63,0,0,0,.52.71c.35.05.55-.12.68-.53a1.21,1.21,0,0,0,.05-.42v-2.1c.18,0,.26-.15.37-.26l2.34-2.34c.11-.11.2-.24.39-.22,0,1.49,0,3,0,4.47C36.64,30.25,36.65,30.5,36.65,30.76Z"/><path class="cls-6" d="M36.62,25.52c-.19,0-.28.11-.39.22l-2.34,2.34c-.11.11-.19.25-.37.26V26.85c.18,0,.26-.15.37-.26l2.34-2.34c.11-.11.21-.24.39-.22l0,1.18Z"/><path class="cls-6" d="M36.65,23.72l0,.31c-.18,0-.28.11-.39.22l-2.34,2.34c-.11.11-.19.26-.37.26a.83.83,0,0,0,0-.15c-.14-.53-.34-.7-.74-.63s-.47.33-.47.83,0,1,0,1.44c-.16,0-.24.13-.34.22l-1.06,1.07c-.11.11-.22.22-.39.19V24.27c.18,0,.29-.1.4-.21,1.57-1.57,3.14-3.15,4.72-4.72.1-.1.22-.19.2-.36l.31,0h.54Z"/><path class="cls-2" d="M36.64,19H36.1a.48.48,0,0,1,.07-.18c.57-.57,1.12-1.18,1.74-1.71H38c.17.26.34.52.52.77a.71.71,0,0,1,.07.8.66.66,0,0,1-.65.32C37.49,19,37.06,19,36.64,19Z"/><path class="cls-4" d="M26.41,35.38c0,.86,0,1.72,0,2.58H17.08c0-.16.13-.24.23-.34q4.36-4.38,8.74-8.74c.1-.1.18-.23.34-.23,0,1.75,0,3.5,0,5.24Z"/><path class="cls-7" d="M16,38H13.56V33c0-1.26,0-2.52,0-3.78a10.41,10.41,0,0,1,.23-2,7.09,7.09,0,0,1,1.83-3.11,6.91,6.91,0,0,1,3-1.65,6.83,6.83,0,0,1,2.34-.09c0,.17-.15.19-.27.23a6.46,6.46,0,0,0-4.41,4.68,7.18,7.18,0,0,0-.17,2.92A6.26,6.26,0,0,0,16,31.7V38Z"/><path class="cls-6" d="M13.79,27.16a10.41,10.41,0,0,0-.23,2c0,1.26,0,2.52,0,3.78-.16,0-.24.14-.34.24L8.78,37.62c-.1.1-.23.18-.23.34H6.14c-.26,0-.34-.08-.34-.33,0-.91,0-1.82,0-2.73.19,0,.28-.17.4-.29l7.18-7.17C13.51,27.34,13.59,27.17,13.79,27.16Zm-3.44,6.59a7.3,7.3,0,0,0,0-.81.53.53,0,0,0-.55-.53.56.56,0,0,0-.61.51q0,.78,0,1.56a.59.59,0,0,0,.6.59.61.61,0,0,0,.57-.62Z"/><path class="cls-2" d="M4.18,19c-.53-.48-.56-.69-.13-1.3q1.53-2.18,3.26-4.2C8,12.69,8.73,12,9.37,11.19c.26-.32.67-.49.9-.86h4.54c0,.2-.17.29-.29.41l-7.8,7.8c-.12.12-.28.21-.29.4L5.8,19A14.59,14.59,0,0,0,4.18,19Z"/><path class="cls-6" d="M5.81,26.38V20.82c.05,0,.11,0,.14,0,.54-.53,1.07-1.05,1.59-1.59,0,0,0-.14.07-.21l.31,0H9.16l4,0c0,.19-.12.28-.23.39L6.15,26.15C6.06,26.25,6,26.38,5.81,26.38Z"/><path class="cls-6" d="M13.79,27.16c-.2,0-.28.18-.4.29L6.21,34.62c-.12.12-.21.28-.4.29V33.42c.18,0,.26-.15.37-.25l2.7-2.7c.11-.1.19-.25.37-.25.24.16.46.32.78.16s.33-.45.32-.76,0-.54,0-.81a.46.46,0,0,0,.4-.21L20,19.34c.1-.1.22-.18.2-.35l.31,0,1.18,0c0,.19-.12.28-.23.39-.88.88-1.77,1.76-2.65,2.65-.11.11-.26.19-.25.38a6.91,6.91,0,0,0-3,1.65A7.09,7.09,0,0,0,13.79,27.16Z"/><path class="cls-4" d="M16,38v-.79c.26,0,.4-.13.56-.28q4.64-4.65,9.29-9.29c.11-.12.2-.28.4-.29a10,10,0,0,1,.16,1.1v.23c-.16,0-.24.13-.34.23q-4.38,4.36-8.74,8.74c-.1.1-.23.18-.23.34Z"/><path class="cls-6" d="M9.25,30.22c-.18,0-.26.15-.37.25l-2.7,2.7c-.11.1-.19.25-.37.25V27.87l.39-.08v2.9c0,.45.21.7.59.7s.58-.25.58-.71v-4.3L8.8,25c.11-.1.19-.25.37-.25,0,1.61,0,3.22,0,4.82A2.44,2.44,0,0,0,9.25,30.22Z"/><path class="cls-6" d="M6.2,27.79l-.39.08V26.38c.16,0,.25-.13.34-.23l6.79-6.78c.11-.11.25-.2.23-.39l.31,0,1.17,0c0,.19-.12.28-.23.39q-1.37,1.38-2.76,2.76l-1.39,1.35a.25.25,0,0,1-.12,0c-.58-.3-1-.07-1,.57v.71c-.18,0-.26.15-.37.25L7.37,26.38l-.09-.06a.58.58,0,0,0-.73-.22.66.66,0,0,0-.36.71C6.22,27.14,6.2,27.46,6.2,27.79Z"/><path class="cls-6" d="M13.56,34.44V38H10c0-.15.12-.23.21-.32l3-3C13.33,34.55,13.41,34.44,13.56,34.44Z"/><path class="cls-6" d="M13.56,34.44c-.15,0-.23.11-.32.2l-3,3c-.09.09-.21.17-.21.32H8.55c0-.16.13-.24.23-.34l4.43-4.43c.1-.1.18-.23.34-.24C13.55,33.45,13.56,34,13.56,34.44Z"/><path class="cls-6" d="M7.61,19c0,.07,0,.17-.07.21-.52.54-1,1.06-1.59,1.59,0,0-.09,0-.14,0,0-.61,0-1.22,0-1.83l.63,0Z"/><path class="cls-3" d="M14.81,10.34H9.88c0-.13-.12-.2-.16-.31S9.9,9.8,10,9.7l2.83-2.83c.11-.11.26-.19.26-.37.28-.34.73-.45,1-.78l2.18-1.18H20.6c0,.18-.15.27-.26.37L15.3,10c-.1.1-.25.19-.26.37Z"/><path class="cls-3" d="M13.09,6.5c0,.18-.15.26-.26.37L10,9.7c-.1.1-.19.21-.28.32a.61.61,0,0,1,.11-.92,21.46,21.46,0,0,1,2.64-2.21A1.56,1.56,0,0,1,13.09,6.5Z"/><path class="cls-3" d="M20.29,0c.22.29.61.31.86.55a1.24,1.24,0,0,1-.5.28A14.5,14.5,0,0,0,18.14,2a6.7,6.7,0,0,1-1.06.7c0-.16.13-.24.23-.34L18.78.92c.1-.1.28-.19.1-.38.26-.22.62-.28.86-.54Z"/><path class="cls-8" d="M4.18,19a4.25,4.25,0,0,1-.8.05c-.37,0-.74,0-1.11,0a.86.86,0,0,1-.93-.54,1,1,0,0,1,.24-.75c.35-.45.66-.93,1-1.39.63-.83,1.27-1.64,1.91-2.47.94-1,1.84-2.08,2.84-3l.43-.4L8,10.33h2.27c-.23.36-.64.53-.9.85-.64.8-1.39,1.5-2.06,2.28q-1.72,2-3.26,4.2C3.62,18.28,3.65,18.49,4.18,19Z"/><path class="cls-2" d="M9.88,10.33H8c0-.18.15-.27.26-.37l4.65-4.65c.1-.11.25-.2.26-.38l.63-.39H15c0,.27-.29.37-.44.56s-.44.32-.49.62c-.29.33-.74.44-1,.78a1.56,1.56,0,0,0-.62.39A21.46,21.46,0,0,0,9.83,9.1a.61.61,0,0,0-.11.92C9.76,10.13,9.88,10.2,9.88,10.33Z"/><path class="cls-2" d="M13.17,4.93c0,.18-.16.27-.26.38L8.26,10c-.11.1-.25.19-.26.37l-.23.08c-.25-.19-.59-.29-.63-.68a.6.6,0,0,1,.15-.54A24.48,24.48,0,0,1,13.17,4.93Z"/><path class="cls-3" d="M15,4.54H13.79c0-.18.15-.26.26-.37L16.2,2c.11-.1.26-.19.25-.37l.63-.39c.63-.16,1.19-.5,1.8-.71.18.19,0,.28-.1.38L17.31,2.4c-.1.1-.23.18-.23.34a1.72,1.72,0,0,1-.33.33c-.34.33-.81.53-1,1-.26.06-.38.28-.54.47Z"/><path class="cls-3" d="M16.45,1.64c0,.18-.14.27-.25.37L14.05,4.17c-.11.11-.25.19-.26.37-.2,0-.38,0-.45-.22a.43.43,0,0,1,.09-.47A11.92,11.92,0,0,1,16.45,1.64Z"/><path class="cls-2" d="M16.29,4.54,14.11,5.72c.05-.3.33-.41.49-.62s.4-.29.44-.56h1.25Z"/><path class="cls-3" d="M15.83,4.53H15.2c.16-.19.28-.41.54-.47A1.45,1.45,0,0,0,15.83,4.53Z"/><path class="cls-6" d="M18.57,22.4c0-.19.14-.27.25-.38.88-.89,1.77-1.77,2.65-2.65.11-.11.25-.2.23-.39L22,19h4.78c.16,0,.31,0,.47,0,0,.17-.11.25-.21.35l-1.43,1.44c-.79.79-1.57,1.59-2.36,2.39h-.07a6.44,6.44,0,0,0-2.28-.86A6.83,6.83,0,0,0,18.57,22.4Z"/><path class="cls-2" d="M22,19l-.31,0-1.18,0c0-.19.17-.28.29-.4l7.8-7.8c.12-.12.28-.21.29-.41h1.57c-.11.12-.21.24-.32.35l-7.86,7.87C22.18,18.66,22,18.75,22,19Z"/><path class="cls-6" d="M23.26,23.17c.79-.8,1.57-1.6,2.36-2.39l1.43-1.44c.1-.1.22-.18.21-.35l.31,0,1.17,0c0,.21-.14.3-.25.41l-3.31,3.32c-.36.35-.7.72-1.06,1.09h-.07Z"/><path class="cls-3" d="M30.47,10.33H29.13c0-.18.16-.26.26-.37l1.94-2a3.29,3.29,0,0,1,.79.7c-.38.48-.85.86-1.27,1.31-.09.1-.23.18-.23.34Z"/><path class="cls-2" d="M28.9,10.33c0,.2-.17.29-.29.41l-7.8,7.8c-.12.12-.28.21-.29.4l-.31,0c-.15,0-.3,0-.46,0H15c0-.2.16-.29.28-.4l7.86-7.87c.11-.11.21-.23.31-.35H28.9Z"/><path class="cls-6" d="M24.12,23.8c.36-.37.7-.74,1.06-1.09l3.31-3.32c.11-.11.28-.2.25-.41l.32,0h4.78l.46,0c0,.18-.12.27-.23.38L31.84,21.6c-.57.57-1.13,1.15-1.69,1.73-.71,0-.85.16-.86.94-.18,0-.26.15-.37.25l-2.33,2.33c-.12.12-.23.26-.43.23a7.89,7.89,0,0,0-.65-1.57A9.54,9.54,0,0,0,24.12,23.8Z"/><path class="cls-6" d="M30.15,23.33c.56-.58,1.12-1.16,1.69-1.73l2.23-2.23c.11-.11.25-.2.23-.38l.31,0,1.18,0c0,.17-.1.26-.2.36-1.58,1.57-3.15,3.15-4.72,4.72-.11.11-.22.23-.4.21A1,1,0,0,0,30.15,23.33Z"/><path class="cls-2" d="M35.79,19l-1.18,0c0-.06,0-.13.07-.17.87-.86,1.69-1.76,2.6-2.57a4,4,0,0,1,.63.86c-.62.53-1.17,1.14-1.74,1.71a.48.48,0,0,0-.07.18Z"/><path class="cls-2" d="M13.48,18.94l-.31,0-4,0H7.92c0-.2.17-.29.28-.4l7.86-7.87c.11-.11.21-.23.31-.35h5.49c0,.2-.18.29-.29.41l-7.8,7.8C13.65,18.66,13.49,18.75,13.48,18.94Z"/><path class="cls-2" d="M13.48,18.94c0-.19.17-.28.29-.4l7.8-7.8c.11-.12.28-.21.29-.41h1.56c-.1.12-.2.24-.31.35l-7.86,7.87c-.12.11-.28.2-.28.4l-.32,0Z"/><path class="cls-3" d="M16.53,10.33H15c0-.18.16-.27.26-.37l5-5.05c.11-.1.26-.19.26-.37h1.49c0,.19-.17.28-.28.4q-2.52,2.51-5,5C16.68,10.07,16.54,10.15,16.53,10.33Z"/><path class="cls-6" d="M26.41,35.38c0-.49,0-1,0-1.49.2,0,.31-.11.42-.23l2.87-2.86c.1-.1.23-.18.23-.35.29-.11.59-.22.55-.63.17,0,.28-.08.39-.19l1.06-1.07c.1-.09.18-.22.34-.22,0,.49,0,1,0,1.48A.41.41,0,0,0,32,30c-.72.73-1.45,1.45-2.17,2.17a.37.37,0,0,0-.15.27c-.13.13-.31.21-.39.39-.18,0-.26.15-.37.26-.7.69-1.4,1.39-2.09,2.09C26.71,35.26,26.61,35.41,26.41,35.38Z"/><path class="cls-6" d="M32.27,29.82c0-.49,0-1,0-1.48s0-1,0-1.44.16-.78.47-.83.6.1.74.63a.83.83,0,0,1,0,.15v3.59a1.21,1.21,0,0,1-.05.42c-.13.41-.33.58-.68.53a.63.63,0,0,1-.52-.71C32.26,30.39,32.27,30.11,32.27,29.82Z"/><path class="cls-6" d="M29.29,32.8c.08-.18.26-.26.39-.39.67,0,.79.12.79.8,0,.41,0,.83,0,1.24a.6.6,0,0,1-.56.62.59.59,0,0,1-.6-.59C29.28,33.92,29.29,33.36,29.29,32.8Z"/><path class="cls-6" d="M30.47,29.82c0,.41-.26.52-.55.63-.56-.16-.63-.25-.63-.81V24.27c0-.78.15-.94.86-.94a1,1,0,0,1,.32.94Z"/><path class="cls-6" d="M29.29,25.75v3.89c0,.56.07.65.63.81,0,.17-.13.25-.23.35l-2.87,2.86c-.11.12-.22.26-.42.23,0-1.74,0-3.49,0-5.24v-.23c.16,0,.25-.14.34-.24L28.92,26C29,25.9,29.11,25.76,29.29,25.75Z"/><path class="cls-4" d="M24.12,23.8a9.54,9.54,0,0,1,1.39,1.71,7.89,7.89,0,0,1,.65,1.57l.08.24c-.2,0-.29.17-.4.29q-4.65,4.63-9.29,9.29c-.16.15-.3.33-.56.28V31.7c.2,0,.3-.11.42-.23q3.72-3.72,7.43-7.43c.08-.08.14-.16.21-.24Z"/><path class="cls-4" d="M20.91,22.31a6.44,6.44,0,0,1,2.28.86s0,.07-.07.1L16.41,30a.44.44,0,0,1-.35.15,7.18,7.18,0,0,1,.17-2.92,6.46,6.46,0,0,1,4.41-4.68C20.76,22.5,20.9,22.48,20.91,22.31Z"/><path class="cls-4" d="M16.06,30.14a.44.44,0,0,0,.35-.15l6.71-6.72s0-.07.07-.1h.07l.79.63c-.07.08-.13.16-.21.24q-3.7,3.72-7.43,7.43c-.12.12-.22.26-.42.23A6.26,6.26,0,0,1,16.06,30.14Z"/><path class="cls-6" d="M10.35,33.75v.7a.61.61,0,0,1-.57.62.59.59,0,0,1-.6-.59q0-.78,0-1.56a.56.56,0,0,1,.61-.51.53.53,0,0,1,.55.53A7.3,7.3,0,0,1,10.35,33.75Z"/><path class="cls-2" d="M15,10.33h1.33c-.1.12-.2.24-.31.35L8.2,18.55c-.11.11-.27.2-.28.4l-.31,0-1.18,0c0-.19.17-.28.29-.4l7.8-7.8c.12-.12.28-.21.29-.41Z"/><path class="cls-6" d="M14.65,19,15,19h4.78c.16,0,.31,0,.46,0,0,.17-.1.25-.2.35L10.75,28.6a.46.46,0,0,1-.4.21V24.1a2.15,2.15,0,0,0-.08-.62l1.39-1.35q1.39-1.38,2.76-2.76C14.53,19.26,14.68,19.17,14.65,19Z"/><path class="cls-6" d="M10.27,23.48a2.15,2.15,0,0,1,.08.62v4.71c0,.27,0,.54,0,.81s0,.59-.32.76-.54,0-.78-.16a2.44,2.44,0,0,1-.08-.66c0-1.6,0-3.21,0-4.82V24c0-.64.4-.87,1-.57A.25.25,0,0,0,10.27,23.48Z"/><path class="cls-6" d="M26.24,27.32l-.08-.24c.2,0,.31-.11.43-.23l2.33-2.33c.11-.1.19-.25.37-.25v1.48c-.18,0-.26.15-.37.26l-2.18,2.17c-.09.1-.18.23-.34.24A10,10,0,0,0,26.24,27.32Z"/><path class="cls-6" d="M6.2,27.79c0-.33,0-.65,0-1a.66.66,0,0,1,.36-.71.58.58,0,0,1,.73.22l.09.06v4.3c0,.46-.2.71-.58.71s-.59-.25-.59-.7Z"/></svg>