<svg id="Layer_1" data-name="Layer 1" xmlns="http://www.w3.org/2000/svg" viewBox="0 0 207 100"><defs><style>.cls-1{fill:#383431;}.cls-2{fill:#dd137b;}.cls-10,.cls-2,.cls-3,.cls-4,.cls-8,.cls-9{fill-rule:evenodd;}.cls-3{fill:#0093dd;}.cls-4{fill:#fff;}.cls-5{fill:#00803a;}.cls-6{fill:#e8268e;}.cls-7{fill:#005ca1;}.cls-11,.cls-8{fill:#605d5c;}.cls-9{fill:#de3483;}.cls-10{fill:#435361;}</style></defs><title>NIP Logo</title><g id="Layer_1-2" data-name="Layer_1"><g id="_205067152" data-name=" 205067152"><path id="_205073944" data-name=" 205073944" class="cls-1" d="M63.55,68.8a.34.34,0,0,1,0,.18.44.44,0,0,1-.08.11.25.25,0,0,1-.12.07l-.14,0h-.28a.8.8,0,0,1-.23,0,.5.5,0,0,1-.19-.1,1.2,1.2,0,0,1-.18-.2c-.06-.09-.13-.2-.2-.33L60,64.75l-.33-.61c-.11-.22-.22-.43-.31-.63h0c0,.25,0,.5,0,.75V69a.14.14,0,0,1,0,.07.13.13,0,0,1-.07.05.42.42,0,0,1-.13,0l-.2,0-.2,0a.35.35,0,0,1-.13,0,.1.1,0,0,1-.06-.05.09.09,0,0,1,0-.07V62.91a.34.34,0,0,1,.12-.29.36.36,0,0,1,.24-.09h.42a.9.9,0,0,1,.25,0,.37.37,0,0,1,.18.08,1.36,1.36,0,0,1,.16.17c0,.07.1.15.16.26L61.67,66l.28.52c.1.17.19.34.27.5l.25.49c.09.16.17.32.25.48h0c0-.27,0-.55,0-.85V62.68a.25.25,0,0,1,0-.07l.07,0a.25.25,0,0,1,.13,0h.4a.23.23,0,0,1,.13,0l.07,0a.25.25,0,0,1,0,.07V68.8Zm6-2.12a3.44,3.44,0,0,1-.14,1,2.33,2.33,0,0,1-.45.82,1.93,1.93,0,0,1-.74.53,2.48,2.48,0,0,1-1,.19,2.59,2.59,0,0,1-1-.17,1.74,1.74,0,0,1-.7-.49,2,2,0,0,1-.42-.78,3.76,3.76,0,0,1-.14-1,3.49,3.49,0,0,1,.15-1,2.05,2.05,0,0,1,.44-.81,2,2,0,0,1,.73-.54,2.74,2.74,0,0,1,1-.19,2.79,2.79,0,0,1,1,.17,1.85,1.85,0,0,1,.7.49,2.07,2.07,0,0,1,.42.79,3.36,3.36,0,0,1,.14,1Zm-.89.06a3.23,3.23,0,0,0-.07-.71,1.81,1.81,0,0,0-.22-.59,1.15,1.15,0,0,0-.43-.39,1.42,1.42,0,0,0-.68-.15,1.6,1.6,0,0,0-.65.13,1.33,1.33,0,0,0-.44.38,1.71,1.71,0,0,0-.26.58,3.26,3.26,0,0,0-.08.73,3.23,3.23,0,0,0,.07.71,1.57,1.57,0,0,0,.23.58,1,1,0,0,0,.43.39,1.4,1.4,0,0,0,.68.15,1.44,1.44,0,0,0,.64-.13,1.16,1.16,0,0,0,.44-.38,1.49,1.49,0,0,0,.26-.57,2.82,2.82,0,0,0,.08-.73ZM74.7,69a.17.17,0,0,1,0,.07l-.07,0-.12,0h-.37l-.12,0s-.05,0-.06,0a.19.19,0,0,1,0-.07v-.61a2.7,2.7,0,0,1-.78.63,1.55,1.55,0,0,1-.77.2,1.81,1.81,0,0,1-.78-.15,1.31,1.31,0,0,1-.51-.42,1.71,1.71,0,0,1-.28-.61,3.59,3.59,0,0,1-.08-.86v-2.8a.17.17,0,0,1,0-.07l.07,0,.14,0h.41l.13,0,.06,0a.11.11,0,0,1,0,.07v2.69a2.81,2.81,0,0,0,.06.65,1,1,0,0,0,.17.41.8.8,0,0,0,.31.27,1,1,0,0,0,.43.1,1.09,1.09,0,0,0,.63-.23,3.43,3.43,0,0,0,.67-.66V64.42a.19.19,0,0,1,0-.07l.07,0,.13,0h.41l.13,0,.07,0a.1.1,0,0,1,0,.07V69ZM79,64.73v.19s0,.09,0,.12a.15.15,0,0,1,0,.06.09.09,0,0,1-.07,0l-.1,0-.13,0-.16,0-.21,0a.61.61,0,0,0-.25.06.7.7,0,0,0-.25.16,1.85,1.85,0,0,0-.29.32c-.1.13-.21.28-.33.47v3a.1.1,0,0,1,0,.07s0,0-.06,0l-.13,0h-.42l-.13,0-.07,0a.17.17,0,0,1,0-.07V64.42a.17.17,0,0,1,0-.07l.06,0,.12,0h.38l.11,0,.06,0a.19.19,0,0,1,0,.07v.68a4.13,4.13,0,0,1,.36-.46,2.38,2.38,0,0,1,.31-.27,1,1,0,0,1,.3-.14,1.35,1.35,0,0,1,.29,0h.15l.18,0,.17,0a.19.19,0,0,1,.1,0s0,0,0,0,0,0,0,.06a.34.34,0,0,1,0,.11v.19ZM80.77,69a.1.1,0,0,1,0,.07s0,0-.06,0l-.13,0h-.42l-.13,0s-.05,0-.06,0a.1.1,0,0,1,0-.07V64.42a.07.07,0,0,1,0-.06.1.1,0,0,1,.06,0,.25.25,0,0,1,.13,0l.21,0,.21,0a.28.28,0,0,1,.13,0,.1.1,0,0,1,.06,0,.07.07,0,0,1,0,.06Zm.1-6.18a.59.59,0,0,1-.11.41.64.64,0,0,1-.42.11.56.56,0,0,1-.4-.11.5.5,0,0,1-.12-.39.54.54,0,0,1,.12-.41.82.82,0,0,1,.82,0,.55.55,0,0,1,.11.39Zm4.36,4.92a1.39,1.39,0,0,1-.13.63,1.21,1.21,0,0,1-.37.47,1.7,1.7,0,0,1-.57.29,2.89,2.89,0,0,1-.74.09,3.59,3.59,0,0,1-.47,0,3.33,3.33,0,0,1-.4-.1l-.3-.12-.17-.12a.34.34,0,0,1-.09-.14,1.72,1.72,0,0,1,0-.26.81.81,0,0,1,0-.16.36.36,0,0,1,0-.11s0,0,0-.06h.06a.35.35,0,0,1,.17.07l.27.15.38.15a2,2,0,0,0,.51.07,1.6,1.6,0,0,0,.39,0,.92.92,0,0,0,.3-.14.53.53,0,0,0,.2-.22.88.88,0,0,0,.07-.33.59.59,0,0,0-.1-.33,1.05,1.05,0,0,0-.27-.24l-.37-.18-.42-.16-.42-.2a1.46,1.46,0,0,1-.38-.27,1.28,1.28,0,0,1-.26-.38,1.22,1.22,0,0,1-.1-.53,1.35,1.35,0,0,1,.11-.52,1.18,1.18,0,0,1,.31-.43,1.44,1.44,0,0,1,.53-.3,2,2,0,0,1,.73-.12,2.31,2.31,0,0,1,.37,0l.33.08a1.28,1.28,0,0,1,.26.1l.16.1a.23.23,0,0,1,.07.07.14.14,0,0,1,0,.07.64.64,0,0,1,0,.09s0,.09,0,.14S85,65,85,65a.35.35,0,0,1,0,.11.21.21,0,0,1,0,.06h-.06a.24.24,0,0,1-.13,0L84.51,65a1.61,1.61,0,0,0-.33-.12,1.44,1.44,0,0,0-.43-.06,1.13,1.13,0,0,0-.38.05.69.69,0,0,0-.27.14.65.65,0,0,0-.16.21.76.76,0,0,0,0,.27.52.52,0,0,0,.1.33,1.05,1.05,0,0,0,.27.24,2.55,2.55,0,0,0,.37.19l.43.16.43.2a1.7,1.7,0,0,1,.38.26,1.08,1.08,0,0,1,.26.37,1.13,1.13,0,0,1,.1.51ZM90.42,69a.19.19,0,0,1,0,.07l-.07,0-.13,0h-.41l-.13,0s-.06,0-.07,0a.19.19,0,0,1,0-.07v-2.7a2.72,2.72,0,0,0-.06-.64,1.33,1.33,0,0,0-.18-.42A.79.79,0,0,0,89,65a.94.94,0,0,0-.43-.09,1.07,1.07,0,0,0-.63.22,3.18,3.18,0,0,0-.67.66V69a.19.19,0,0,1,0,.07l-.07,0-.13,0h-.41l-.13,0s-.06,0-.07,0a.19.19,0,0,1,0-.07V62.19a.14.14,0,0,1,0-.07.22.22,0,0,1,.07-.06l.13,0,.2,0,.21,0,.13,0,.07.06a.14.14,0,0,1,0,.07V65a2.8,2.8,0,0,1,.73-.57,1.74,1.74,0,0,1,.75-.19,1.79,1.79,0,0,1,.77.16,1.31,1.31,0,0,1,.51.42,1.55,1.55,0,0,1,.28.61,3.46,3.46,0,0,1,.09.85V69Zm2.39,0a.11.11,0,0,1,0,.07s0,0-.06,0l-.13,0h-.42l-.13,0s-.05,0-.06,0A.19.19,0,0,1,92,69V64.42a.14.14,0,0,1,0-.06.1.1,0,0,1,.06,0,.28.28,0,0,1,.13,0l.21,0,.21,0a.25.25,0,0,1,.13,0,.1.1,0,0,1,.06,0,.09.09,0,0,1,0,.06Zm.09-6.18a.55.55,0,0,1-.11.41.61.61,0,0,1-.41.11.59.59,0,0,1-.41-.11.51.51,0,0,1-.11-.39.55.55,0,0,1,.11-.41.82.82,0,0,1,.82,0,.51.51,0,0,1,.11.39ZM98.34,69a.1.1,0,0,1,0,.07s0,0-.07,0l-.12,0h-.42l-.13,0s0,0-.06,0a.1.1,0,0,1,0-.07v-2.7a2.22,2.22,0,0,0-.07-.64,1.6,1.6,0,0,0-.17-.42A.79.79,0,0,0,97,65a1,1,0,0,0-.43-.09,1.1,1.1,0,0,0-.64.22,3.41,3.41,0,0,0-.66.66V69a.11.11,0,0,1,0,.07s0,0-.06,0l-.13,0h-.42l-.13,0s0,0-.06,0a.19.19,0,0,1,0-.07V64.42a.17.17,0,0,1,0-.07l.07,0,.11,0h.38l.12,0,.06,0a.17.17,0,0,1,0,.07V65a2.7,2.7,0,0,1,.78-.63,1.63,1.63,0,0,1,.78-.21,1.8,1.8,0,0,1,.78.16,1.31,1.31,0,0,1,.51.42,1.71,1.71,0,0,1,.28.61,4.06,4.06,0,0,1,.08.84V69Zm5.4-4.41a.54.54,0,0,1,0,.26.12.12,0,0,1-.12.08h-.67a1,1,0,0,1,.25.41,1.44,1.44,0,0,1,.08.46,1.91,1.91,0,0,1-.13.71,1.41,1.41,0,0,1-.37.52,1.84,1.84,0,0,1-.56.33,2.43,2.43,0,0,1-.73.11,1.9,1.9,0,0,1-.54-.07,1.18,1.18,0,0,1-.39-.19.8.8,0,0,0-.15.21.6.6,0,0,0-.06.27.34.34,0,0,0,.17.3.82.82,0,0,0,.44.13l1.2,0a2.45,2.45,0,0,1,.63.09,1.66,1.66,0,0,1,.5.24,1.23,1.23,0,0,1,.33.39,1.12,1.12,0,0,1,.12.53,1.39,1.39,0,0,1-.14.6,1.37,1.37,0,0,1-.4.51,2.18,2.18,0,0,1-.7.34,4.25,4.25,0,0,1-2,0,1.9,1.9,0,0,1-.64-.26,1.05,1.05,0,0,1-.37-.39,1.17,1.17,0,0,1-.11-.49,1.15,1.15,0,0,1,0-.33,1,1,0,0,1,.13-.3,1.37,1.37,0,0,1,.21-.28,2.52,2.52,0,0,1,.29-.26.84.84,0,0,1-.37-.32.79.79,0,0,1-.12-.42,1.25,1.25,0,0,1,.12-.56,2.36,2.36,0,0,1,.32-.44,1.67,1.67,0,0,1-.25-.43,1.62,1.62,0,0,1-.09-.57,1.76,1.76,0,0,1,.13-.71,1.45,1.45,0,0,1,.37-.53,1.78,1.78,0,0,1,.57-.33,2.09,2.09,0,0,1,.72-.12,2.38,2.38,0,0,1,.39,0,1.86,1.86,0,0,1,.34.06h1.4a.16.16,0,0,1,.13.08.83.83,0,0,1,0,.26Zm-1.32,1.22a1,1,0,0,0-.26-.74,1,1,0,0,0-.74-.26,1.18,1.18,0,0,0-.43.08.86.86,0,0,0-.3.23.88.88,0,0,0-.18.33,1.23,1.23,0,0,0-.06.39.9.9,0,0,0,1,1,1.1,1.1,0,0,0,.43-.08.79.79,0,0,0,.31-.22.88.88,0,0,0,.18-.33,1.21,1.21,0,0,0,.06-.38Zm.42,3.65a.51.51,0,0,0-.24-.45,1.23,1.23,0,0,0-.66-.18l-1.2,0a3.18,3.18,0,0,0-.26.25,1.09,1.09,0,0,0-.17.22.64.64,0,0,0-.08.2.76.76,0,0,0,0,.21.53.53,0,0,0,.34.51,2.19,2.19,0,0,0,.94.17,2.44,2.44,0,0,0,.65-.07,1.37,1.37,0,0,0,.42-.2.72.72,0,0,0,.22-.28.8.8,0,0,0,.07-.34Zm9.23-.47a.08.08,0,0,1,0,.07s0,0-.07.05a.42.42,0,0,1-.13,0l-.21,0-.22,0a.42.42,0,0,1-.13,0s-.06,0-.07-.05a.08.08,0,0,1,0-.07V66.09h-3V69a.14.14,0,0,1,0,.07.12.12,0,0,1-.07.05.49.49,0,0,1-.14,0l-.21,0-.21,0a.42.42,0,0,1-.14,0s-.06,0-.07-.05a.08.08,0,0,1,0-.07V62.67a.11.11,0,0,1,0-.08s0,0,.07-.05l.14,0H108l.14,0,.07.05a.19.19,0,0,1,0,.08v2.65h3V62.67a.11.11,0,0,1,0-.08s0,0,.07-.05l.13,0h.43l.13,0s.06,0,.07.05a.11.11,0,0,1,0,.08Zm5.61-2.5a.4.4,0,0,1-.1.29.38.38,0,0,1-.23.08h-3a2.84,2.84,0,0,0,.08.69,1.32,1.32,0,0,0,.26.53,1.13,1.13,0,0,0,.46.34,1.88,1.88,0,0,0,.71.12,2.52,2.52,0,0,0,.58-.06,2.13,2.13,0,0,0,.44-.12,2,2,0,0,0,.31-.12.62.62,0,0,1,.18,0,.08.08,0,0,1,.07,0,.1.1,0,0,1,0,0,.62.62,0,0,1,0,.1v.27s0,.06,0,.09a.19.19,0,0,1,0,.07l0,.06a.61.61,0,0,1-.16.09l-.36.12a5,5,0,0,1-.51.11,3.12,3.12,0,0,1-.62.05,2.8,2.8,0,0,1-1-.16,1.84,1.84,0,0,1-.72-.47,2.12,2.12,0,0,1-.44-.78,3.66,3.66,0,0,1-.15-1.1,3.29,3.29,0,0,1,.16-1.07,2.29,2.29,0,0,1,.44-.8,2,2,0,0,1,.7-.51,2.25,2.25,0,0,1,.92-.18,2.13,2.13,0,0,1,.92.18,1.58,1.58,0,0,1,.63.47,1.75,1.75,0,0,1,.36.69,2.91,2.91,0,0,1,.12.85v.15Zm-.85-.25a1.56,1.56,0,0,0-.3-1,1.13,1.13,0,0,0-.92-.38,1.2,1.2,0,0,0-.55.12,1.22,1.22,0,0,0-.39.31,1.46,1.46,0,0,0-.25.46,1.91,1.91,0,0,0-.1.54Z"/><path id="_205066264" data-name=" 205066264" class="cls-1" d="M122.44,69s0,.08,0,.09a.22.22,0,0,1-.11.05l-.21,0-.22,0a.16.16,0,0,1-.11-.05s0,0,0-.09v-.46a2.26,2.26,0,0,1-.67.5,1.79,1.79,0,0,1-.79.18,2.29,2.29,0,0,1-.66-.09,1.51,1.51,0,0,1-.5-.28,1.09,1.09,0,0,1-.32-.44,1.38,1.38,0,0,1-.12-.59,1.34,1.34,0,0,1,.16-.68,1.29,1.29,0,0,1,.46-.47,2.05,2.05,0,0,1,.72-.29,4.78,4.78,0,0,1,1-.09h.64V66a1.75,1.75,0,0,0-.06-.48.81.81,0,0,0-.18-.33A.7.7,0,0,0,121,65a1.37,1.37,0,0,0-.49-.07A2.38,2.38,0,0,0,120,65a3,3,0,0,0-.43.17l-.32.16a.42.42,0,0,1-.18.08l-.08,0a.18.18,0,0,1,0-.07.24.24,0,0,1,0-.1.61.61,0,0,1,0-.14,1.09,1.09,0,0,1,0-.2.4.4,0,0,1,.09-.15l.24-.15a3.76,3.76,0,0,1,.39-.17l.48-.12a3.07,3.07,0,0,1,.53,0,2.68,2.68,0,0,1,.85.12,1.25,1.25,0,0,1,.56.33,1.2,1.2,0,0,1,.31.54,2.39,2.39,0,0,1,.1.75V69Zm-.84-2.1h-.72a3.49,3.49,0,0,0-.61,0,1.3,1.3,0,0,0-.43.18.71.71,0,0,0-.24.28.72.72,0,0,0-.08.37.71.71,0,0,0,.23.57.89.89,0,0,0,.63.21,1.11,1.11,0,0,0,.62-.17,2.46,2.46,0,0,0,.6-.52v-1Zm3.24,2.1a.19.19,0,0,1,0,.07l-.07,0-.13,0h-.41l-.13,0s-.06,0-.07,0a.19.19,0,0,1,0-.07V62.19a.14.14,0,0,1,.09-.13l.13,0,.2,0,.21,0,.13,0,.07.06a.14.14,0,0,1,0,.07Zm4-.34a1.44,1.44,0,0,1,0,.24.2.2,0,0,1-.06.12.36.36,0,0,1-.12.08l-.19.06-.22,0H128a1.93,1.93,0,0,1-.62-.09,1.06,1.06,0,0,1-.42-.29,1.31,1.31,0,0,1-.23-.49,2.73,2.73,0,0,1-.08-.69V65H126a.13.13,0,0,1-.13-.08.58.58,0,0,1,0-.27.81.81,0,0,1,0-.16l0-.11s0-.05.06-.06l.07,0h.64v-1.1a.14.14,0,0,1,0-.06.14.14,0,0,1,.07-.06l.13,0h.41l.13,0,.07.06a.14.14,0,0,1,0,.06v1.1h1.18l.07,0a.17.17,0,0,1,.06.06l0,.11a.81.81,0,0,1,0,.16.58.58,0,0,1,0,.27.15.15,0,0,1-.13.08h-1.18v2.58a1.53,1.53,0,0,0,.14.72.53.53,0,0,0,.5.24l.21,0,.17-.05.12,0a.18.18,0,0,1,.09,0h0a.07.07,0,0,1,0,0,.64.64,0,0,1,0,.09.81.81,0,0,1,0,.16Zm5.09.34a.1.1,0,0,1,0,.07s0,0-.06,0l-.13,0h-.42l-.13,0s0,0-.06,0a.1.1,0,0,1,0-.07v-2.7a2.22,2.22,0,0,0-.07-.64,1.6,1.6,0,0,0-.17-.42.79.79,0,0,0-.31-.26,1,1,0,0,0-.43-.09,1.1,1.1,0,0,0-.64.22,3.41,3.41,0,0,0-.66.66V69a.11.11,0,0,1,0,.07s0,0-.06,0l-.13,0h-.42l-.13,0s-.05,0-.06,0a.19.19,0,0,1,0-.07V62.19a.14.14,0,0,1,0-.07.17.17,0,0,1,.06-.06l.13,0,.21,0,.21,0,.13,0a.17.17,0,0,1,.06.06.09.09,0,0,1,0,.07V65a2.47,2.47,0,0,1,.73-.57,1.66,1.66,0,0,1,.74-.19,1.8,1.8,0,0,1,.78.16,1.31,1.31,0,0,1,.51.42,1.71,1.71,0,0,1,.28.61,4.09,4.09,0,0,1,.08.85V69Zm2.39,0a.19.19,0,0,1,0,.07s0,0-.07,0l-.12,0h-.42l-.13,0s-.06,0-.07,0a.19.19,0,0,1,0-.07V64.42a.14.14,0,0,1,0-.06.13.13,0,0,1,.07,0,.25.25,0,0,1,.13,0l.2,0,.22,0a.21.21,0,0,1,.12,0,.13.13,0,0,1,.07,0,.14.14,0,0,1,0,.06Zm.1-6.18a.59.59,0,0,1-.11.41.64.64,0,0,1-.42.11.61.61,0,0,1-.41-.11.55.55,0,0,1-.11-.39.59.59,0,0,1,.11-.41.64.64,0,0,1,.42-.11.61.61,0,0,1,.41.11.55.55,0,0,1,.11.39Zm5.4,3.67a.37.37,0,0,1-.1.29.38.38,0,0,1-.23.08h-3a2.42,2.42,0,0,0,.08.69,1.3,1.3,0,0,0,.25.53,1.17,1.17,0,0,0,.47.34,1.79,1.79,0,0,0,.7.12,2.68,2.68,0,0,0,.59-.06,2.32,2.32,0,0,0,.44-.12l.31-.12a.62.62,0,0,1,.18,0,.07.07,0,0,1,.06,0s0,0,.05,0a.87.87,0,0,1,0,.1s0,.09,0,.16a.37.37,0,0,1,0,.11s0,.06,0,.09,0,0,0,.07a.21.21,0,0,1,0,.06l-.17.09a2.5,2.5,0,0,1-.36.12,5,5,0,0,1-.51.11,3.05,3.05,0,0,1-.62.05,2.71,2.71,0,0,1-1-.16,1.71,1.71,0,0,1-.72-.47,2,2,0,0,1-.45-.78,4,4,0,0,1-.14-1.1,3.59,3.59,0,0,1,.15-1.07,2.29,2.29,0,0,1,.44-.8,2.07,2.07,0,0,1,.7-.51,2.29,2.29,0,0,1,.92-.18,2.2,2.2,0,0,1,.93.18,1.74,1.74,0,0,1,.63.47,1.89,1.89,0,0,1,.36.69,3.3,3.3,0,0,1,.11.85v.15Zm-.85-.25a1.62,1.62,0,0,0-.29-1,1.14,1.14,0,0,0-.92-.38,1.18,1.18,0,0,0-.55.12,1.38,1.38,0,0,0-.4.31,1.44,1.44,0,0,0-.24.46,1.91,1.91,0,0,0-.1.54Zm4.83-1.55v.19a.37.37,0,0,1,0,.12.15.15,0,0,1,0,.06.07.07,0,0,1-.06,0,.19.19,0,0,1-.1,0l-.14,0-.16,0-.2,0a.54.54,0,0,0-.25.06.73.73,0,0,0-.26.16,2.37,2.37,0,0,0-.29.32c-.1.13-.21.28-.33.47v3a.1.1,0,0,1,0,.07s0,0-.06,0l-.13,0h-.42l-.13,0s-.05,0-.06,0a.1.1,0,0,1,0-.07V64.42a.17.17,0,0,1,0-.07l.06,0,.12,0h.38l.11,0,.06,0a.1.1,0,0,1,0,.07v.68a4.13,4.13,0,0,1,.36-.46,2.38,2.38,0,0,1,.31-.27,1,1,0,0,1,.3-.14,1.45,1.45,0,0,1,.29,0h.15l.18,0,.17,0a.19.19,0,0,1,.1,0s0,0,0,0a.14.14,0,0,1,0,.06.34.34,0,0,1,0,.11v.19Zm7.87,3.5a.61.61,0,0,1,0,.14s0,.08,0,.11a.2.2,0,0,1,0,.08s0,0-.07.09l-.22.15a2.92,2.92,0,0,1-.4.21,3.71,3.71,0,0,1-.56.17,3,3,0,0,1-.69.07,2.94,2.94,0,0,1-1.17-.22,2.3,2.3,0,0,1-.88-.63,2.82,2.82,0,0,1-.57-1,4.73,4.73,0,0,1-.2-1.42,4.85,4.85,0,0,1,.22-1.48,3.25,3.25,0,0,1,.59-1.09,2.54,2.54,0,0,1,.92-.68,2.91,2.91,0,0,1,1.19-.24,3.43,3.43,0,0,1,.56,0,3.29,3.29,0,0,1,.5.14,2,2,0,0,1,.41.19,1,1,0,0,1,.25.18.35.35,0,0,1,.09.1.24.24,0,0,1,0,.09.36.36,0,0,1,0,.11.81.81,0,0,1,0,.16,1,1,0,0,1,0,.18.27.27,0,0,1,0,.12.18.18,0,0,1-.05.07l-.07,0a.4.4,0,0,1-.2-.1,2.08,2.08,0,0,0-.33-.22,2.85,2.85,0,0,0-.49-.22,2,2,0,0,0-.69-.1,1.79,1.79,0,0,0-.81.18,1.59,1.59,0,0,0-.61.52,2.56,2.56,0,0,0-.4.83,4,4,0,0,0-.14,1.14A4.18,4.18,0,0,0,149.9,67a2.35,2.35,0,0,0,.39.81,1.59,1.59,0,0,0,.63.49,2,2,0,0,0,.83.17,2,2,0,0,0,.69-.1,2.14,2.14,0,0,0,.5-.22,3.62,3.62,0,0,0,.34-.21.38.38,0,0,1,.21-.1h.07a.15.15,0,0,1,0,.06.37.37,0,0,1,0,.12,1.15,1.15,0,0,1,0,.2ZM159,66.68a3.44,3.44,0,0,1-.15,1,2.49,2.49,0,0,1-.44.82,2,2,0,0,1-.74.53,2.56,2.56,0,0,1-1,.19,2.5,2.5,0,0,1-1-.17,1.78,1.78,0,0,1-.71-.49,2.33,2.33,0,0,1-.42-.78,3.77,3.77,0,0,1-.13-1,3.84,3.84,0,0,1,.14-1,2.34,2.34,0,0,1,.44-.81,2.12,2.12,0,0,1,.74-.54,2.93,2.93,0,0,1,2,0,1.88,1.88,0,0,1,.71.49,2.38,2.38,0,0,1,.42.79,3.69,3.69,0,0,1,.14,1Zm-.89.06A4,4,0,0,0,158,66a1.82,1.82,0,0,0-.23-.59,1.15,1.15,0,0,0-.43-.39,1.4,1.4,0,0,0-.68-.15,1.55,1.55,0,0,0-.64.13,1.16,1.16,0,0,0-.44.38,1.54,1.54,0,0,0-.26.58,2.75,2.75,0,0,0-.09.73,4,4,0,0,0,.07.71,1.76,1.76,0,0,0,.23.58,1.1,1.1,0,0,0,.44.39,1.36,1.36,0,0,0,.67.15,1.41,1.41,0,0,0,.64-.13,1.19,1.19,0,0,0,.45-.38,1.66,1.66,0,0,0,.26-.57,3.33,3.33,0,0,0,.08-.73Zm9,2.3a.19.19,0,0,1,0,.07s0,0-.07,0l-.13,0h-.41l-.13,0s-.06,0-.07,0a.19.19,0,0,1,0-.07V66.23a2.89,2.89,0,0,0,0-.53,1.32,1.32,0,0,0-.17-.42.77.77,0,0,0-.28-.26.91.91,0,0,0-.41-.09,1,1,0,0,0-.59.22,4.07,4.07,0,0,0-.65.66V69a.19.19,0,0,1,0,.07s0,0-.07,0l-.13,0h-.41l-.13,0s-.06,0-.07,0a.19.19,0,0,1,0-.07V66.23a2.22,2.22,0,0,0,0-.53,1.6,1.6,0,0,0-.17-.42.86.86,0,0,0-.28-.26.88.88,0,0,0-.41-.09,1,1,0,0,0-.59.22,3.7,3.7,0,0,0-.65.66V69a.1.1,0,0,1,0,.07s0,0-.07,0l-.12,0h-.42l-.13,0-.07,0a.17.17,0,0,1,0-.07V64.42a.17.17,0,0,1,0-.07l.06,0,.12,0h.38l.11,0,.06,0a.19.19,0,0,1,0,.07V65a2.78,2.78,0,0,1,.76-.63,1.46,1.46,0,0,1,.74-.21,2,2,0,0,1,.51.07,1.24,1.24,0,0,1,.4.19,1.15,1.15,0,0,1,.3.28,2.32,2.32,0,0,1,.21.38,5.79,5.79,0,0,1,.43-.43,2.3,2.3,0,0,1,.41-.28,2,2,0,0,1,.37-.16,1.5,1.5,0,0,1,.37,0,1.65,1.65,0,0,1,.74.16,1.19,1.19,0,0,1,.49.42,1.54,1.54,0,0,1,.27.61,3.5,3.5,0,0,1,.08.74V69Zm8.39,0a.19.19,0,0,1,0,.07l-.07,0-.13,0h-.41l-.13,0s-.06,0-.07,0a.1.1,0,0,1,0-.07V66.23a2.89,2.89,0,0,0-.05-.53,1.32,1.32,0,0,0-.17-.42.73.73,0,0,0-.29-.26.86.86,0,0,0-.41-.09.94.94,0,0,0-.58.22,3.7,3.7,0,0,0-.65.66V69a.19.19,0,0,1,0,.07l-.07,0-.13,0h-.41l-.13,0s-.06,0-.07,0a.19.19,0,0,1,0-.07V66.23a2.89,2.89,0,0,0-.05-.53,1.6,1.6,0,0,0-.17-.42.8.8,0,0,0-.29-.26.86.86,0,0,0-.41-.09.94.94,0,0,0-.58.22,3.7,3.7,0,0,0-.65.66V69a.19.19,0,0,1,0,.07l-.07,0-.13,0h-.41l-.13,0s-.06,0-.07,0a.19.19,0,0,1,0-.07V64.42a.19.19,0,0,1,0-.07l.06,0,.12,0h.37l.12,0,.06,0a.19.19,0,0,1,0,.07V65a2.91,2.91,0,0,1,.75-.63,1.49,1.49,0,0,1,.74-.21,2,2,0,0,1,.52.07,1.34,1.34,0,0,1,.4.19,1.15,1.15,0,0,1,.3.28,1.72,1.72,0,0,1,.2.38,5.78,5.78,0,0,1,.44-.43,2.26,2.26,0,0,1,.4-.28,2.05,2.05,0,0,1,.38-.16,1.49,1.49,0,0,1,.36,0,1.67,1.67,0,0,1,.75.16,1.25,1.25,0,0,1,.49.42,1.54,1.54,0,0,1,.27.61,3.5,3.5,0,0,1,.08.74V69ZM181,69a.17.17,0,0,1,0,.07l-.07,0-.12,0h-.37l-.12,0s-.05,0-.06,0a.19.19,0,0,1,0-.07v-.61a2.7,2.7,0,0,1-.78.63,1.55,1.55,0,0,1-.77.2,1.81,1.81,0,0,1-.78-.15,1.31,1.31,0,0,1-.51-.42,1.71,1.71,0,0,1-.28-.61,3.59,3.59,0,0,1-.08-.86v-2.8a.17.17,0,0,1,0-.07l.07,0,.14,0h.41l.13,0,.06,0a.11.11,0,0,1,0,.07v2.69a2.35,2.35,0,0,0,.06.65,1,1,0,0,0,.17.41.8.8,0,0,0,.31.27,1,1,0,0,0,.43.1,1.09,1.09,0,0,0,.63-.23,3.43,3.43,0,0,0,.67-.66V64.42a.19.19,0,0,1,0-.07l.07,0,.13,0h.41l.13,0,.07,0a.1.1,0,0,1,0,.07V69Z"/><path id="_205074472" data-name=" 205074472" class="cls-1" d="M186.5,69a.19.19,0,0,1,0,.07s0,0-.07,0l-.13,0h-.41l-.13,0-.07,0a.19.19,0,0,1,0-.07v-2.7a2.72,2.72,0,0,0-.06-.64,1.33,1.33,0,0,0-.18-.42.83.83,0,0,0-.3-.26,1,1,0,0,0-.44-.09,1.07,1.07,0,0,0-.63.22,3.43,3.43,0,0,0-.67.66V69a.1.1,0,0,1,0,.07s0,0-.06,0l-.13,0h-.42l-.13,0s-.05,0-.06,0a.1.1,0,0,1,0-.07V64.42a.17.17,0,0,1,0-.07l.06,0,.12,0h.38l.11,0,.06,0a.19.19,0,0,1,0,.07V65a2.7,2.7,0,0,1,.78-.63,1.6,1.6,0,0,1,.78-.21,1.8,1.8,0,0,1,.78.16,1.31,1.31,0,0,1,.51.42,1.54,1.54,0,0,1,.27.61,3.43,3.43,0,0,1,.09.84V69Zm2.39,0a.19.19,0,0,1,0,.07l-.07,0-.13,0h-.41l-.13,0s-.06,0-.07,0a.19.19,0,0,1,0-.07V64.42a.14.14,0,0,1,0-.06.1.1,0,0,1,.07,0,.23.23,0,0,1,.13,0l.2,0,.21,0a.23.23,0,0,1,.13,0,.18.18,0,0,1,.07,0,.14.14,0,0,1,0,.06Zm.09-6.18a.55.55,0,0,1-.11.41.82.82,0,0,1-.82,0,.55.55,0,0,1-.11-.39.59.59,0,0,1,.11-.41.64.64,0,0,1,.42-.11.56.56,0,0,1,.4.11.51.51,0,0,1,.11.39Zm3.87,5.84a1.21,1.21,0,0,1,0,.23.2.2,0,0,1-.06.13.36.36,0,0,1-.12.08l-.19.06-.22,0H192a1.93,1.93,0,0,1-.62-.09,1.06,1.06,0,0,1-.42-.29,1.17,1.17,0,0,1-.23-.49,2.73,2.73,0,0,1-.08-.69V65H190a.13.13,0,0,1-.13-.08.58.58,0,0,1,0-.27.81.81,0,0,1,0-.16l0-.11s0-.05.06-.06l.07,0h.64v-1.1a.14.14,0,0,1,0-.06.14.14,0,0,1,.07-.06l.13,0h.41l.13,0,.07.06a.14.14,0,0,1,0,.06v1.1h1.18l.07,0a.17.17,0,0,1,.06.06l0,.11a.81.81,0,0,1,0,.16.46.46,0,0,1,0,.27.12.12,0,0,1-.12.08H191.5v2.58a1.41,1.41,0,0,0,.14.72.53.53,0,0,0,.5.24l.21,0,.17-.05.12,0a.18.18,0,0,1,.09,0h.05a.07.07,0,0,1,0,0,.64.64,0,0,1,0,.09.81.81,0,0,1,0,.16Zm2,.34a.11.11,0,0,1,0,.07s0,0-.06,0l-.13,0h-.42l-.13,0s-.05,0-.06,0a.19.19,0,0,1,0-.07V64.42a.14.14,0,0,1,0-.06.1.1,0,0,1,.06,0,.28.28,0,0,1,.13,0l.21,0,.21,0a.25.25,0,0,1,.13,0,.1.1,0,0,1,.06,0,.09.09,0,0,1,0,.06Zm.09-6.18a.59.59,0,0,1-.11.41.62.62,0,0,1-.42.11.58.58,0,0,1-.4-.11.51.51,0,0,1-.11-.39.55.55,0,0,1,.11-.41.82.82,0,0,1,.82,0,.55.55,0,0,1,.11.39Zm5.41,3.67a.32.32,0,0,1-.33.37h-3a2.84,2.84,0,0,0,.08.69,1.32,1.32,0,0,0,.26.53,1.13,1.13,0,0,0,.46.34,1.85,1.85,0,0,0,.71.12,2.58,2.58,0,0,0,.58-.06,2.13,2.13,0,0,0,.44-.12,2,2,0,0,0,.31-.12.62.62,0,0,1,.18,0,.08.08,0,0,1,.07,0,.1.1,0,0,1,0,0,.25.25,0,0,1,0,.1.71.71,0,0,1,0,.16v.11s0,.06,0,.09a.19.19,0,0,1,0,.07l-.05.06a.57.57,0,0,1-.17.09l-.35.12a5,5,0,0,1-.51.11,3.12,3.12,0,0,1-.62.05,2.8,2.8,0,0,1-1-.16,1.84,1.84,0,0,1-.72-.47,2.12,2.12,0,0,1-.44-.78,3.66,3.66,0,0,1-.15-1.1,3.59,3.59,0,0,1,.15-1.07,2.31,2.31,0,0,1,.45-.8,1.89,1.89,0,0,1,.7-.51,2.25,2.25,0,0,1,.92-.18,2.13,2.13,0,0,1,.92.18,1.74,1.74,0,0,1,.63.47,1.89,1.89,0,0,1,.36.69,2.91,2.91,0,0,1,.12.85v.15Zm-.86-.25a1.51,1.51,0,0,0-.29-1,1.13,1.13,0,0,0-.92-.38,1.2,1.2,0,0,0-.55.12,1.22,1.22,0,0,0-.39.31,1.46,1.46,0,0,0-.25.46,1.91,1.91,0,0,0-.1.54Zm5,1.5a1.39,1.39,0,0,1-.13.63,1.31,1.31,0,0,1-.37.47,2,2,0,0,1-.58.29,2.75,2.75,0,0,1-.73.09,3.59,3.59,0,0,1-.47,0,3.33,3.33,0,0,1-.4-.1,1.42,1.42,0,0,1-.3-.13l-.18-.11a.32.32,0,0,1-.08-.14.93.93,0,0,1,0-.26c0-.06,0-.11,0-.16l0-.11a.13.13,0,0,1,0-.06h.07a.33.33,0,0,1,.16.07l.27.15.39.15a1.83,1.83,0,0,0,.5.07,1.48,1.48,0,0,0,.39,0,1,1,0,0,0,.31-.14.51.51,0,0,0,.19-.22.72.72,0,0,0,.07-.33.52.52,0,0,0-.1-.33.87.87,0,0,0-.26-.24l-.37-.18-.42-.16-.43-.2a1.41,1.41,0,0,1-.37-.27,1.12,1.12,0,0,1-.26-.38,1.22,1.22,0,0,1-.1-.53,1.34,1.34,0,0,1,.1-.52,1.21,1.21,0,0,1,.32-.43,1.4,1.4,0,0,1,.52-.3,2.09,2.09,0,0,1,.74-.12l.37,0,.33.08a1.18,1.18,0,0,1,.25.1.91.91,0,0,1,.16.1.15.15,0,0,1,.07.07s0,0,0,.07a.22.22,0,0,1,0,.09.61.61,0,0,1,0,.14.66.66,0,0,1,0,.15.36.36,0,0,1,0,.11l0,.05a.07.07,0,0,1-.06,0,.31.31,0,0,1-.13,0l-.23-.12a1.27,1.27,0,0,0-.33-.12,1.33,1.33,0,0,0-.42-.06,1.09,1.09,0,0,0-.38.05.69.69,0,0,0-.27.14.65.65,0,0,0-.16.21.59.59,0,0,0-.05.27.52.52,0,0,0,.1.33,1.05,1.05,0,0,0,.27.24,2.12,2.12,0,0,0,.37.19l.43.16.43.2a1.7,1.7,0,0,1,.38.26,1.44,1.44,0,0,1,.26.37,1.29,1.29,0,0,1,.1.51Z"/><path id="_205075576" data-name=" 205075576" class="cls-2" d="M27.18,38.5c-.48-.31-2-.1-2-.86v-.51c-.56,0-.56.26-.89.26-.55,0-.78-.57-.78-1.16l.18-1.63.47-.68c.53,0,.49-.13.77-.13a4.9,4.9,0,0,1,2.28.8c1.2,1.22,1,.53,2,1.13l1.41.12h1.28a9.79,9.79,0,0,0,3.71-.66c.5-.21,2.87-1.52,3-1.52.31,0,.42,0,.38-.15s0-.06-.07-.08c-1-.48-1.91,0-3-.33-1.25-.36-1.58-.88-1.58-2,0-.32-.33-.48-.52-.77-.57-1.19-.13-1-.13-2.18a4.47,4.47,0,0,1-.33-.75c-.08-.29,0-.31.18-.41,1.62-.87,1.31-1.58,1.31-4.11,1.49-2.23,2.39-3.36,5-3.89,4.21-.85,10,.4,10,5.82v.64c0,2.84-2.75,4.74-4,7.06,0,4.33-.4,9.22-2.88,12.93a6.11,6.11,0,0,1-.76.91,28.77,28.77,0,0,1-3.32,3.23c-3.43,2.29-6.34,4.26-10.64,4.26-4.94,0-6.26-4.53-6.17-8.61-.45.11-.43.26-.9.26-1.76,0-4-2.23-4.88-3.6-.41-.3-1.93-1.48-1.93-2.05,0-1.42,1.28-3.22,2.83-3.22.48.48,2.14,3.22,2.57,3.22,1.27,0,2.78-.79,4.17-1,3.2.33,7.25,4,6.23,6.38,2-2.36-1.78-3.95-1.78-4.86,0-.21-.19-.53,0-.53.4,0,.86.42,1.22.58,1.57.69,8,2.67,8.62-.29-2.84,1.58-8.77.35-11-1.62Z"/><path id="_205074280" data-name=" 205074280" class="cls-3" d="M24.27,1.8C65.17-6,74.58,50.39,37.68,59.39a29,29,0,0,1-26.34-6.12c-1.3-1.08-2-1.91-3.11-2.93A19.09,19.09,0,0,1,5.64,47,37.61,37.61,0,0,1,2.23,40.8c-.22-.46-.82-2.16-1.09-2.26-.31-.56-.1-.82.64-.77S3.49,39,3.69,39.59c.72,2.23,2.91,4,4.8,5.48a8.51,8.51,0,0,0,2.07,1.39c.17.09,2.52.95,2.53.95.89.38,1.48.25,1.41-1,.21-1.26-3.72-4.49-3.72-6.55,0-.36-.25-2.26.64-1.67.16,0,6.09,6.39,7,7.22A9.36,9.36,0,0,1,21,49.31c1.14,2.72,3.53,5.42,7.3,5.42h1.92c3.28,0,7.77-3.25,10.2-5.22a14.26,14.26,0,0,0,2.05-2.06,16.18,16.18,0,0,0,3.91-8.94c.72-5.72-.19-5,2.09-7.61C51,28,52,23.07,49,20c-1.43-1.49-3.63-1.4-4.72-3.28C40.4,6.59,33.53,4.13,24.27,1.8Z"/><path id="_205069168" data-name=" 205069168" class="cls-3" d="M7.25,42.12c.23.37,1.61,2.38,1.63,2.47a11.47,11.47,0,0,1-2.81-2.4c-1.92-2.44-1.78-4.07-1.9-7,1.16-.87,2.13,5.35,3.08,6.9Z"/><path id="_205075960" data-name=" 205075960" class="cls-3" d="M12.72,46.22h-.45c-1.63,0-3.29-2.22-4-3.37-1.17-2-2.06-4.69-.93-6.85.91,0,.84,2.14,1,2.92a8.86,8.86,0,0,0,.84,3,10.6,10.6,0,0,0,1.67,2.21,15.1,15.1,0,0,1,1.85,2Z"/><path id="_205073416" data-name=" 205073416" class="cls-4" d="M103.06,37l5.36-14.89h5.74L120.3,39.5h-6.41L113,36.69h-3.62l-.87,2.81H97.08V22.11h6Zm7.85-5.55h.53l-.27-.84ZM57.68,39.5V22.11h6V39.5Zm16.53-11c0-.46,0-.93,0-1.4V22.11h5.86V39.5H74.19l-3.3-5.7c-.12-.19-.23-.39-.34-.58V39.5H64.69V22.11h5.87l3.2,5.55ZM81,39.5V22.11H88.6a7.8,7.8,0,0,1,6,2.31,9.25,9.25,0,0,1,2.09,6.4,9,9,0,0,1-2.18,6.47,8.71,8.71,0,0,1-6.4,2.21Zm6-5.28h1.1A2.27,2.27,0,0,0,90,33.54a4.84,4.84,0,0,0,.63-2.72A4.8,4.8,0,0,0,90,28.09a2.3,2.3,0,0,0-1.86-.67H87v6.8Z"/><path id="_205064104" data-name=" 205064104" class="cls-5" d="M58.72,38.47V23.14h3.91V38.47Zm7,0V23.14H70l2.89,5c.47.81.92,1.63,1.34,2.43S75,32.21,75.4,33c-.06-1.15-.09-2.24-.12-3.25s0-1.91,0-2.68V23.14H79V38.47H74.79l-3-5.19c-.36-.61-.74-1.29-1.16-2.05s-.86-1.58-1.32-2.46c.08,1,.13,1.93.17,2.79s0,1.62,0,2.29v4.62ZM86,35.25h2.14a3.22,3.22,0,0,0,2.67-1.07,5.42,5.42,0,0,0,.85-3.36,5.43,5.43,0,0,0-.85-3.37,3.22,3.22,0,0,0-2.67-1.06H86v8.86Zm-3.94,3.22V23.14H88.6a6.73,6.73,0,0,1,5.22,2,8.14,8.14,0,0,1,1.81,5.7c0,2.56-.62,4.48-1.88,5.74s-3.14,1.91-5.66,1.91Zm16.06,0V23.14H102V38.47Zm11.4-6h3.35l-1.71-5.28-1.64,5.28Zm-.37-9.34h4.29l5.41,15.33h-4.21l-.94-2.81h-5.12l-.88,2.81h-4.06Z"/><path id="_205069864" data-name=" 205069864" class="cls-4" d="M138.69,2.76h6v17.4h-6V7.94h-4.15V20.16h-6V7.94h-4.11V20.16h-6V2.76Zm-36,0h8.37A8.27,8.27,0,0,1,116,4a4.81,4.81,0,0,1,1.79,4.05,5,5,0,0,1-.75,2.77,4.44,4.44,0,0,1-.82,1,2.72,2.72,0,0,1,.42.53,5.93,5.93,0,0,1,.64,2.82c0,.42,0,.85.07,1.27a4.85,4.85,0,0,0,.19,1.33L118,18v2.19H112.1l-.25-.68a7.87,7.87,0,0,1-.41-2.55c0-.54,0-1.16-.08-1.7a1,1,0,0,0-.23-.62,1.63,1.63,0,0,0-.87-.18h-1.59v5.73h-6V7.94h-4V20.16h-6V7.94H88.76v5a11.45,11.45,0,0,1-.42,3.4,5.55,5.55,0,0,1-1.53,2.37,7,7,0,0,1-2.47,1.45,10.1,10.1,0,0,1-6.09,0,7,7,0,0,1-2.47-1.45,5.66,5.66,0,0,1-1.55-2.38,11.08,11.08,0,0,1-.43-3.39V2.76h5.93V13.37a2.91,2.91,0,0,0,.33,1.57,1.83,1.83,0,0,0,1.21.32,1.74,1.74,0,0,0,1.18-.32,2.81,2.81,0,0,0,.34-1.57V2.76Zm6,6.57h1.89a2.18,2.18,0,0,0,1.1-.22c.15-.11.17-.41.17-.58a.53.53,0,0,0-.14-.43,2.11,2.11,0,0,0-1-.2h-2V9.33ZM67.1,9.12c0-.46,0-.93,0-1.4v-5h5.86v17.4H67.07l-3.3-5.7c-.12-.19-.23-.39-.34-.58v6.28H57.57V2.76h5.88l3.19,5.56.46.8Zm78,2.36a9.25,9.25,0,0,1,2.35-6.62,8.41,8.41,0,0,1,6.35-2.49,8.53,8.53,0,0,1,6.39,2.49,9.25,9.25,0,0,1,2.37,6.62,9.21,9.21,0,0,1-2.38,6.61,8.5,8.5,0,0,1-6.38,2.5,8.41,8.41,0,0,1-6.35-2.49,9.28,9.28,0,0,1-2.35-6.62Zm6,0a5,5,0,0,0,.74,3,2.21,2.21,0,0,0,1.91.84,2.27,2.27,0,0,0,1.94-.84,5,5,0,0,0,.74-3,5,5,0,0,0-.74-3,2.27,2.27,0,0,0-1.94-.85,2.21,2.21,0,0,0-1.91.84,5.05,5.05,0,0,0-.74,3Zm21.21-2.36c0-.46,0-.93,0-1.4v-5h5.85v17.4h-5.86L169,14.46l-.34-.58c0,.21,0,.42,0,.63v5.65h-5.87V2.76h5.88l3.19,5.56.46.8Z"/><path id="_205070296" data-name=" 205070296" class="cls-6" d="M58.6,19.13V3.8h4.25l2.89,5c.47.81.92,1.63,1.34,2.43s.83,1.6,1.2,2.38c0-1.16-.09-2.24-.12-3.25s0-1.91,0-2.68V3.8H71.9V19.13H67.67l-3-5.19c-.36-.61-.74-1.29-1.16-2s-.86-1.58-1.32-2.46c.08,1,.13,1.93.17,2.79s0,1.62,0,2.29v4.62ZM74.83,3.8h3.86v9.57a3.33,3.33,0,0,0,.6,2.25,2.53,2.53,0,0,0,2,.68,2.5,2.5,0,0,0,2-.68,3.39,3.39,0,0,0,.59-2.25V3.8h3.9v9.1A10.14,10.14,0,0,1,87.35,16a4.41,4.41,0,0,1-1.24,1.94A5.91,5.91,0,0,1,84,19.14a9.19,9.19,0,0,1-5.43,0,6,6,0,0,1-2.11-1.23A4.58,4.58,0,0,1,75.21,16a10.16,10.16,0,0,1-.38-3.06V3.8ZM93.71,19.13V6.91H89.32V3.8H102V6.91H97.63V19.13Zm13.92-8.77h2.93a2.84,2.84,0,0,0,1.74-.43,1.69,1.69,0,0,0,.55-1.4,1.47,1.47,0,0,0-.54-1.25,2.74,2.74,0,0,0-1.65-.41h-3v3.49Zm-3.9,8.77V3.8h7.33a7.18,7.18,0,0,1,4.3,1,3.77,3.77,0,0,1,1.38,3.22,4,4,0,0,1-.59,2.21,4.45,4.45,0,0,1-1.83,1.55,2.84,2.84,0,0,1,1.43,1,5.2,5.2,0,0,1,.48,2.32c0,.31,0,.74.06,1.26,0,1.24.26,1.95.64,2.15v.53h-4.12a7.36,7.36,0,0,1-.34-2.23c0-.94-.06-1.54-.08-1.78a1.89,1.89,0,0,0-.61-1.31,2.37,2.37,0,0,0-1.53-.42h-2.62v5.74Zm15.75,0V3.8h3.92V19.13Zm10.1,0V6.91h-4.39V3.8H137.9V6.91h-4.39V19.13Zm10.13,0V3.8h3.92V19.13Zm10.38-7.66a5.87,5.87,0,0,0,.95,3.6,3.64,3.64,0,0,0,5.49,0,5.8,5.8,0,0,0,1-3.6,5.8,5.8,0,0,0-1-3.58,3.27,3.27,0,0,0-2.75-1.25A3.23,3.23,0,0,0,151,7.89a5.85,5.85,0,0,0-.95,3.58Zm-4,0a8.23,8.23,0,0,1,2.06-5.9,8.36,8.36,0,0,1,11.24,0,8.19,8.19,0,0,1,2.09,5.9,8.19,8.19,0,0,1-2.09,5.91,8.36,8.36,0,0,1-11.24,0,8.23,8.23,0,0,1-2.06-5.91Zm17.73,7.66V3.8h4.25l2.89,5c.47.81.92,1.63,1.34,2.43s.82,1.6,1.2,2.38c-.06-1.16-.1-2.24-.12-3.25s-.05-1.91-.05-2.68V3.8h3.79V19.13h-4.23l-3-5.19c-.36-.61-.74-1.29-1.16-2s-.86-1.58-1.32-2.46c.08,1,.13,1.93.16,2.79s.06,1.62.06,2.29v4.62Z"/><path id="_205074736" data-name=" 205074736" class="cls-4" d="M152.74,55.81V41.2H160L162.08,49v0l2.11-7.8h7.21V58.6h-5.64V54.75l-1,3.85H159.3L158.42,55V58.6H147.3l-.94-2.81h-3.61l-.88,2.81H131.25l-.25-.68a8.19,8.19,0,0,1-.4-2.55c0-.54,0-1.16-.08-1.7a1,1,0,0,0-.23-.62,1.63,1.63,0,0,0-.87-.19h-1.59V58.6h-6V41.2h8.37a8.27,8.27,0,0,1,4.91,1.25,4.79,4.79,0,0,1,1.79,4,5,5,0,0,1-.75,2.77,4.73,4.73,0,0,1-.82,1,3,3,0,0,1,.42.52,6.12,6.12,0,0,1,.64,2.83c0,.42.05.84.06,1.27a9.22,9.22,0,0,0,.1,1l5.25-14.61h5.75l5.16,14.61Zm-24.91-8h1.89a2.18,2.18,0,0,0,1.1-.22c.15-.11.16-.42.16-.58s0-.34-.13-.43a2,2,0,0,0-1-.2h-2v1.43Zm16.5,2.77h.53l-.27-.83Zm-39.75-2.69a8.73,8.73,0,0,1,2.23-4.5,8.55,8.55,0,0,1,6.47-2.6,8.15,8.15,0,0,1,5.08,1.57A7.06,7.06,0,0,1,121,46.74l.24,1.22h-5.73l-.25-.66a2,2,0,0,0-.74-1,2.35,2.35,0,0,0-1.32-.34,2.23,2.23,0,0,0-1.9,1,4.9,4.9,0,0,0-.84,3,4.73,4.73,0,0,0,.81,2.91,2.28,2.28,0,0,0,1.93.92,2.58,2.58,0,0,0,1.64-.48l.12-.1h-2.81v-5h9V58.6h-4.37l-.13-.84a5.85,5.85,0,0,1-.9.55,7.21,7.21,0,0,1-3.24.69,8,8,0,0,1-3.16-.62,7.62,7.62,0,0,1-2.58-1.84A8.24,8.24,0,0,1,105,53.63a9.18,9.18,0,0,1-.4-1.54,9,9,0,0,1-14.92,4.44,9.26,9.26,0,0,1-2.36-6.62,9.25,9.25,0,0,1,2.36-6.61A8.38,8.38,0,0,1,96,40.8a8.19,8.19,0,0,1,8.59,7.05ZM93.34,49.91a5.05,5.05,0,0,0,.74,3,2.21,2.21,0,0,0,1.91.84,2.24,2.24,0,0,0,1.93-.85,4.94,4.94,0,0,0,.75-3A5,5,0,0,0,97.92,47,2.24,2.24,0,0,0,96,46.11a2.21,2.21,0,0,0-1.91.84,5,5,0,0,0-.74,3ZM63.6,53.12V58.6h-6V41.2h8a7,7,0,0,1,4.74,1.49A5.56,5.56,0,0,1,72.13,47a6,6,0,0,1-1.7,4.5,6.6,6.6,0,0,1-4.67,1.59Zm0-5.15h1.57a1.65,1.65,0,0,0,.88-.19,1,1,0,0,0,.16-.63.83.83,0,0,0-.17-.59,1.67,1.67,0,0,0-.91-.2H63.6V48Zm22.16,2.26a3,3,0,0,1,.42.52,6.12,6.12,0,0,1,.64,2.83c0,.42.05.84.06,1.27a5.2,5.2,0,0,0,.19,1.32l.45.24V58.6H81.65l-.25-.68a8.19,8.19,0,0,1-.4-2.55c0-.54,0-1.16-.08-1.7a1,1,0,0,0-.23-.62,1.67,1.67,0,0,0-.88-.19H78.23V58.6h-6V41.2h8.36a8.28,8.28,0,0,1,4.92,1.25,4.79,4.79,0,0,1,1.79,4,5.09,5.09,0,0,1-.75,2.77,4.73,4.73,0,0,1-.82,1Zm-7.53-2.46h1.89a2.2,2.2,0,0,0,1.1-.22c.15-.11.16-.42.16-.58s0-.34-.13-.43a2,2,0,0,0-1-.2h-2ZM181.73,49v0l2.11-7.8h7.21V58.6h-5.64V54.75l-1,3.85H179L178.07,55V58.6h-5.68V41.2h7.22L181.73,49ZM198,46.41v.64h7.06v5.14H198V53.4h8v5.2H192V41.2h13.71v5.21Z"/><path id="_205075120" data-name=" 205075120" class="cls-7" d="M62.57,49h2.6a2.32,2.32,0,0,0,1.57-.45,1.81,1.81,0,0,0,.5-1.4,1.71,1.71,0,0,0-.52-1.37,2.43,2.43,0,0,0-1.59-.45H62.57V49Zm-4,8.56V42.24h7a6,6,0,0,1,4.06,1.23A4.5,4.5,0,0,1,71.09,47a5,5,0,0,1-1.37,3.75,5.55,5.55,0,0,1-4,1.31H62.57v5.47ZM77.19,48.8h2.93a2.84,2.84,0,0,0,1.74-.44A1.65,1.65,0,0,0,82.41,47a1.47,1.47,0,0,0-.54-1.25,2.67,2.67,0,0,0-1.65-.42h-3v3.5Zm-3.9,8.76V42.24h7.33a7.11,7.11,0,0,1,4.3,1A3.77,3.77,0,0,1,86.3,46.5a4,4,0,0,1-.59,2.21,4.45,4.45,0,0,1-1.83,1.55,2.83,2.83,0,0,1,1.43,1,5.29,5.29,0,0,1,.48,2.33q0,.46.06,1.26c.05,1.24.26,2,.63,2.14v.53H82.37A7,7,0,0,1,82,55.34c0-.94-.06-1.54-.09-1.78a1.82,1.82,0,0,0-.6-1.31,2.37,2.37,0,0,0-1.53-.42H77.19v5.73Zm19-7.65a5.84,5.84,0,0,0,1,3.59A3.22,3.22,0,0,0,96,54.75a3.27,3.27,0,0,0,2.76-1.25,5.77,5.77,0,0,0,1-3.59,5.78,5.78,0,0,0-1-3.58,3.63,3.63,0,0,0-5.49,0A5.88,5.88,0,0,0,92.3,49.91Zm-4,0A8.18,8.18,0,0,1,90.38,44,7.37,7.37,0,0,1,96,41.84,7.44,7.44,0,0,1,101.62,44a8.18,8.18,0,0,1,2.09,5.9,8.2,8.2,0,0,1-2.09,5.91A7.44,7.44,0,0,1,96,58a7.37,7.37,0,0,1-5.6-2.17A8.2,8.2,0,0,1,88.31,49.91Zm29.29,7.65-.31-2a5.55,5.55,0,0,1-2.06,1.79,6.22,6.22,0,0,1-2.78.59,6.92,6.92,0,0,1-2.75-.54,6.37,6.37,0,0,1-2.24-1.6,7.35,7.35,0,0,1-1.53-2.54,9.73,9.73,0,0,1-.52-3.21,8.4,8.4,0,0,1,2.15-6,7.48,7.48,0,0,1,5.72-2.27,7.08,7.08,0,0,1,4.45,1.35A6,6,0,0,1,120,46.93h-3.76a2.9,2.9,0,0,0-1.14-1.49,3.32,3.32,0,0,0-1.88-.51,3.25,3.25,0,0,0-2.73,1.38,5.85,5.85,0,0,0-1,3.62,5.65,5.65,0,0,0,1,3.55,3.3,3.3,0,0,0,2.75,1.31,3.63,3.63,0,0,0,2.27-.69,3.06,3.06,0,0,0,1.12-2h-3.41V49.21h6.91v8.35Zm9.19-8.76h2.92a2.85,2.85,0,0,0,1.75-.44A1.65,1.65,0,0,0,132,47a1.47,1.47,0,0,0-.54-1.25,2.67,2.67,0,0,0-1.65-.42h-3v3.5Zm-3.9,8.76V42.24h7.33a7.11,7.11,0,0,1,4.3,1,3.77,3.77,0,0,1,1.38,3.22,4,4,0,0,1-.59,2.21,4.45,4.45,0,0,1-1.83,1.55,2.83,2.83,0,0,1,1.43,1,5.17,5.17,0,0,1,.47,2.33c0,.31.05.73.07,1.26,0,1.24.26,2,.63,2.14v.53H132a7,7,0,0,1-.34-2.22c0-.94-.06-1.54-.09-1.78a1.82,1.82,0,0,0-.6-1.31,2.37,2.37,0,0,0-1.53-.42h-2.62v5.73Zm20-6h3.35l-1.71-5.29-1.64,5.29Zm-.36-9.34h4.28l5.42,15.32H148l-.94-2.81H142l-.88,2.81H137Zm11.21,15.32V42.24h5.4l2,7.46c.18.66.34,1.3.49,1.92s.27,1.22.38,1.81c.13-.62.28-1.28.45-2s.36-1.42.57-2.2l1.9-7h5.4V57.56H166.8V50.77c0-.48,0-1.15,0-2s.06-1.86.11-3L164,57.56h-3.9l-2.88-11.8c.05,1.36.09,2.59.12,3.67s0,1.94,0,2.55v5.58Zm19.64,0V42.24h5.41l2,7.46c.19.66.35,1.3.5,1.92s.27,1.22.38,1.81c.13-.62.28-1.28.45-2s.36-1.42.57-2.2l1.9-7H190V57.56h-3.59V50.77c0-.48,0-1.15,0-2s.06-1.86.11-3l-3,11.8h-3.89l-2.88-11.8c0,1.36.09,2.59.11,3.67S177,51.37,177,52v5.58Zm19.65,0V42.24h11.65v3.14H197v2.71H204v3.07H197v3.27h8v3.13Z"/><polygon id="_205072696" data-name=" 205072696" class="cls-8" points="57.98 74.84 153.13 74.84 153.13 75.33 57.98 75.33 57.98 74.84"/><path id="_205071400" data-name=" 205071400" class="cls-4" d="M180,92.67l12.34-13.81L172.2,74.4c3.85,2.79,6.55,5.72,7.66,9.64h0a15,15,0,0,1,.38,1.82h0a20.53,20.53,0,0,1-.27,6.81Z"/><path id="_205059640" data-name=" 205059640" class="cls-9" d="M186.8,81.38c-.59-.23-1.29.38-1.55,1a7.78,7.78,0,0,0-.36,1.88,2.1,2.1,0,0,0,1,.3,1.54,1.54,0,0,0,1.38-1.2c.31-1,.1-1.75-.49-2Z"/><path id="_205062712" data-name=" 205062712" class="cls-9" d="M187.2,80.2A1.57,1.57,0,0,1,188.79,82a4.17,4.17,0,0,1-.11.94l3.63-4.06-6.26-1.39-.6,3.56a2.33,2.33,0,0,1,1.75-.83Z"/><path id="_205061896" data-name=" 205061896" class="cls-9" d="M183.42,84.92l.38-2.27h0l.92-5.47L172.2,74.4c3.72,2.7,6.37,5.52,7.54,9.25l.56-3.35h1.39l-.26,1.22A2.84,2.84,0,0,1,183,80.24a1.93,1.93,0,0,1,.4,0l-.25,1.54a1.9,1.9,0,0,0-1.95,1.36l-.42,2.5h-.59a2,2,0,0,1,0,.24,20.53,20.53,0,0,1-.27,6.81l6.26-7h0a4,4,0,0,1-2.8-.75Z"/><path id="_205061800" data-name=" 205061800" class="cls-4" d="M187.55,84.19h0Z"/><path id="_205062160" data-name=" 205062160" class="cls-4" d="M187.54,84.2h0Z"/><path id="_205061680" data-name=" 205061680" class="cls-4" d="M187.54,84.2Z"/><path id="_205061920" data-name=" 205061920" class="cls-9" d="M174.24,97.12a2.38,2.38,0,0,1,.34,1l0,.17.76-1L174.15,97Z"/><path id="_205061320" data-name=" 205061320" class="cls-9" d="M192.31,97.12a2.25,2.25,0,0,1,.34,1l0,.17.76-1L192.22,97Z"/><polygon id="_205059928" data-name=" 205059928" class="cls-10" points="161.47 96.26 162.05 96.26 162.05 98.88 161.47 98.88 161.47 97.74 160.47 97.74 160.47 98.88 159.89 98.88 159.89 96.26 160.47 96.26 160.47 97.31 161.47 97.31 161.47 96.26"/><polygon id="_205060096" data-name=" 205060096" class="cls-10" points="163.2 98.42 164.1 98.42 164.03 98.88 162.63 98.88 162.63 96.26 164.06 96.26 164.06 96.72 163.2 96.72 163.2 97.31 163.96 97.31 163.89 97.74 163.2 97.74 163.2 98.42"/><path id="_205062904" data-name=" 205062904" class="cls-10" d="M165.85,97.77l-.26-1-.27,1Zm.12.44h-.77l-.18.67h-.56l.79-2.62h.7l.78,2.62h-.59l-.17-.67Z"/><polygon id="_205067728" data-name=" 205067728" class="cls-10" points="167.75 98.42 168.63 98.42 168.56 98.88 167.16 98.88 167.16 96.26 167.75 96.26 167.75 98.42"/><polygon id="_205064200" data-name=" 205064200" class="cls-10" points="168.58 96.26 170.53 96.26 170.47 96.72 169.82 96.72 169.82 98.88 169.24 98.88 169.24 96.72 168.58 96.72 168.58 96.26"/><polygon id="_205061992" data-name=" 205061992" class="cls-10" points="172.52 96.26 173.1 96.26 173.1 98.88 172.52 98.88 172.52 97.74 171.52 97.74 171.52 98.88 170.94 98.88 170.94 96.26 171.52 96.26 171.52 97.31 172.52 97.31 172.52 96.26"/><polygon id="_205065520" data-name=" 205065520" class="cls-10" points="177.97 96.26 178.55 96.26 178.55 98.88 177.97 98.88 177.97 97.74 176.97 97.74 176.97 98.88 176.39 98.88 176.39 96.26 176.97 96.26 176.97 97.31 177.97 97.31 177.97 96.26"/><polygon id="_205064224" data-name=" 205064224" class="cls-10" points="180.3 97.85 180.3 98.88 179.72 98.88 179.72 97.84 178.92 96.26 179.55 96.26 180.04 97.39 180.56 96.26 181.08 96.26 180.3 97.85"/><path id="_205074880" data-name=" 205074880" class="cls-10" d="M182.55,97.38h.87v1.4a2.92,2.92,0,0,1-.87.15,1.24,1.24,0,0,1-1.39-1.32,1.34,1.34,0,0,1,1.45-1.4,1.93,1.93,0,0,1,.66.11l-.08.51a1.26,1.26,0,0,0-.6-.12.87.87,0,0,0,0,1.74.85.85,0,0,0,.29,0v-.6h-.35l.06-.43Z"/><polygon id="_205070680" data-name=" 205070680" class="cls-10" points="184.6 96.26 184.6 98.88 184.01 98.88 184.01 96.26 184.6 96.26"/><polygon id="_205075096" data-name=" 205075096" class="cls-10" points="185.76 98.42 186.66 98.42 186.59 98.88 185.19 98.88 185.19 96.26 186.63 96.26 186.63 96.72 185.76 96.72 185.76 97.31 186.52 97.31 186.46 97.74 185.76 97.74 185.76 98.42"/><polygon id="_205060720" data-name=" 205060720" class="cls-10" points="188.7 96.26 189.21 96.26 189.21 98.88 188.63 98.88 187.68 97.07 187.68 98.88 187.17 98.88 187.17 96.26 187.81 96.26 188.7 97.9 188.7 96.26"/><polygon id="_205063696" data-name=" 205063696" class="cls-10" points="190.37 98.42 191.26 98.42 191.19 98.88 189.79 98.88 189.79 96.26 191.23 96.26 191.23 96.72 190.37 96.72 190.37 97.31 191.13 97.31 191.06 97.74 190.37 97.74 190.37 98.42"/><polygon id="_205065664" data-name=" 205065664" class="cls-10" points="196.05 96.26 196.63 96.26 196.63 98.88 196.05 98.88 196.05 97.74 195.05 97.74 195.05 98.88 194.47 98.88 194.47 96.26 195.05 96.26 195.05 97.31 196.05 97.31 196.05 96.26"/><path id="_205063048" data-name=" 205063048" class="cls-10" d="M198.9,97.56c0-.47-.21-.87-.61-.87s-.63.39-.63.88.24.89.63.89h0C198.68,98.46,198.9,98.08,198.9,97.56Zm.59,0a1.22,1.22,0,0,1-1.23,1.39h0a1.21,1.21,0,0,1-1.18-1.34,1.26,1.26,0,0,1,1.22-1.38,1.2,1.2,0,0,1,1.19,1.33Z"/><polygon id="_205064992" data-name=" 205064992" class="cls-10" points="202.46 96.26 202.59 98.88 202.05 98.88 201.97 96.92 201.4 98.88 200.97 98.88 200.48 96.98 200.38 98.88 199.87 98.88 200.03 96.26 200.77 96.26 201.23 98.04 201.73 96.26 202.46 96.26"/><polygon id="_205060480" data-name=" 205060480" class="cls-10" points="203.72 98.42 204.62 98.42 204.55 98.88 203.15 98.88 203.15 96.26 204.58 96.26 204.58 96.72 203.72 96.72 203.72 97.31 204.48 97.31 204.41 97.74 203.72 97.74 203.72 98.42"/><path id="_205065472" data-name=" 205065472" class="cls-11" d="M129.75,78.68a1.65,1.65,0,0,1,0,.3,1.15,1.15,0,0,1-.11.31,1.21,1.21,0,0,1-.18.28,1.55,1.55,0,0,1-.27.24,1.38,1.38,0,0,1-.37.16,1.77,1.77,0,0,1-.49.06h-.49l-.25,1.27s0,0,0,0l0,0-.08,0h-.22l-.07,0,0,0a.06.06,0,0,1,0,0l.65-3.25a.23.23,0,0,1,.09-.15.3.3,0,0,1,.16-.05h.93l.2,0a1.69,1.69,0,0,1,.27.1,1.12,1.12,0,0,1,.2.17.84.84,0,0,1,.12.23.88.88,0,0,1,.05.29Zm-.5,0a.55.55,0,0,0-.08-.29.44.44,0,0,0-.26-.17l-.14,0h-.61l-.28,1.41h.45a1.47,1.47,0,0,0,.32,0,.71.71,0,0,0,.23-.12.93.93,0,0,0,.18-.16,2,2,0,0,0,.11-.2.83.83,0,0,0,.06-.21A.65.65,0,0,0,129.25,78.73Zm3,.93a1.84,1.84,0,0,1,0,.41,1.91,1.91,0,0,1-.11.41,1.58,1.58,0,0,1-.2.36,1.15,1.15,0,0,1-.28.3,1.2,1.2,0,0,1-.37.2,1.25,1.25,0,0,1-.45.08,1.44,1.44,0,0,1-.45-.06,1,1,0,0,1-.31-.19.64.64,0,0,1-.17-.29,1.18,1.18,0,0,1-.06-.39,1.9,1.9,0,0,1,0-.41,1.68,1.68,0,0,1,.11-.4,1.9,1.9,0,0,1,.2-.37,1.58,1.58,0,0,1,.28-.3,1.2,1.2,0,0,1,.37-.2,1.29,1.29,0,0,1,.45-.08,1.18,1.18,0,0,1,.45.07.72.72,0,0,1,.49.47,1.6,1.6,0,0,1,.05.39Zm-.47,0a.88.88,0,0,0,0-.24.56.56,0,0,0-.09-.19.54.54,0,0,0-.18-.11.79.79,0,0,0-.55,0,.75.75,0,0,0-.24.15,1.08,1.08,0,0,0-.18.24,1.43,1.43,0,0,0-.13.28,1.55,1.55,0,0,0-.07.31,1.71,1.71,0,0,0,0,.31.88.88,0,0,0,0,.24.39.39,0,0,0,.1.19.43.43,0,0,0,.17.12,1,1,0,0,0,.26,0,.65.65,0,0,0,.29-.06.78.78,0,0,0,.24-.16,1,1,0,0,0,.18-.23,1.51,1.51,0,0,0,.13-.29,2.81,2.81,0,0,0,.08-.31c0-.1,0-.21,0-.31Zm4.65-.86a.2.2,0,0,1,0,.07s0,0,0,0c-.07.2-.15.39-.23.6s-.17.4-.27.6-.21.4-.32.59-.24.38-.37.56a.08.08,0,0,1,0,0l-.07,0h-.3l-.08,0s0,0,0,0a.06.06,0,0,1,0,0l-.18-1.8-.83,1.79,0,0-.06,0-.09,0h-.26l-.09,0s0,0,0,0a.06.06,0,0,1,0,0L132.84,79v0a.08.08,0,0,1,0,0,.14.14,0,0,1,0-.06l0,0h.37s0,0,0,0,0,0,0,0l.19,2v0l.93-2a.05.05,0,0,1,0,0l0,0h.34s0,0,0,0l0,0,.2,2v0c.08-.14.17-.28.25-.44s.16-.32.24-.5.15-.35.22-.53.14-.37.19-.54l0,0s0,0,0,0h.36s0,0,0,0,0,0,0,0Zm2.48.52a.63.63,0,0,1-.08.34.75.75,0,0,1-.27.26,1.68,1.68,0,0,1-.48.16,3.4,3.4,0,0,1-.69.06h-.28a.51.51,0,0,0,0,.17c0,.06,0,.11,0,.16a.56.56,0,0,0,.14.41.55.55,0,0,0,.43.15,1.58,1.58,0,0,0,.32,0l.24,0,.16-.06.09,0a.05.05,0,0,1,0,0,.07.07,0,0,1,0,0V81s0,0,0,.08l0,.07,0,.06-.11.06a1,1,0,0,1-.2.06l-.25,0-.27,0a1.33,1.33,0,0,1-.42-.06.7.7,0,0,1-.31-.16.75.75,0,0,1-.18-.28,1.25,1.25,0,0,1-.06-.4,1.76,1.76,0,0,1,0-.38,2,2,0,0,1,.1-.4,2.69,2.69,0,0,1,.19-.38,1.43,1.43,0,0,1,.28-.32,1.32,1.32,0,0,1,.85-.31,1.1,1.1,0,0,1,.39.06.81.81,0,0,1,.26.15.48.48,0,0,1,.15.2.52.52,0,0,1,0,.21Zm-.45.05a.28.28,0,0,0-.11-.23.48.48,0,0,0-.31-.08.75.75,0,0,0-.31.06.72.72,0,0,0-.25.16,1,1,0,0,0-.17.24,2.55,2.55,0,0,0-.13.29h.28a3.23,3.23,0,0,0,.48,0,1.41,1.41,0,0,0,.31-.1.45.45,0,0,0,.16-.14.37.37,0,0,0,0-.17Zm2.65-.54a.08.08,0,0,1,0,0V79s0,.06,0,.09l0,.08,0,.06,0,0H141l-.06,0-.07,0h-.1a.35.35,0,0,0-.21.08,1,1,0,0,0-.24.22,1.71,1.71,0,0,0-.21.33,1.88,1.88,0,0,0-.14.42l-.22,1.09a.08.08,0,0,1,0,0l0,0-.07,0h-.22l-.06,0,0,0a.06.06,0,0,1,0,0l.49-2.45,0,0,0,0h.31l0,0v0l-.09.45a1.07,1.07,0,0,1,.15-.22,1,1,0,0,1,.18-.18,1.13,1.13,0,0,1,.21-.12.63.63,0,0,1,.22,0h.09l.09,0,.07,0,.05,0a.06.06,0,0,1,0,0Zm2.37.49a.64.64,0,0,1-.09.34.75.75,0,0,1-.27.26,1.61,1.61,0,0,1-.47.16,3.54,3.54,0,0,1-.69.06h-.29l0,.17v.16a.56.56,0,0,0,.13.41.57.57,0,0,0,.44.15,1.48,1.48,0,0,0,.31,0l.24,0,.17-.06.09,0,0,0a.08.08,0,0,1,0,0s0,0,0,.07a.31.31,0,0,1,0,.08.11.11,0,0,1,0,.07l0,.06a.44.44,0,0,1-.12.06,1,1,0,0,1-.2.06l-.25,0-.27,0a1.33,1.33,0,0,1-.42-.06.72.72,0,0,1-.3-.16.67.67,0,0,1-.19-.28,1.25,1.25,0,0,1-.06-.4,2.73,2.73,0,0,1,0-.38,2,2,0,0,1,.11-.4,1.93,1.93,0,0,1,.19-.38,1.39,1.39,0,0,1,.27-.32,1.3,1.3,0,0,1,.38-.22,1.21,1.21,0,0,1,.48-.09,1,1,0,0,1,.38.06.71.71,0,0,1,.26.15.48.48,0,0,1,.15.2.54.54,0,0,1,.05.21Zm-.46.05a.28.28,0,0,0-.11-.23.48.48,0,0,0-.31-.08.75.75,0,0,0-.31.06.78.78,0,0,0-.24.16,1.08,1.08,0,0,0-.18.24,1.48,1.48,0,0,0-.12.29h.28a3.09,3.09,0,0,0,.47,0,1.41,1.41,0,0,0,.31-.1.38.38,0,0,0,.16-.14.37.37,0,0,0,0-.17Zm2.81,1.9a.09.09,0,0,1-.06.06.32.32,0,0,1-.16,0h-.09l-.06,0,0,0v0l.09-.46a.72.72,0,0,1-.13.19,1,1,0,0,1-.22.19.92.92,0,0,1-.28.14.87.87,0,0,1-.32.06.77.77,0,0,1-.27,0,.56.56,0,0,1-.2-.12.51.51,0,0,1-.13-.16.77.77,0,0,1-.08-.19,1.77,1.77,0,0,1,0-.2,1.28,1.28,0,0,1,0-.19,2.36,2.36,0,0,1,0-.35,1.86,1.86,0,0,1,.1-.39,3.2,3.2,0,0,1,.16-.39,1.37,1.37,0,0,1,.25-.33,1.27,1.27,0,0,1,.33-.24,1,1,0,0,1,.43-.09.78.78,0,0,1,.22,0l.19.07.15.11a.8.8,0,0,1,.13.13l.28-1.39a0,0,0,0,1,0,0,.05.05,0,0,1,0,0l.07,0h.22l.07,0a0,0,0,0,1,0,0,0,0,0,0,1,0,0l-.72,3.62Zm-.09-1.8a.91.91,0,0,0-.27-.28.57.57,0,0,0-.34-.1.48.48,0,0,0-.26.07.79.79,0,0,0-.2.17,1.13,1.13,0,0,0-.16.26,1.33,1.33,0,0,0-.11.3c0,.1,0,.2-.07.3s0,.19,0,.27a.78.78,0,0,0,.09.41.33.33,0,0,0,.29.14A.67.67,0,0,0,145,81a1.18,1.18,0,0,0,.28-.23,1.69,1.69,0,0,0,.23-.34,1.52,1.52,0,0,0,.15-.44l.09-.45Zm4.65.12a2.38,2.38,0,0,1,0,.36,1.86,1.86,0,0,1-.1.39,2.27,2.27,0,0,1-.16.39,1.42,1.42,0,0,1-.25.34,1.5,1.5,0,0,1-.33.23,1,1,0,0,1-.43.09.93.93,0,0,1-.42-.09,1,1,0,0,1-.31-.27l0,.24a.06.06,0,0,1-.05.06.39.39,0,0,1-.17,0,.3.3,0,0,1-.15,0,.06.06,0,0,1,0-.06l.73-3.63a.08.08,0,0,1,0,0s0,0,0,0l.07,0H149l.06,0s0,0,0,0a.06.06,0,0,1,0,0l-.22,1.09,0,.15a.83.83,0,0,0,0,.15,1,1,0,0,0,0,.14.84.84,0,0,0,0,.12.61.61,0,0,1,.14-.2,1,1,0,0,1,.22-.19,1.71,1.71,0,0,1,.27-.14.8.8,0,0,1,.3-.06.74.74,0,0,1,.28,0,.55.55,0,0,1,.2.11.43.43,0,0,1,.13.17.64.64,0,0,1,.08.19,1.29,1.29,0,0,1,0,.19,1.15,1.15,0,0,1,0,.18Zm-.47,0a1,1,0,0,0,0-.17.55.55,0,0,0-.06-.18.36.36,0,0,0-.11-.14.39.39,0,0,0-.2,0,.67.67,0,0,0-.3.08,1.05,1.05,0,0,0-.28.24,1.2,1.2,0,0,0-.23.34,1.63,1.63,0,0,0-.15.44l-.09.45a.91.91,0,0,0,.27.28.63.63,0,0,0,.33.09.56.56,0,0,0,.26-.07,1,1,0,0,0,.21-.17,1.53,1.53,0,0,0,.16-.25,2.49,2.49,0,0,0,.11-.29c0-.11.05-.21.07-.31s0-.2,0-.29Zm3.18-.82v.06a.14.14,0,0,0,0,.06l-.2.51a5.38,5.38,0,0,1-.25.56,6.24,6.24,0,0,1-.33.61,6.55,6.55,0,0,1-.45.67l-.7,1,0,0a.09.09,0,0,1-.06,0l-.09,0h-.23l-.08,0a.08.08,0,0,1,0,0,.11.11,0,0,1,0-.06l.67-.85L150.94,79a.13.13,0,0,0,0-.06v0a.09.09,0,0,1,0-.05l0,0h.36s0,0,0,0a.06.06,0,0,1,0,0l.32,2h0q.16-.24.3-.48c.09-.17.18-.33.25-.5a5.49,5.49,0,0,0,.21-.51,4.56,4.56,0,0,0,.18-.52l0,0,.05,0h.2a.51.51,0,0,1,.16,0s0,0,0,0Z"/></g></g></svg>