<svg width="201" height="97" viewBox="0 0 201 97" fill="none" xmlns="http://www.w3.org/2000/svg">
<path d="M62.02 67.08C62.02 67.15 62.01 67.2 61.99 67.25C61.97 67.3 61.94 67.33 61.9 67.36C61.87 67.39 61.83 67.41 61.78 67.42C61.74 67.43 61.69 67.44 61.65 67.44H61.38C61.29 67.44 61.22 67.43 61.15 67.41C61.09 67.39 61.02 67.36 60.96 67.31C60.9 67.26 60.84 67.2 60.79 67.11C60.73 67.03 60.67 66.92 60.6 66.79L58.56 63.11C58.45 62.92 58.34 62.72 58.24 62.51C58.13 62.3 58.03 62.1 57.94 61.9H57.93C57.94 62.14 57.94 62.38 57.95 62.63C57.95 62.88 57.95 63.13 57.95 63.38V67.29C57.95 67.31 57.94 67.34 57.93 67.36C57.92 67.38 57.89 67.4 57.86 67.41C57.83 67.42 57.79 67.43 57.74 67.44C57.69 67.45 57.62 67.45 57.54 67.45C57.46 67.45 57.39 67.44 57.34 67.44C57.29 67.43 57.25 67.42 57.22 67.41C57.19 67.4 57.17 67.38 57.16 67.36C57.15 67.34 57.14 67.32 57.14 67.29V61.32C57.14 61.19 57.18 61.09 57.25 61.03C57.32 60.97 57.4 60.94 57.49 60.94H57.9C58 60.94 58.08 60.95 58.14 60.97C58.2 60.99 58.26 61.01 58.32 61.05C58.37 61.09 58.42 61.14 58.47 61.21C58.52 61.28 58.57 61.36 58.63 61.47L60.2 64.31C60.3 64.48 60.39 64.65 60.48 64.82C60.57 64.99 60.66 65.15 60.74 65.31C60.82 65.47 60.91 65.63 60.99 65.78C61.07 65.93 61.15 66.09 61.23 66.25H61.24C61.23 65.99 61.23 65.71 61.23 65.43C61.23 65.14 61.23 64.87 61.23 64.61V61.1C61.23 61.08 61.24 61.06 61.25 61.04C61.26 61.02 61.29 61 61.32 60.99C61.35 60.97 61.39 60.96 61.44 60.96C61.49 60.95 61.56 60.95 61.64 60.95C61.71 60.95 61.78 60.95 61.83 60.96C61.88 60.97 61.93 60.98 61.95 60.99C61.98 61.01 62 61.02 62.01 61.04C62.02 61.06 62.03 61.08 62.03 61.1L62.02 67.08ZM67.83 65.01C67.83 65.38 67.78 65.72 67.68 66.02C67.58 66.33 67.44 66.6 67.25 66.82C67.06 67.04 66.82 67.22 66.53 67.34C66.24 67.46 65.91 67.53 65.53 67.53C65.16 67.53 64.84 67.47 64.56 67.36C64.29 67.25 64.05 67.09 63.87 66.88C63.69 66.67 63.55 66.41 63.46 66.11C63.37 65.81 63.33 65.47 63.33 65.09C63.33 64.72 63.38 64.38 63.47 64.08C63.57 63.77 63.71 63.5 63.9 63.28C64.09 63.06 64.33 62.88 64.62 62.76C64.91 62.64 65.24 62.57 65.62 62.57C65.99 62.57 66.31 62.62 66.59 62.74C66.86 62.85 67.1 63.01 67.28 63.22C67.46 63.43 67.6 63.69 67.69 63.98C67.79 64.29 67.83 64.63 67.83 65.01ZM66.96 65.06C66.96 64.82 66.94 64.59 66.89 64.37C66.85 64.15 66.77 63.96 66.67 63.8C66.57 63.64 66.43 63.51 66.25 63.41C66.07 63.31 65.85 63.27 65.59 63.27C65.35 63.27 65.14 63.31 64.96 63.4C64.79 63.49 64.64 63.61 64.53 63.77C64.42 63.93 64.33 64.12 64.28 64.33C64.23 64.55 64.2 64.78 64.2 65.04C64.2 65.29 64.22 65.52 64.27 65.73C64.31 65.95 64.39 66.14 64.5 66.3C64.6 66.46 64.75 66.59 64.92 66.69C65.1 66.79 65.32 66.83 65.58 66.83C65.82 66.83 66.03 66.79 66.2 66.7C66.38 66.61 66.52 66.49 66.64 66.33C66.75 66.17 66.84 65.99 66.89 65.77C66.94 65.56 66.96 65.32 66.96 65.06ZM72.91 67.31C72.91 67.34 72.9 67.36 72.89 67.38C72.88 67.4 72.86 67.41 72.83 67.43C72.8 67.44 72.76 67.45 72.71 67.46C72.66 67.47 72.6 67.47 72.53 67.47C72.45 67.47 72.39 67.47 72.34 67.46C72.29 67.45 72.25 67.44 72.23 67.43C72.2 67.42 72.18 67.4 72.17 67.38C72.16 67.36 72.16 67.34 72.16 67.31V66.71C71.9 66.99 71.65 67.2 71.4 67.33C71.15 67.46 70.9 67.53 70.64 67.53C70.34 67.53 70.09 67.48 69.88 67.38C69.68 67.28 69.51 67.14 69.38 66.97C69.25 66.8 69.16 66.6 69.11 66.37C69.06 66.14 69.03 65.86 69.03 65.54V62.81C69.03 62.78 69.04 62.76 69.05 62.74C69.06 62.72 69.08 62.71 69.12 62.69C69.15 62.67 69.2 62.67 69.25 62.66C69.3 62.65 69.37 62.65 69.45 62.65C69.53 62.65 69.6 62.65 69.65 62.66C69.7 62.67 69.75 62.67 69.78 62.69C69.81 62.71 69.83 62.72 69.85 62.74C69.86 62.76 69.87 62.78 69.87 62.81V65.43C69.87 65.69 69.89 65.9 69.93 66.06C69.97 66.22 70.03 66.35 70.1 66.46C70.18 66.57 70.28 66.66 70.4 66.72C70.52 66.78 70.66 66.81 70.82 66.81C71.03 66.81 71.23 66.74 71.44 66.59C71.65 66.44 71.86 66.23 72.09 65.94V62.79C72.09 62.76 72.1 62.74 72.11 62.72C72.12 62.7 72.14 62.69 72.18 62.67C72.21 62.65 72.26 62.65 72.31 62.64C72.36 62.63 72.43 62.63 72.51 62.63C72.59 62.63 72.66 62.63 72.71 62.64C72.76 62.65 72.81 62.65 72.83 62.67C72.86 62.69 72.88 62.7 72.9 62.72C72.92 62.74 72.92 62.76 72.92 62.79L72.91 67.31ZM77.06 63.1C77.06 63.17 77.06 63.23 77.05 63.28C77.05 63.33 77.04 63.37 77.03 63.4C77.02 63.43 77.01 63.45 76.99 63.46C76.97 63.48 76.95 63.48 76.93 63.48C76.9 63.48 76.87 63.47 76.83 63.46C76.79 63.44 76.75 63.43 76.7 63.42C76.65 63.4 76.6 63.39 76.54 63.38C76.48 63.37 76.41 63.36 76.34 63.36C76.26 63.36 76.18 63.38 76.1 63.41C76.02 63.44 75.93 63.5 75.85 63.57C75.76 63.65 75.67 63.75 75.57 63.88C75.47 64.01 75.37 64.16 75.25 64.34V67.3C75.25 67.33 75.24 67.35 75.23 67.37C75.22 67.39 75.19 67.4 75.17 67.42C75.14 67.43 75.1 67.44 75.05 67.45C75 67.46 74.93 67.46 74.84 67.46C74.76 67.46 74.69 67.46 74.64 67.45C74.59 67.44 74.54 67.43 74.51 67.42C74.48 67.41 74.46 67.39 74.45 67.37C74.44 67.35 74.43 67.33 74.43 67.3V62.8C74.43 62.77 74.44 62.75 74.45 62.73C74.46 62.71 74.48 62.7 74.51 62.68C74.54 62.66 74.58 62.66 74.63 62.65C74.68 62.64 74.74 62.64 74.81 62.64C74.88 62.64 74.94 62.64 74.99 62.65C75.04 62.66 75.08 62.66 75.1 62.68C75.13 62.7 75.15 62.71 75.16 62.73C75.17 62.75 75.18 62.77 75.18 62.8V63.46C75.3 63.28 75.42 63.13 75.53 63.02C75.64 62.91 75.74 62.82 75.84 62.75C75.94 62.69 76.03 62.64 76.13 62.62C76.23 62.6 76.32 62.58 76.42 62.58C76.46 62.58 76.51 62.58 76.57 62.59C76.62 62.6 76.68 62.6 76.74 62.62C76.8 62.63 76.85 62.65 76.9 62.66C76.95 62.68 76.98 62.69 77 62.71C77.02 62.73 77.03 62.74 77.04 62.76C77.05 62.78 77.05 62.79 77.06 62.82C77.07 62.84 77.07 62.88 77.07 62.92C77.06 62.97 77.06 63.03 77.06 63.1ZM78.83 67.31C78.83 67.34 78.82 67.36 78.81 67.38C78.8 67.4 78.77 67.41 78.75 67.43C78.72 67.44 78.68 67.45 78.63 67.46C78.58 67.47 78.51 67.47 78.42 67.47C78.34 67.47 78.27 67.47 78.22 67.46C78.17 67.45 78.12 67.44 78.09 67.43C78.06 67.42 78.04 67.4 78.03 67.38C78.01 67.36 78 67.34 78 67.31V62.81C78 62.79 78.01 62.77 78.02 62.75C78.03 62.73 78.05 62.71 78.08 62.7C78.11 62.69 78.15 62.68 78.21 62.67C78.26 62.66 78.33 62.66 78.41 62.66C78.49 62.66 78.56 62.66 78.62 62.67C78.67 62.68 78.71 62.69 78.74 62.7C78.77 62.71 78.79 62.73 78.8 62.75C78.81 62.77 78.82 62.79 78.82 62.81V67.31H78.83ZM78.92 61.29C78.92 61.48 78.88 61.62 78.81 61.69C78.74 61.76 78.6 61.79 78.41 61.79C78.22 61.79 78.08 61.76 78.01 61.69C77.94 61.62 77.9 61.49 77.9 61.3C77.9 61.11 77.94 60.98 78.01 60.91C78.08 60.84 78.22 60.8 78.41 60.8C78.6 60.8 78.74 60.83 78.81 60.9C78.89 60.97 78.92 61.1 78.92 61.29ZM83.18 66.08C83.18 66.31 83.14 66.52 83.05 66.69C82.96 66.87 82.84 67.02 82.69 67.15C82.53 67.27 82.35 67.37 82.13 67.43C81.91 67.49 81.68 67.53 81.41 67.53C81.25 67.53 81.1 67.52 80.95 67.49C80.8 67.46 80.68 67.43 80.56 67.39C80.44 67.35 80.35 67.31 80.27 67.27C80.19 67.23 80.13 67.19 80.1 67.16C80.06 67.13 80.04 67.08 80.02 67.02C80 66.96 79.99 66.88 79.99 66.77C79.99 66.71 79.99 66.65 80 66.61C80.01 66.57 80.02 66.53 80.03 66.51C80.04 66.48 80.05 66.46 80.07 66.45C80.09 66.44 80.11 66.43 80.13 66.43C80.17 66.43 80.22 66.45 80.29 66.5C80.36 66.54 80.45 66.59 80.55 66.65C80.65 66.7 80.78 66.75 80.92 66.8C81.06 66.85 81.23 66.87 81.42 66.87C81.56 66.87 81.69 66.85 81.8 66.83C81.91 66.8 82.01 66.75 82.1 66.7C82.18 66.64 82.25 66.57 82.29 66.48C82.34 66.39 82.36 66.28 82.36 66.16C82.36 66.03 82.33 65.93 82.26 65.84C82.2 65.75 82.11 65.68 82 65.61C81.89 65.54 81.77 65.48 81.64 65.43C81.51 65.38 81.37 65.32 81.23 65.27C81.09 65.21 80.95 65.15 80.82 65.08C80.69 65.01 80.56 64.92 80.46 64.82C80.35 64.72 80.27 64.59 80.2 64.45C80.14 64.31 80.1 64.14 80.1 63.93C80.1 63.75 80.13 63.59 80.2 63.42C80.27 63.26 80.37 63.12 80.51 62.99C80.65 62.87 80.82 62.77 81.02 62.7C81.22 62.63 81.47 62.59 81.74 62.59C81.86 62.59 81.98 62.6 82.1 62.62C82.22 62.64 82.33 62.66 82.42 62.7C82.52 62.73 82.6 62.76 82.67 62.8C82.74 62.83 82.79 62.86 82.83 62.89C82.86 62.92 82.89 62.94 82.9 62.96C82.91 62.98 82.92 63 82.93 63.03C82.94 63.05 82.94 63.08 82.94 63.12C82.95 63.16 82.95 63.2 82.95 63.25C82.95 63.31 82.95 63.36 82.94 63.4C82.93 63.44 82.93 63.48 82.92 63.5C82.91 63.53 82.89 63.55 82.88 63.56C82.86 63.57 82.84 63.58 82.83 63.58C82.8 63.58 82.76 63.56 82.7 63.53C82.64 63.49 82.57 63.45 82.48 63.41C82.39 63.37 82.28 63.33 82.16 63.29C82.04 63.25 81.9 63.24 81.74 63.24C81.6 63.24 81.48 63.26 81.37 63.29C81.26 63.32 81.18 63.37 81.11 63.42C81.04 63.48 80.99 63.55 80.95 63.63C80.92 63.71 80.9 63.8 80.9 63.89C80.9 64.02 80.93 64.13 81 64.22C81.07 64.31 81.15 64.39 81.26 64.45C81.37 64.52 81.49 64.58 81.62 64.63C81.76 64.68 81.9 64.74 82.04 64.79C82.18 64.85 82.32 64.91 82.46 64.98C82.6 65.05 82.72 65.13 82.83 65.23C82.94 65.33 83.02 65.45 83.09 65.59C83.15 65.72 83.18 65.89 83.18 66.08ZM88.24 67.31C88.24 67.34 88.23 67.36 88.22 67.38C88.21 67.4 88.19 67.41 88.16 67.43C88.13 67.44 88.09 67.45 88.04 67.46C87.99 67.47 87.92 67.47 87.84 67.47C87.76 67.47 87.69 67.47 87.63 67.46C87.58 67.45 87.54 67.44 87.51 67.43C87.48 67.42 87.46 67.4 87.45 67.38C87.44 67.36 87.43 67.34 87.43 67.31V64.67C87.43 64.41 87.41 64.21 87.37 64.05C87.33 63.89 87.27 63.76 87.2 63.64C87.12 63.53 87.02 63.44 86.9 63.38C86.78 63.32 86.64 63.29 86.48 63.29C86.27 63.29 86.07 63.36 85.86 63.51C85.65 63.66 85.43 63.87 85.21 64.16V67.31C85.21 67.34 85.2 67.36 85.19 67.38C85.18 67.4 85.15 67.41 85.13 67.43C85.1 67.44 85.06 67.45 85.01 67.46C84.96 67.47 84.89 67.47 84.8 67.47C84.72 67.47 84.65 67.47 84.6 67.46C84.55 67.45 84.5 67.44 84.47 67.43C84.44 67.42 84.42 67.4 84.41 67.38C84.4 67.36 84.39 67.34 84.39 67.31V60.63C84.39 60.6 84.4 60.58 84.41 60.56C84.42 60.54 84.44 60.52 84.47 60.51C84.5 60.5 84.54 60.49 84.6 60.48C84.65 60.47 84.72 60.47 84.8 60.47C84.88 60.47 84.95 60.47 85.01 60.48C85.06 60.49 85.1 60.5 85.13 60.51C85.16 60.52 85.18 60.54 85.19 60.56C85.2 60.58 85.21 60.6 85.21 60.63V63.33C85.45 63.08 85.68 62.89 85.93 62.77C86.17 62.65 86.41 62.59 86.65 62.59C86.95 62.59 87.2 62.64 87.41 62.74C87.61 62.84 87.78 62.98 87.91 63.15C88.04 63.32 88.13 63.52 88.18 63.75C88.24 63.98 88.26 64.26 88.26 64.58L88.24 67.31ZM90.57 67.31C90.57 67.34 90.56 67.36 90.55 67.38C90.54 67.4 90.51 67.41 90.49 67.43C90.46 67.44 90.42 67.45 90.37 67.46C90.32 67.47 90.25 67.47 90.16 67.47C90.08 67.47 90.01 67.47 89.96 67.46C89.91 67.45 89.86 67.44 89.83 67.43C89.8 67.42 89.78 67.4 89.77 67.38C89.76 67.36 89.75 67.34 89.75 67.31V62.81C89.75 62.79 89.76 62.77 89.77 62.75C89.78 62.73 89.8 62.71 89.83 62.7C89.86 62.69 89.9 62.68 89.96 62.67C90.01 62.66 90.08 62.66 90.16 62.66C90.24 62.66 90.31 62.66 90.37 62.67C90.42 62.68 90.46 62.69 90.49 62.7C90.52 62.71 90.54 62.73 90.55 62.75C90.56 62.77 90.57 62.79 90.57 62.81V67.31ZM90.66 61.29C90.66 61.48 90.62 61.62 90.55 61.69C90.48 61.76 90.34 61.79 90.15 61.79C89.96 61.79 89.82 61.76 89.75 61.69C89.68 61.62 89.64 61.49 89.64 61.3C89.64 61.11 89.68 60.98 89.75 60.91C89.82 60.84 89.96 60.8 90.15 60.8C90.34 60.8 90.48 60.83 90.55 60.9C90.62 60.97 90.66 61.1 90.66 61.29ZM95.97 67.31C95.97 67.34 95.96 67.36 95.95 67.38C95.94 67.4 95.92 67.41 95.89 67.43C95.86 67.44 95.82 67.45 95.77 67.46C95.72 67.47 95.65 67.47 95.57 67.47C95.49 67.47 95.42 67.47 95.36 67.46C95.31 67.45 95.27 67.44 95.24 67.43C95.21 67.42 95.19 67.4 95.18 67.38C95.17 67.36 95.16 67.34 95.16 67.31V64.67C95.16 64.41 95.14 64.21 95.1 64.05C95.06 63.89 95 63.76 94.93 63.64C94.85 63.53 94.75 63.44 94.63 63.38C94.51 63.32 94.37 63.29 94.21 63.29C94 63.29 93.8 63.36 93.59 63.51C93.38 63.66 93.16 63.87 92.94 64.16V67.31C92.94 67.34 92.93 67.36 92.92 67.38C92.91 67.4 92.88 67.41 92.86 67.43C92.83 67.44 92.79 67.45 92.74 67.46C92.69 67.47 92.62 67.47 92.53 67.47C92.45 67.47 92.38 67.47 92.33 67.46C92.28 67.45 92.23 67.44 92.2 67.43C92.17 67.42 92.15 67.4 92.14 67.38C92.13 67.36 92.12 67.34 92.12 67.31V62.81C92.12 62.78 92.13 62.76 92.14 62.74C92.15 62.72 92.17 62.71 92.2 62.69C92.23 62.67 92.27 62.67 92.32 62.66C92.37 62.65 92.43 62.65 92.5 62.65C92.57 62.65 92.63 62.65 92.68 62.66C92.73 62.67 92.77 62.67 92.79 62.69C92.82 62.71 92.84 62.72 92.85 62.74C92.86 62.76 92.87 62.78 92.87 62.81V63.41C93.12 63.13 93.38 62.92 93.63 62.79C93.88 62.66 94.14 62.59 94.39 62.59C94.69 62.59 94.94 62.64 95.15 62.74C95.35 62.84 95.52 62.98 95.65 63.15C95.78 63.32 95.87 63.52 95.92 63.75C95.98 63.98 96 64.25 96 64.57L95.97 67.31ZM101.23 63.01C101.23 63.13 101.21 63.21 101.18 63.26C101.15 63.31 101.11 63.34 101.06 63.34H100.41C100.53 63.46 100.61 63.59 100.65 63.74C100.7 63.89 100.72 64.04 100.72 64.19C100.72 64.45 100.68 64.68 100.6 64.88C100.52 65.08 100.4 65.25 100.24 65.39C100.08 65.53 99.9 65.63 99.69 65.71C99.48 65.78 99.24 65.82 98.98 65.82C98.8 65.82 98.62 65.8 98.46 65.75C98.29 65.7 98.17 65.64 98.08 65.57C98.02 65.63 97.97 65.7 97.93 65.77C97.89 65.85 97.87 65.94 97.87 66.04C97.87 66.16 97.92 66.25 98.03 66.33C98.14 66.41 98.28 66.45 98.46 66.45L99.64 66.5C99.86 66.51 100.07 66.54 100.25 66.59C100.44 66.65 100.6 66.72 100.73 66.83C100.87 66.93 100.97 67.06 101.05 67.21C101.13 67.36 101.16 67.53 101.16 67.73C101.16 67.94 101.12 68.13 101.03 68.32C100.94 68.51 100.81 68.67 100.63 68.81C100.45 68.95 100.22 69.06 99.95 69.15C99.67 69.23 99.35 69.27 98.97 69.27C98.61 69.27 98.3 69.24 98.04 69.18C97.79 69.12 97.58 69.03 97.41 68.93C97.25 68.82 97.13 68.7 97.05 68.55C96.98 68.4 96.94 68.24 96.94 68.07C96.94 67.96 96.95 67.85 96.98 67.75C97.01 67.65 97.05 67.55 97.1 67.45C97.16 67.36 97.22 67.27 97.31 67.18C97.39 67.09 97.49 67.01 97.59 66.93C97.43 66.85 97.31 66.74 97.23 66.62C97.15 66.49 97.11 66.36 97.11 66.21C97.11 66.01 97.15 65.83 97.23 65.67C97.31 65.51 97.42 65.37 97.54 65.24C97.44 65.12 97.35 64.98 97.29 64.82C97.23 64.66 97.2 64.48 97.2 64.26C97.2 64 97.24 63.77 97.33 63.57C97.42 63.37 97.54 63.19 97.69 63.05C97.84 62.91 98.03 62.8 98.24 62.73C98.46 62.65 98.69 62.62 98.94 62.62C99.08 62.62 99.2 62.63 99.32 62.64C99.44 62.66 99.55 62.68 99.65 62.7H101.01C101.07 62.7 101.11 62.73 101.14 62.78C101.22 62.82 101.23 62.9 101.23 63.01ZM99.94 64.2C99.94 63.89 99.85 63.66 99.69 63.48C99.52 63.31 99.28 63.22 98.97 63.22C98.81 63.22 98.67 63.25 98.55 63.3C98.43 63.35 98.33 63.43 98.25 63.52C98.17 63.61 98.11 63.72 98.07 63.84C98.03 63.96 98.01 64.09 98.01 64.22C98.01 64.52 98.1 64.75 98.26 64.92C98.43 65.09 98.66 65.18 98.97 65.18C99.13 65.18 99.28 65.15 99.4 65.1C99.52 65.05 99.62 64.98 99.7 64.88C99.78 64.79 99.84 64.68 99.88 64.56C99.92 64.45 99.94 64.33 99.94 64.2ZM100.36 67.76C100.36 67.57 100.28 67.42 100.12 67.31C99.96 67.21 99.75 67.15 99.48 67.14L98.31 67.1C98.2 67.18 98.12 67.26 98.05 67.34C97.98 67.42 97.93 67.49 97.89 67.56C97.85 67.63 97.82 67.69 97.81 67.76C97.79 67.83 97.79 67.89 97.79 67.96C97.79 68.18 97.9 68.34 98.12 68.45C98.34 68.56 98.65 68.62 99.04 68.62C99.29 68.62 99.5 68.6 99.67 68.55C99.84 68.5 99.97 68.44 100.08 68.36C100.18 68.28 100.26 68.19 100.3 68.09C100.33 67.99 100.36 67.88 100.36 67.76ZM109.36 67.31C109.36 67.34 109.35 67.36 109.34 67.38C109.33 67.4 109.3 67.42 109.27 67.43C109.24 67.44 109.19 67.45 109.14 67.46C109.09 67.47 109.02 67.47 108.94 67.47C108.85 67.47 108.78 67.46 108.73 67.46C108.68 67.45 108.63 67.44 108.6 67.43C108.57 67.42 108.54 67.4 108.53 67.38C108.52 67.36 108.51 67.34 108.51 67.31V64.44H105.57V67.31C105.57 67.34 105.56 67.36 105.55 67.38C105.54 67.4 105.51 67.42 105.48 67.43C105.45 67.44 105.4 67.45 105.35 67.46C105.3 67.47 105.23 67.47 105.14 67.47C105.06 67.47 104.99 67.46 104.94 67.46C104.88 67.45 104.84 67.44 104.81 67.43C104.78 67.42 104.75 67.4 104.74 67.38C104.73 67.36 104.72 67.34 104.72 67.31V61.1C104.72 61.07 104.73 61.05 104.74 61.03C104.75 61.01 104.78 60.99 104.81 60.98C104.84 60.97 104.89 60.96 104.94 60.95C105 60.94 105.06 60.94 105.14 60.94C105.22 60.94 105.29 60.95 105.35 60.95C105.41 60.96 105.45 60.97 105.48 60.98C105.51 60.99 105.54 61.01 105.55 61.03C105.56 61.05 105.57 61.07 105.57 61.1V63.69H108.51V61.1C108.51 61.07 108.52 61.05 108.53 61.03C108.54 61.01 108.57 60.99 108.6 60.98C108.63 60.97 108.68 60.96 108.73 60.95C108.78 60.94 108.85 60.94 108.94 60.94C109.02 60.94 109.09 60.95 109.14 60.95C109.19 60.96 109.24 60.97 109.27 60.98C109.3 60.99 109.33 61.01 109.34 61.03C109.35 61.05 109.36 61.07 109.36 61.1V67.31ZM114.83 64.86C114.83 64.99 114.8 65.08 114.73 65.14C114.67 65.19 114.59 65.22 114.51 65.22H111.56C111.56 65.47 111.59 65.69 111.64 65.9C111.69 66.1 111.77 66.27 111.89 66.41C112.01 66.55 112.16 66.66 112.34 66.74C112.53 66.82 112.75 66.85 113.03 66.85C113.24 66.85 113.43 66.83 113.6 66.8C113.77 66.77 113.91 66.73 114.03 66.68C114.15 66.64 114.25 66.6 114.33 66.56C114.41 66.52 114.47 66.51 114.51 66.51C114.53 66.51 114.55 66.52 114.57 66.53C114.59 66.54 114.6 66.56 114.61 66.58C114.62 66.6 114.63 66.64 114.63 66.68C114.63 66.72 114.64 66.77 114.64 66.83C114.64 66.87 114.64 66.91 114.63 66.94C114.63 66.97 114.62 67 114.62 67.03C114.61 67.06 114.61 67.08 114.59 67.1C114.58 67.12 114.56 67.14 114.55 67.16C114.53 67.18 114.48 67.21 114.39 67.25C114.3 67.29 114.18 67.33 114.04 67.37C113.9 67.41 113.73 67.45 113.54 67.48C113.35 67.51 113.15 67.53 112.94 67.53C112.57 67.53 112.25 67.48 111.97 67.37C111.69 67.27 111.46 67.11 111.27 66.91C111.08 66.71 110.94 66.45 110.84 66.15C110.74 65.84 110.69 65.49 110.69 65.08C110.69 64.69 110.74 64.35 110.84 64.04C110.94 63.73 111.08 63.47 111.27 63.25C111.46 63.03 111.68 62.87 111.95 62.75C112.22 62.64 112.52 62.58 112.84 62.58C113.19 62.58 113.49 62.64 113.74 62.75C113.99 62.86 114.19 63.02 114.35 63.21C114.51 63.4 114.63 63.63 114.7 63.88C114.78 64.14 114.81 64.41 114.81 64.71L114.83 64.86ZM114 64.62C114.01 64.19 113.91 63.84 113.71 63.6C113.51 63.35 113.21 63.23 112.81 63.23C112.61 63.23 112.43 63.27 112.27 63.35C112.12 63.43 111.99 63.53 111.89 63.65C111.79 63.78 111.71 63.92 111.65 64.09C111.59 64.26 111.56 64.43 111.55 64.62H114Z" fill="#383431"/>
<path d="M119.48 67.32C119.48 67.36 119.47 67.39 119.44 67.41C119.41 67.43 119.38 67.45 119.33 67.46C119.28 67.47 119.21 67.48 119.13 67.48C119.04 67.48 118.97 67.47 118.92 67.46C118.87 67.45 118.83 67.43 118.81 67.41C118.79 67.39 118.78 67.36 118.78 67.32V66.87C118.58 67.08 118.36 67.24 118.12 67.36C117.88 67.48 117.62 67.54 117.35 67.54C117.11 67.54 116.9 67.51 116.71 67.45C116.52 67.39 116.35 67.3 116.22 67.18C116.09 67.06 115.98 66.92 115.9 66.75C115.83 66.58 115.79 66.39 115.79 66.17C115.79 65.92 115.84 65.7 115.94 65.51C116.04 65.32 116.19 65.17 116.39 65.05C116.58 64.93 116.82 64.83 117.1 64.77C117.38 64.71 117.7 64.68 118.05 64.68H118.67V64.33C118.67 64.16 118.65 64 118.62 63.87C118.58 63.74 118.52 63.63 118.44 63.54C118.36 63.45 118.25 63.38 118.12 63.34C117.99 63.3 117.83 63.27 117.64 63.27C117.44 63.27 117.25 63.29 117.09 63.34C116.93 63.39 116.79 63.44 116.66 63.5C116.54 63.56 116.44 63.61 116.35 63.66C116.27 63.71 116.21 63.73 116.17 63.73C116.14 63.73 116.12 63.72 116.1 63.71C116.08 63.7 116.06 63.68 116.05 63.65C116.04 63.62 116.02 63.59 116.02 63.55C116 63.49 116 63.45 116 63.4C116 63.32 116.01 63.25 116.02 63.2C116.03 63.15 116.06 63.11 116.11 63.06C116.15 63.02 116.23 62.97 116.34 62.91C116.45 62.85 116.58 62.8 116.72 62.75C116.86 62.7 117.02 62.66 117.19 62.63C117.36 62.6 117.53 62.58 117.71 62.58C118.03 62.58 118.31 62.62 118.53 62.69C118.76 62.76 118.94 62.87 119.08 63.01C119.22 63.15 119.32 63.33 119.39 63.54C119.45 63.75 119.49 63.99 119.49 64.27L119.48 67.32ZM118.66 65.26H117.95C117.72 65.26 117.53 65.28 117.36 65.32C117.19 65.36 117.06 65.42 116.95 65.49C116.84 65.57 116.76 65.66 116.71 65.76C116.66 65.87 116.63 65.99 116.63 66.12C116.63 66.35 116.7 66.54 116.85 66.68C117 66.82 117.21 66.89 117.47 66.89C117.69 66.89 117.89 66.84 118.07 66.72C118.25 66.61 118.45 66.44 118.65 66.21L118.66 65.26ZM121.82 67.31C121.82 67.34 121.81 67.36 121.8 67.38C121.79 67.4 121.76 67.41 121.74 67.43C121.71 67.44 121.67 67.45 121.62 67.46C121.57 67.47 121.5 67.47 121.41 67.47C121.33 67.47 121.26 67.47 121.21 67.46C121.16 67.45 121.11 67.44 121.08 67.43C121.05 67.42 121.03 67.4 121.02 67.38C121.01 67.36 121 67.34 121 67.31V60.63C121 60.6 121.01 60.58 121.02 60.56C121.03 60.54 121.05 60.52 121.08 60.51C121.11 60.5 121.15 60.49 121.21 60.48C121.26 60.47 121.33 60.47 121.41 60.47C121.49 60.47 121.56 60.47 121.62 60.48C121.67 60.49 121.71 60.5 121.74 60.51C121.77 60.52 121.79 60.54 121.8 60.56C121.81 60.58 121.82 60.6 121.82 60.63V67.31ZM125.68 66.98C125.68 67.08 125.67 67.15 125.66 67.21C125.65 67.27 125.63 67.31 125.6 67.33C125.57 67.36 125.53 67.38 125.48 67.41C125.43 67.43 125.37 67.45 125.3 67.47C125.23 67.49 125.16 67.5 125.08 67.51C125 67.52 124.93 67.53 124.85 67.53C124.62 67.53 124.42 67.5 124.25 67.44C124.08 67.38 123.95 67.28 123.84 67.16C123.73 67.03 123.66 66.88 123.61 66.68C123.56 66.49 123.54 66.26 123.54 66V63.37H122.91C122.86 63.37 122.82 63.34 122.79 63.29C122.76 63.24 122.75 63.15 122.75 63.03C122.75 62.97 122.75 62.91 122.76 62.87C122.77 62.83 122.78 62.79 122.79 62.76C122.8 62.73 122.82 62.71 122.84 62.7C122.86 62.69 122.89 62.68 122.91 62.68H123.54V61.61C123.54 61.59 123.55 61.57 123.56 61.55C123.57 61.53 123.59 61.51 123.62 61.5C123.65 61.48 123.69 61.47 123.75 61.47C123.8 61.46 123.87 61.46 123.95 61.46C124.03 61.46 124.1 61.46 124.15 61.47C124.2 61.48 124.25 61.49 124.27 61.5C124.3 61.52 124.32 61.53 124.33 61.55C124.34 61.57 124.35 61.59 124.35 61.61V62.68H125.51C125.54 62.68 125.56 62.69 125.58 62.7C125.6 62.71 125.62 62.73 125.63 62.76C125.65 62.79 125.66 62.82 125.66 62.87C125.67 62.91 125.67 62.97 125.67 63.03C125.67 63.15 125.66 63.24 125.63 63.29C125.6 63.34 125.56 63.37 125.51 63.37H124.35V65.88C124.35 66.19 124.4 66.42 124.49 66.58C124.58 66.74 124.75 66.82 124.98 66.82C125.06 66.82 125.13 66.81 125.18 66.8C125.24 66.78 125.29 66.77 125.34 66.75C125.39 66.73 125.43 66.72 125.46 66.7C125.49 66.68 125.52 66.68 125.55 66.68C125.57 66.68 125.58 66.68 125.6 66.69C125.62 66.7 125.63 66.71 125.63 66.74C125.64 66.76 125.65 66.79 125.65 66.83C125.68 66.87 125.68 66.92 125.68 66.98ZM130.65 67.31C130.65 67.34 130.64 67.36 130.63 67.38C130.62 67.4 130.6 67.41 130.57 67.43C130.54 67.44 130.5 67.45 130.45 67.46C130.4 67.47 130.33 67.47 130.25 67.47C130.17 67.47 130.1 67.47 130.04 67.46C129.99 67.45 129.95 67.44 129.92 67.43C129.89 67.42 129.87 67.4 129.86 67.38C129.85 67.36 129.84 67.34 129.84 67.31V64.67C129.84 64.41 129.82 64.21 129.78 64.05C129.74 63.89 129.68 63.76 129.61 63.64C129.53 63.53 129.43 63.44 129.31 63.38C129.19 63.32 129.05 63.29 128.89 63.29C128.68 63.29 128.48 63.36 128.27 63.51C128.06 63.66 127.84 63.87 127.62 64.16V67.31C127.62 67.34 127.61 67.36 127.6 67.38C127.59 67.4 127.56 67.41 127.54 67.43C127.51 67.44 127.47 67.45 127.42 67.46C127.37 67.47 127.3 67.47 127.21 67.47C127.13 67.47 127.06 67.47 127.01 67.46C126.96 67.45 126.91 67.44 126.88 67.43C126.85 67.42 126.83 67.4 126.82 67.38C126.81 67.36 126.8 67.34 126.8 67.31V60.63C126.8 60.6 126.81 60.58 126.82 60.56C126.83 60.54 126.85 60.52 126.88 60.51C126.91 60.5 126.95 60.49 127.01 60.48C127.06 60.47 127.13 60.47 127.21 60.47C127.29 60.47 127.36 60.47 127.42 60.48C127.47 60.49 127.51 60.5 127.54 60.51C127.57 60.52 127.59 60.54 127.6 60.56C127.61 60.58 127.62 60.6 127.62 60.63V63.33C127.86 63.08 128.09 62.89 128.34 62.77C128.58 62.65 128.82 62.59 129.06 62.59C129.36 62.59 129.61 62.64 129.82 62.74C130.02 62.84 130.19 62.98 130.32 63.15C130.45 63.32 130.54 63.52 130.59 63.75C130.65 63.98 130.67 64.26 130.67 64.58L130.65 67.31ZM132.98 67.31C132.98 67.34 132.97 67.36 132.96 67.38C132.95 67.4 132.92 67.41 132.9 67.43C132.87 67.44 132.83 67.45 132.78 67.46C132.73 67.47 132.66 67.47 132.57 67.47C132.49 67.47 132.42 67.47 132.37 67.46C132.32 67.45 132.27 67.44 132.24 67.43C132.21 67.42 132.19 67.4 132.18 67.38C132.17 67.36 132.16 67.34 132.16 67.31V62.81C132.16 62.79 132.17 62.77 132.18 62.75C132.19 62.73 132.21 62.71 132.24 62.7C132.27 62.69 132.31 62.68 132.37 62.67C132.42 62.66 132.49 62.66 132.57 62.66C132.65 62.66 132.72 62.66 132.78 62.67C132.83 62.68 132.87 62.69 132.9 62.7C132.93 62.71 132.95 62.73 132.96 62.75C132.97 62.77 132.98 62.79 132.98 62.81V67.31ZM133.08 61.29C133.08 61.48 133.04 61.62 132.97 61.69C132.9 61.76 132.76 61.79 132.57 61.79C132.38 61.79 132.24 61.76 132.17 61.69C132.1 61.62 132.06 61.49 132.06 61.3C132.06 61.11 132.1 60.98 132.17 60.91C132.24 60.84 132.38 60.8 132.57 60.8C132.76 60.8 132.9 60.83 132.97 60.9C133.04 60.97 133.08 61.1 133.08 61.29ZM138.35 64.86C138.35 64.99 138.32 65.08 138.25 65.14C138.19 65.19 138.11 65.22 138.03 65.22H135.08C135.08 65.47 135.11 65.69 135.16 65.9C135.21 66.1 135.29 66.27 135.41 66.41C135.53 66.55 135.68 66.66 135.86 66.74C136.05 66.82 136.27 66.85 136.55 66.85C136.76 66.85 136.95 66.83 137.12 66.8C137.29 66.77 137.43 66.73 137.55 66.68C137.67 66.64 137.77 66.6 137.85 66.56C137.93 66.52 137.99 66.51 138.03 66.51C138.05 66.51 138.07 66.52 138.09 66.53C138.11 66.54 138.12 66.56 138.13 66.58C138.14 66.6 138.15 66.64 138.15 66.68C138.15 66.72 138.16 66.77 138.16 66.83C138.16 66.87 138.16 66.91 138.15 66.94C138.15 66.97 138.14 67 138.14 67.03C138.13 67.06 138.13 67.08 138.11 67.1C138.1 67.12 138.08 67.14 138.07 67.16C138.05 67.18 138 67.21 137.91 67.25C137.82 67.29 137.7 67.33 137.56 67.37C137.42 67.41 137.25 67.45 137.06 67.48C136.87 67.51 136.67 67.53 136.46 67.53C136.09 67.53 135.77 67.48 135.49 67.37C135.21 67.27 134.98 67.11 134.79 66.91C134.6 66.71 134.46 66.45 134.36 66.15C134.26 65.84 134.21 65.49 134.21 65.08C134.21 64.69 134.26 64.35 134.36 64.04C134.46 63.73 134.6 63.47 134.79 63.25C134.98 63.03 135.2 62.87 135.47 62.75C135.74 62.64 136.04 62.58 136.36 62.58C136.71 62.58 137.01 62.64 137.26 62.75C137.51 62.86 137.71 63.02 137.87 63.21C138.03 63.4 138.15 63.63 138.22 63.88C138.3 64.14 138.33 64.41 138.33 64.71L138.35 64.86ZM137.52 64.62C137.53 64.19 137.43 63.84 137.23 63.6C137.03 63.35 136.73 63.23 136.33 63.23C136.13 63.23 135.95 63.27 135.79 63.35C135.64 63.43 135.51 63.53 135.41 63.65C135.31 63.78 135.23 63.92 135.17 64.09C135.11 64.26 135.08 64.43 135.07 64.62H137.52ZM142.23 63.1C142.23 63.17 142.23 63.23 142.22 63.28C142.22 63.33 142.21 63.37 142.2 63.4C142.19 63.43 142.18 63.45 142.16 63.46C142.14 63.48 142.12 63.48 142.1 63.48C142.07 63.48 142.04 63.47 142 63.46C141.96 63.44 141.92 63.43 141.87 63.42C141.82 63.4 141.77 63.39 141.71 63.38C141.65 63.37 141.58 63.36 141.51 63.36C141.43 63.36 141.35 63.38 141.27 63.41C141.19 63.44 141.1 63.5 141.02 63.57C140.93 63.65 140.84 63.75 140.74 63.88C140.64 64.01 140.54 64.16 140.42 64.34V67.3C140.42 67.33 140.41 67.35 140.4 67.37C140.39 67.39 140.36 67.4 140.34 67.42C140.31 67.43 140.27 67.44 140.22 67.45C140.17 67.46 140.1 67.46 140.01 67.46C139.93 67.46 139.86 67.46 139.81 67.45C139.76 67.44 139.71 67.43 139.68 67.42C139.65 67.41 139.63 67.39 139.62 67.37C139.61 67.35 139.6 67.33 139.6 67.3V62.8C139.6 62.77 139.61 62.75 139.62 62.73C139.63 62.71 139.65 62.7 139.68 62.68C139.71 62.66 139.75 62.66 139.8 62.65C139.85 62.64 139.91 62.64 139.98 62.64C140.05 62.64 140.11 62.64 140.16 62.65C140.21 62.66 140.25 62.66 140.27 62.68C140.3 62.7 140.32 62.71 140.33 62.73C140.34 62.75 140.35 62.77 140.35 62.8V63.46C140.47 63.28 140.59 63.13 140.7 63.02C140.81 62.91 140.91 62.82 141.01 62.75C141.11 62.69 141.2 62.64 141.3 62.62C141.4 62.6 141.49 62.58 141.59 62.58C141.63 62.58 141.68 62.58 141.74 62.59C141.79 62.6 141.85 62.6 141.91 62.62C141.97 62.63 142.02 62.65 142.07 62.66C142.12 62.68 142.15 62.69 142.17 62.71C142.19 62.73 142.2 62.74 142.21 62.76C142.22 62.78 142.22 62.79 142.23 62.82C142.24 62.84 142.24 62.88 142.24 62.92C142.23 62.97 142.23 63.03 142.23 63.1ZM149.91 66.52C149.91 66.57 149.91 66.62 149.9 66.66C149.9 66.7 149.89 66.74 149.88 66.76C149.87 66.79 149.86 66.82 149.85 66.84C149.84 66.86 149.81 66.89 149.78 66.93C149.75 66.96 149.68 67.01 149.57 67.08C149.46 67.15 149.33 67.22 149.17 67.28C149.01 67.34 148.83 67.4 148.63 67.44C148.43 67.49 148.2 67.51 147.96 67.51C147.54 67.51 147.16 67.44 146.82 67.3C146.48 67.16 146.19 66.95 145.95 66.68C145.71 66.41 145.53 66.07 145.4 65.67C145.27 65.27 145.21 64.81 145.21 64.28C145.21 63.74 145.28 63.27 145.42 62.84C145.56 62.42 145.75 62.06 146 61.77C146.25 61.48 146.55 61.26 146.9 61.1C147.25 60.95 147.63 60.87 148.06 60.87C148.25 60.87 148.43 60.89 148.61 60.92C148.79 60.95 148.95 61 149.1 61.05C149.25 61.1 149.38 61.17 149.5 61.24C149.62 61.31 149.7 61.37 149.74 61.41C149.78 61.45 149.82 61.49 149.83 61.51C149.84 61.53 149.86 61.56 149.86 61.59C149.87 61.62 149.88 61.66 149.88 61.7C149.89 61.74 149.89 61.8 149.89 61.86C149.89 61.93 149.89 61.98 149.88 62.03C149.87 62.08 149.86 62.12 149.85 62.15C149.84 62.18 149.82 62.2 149.8 62.22C149.78 62.23 149.76 62.24 149.73 62.24C149.68 62.24 149.62 62.21 149.53 62.14C149.45 62.08 149.34 62 149.21 61.92C149.08 61.84 148.92 61.77 148.73 61.7C148.54 61.64 148.32 61.6 148.05 61.6C147.76 61.6 147.5 61.66 147.27 61.77C147.03 61.88 146.83 62.05 146.67 62.28C146.5 62.5 146.37 62.78 146.28 63.1C146.19 63.42 146.14 63.79 146.14 64.2C146.14 64.61 146.18 64.97 146.27 65.29C146.36 65.61 146.49 65.87 146.65 66.08C146.82 66.29 147.02 66.45 147.26 66.56C147.5 66.67 147.77 66.72 148.08 66.72C148.34 66.72 148.56 66.69 148.75 66.62C148.94 66.56 149.11 66.49 149.24 66.41C149.37 66.33 149.49 66.26 149.57 66.2C149.66 66.14 149.73 66.1 149.77 66.1C149.79 66.1 149.81 66.11 149.83 66.12C149.85 66.13 149.86 66.15 149.87 66.18C149.88 66.21 149.89 66.25 149.89 66.3C149.9 66.38 149.91 66.44 149.91 66.52ZM155.14 65.01C155.14 65.38 155.09 65.72 154.99 66.02C154.89 66.33 154.75 66.6 154.56 66.82C154.37 67.04 154.13 67.22 153.84 67.34C153.55 67.46 153.22 67.53 152.84 67.53C152.47 67.53 152.15 67.47 151.87 67.36C151.6 67.25 151.36 67.09 151.18 66.88C151 66.67 150.86 66.41 150.77 66.11C150.68 65.81 150.64 65.47 150.64 65.09C150.64 64.72 150.69 64.38 150.78 64.08C150.88 63.77 151.02 63.5 151.21 63.28C151.4 63.06 151.64 62.88 151.93 62.76C152.22 62.64 152.55 62.57 152.93 62.57C153.3 62.57 153.62 62.62 153.9 62.74C154.17 62.85 154.41 63.01 154.59 63.22C154.77 63.43 154.91 63.69 155 63.98C155.09 64.29 155.14 64.63 155.14 65.01ZM154.27 65.06C154.27 64.82 154.25 64.59 154.2 64.37C154.16 64.15 154.08 63.96 153.98 63.8C153.88 63.64 153.74 63.51 153.56 63.41C153.38 63.31 153.16 63.27 152.9 63.27C152.66 63.27 152.45 63.31 152.27 63.4C152.1 63.49 151.95 63.61 151.84 63.77C151.73 63.93 151.64 64.12 151.59 64.33C151.54 64.55 151.51 64.78 151.51 65.04C151.51 65.29 151.53 65.52 151.58 65.73C151.62 65.95 151.7 66.14 151.81 66.3C151.91 66.46 152.06 66.59 152.23 66.69C152.41 66.79 152.63 66.83 152.89 66.83C153.13 66.83 153.34 66.79 153.51 66.7C153.69 66.61 153.83 66.49 153.95 66.33C154.06 66.17 154.15 65.99 154.2 65.77C154.24 65.56 154.27 65.32 154.27 65.06ZM163.03 67.31C163.03 67.34 163.02 67.36 163.01 67.38C163 67.4 162.97 67.41 162.95 67.43C162.92 67.44 162.88 67.45 162.82 67.46C162.77 67.47 162.7 67.47 162.62 67.47C162.54 67.47 162.47 67.47 162.42 67.46C162.37 67.45 162.32 67.44 162.29 67.43C162.26 67.42 162.24 67.4 162.22 67.38C162.21 67.36 162.2 67.34 162.2 67.31V64.57C162.2 64.38 162.18 64.21 162.15 64.05C162.12 63.89 162.06 63.76 161.99 63.64C161.92 63.53 161.82 63.44 161.71 63.38C161.6 63.32 161.46 63.29 161.31 63.29C161.12 63.29 160.93 63.36 160.74 63.51C160.55 63.66 160.34 63.87 160.11 64.16V67.31C160.11 67.34 160.1 67.36 160.09 67.38C160.08 67.4 160.05 67.41 160.02 67.43C159.99 67.44 159.95 67.45 159.89 67.46C159.84 67.47 159.77 67.47 159.69 67.47C159.61 67.47 159.55 67.47 159.49 67.46C159.43 67.45 159.39 67.44 159.36 67.43C159.33 67.42 159.31 67.4 159.3 67.38C159.29 67.36 159.28 67.34 159.28 67.31V64.57C159.28 64.38 159.26 64.21 159.23 64.05C159.19 63.89 159.14 63.76 159.06 63.64C158.99 63.53 158.89 63.44 158.78 63.38C158.67 63.32 158.54 63.29 158.38 63.29C158.19 63.29 158 63.36 157.8 63.51C157.61 63.66 157.4 63.87 157.17 64.16V67.31C157.17 67.34 157.16 67.36 157.15 67.38C157.14 67.4 157.11 67.41 157.09 67.43C157.06 67.44 157.02 67.45 156.97 67.46C156.92 67.47 156.85 67.47 156.76 67.47C156.68 67.47 156.61 67.47 156.56 67.46C156.51 67.45 156.46 67.44 156.43 67.43C156.4 67.42 156.38 67.4 156.37 67.38C156.36 67.36 156.35 67.34 156.35 67.31V62.81C156.35 62.78 156.36 62.76 156.37 62.74C156.38 62.72 156.4 62.71 156.43 62.69C156.46 62.67 156.5 62.67 156.55 62.66C156.6 62.65 156.66 62.65 156.73 62.65C156.8 62.65 156.86 62.65 156.91 62.66C156.96 62.67 157 62.67 157.02 62.69C157.05 62.71 157.07 62.72 157.08 62.74C157.09 62.76 157.1 62.78 157.1 62.81V63.41C157.35 63.13 157.6 62.92 157.84 62.79C158.08 62.66 158.32 62.59 158.56 62.59C158.75 62.59 158.92 62.61 159.06 62.65C159.21 62.69 159.34 62.75 159.45 62.83C159.56 62.91 159.66 63 159.74 63.11C159.82 63.22 159.89 63.34 159.94 63.47C160.09 63.31 160.23 63.17 160.37 63.06C160.5 62.95 160.64 62.85 160.76 62.78C160.88 62.71 161.01 62.66 161.13 62.63C161.25 62.6 161.37 62.58 161.49 62.58C161.78 62.58 162.02 62.63 162.22 62.73C162.42 62.83 162.58 62.97 162.7 63.14C162.82 63.31 162.91 63.51 162.96 63.74C163.01 63.97 163.04 64.21 163.04 64.46V67.31H163.03ZM171.21 67.31C171.21 67.34 171.2 67.36 171.19 67.38C171.18 67.4 171.15 67.41 171.13 67.43C171.1 67.44 171.06 67.45 171 67.46C170.95 67.47 170.88 67.47 170.8 67.47C170.72 67.47 170.65 67.47 170.6 67.46C170.55 67.45 170.5 67.44 170.47 67.43C170.44 67.42 170.42 67.4 170.4 67.38C170.39 67.36 170.38 67.34 170.38 67.31V64.57C170.38 64.38 170.36 64.21 170.33 64.05C170.3 63.89 170.24 63.76 170.17 63.64C170.1 63.53 170 63.44 169.89 63.38C169.78 63.32 169.64 63.29 169.49 63.29C169.3 63.29 169.11 63.36 168.92 63.51C168.73 63.66 168.52 63.87 168.29 64.16V67.31C168.29 67.34 168.28 67.36 168.27 67.38C168.26 67.4 168.23 67.41 168.2 67.43C168.17 67.44 168.13 67.45 168.07 67.46C168.02 67.47 167.95 67.47 167.87 67.47C167.79 67.47 167.73 67.47 167.67 67.46C167.61 67.45 167.57 67.44 167.54 67.43C167.51 67.42 167.49 67.4 167.48 67.38C167.47 67.36 167.46 67.34 167.46 67.31V64.57C167.46 64.38 167.44 64.21 167.41 64.05C167.37 63.89 167.32 63.76 167.24 63.64C167.17 63.53 167.07 63.44 166.96 63.38C166.85 63.32 166.72 63.29 166.56 63.29C166.37 63.29 166.18 63.36 165.98 63.51C165.79 63.66 165.58 63.87 165.35 64.16V67.31C165.35 67.34 165.34 67.36 165.33 67.38C165.32 67.4 165.29 67.41 165.27 67.43C165.24 67.44 165.2 67.45 165.15 67.46C165.1 67.47 165.03 67.47 164.94 67.47C164.86 67.47 164.79 67.47 164.74 67.46C164.69 67.45 164.64 67.44 164.61 67.43C164.58 67.42 164.56 67.4 164.55 67.38C164.54 67.36 164.53 67.34 164.53 67.31V62.81C164.53 62.78 164.54 62.76 164.55 62.74C164.56 62.72 164.58 62.71 164.61 62.69C164.64 62.67 164.68 62.67 164.73 62.66C164.78 62.65 164.84 62.65 164.91 62.65C164.98 62.65 165.04 62.65 165.09 62.66C165.14 62.67 165.18 62.67 165.2 62.69C165.23 62.71 165.25 62.72 165.26 62.74C165.27 62.76 165.28 62.78 165.28 62.81V63.41C165.53 63.13 165.78 62.92 166.02 62.79C166.26 62.66 166.5 62.59 166.74 62.59C166.93 62.59 167.1 62.61 167.24 62.65C167.39 62.69 167.52 62.75 167.63 62.83C167.74 62.91 167.84 63 167.92 63.11C168 63.22 168.07 63.34 168.12 63.47C168.27 63.31 168.41 63.17 168.55 63.06C168.68 62.95 168.82 62.85 168.94 62.78C169.06 62.71 169.19 62.66 169.31 62.63C169.43 62.6 169.55 62.58 169.67 62.58C169.96 62.58 170.2 62.63 170.4 62.73C170.6 62.83 170.76 62.97 170.88 63.14C171 63.31 171.09 63.51 171.14 63.74C171.19 63.97 171.22 64.21 171.22 64.46L171.21 67.31ZM176.57 67.31C176.57 67.34 176.56 67.36 176.55 67.38C176.54 67.4 176.52 67.41 176.49 67.43C176.46 67.44 176.42 67.45 176.37 67.46C176.32 67.47 176.26 67.47 176.19 67.47C176.11 67.47 176.05 67.47 176 67.46C175.95 67.45 175.91 67.44 175.89 67.43C175.86 67.42 175.84 67.4 175.83 67.38C175.82 67.36 175.82 67.34 175.82 67.31V66.71C175.56 66.99 175.31 67.2 175.06 67.33C174.81 67.46 174.56 67.53 174.3 67.53C174 67.53 173.75 67.48 173.54 67.38C173.34 67.28 173.17 67.14 173.04 66.97C172.91 66.8 172.82 66.6 172.77 66.37C172.72 66.14 172.69 65.86 172.69 65.54V62.81C172.69 62.78 172.7 62.76 172.71 62.74C172.72 62.72 172.74 62.71 172.78 62.69C172.81 62.67 172.86 62.67 172.91 62.66C172.96 62.65 173.03 62.65 173.11 62.65C173.19 62.65 173.26 62.65 173.31 62.66C173.36 62.67 173.41 62.67 173.44 62.69C173.47 62.71 173.49 62.72 173.51 62.74C173.52 62.76 173.53 62.78 173.53 62.81V65.43C173.53 65.69 173.55 65.9 173.59 66.06C173.63 66.22 173.69 66.35 173.76 66.46C173.84 66.57 173.94 66.66 174.06 66.72C174.18 66.78 174.32 66.81 174.48 66.81C174.69 66.81 174.89 66.74 175.1 66.59C175.31 66.44 175.52 66.23 175.75 65.94V62.79C175.75 62.76 175.76 62.74 175.77 62.72C175.78 62.7 175.8 62.69 175.84 62.67C175.87 62.65 175.92 62.65 175.97 62.64C176.02 62.63 176.09 62.63 176.17 62.63C176.25 62.63 176.32 62.63 176.37 62.64C176.42 62.65 176.47 62.65 176.49 62.67C176.52 62.69 176.54 62.7 176.56 62.72C176.58 62.74 176.58 62.76 176.58 62.79V67.31H176.57Z" fill="#383431"/>
<path d="M181.98 67.31C181.98 67.34 181.97 67.36 181.96 67.38C181.95 67.4 181.93 67.41 181.9 67.43C181.87 67.44 181.83 67.45 181.78 67.46C181.73 67.47 181.66 67.47 181.58 67.47C181.5 67.47 181.43 67.47 181.37 67.46C181.32 67.45 181.28 67.44 181.25 67.43C181.22 67.42 181.2 67.4 181.19 67.38C181.18 67.36 181.17 67.34 181.17 67.31V64.67C181.17 64.41 181.15 64.21 181.11 64.05C181.07 63.89 181.01 63.76 180.94 63.64C180.86 63.53 180.76 63.44 180.64 63.38C180.52 63.32 180.38 63.29 180.22 63.29C180.01 63.29 179.81 63.36 179.6 63.51C179.39 63.66 179.17 63.87 178.95 64.16V67.31C178.95 67.34 178.94 67.36 178.93 67.38C178.92 67.4 178.89 67.41 178.87 67.43C178.84 67.44 178.8 67.45 178.75 67.46C178.7 67.47 178.63 67.47 178.54 67.47C178.46 67.47 178.39 67.47 178.34 67.46C178.29 67.45 178.24 67.44 178.21 67.43C178.18 67.42 178.16 67.4 178.15 67.38C178.14 67.36 178.13 67.34 178.13 67.31V62.81C178.13 62.78 178.14 62.76 178.15 62.74C178.16 62.72 178.18 62.71 178.21 62.69C178.24 62.67 178.28 62.67 178.33 62.66C178.38 62.65 178.44 62.65 178.51 62.65C178.58 62.65 178.64 62.65 178.69 62.66C178.74 62.67 178.78 62.67 178.8 62.69C178.83 62.71 178.85 62.72 178.86 62.74C178.87 62.76 178.88 62.78 178.88 62.81V63.41C179.13 63.13 179.39 62.92 179.64 62.79C179.89 62.66 180.15 62.59 180.4 62.59C180.7 62.59 180.95 62.64 181.16 62.74C181.36 62.84 181.53 62.98 181.66 63.15C181.79 63.32 181.88 63.52 181.93 63.75C181.99 63.98 182.01 64.25 182.01 64.57L181.98 67.31ZM184.31 67.31C184.31 67.34 184.3 67.36 184.29 67.38C184.28 67.4 184.25 67.41 184.23 67.43C184.2 67.44 184.16 67.45 184.11 67.46C184.06 67.47 183.99 67.47 183.9 67.47C183.82 67.47 183.75 67.47 183.7 67.46C183.65 67.45 183.6 67.44 183.57 67.43C183.54 67.42 183.52 67.4 183.51 67.38C183.5 67.36 183.49 67.34 183.49 67.31V62.81C183.49 62.79 183.5 62.77 183.51 62.75C183.52 62.73 183.54 62.71 183.57 62.7C183.6 62.69 183.64 62.68 183.7 62.67C183.75 62.66 183.82 62.66 183.9 62.66C183.98 62.66 184.05 62.66 184.11 62.67C184.16 62.68 184.2 62.69 184.23 62.7C184.26 62.71 184.28 62.73 184.29 62.75C184.3 62.77 184.31 62.79 184.31 62.81V67.31ZM184.4 61.29C184.4 61.48 184.36 61.62 184.29 61.69C184.22 61.76 184.08 61.79 183.89 61.79C183.7 61.79 183.56 61.76 183.49 61.69C183.42 61.62 183.38 61.49 183.38 61.3C183.38 61.11 183.42 60.98 183.49 60.91C183.56 60.84 183.7 60.8 183.89 60.8C184.08 60.8 184.22 60.83 184.29 60.9C184.36 60.97 184.4 61.1 184.4 61.29ZM188.17 66.98C188.17 67.08 188.16 67.15 188.15 67.21C188.14 67.27 188.12 67.31 188.09 67.33C188.06 67.36 188.02 67.38 187.97 67.41C187.92 67.43 187.86 67.45 187.79 67.47C187.72 67.49 187.65 67.5 187.57 67.51C187.49 67.52 187.42 67.53 187.34 67.53C187.11 67.53 186.91 67.5 186.74 67.44C186.57 67.38 186.44 67.28 186.33 67.16C186.22 67.03 186.15 66.88 186.1 66.68C186.05 66.49 186.03 66.26 186.03 66V63.37H185.4C185.35 63.37 185.31 63.34 185.28 63.29C185.25 63.24 185.24 63.15 185.24 63.03C185.24 62.97 185.24 62.91 185.25 62.87C185.26 62.83 185.27 62.79 185.28 62.76C185.29 62.73 185.31 62.71 185.33 62.7C185.35 62.69 185.38 62.68 185.4 62.68H186.03V61.61C186.03 61.59 186.04 61.57 186.05 61.55C186.06 61.53 186.08 61.51 186.11 61.5C186.14 61.48 186.18 61.47 186.24 61.47C186.29 61.46 186.36 61.46 186.44 61.46C186.52 61.46 186.59 61.46 186.64 61.47C186.69 61.48 186.74 61.49 186.76 61.5C186.79 61.52 186.81 61.53 186.82 61.55C186.83 61.57 186.84 61.59 186.84 61.61V62.68H188C188.03 62.68 188.05 62.69 188.07 62.7C188.09 62.71 188.11 62.73 188.12 62.76C188.14 62.79 188.15 62.82 188.15 62.87C188.16 62.91 188.16 62.97 188.16 63.03C188.16 63.15 188.15 63.24 188.12 63.29C188.09 63.34 188.05 63.37 188 63.37H186.84V65.88C186.84 66.19 186.89 66.42 186.98 66.58C187.07 66.74 187.24 66.82 187.47 66.82C187.55 66.82 187.62 66.81 187.67 66.8C187.73 66.78 187.78 66.77 187.83 66.75C187.88 66.73 187.92 66.72 187.95 66.7C187.98 66.68 188.01 66.68 188.04 66.68C188.06 66.68 188.07 66.68 188.09 66.69C188.11 66.7 188.12 66.71 188.12 66.74C188.13 66.76 188.14 66.79 188.14 66.83C188.17 66.87 188.17 66.92 188.17 66.98ZM190.09 67.31C190.09 67.34 190.08 67.36 190.07 67.38C190.06 67.4 190.03 67.41 190.01 67.43C189.98 67.44 189.94 67.45 189.89 67.46C189.84 67.47 189.77 67.47 189.68 67.47C189.6 67.47 189.53 67.47 189.48 67.46C189.43 67.45 189.38 67.44 189.35 67.43C189.32 67.42 189.3 67.4 189.29 67.38C189.28 67.36 189.27 67.34 189.27 67.31V62.81C189.27 62.79 189.28 62.77 189.29 62.75C189.3 62.73 189.32 62.71 189.35 62.7C189.38 62.69 189.42 62.68 189.48 62.67C189.53 62.66 189.6 62.66 189.68 62.66C189.76 62.66 189.83 62.66 189.89 62.67C189.94 62.68 189.98 62.69 190.01 62.7C190.04 62.71 190.06 62.73 190.07 62.75C190.08 62.77 190.09 62.79 190.09 62.81V67.31ZM190.18 61.29C190.18 61.48 190.14 61.62 190.07 61.69C190 61.76 189.86 61.79 189.67 61.79C189.48 61.79 189.34 61.76 189.27 61.69C189.2 61.62 189.16 61.49 189.16 61.3C189.16 61.11 189.2 60.98 189.27 60.91C189.34 60.84 189.48 60.8 189.67 60.8C189.86 60.8 190 60.83 190.07 60.9C190.15 60.97 190.18 61.1 190.18 61.29ZM195.45 64.86C195.45 64.99 195.42 65.08 195.35 65.14C195.29 65.19 195.21 65.22 195.13 65.22H192.18C192.18 65.47 192.21 65.69 192.26 65.9C192.31 66.1 192.39 66.27 192.51 66.41C192.63 66.55 192.78 66.66 192.96 66.74C193.15 66.82 193.37 66.85 193.65 66.85C193.86 66.85 194.05 66.83 194.22 66.8C194.39 66.77 194.53 66.73 194.65 66.68C194.77 66.64 194.87 66.6 194.95 66.56C195.03 66.52 195.09 66.51 195.13 66.51C195.15 66.51 195.17 66.52 195.19 66.53C195.21 66.54 195.22 66.56 195.23 66.58C195.24 66.6 195.25 66.64 195.25 66.68C195.25 66.72 195.26 66.77 195.26 66.83C195.26 66.87 195.26 66.91 195.25 66.94C195.25 66.97 195.24 67 195.24 67.03C195.23 67.06 195.23 67.08 195.21 67.1C195.2 67.12 195.18 67.14 195.17 67.16C195.15 67.18 195.1 67.21 195.01 67.25C194.92 67.29 194.8 67.33 194.66 67.37C194.52 67.41 194.35 67.45 194.16 67.48C193.97 67.51 193.77 67.53 193.56 67.53C193.19 67.53 192.87 67.48 192.59 67.37C192.31 67.27 192.08 67.11 191.89 66.91C191.7 66.71 191.56 66.45 191.46 66.15C191.36 65.84 191.31 65.49 191.31 65.08C191.31 64.69 191.36 64.35 191.46 64.04C191.56 63.73 191.7 63.47 191.89 63.25C192.08 63.03 192.3 62.87 192.57 62.75C192.84 62.64 193.14 62.58 193.46 62.58C193.81 62.58 194.11 62.64 194.36 62.75C194.61 62.86 194.81 63.02 194.97 63.21C195.13 63.4 195.25 63.63 195.32 63.88C195.4 64.14 195.43 64.41 195.43 64.71L195.45 64.86ZM194.62 64.62C194.63 64.19 194.53 63.84 194.33 63.6C194.13 63.35 193.83 63.23 193.43 63.23C193.23 63.23 193.05 63.27 192.89 63.35C192.74 63.43 192.61 63.53 192.51 63.65C192.41 63.78 192.33 63.92 192.27 64.09C192.21 64.26 192.18 64.43 192.17 64.62H194.62ZM199.54 66.08C199.54 66.31 199.5 66.52 199.41 66.69C199.32 66.87 199.2 67.02 199.05 67.15C198.89 67.27 198.71 67.37 198.49 67.43C198.27 67.49 198.04 67.53 197.77 67.53C197.61 67.53 197.46 67.52 197.31 67.49C197.16 67.46 197.04 67.43 196.92 67.39C196.8 67.35 196.71 67.31 196.63 67.27C196.55 67.23 196.49 67.19 196.46 67.16C196.42 67.13 196.4 67.08 196.38 67.02C196.36 66.96 196.35 66.88 196.35 66.77C196.35 66.71 196.35 66.65 196.36 66.61C196.37 66.57 196.38 66.53 196.39 66.51C196.4 66.48 196.41 66.46 196.43 66.45C196.45 66.44 196.47 66.43 196.49 66.43C196.53 66.43 196.58 66.45 196.65 66.5C196.72 66.54 196.81 66.59 196.91 66.65C197.01 66.7 197.14 66.75 197.28 66.8C197.42 66.85 197.59 66.87 197.78 66.87C197.92 66.87 198.05 66.85 198.16 66.83C198.27 66.8 198.37 66.75 198.46 66.7C198.54 66.64 198.61 66.57 198.65 66.48C198.7 66.39 198.72 66.28 198.72 66.16C198.72 66.03 198.69 65.93 198.62 65.84C198.56 65.75 198.47 65.68 198.36 65.61C198.25 65.54 198.13 65.48 198 65.43C197.87 65.38 197.73 65.32 197.59 65.27C197.45 65.21 197.31 65.15 197.18 65.08C197.05 65.01 196.92 64.92 196.82 64.82C196.71 64.72 196.63 64.59 196.56 64.45C196.5 64.31 196.46 64.14 196.46 63.93C196.46 63.75 196.49 63.59 196.56 63.42C196.63 63.26 196.73 63.12 196.87 62.99C197.01 62.87 197.18 62.77 197.38 62.7C197.58 62.63 197.83 62.59 198.1 62.59C198.22 62.59 198.34 62.6 198.46 62.62C198.58 62.64 198.69 62.66 198.78 62.7C198.88 62.73 198.96 62.76 199.03 62.8C199.1 62.83 199.15 62.86 199.19 62.89C199.22 62.92 199.25 62.94 199.26 62.96C199.27 62.98 199.28 63 199.29 63.03C199.3 63.05 199.3 63.08 199.3 63.12C199.31 63.16 199.31 63.2 199.31 63.25C199.31 63.31 199.31 63.36 199.3 63.4C199.29 63.44 199.29 63.48 199.28 63.5C199.27 63.53 199.25 63.55 199.24 63.56C199.22 63.57 199.2 63.58 199.19 63.58C199.16 63.58 199.12 63.56 199.06 63.53C199 63.49 198.93 63.45 198.84 63.41C198.75 63.37 198.64 63.33 198.52 63.29C198.4 63.25 198.26 63.24 198.1 63.24C197.96 63.24 197.84 63.26 197.73 63.29C197.62 63.32 197.54 63.37 197.47 63.42C197.4 63.48 197.35 63.55 197.31 63.63C197.28 63.71 197.26 63.8 197.26 63.89C197.26 64.02 197.29 64.13 197.36 64.22C197.43 64.31 197.51 64.39 197.62 64.45C197.73 64.52 197.85 64.58 197.98 64.63C198.12 64.68 198.26 64.74 198.4 64.79C198.54 64.85 198.68 64.91 198.82 64.98C198.96 65.05 199.08 65.13 199.19 65.23C199.3 65.33 199.38 65.45 199.45 65.59C199.5 65.72 199.54 65.89 199.54 66.08Z" fill="#383431"/>
<path fill-rule="evenodd" clip-rule="evenodd" d="M26.54 37.51C26.07 37.21 24.57 37.42 24.57 36.68V36.18C24.02 36.23 24.02 36.43 23.69 36.43C23.16 36.43 22.94 35.88 22.94 35.3L23.11 33.71L23.57 33.05C24.09 33.04 24.05 32.92 24.32 32.92C24.93 32.92 26.25 33.4 26.55 33.7C27.72 34.89 27.54 34.21 28.46 34.8L29.84 34.93H31.09C32.44 34.93 33.7 34.71 34.7 34.28C35.19 34.07 37.5 32.8 37.6 32.8C37.89 32.83 38 32.78 37.97 32.65C37.96 32.6 37.94 32.6 37.9 32.57C36.92 32.1 36.04 32.53 35.02 32.25C33.8 31.9 33.47 31.39 33.47 30.29C33.47 29.98 33.16 29.82 32.97 29.54C32.42 28.38 32.84 28.6 32.84 27.41C32.84 27.4 32.62 27.04 32.52 26.68C32.44 26.4 32.51 26.38 32.7 26.28C34.28 25.44 33.97 24.74 33.97 22.27C35.43 20.1 36.3 18.99 38.83 18.48C42.94 17.65 48.64 18.86 48.64 24.15V24.78C48.64 27.56 45.95 29.41 44.75 31.67C44.75 35.89 44.37 40.66 41.94 44.28C41.69 44.66 41.49 44.84 41.2 45.17C40.52 45.94 38.73 47.79 37.95 48.32C34.6 50.56 31.77 52.48 27.57 52.48C22.76 52.48 21.47 48.06 21.55 44.08C21.11 44.18 21.13 44.33 20.67 44.33C18.95 44.33 16.8 42.16 15.91 40.82C15.51 40.53 14.03 39.37 14.03 38.81C14.03 37.43 15.28 35.68 16.79 35.68C17.26 36.15 18.88 38.81 19.3 38.81C20.54 38.81 22.01 38.04 23.36 37.84C26.49 38.16 30.44 41.78 29.45 44.07C31.45 41.77 27.71 40.22 27.71 39.33C27.71 39.12 27.52 38.81 27.7 38.81C28.09 38.81 28.54 39.22 28.89 39.38C30.43 40.06 36.73 41.99 37.3 39.1C34.54 40.64 28.76 39.44 26.54 37.51Z" fill="#DD137B"/>
<path fill-rule="evenodd" clip-rule="evenodd" d="M23.7 1.71001C63.61 -5.85999 72.78 49.12 36.79 57.89C27.33 60.2 18.55 58.11 11.09 51.92C9.82 50.87 9.15 50.06 8.05 49.07C7.09 48.2 6.27 46.9 5.52 45.83C4.07 43.76 3.26 42.04 2.19 39.76C1.98 39.31 1.39 37.65 1.13 37.56C0.82 37.01 1.03 36.76 1.76 36.81C2.62 36.81 3.43 38 3.62 38.59C4.32 40.76 6.47 42.49 8.3 43.93C9.22 44.65 9.18 44.7 10.32 45.29C10.49 45.38 12.78 46.21 12.78 46.21C13.65 46.59 14.23 46.46 14.16 45.21C14.37 43.98 10.53 40.83 10.53 38.82C10.53 38.47 10.29 36.62 11.16 37.19C11.32 37.19 17.1 43.43 18.02 44.24C19.25 45.33 19.78 46.45 20.46 48.07C21.57 50.72 23.91 53.36 27.58 53.36H29.46C32.65 53.36 37.04 50.19 39.41 48.27C40.17 47.66 40.79 47.01 41.41 46.26C43.75 43.46 44.69 41.08 45.22 37.54C45.92 31.95 45.03 32.63 47.26 30.11C49.8 27.24 50.75 22.47 47.86 19.45C46.47 18 44.32 18.08 43.26 16.24C39.44 6.39001 32.74 3.99001 23.7 1.71001Z" fill="#0093DD"/>
<path fill-rule="evenodd" clip-rule="evenodd" d="M7.1 41.05C7.32 41.41 8.67 43.37 8.69 43.46C8.1 43.3 6.37 41.65 5.95 41.12C4.07 38.74 4.21 37.15 4.09 34.32C5.22 33.47 6.17 39.54 7.1 41.05Z" fill="#0093DD"/>
<path fill-rule="evenodd" clip-rule="evenodd" d="M12.43 45.05H12C10.41 45.05 8.78999 42.88 8.13999 41.76C6.99999 39.82 6.12999 37.18 7.23999 35.08C8.11999 35.08 8.04999 37.16 8.18999 37.93C8.39999 39.2 8.46999 39.92 8.99999 40.9C9.51999 41.86 9.94999 42.29 10.63 43.06C11 43.48 12.33 44.69 12.43 45.05Z" fill="#0093DD"/>
<path fill-rule="evenodd" clip-rule="evenodd" d="M100.57 36.05L105.8 21.52H111.4L117.39 38.49H111.13L110.21 35.75H106.68L105.82 38.49H94.72V21.52H100.56V36.05H100.57ZM108.23 30.64H108.75L108.49 29.82L108.23 30.64ZM56.3 38.49V21.52H62.14V38.49H56.3ZM72.43 27.73C72.42 27.27 72.42 26.82 72.42 26.36V21.53H78.13V38.5H72.41L69.18 32.94C69.07 32.75 68.96 32.56 68.85 32.37C68.85 32.57 68.85 32.78 68.85 32.98V38.5H63.13V21.52H68.86L71.97 26.94C72.13 27.2 72.28 27.46 72.43 27.73ZM79.07 38.49V21.52H86.47C88.68 21.52 90.78 22.12 92.3 23.78C93.86 25.48 94.34 27.78 94.34 30.02C94.34 32.29 93.87 34.66 92.22 36.33C90.58 38 88.24 38.49 85.97 38.49H79.07ZM84.93 33.34H86.01C86.66 33.34 87.39 33.22 87.82 32.68C88.34 32.02 88.43 30.83 88.43 30.03C88.43 29.23 88.34 28.03 87.82 27.37C87.39 26.83 86.66 26.71 86.01 26.71H84.93V33.34Z" fill="white"/>
<path d="M57.31 37.49V22.53H61.13V37.49H57.31ZM64.14 37.49V22.53H68.28L71.1 27.44C71.56 28.24 72 29.03 72.41 29.81C72.82 30.6 73.21 31.37 73.58 32.14C73.52 31.01 73.49 29.95 73.46 28.96C73.43 27.97 73.42 27.1 73.42 26.35V22.52H77.11V37.48H72.98L70.04 32.42C69.69 31.82 69.32 31.15 68.91 30.42C68.5 29.68 68.07 28.88 67.62 28.02C67.69 28.99 67.75 29.9 67.78 30.74C67.81 31.58 67.83 32.32 67.83 32.97V37.48L64.14 37.49ZM83.92 34.35H86C87.18 34.35 88.05 34 88.6 33.3C89.15 32.6 89.43 31.51 89.43 30.02C89.43 28.52 89.15 27.43 88.6 26.73C88.05 26.04 87.18 25.69 86 25.69H83.92V34.35ZM80.07 37.49V22.53H86.46C88.67 22.53 90.37 23.17 91.55 24.46C92.73 25.75 93.32 27.6 93.32 30.02C93.32 32.52 92.71 34.39 91.49 35.62C90.27 36.86 88.43 37.48 85.96 37.48L80.07 37.49ZM95.74 37.49V22.53H99.56V37.49H95.74ZM106.86 31.65H110.13L108.46 26.49L106.86 31.65ZM106.51 22.53H110.69L115.97 37.49H111.86L110.94 34.75H105.95L105.09 37.49H101.12L106.51 22.53Z" fill="#00803A"/>
<path fill-rule="evenodd" clip-rule="evenodd" d="M135.33 2.65001H141.17V19.62H135.33V7.71001H131.29V19.63H125.44V7.71001H121.43V19.63H115.59V2.65001H135.33ZM100.22 2.65001H108.39C109.99 2.65001 111.87 2.87001 113.19 3.87001C114.46 4.83001 114.94 6.27001 114.94 7.82001C114.94 8.78001 114.73 9.71001 114.21 10.52C113.99 10.87 113.72 11.18 113.41 11.46C113.56 11.61 113.7 11.78 113.82 11.97C114.3 12.73 114.41 13.85 114.44 14.72C114.47 15.13 114.49 15.55 114.5 15.96C114.51 16.21 114.56 16.97 114.69 17.25L115.13 17.48V19.62H109.41L109.17 18.96C108.89 18.19 108.8 17.28 108.77 16.47C108.76 15.94 108.76 15.34 108.7 14.82C108.68 14.64 108.63 14.34 108.47 14.21C108.29 14.06 107.84 14.03 107.62 14.03H106.07V19.62H100.24V7.71001H96.31V19.63H90.46V7.71001H86.64V12.55C86.64 13.63 86.56 14.83 86.23 15.86C85.93 16.76 85.44 17.54 84.74 18.18C84.04 18.81 83.23 19.28 82.33 19.59C81.37 19.92 80.36 20.05 79.36 20.05C78.35 20.05 77.35 19.92 76.39 19.59C75.5 19.28 74.68 18.81 73.98 18.18C73.28 17.54 72.78 16.75 72.47 15.85C72.13 14.82 72.04 13.63 72.04 12.55V2.65001H77.82V13C77.82 13.4 77.86 14.2 78.15 14.53C78.4 14.81 78.99 14.85 79.33 14.85C79.66 14.85 80.24 14.81 80.48 14.54C80.77 14.22 80.81 13.41 80.81 13.01V2.65001H100.22ZM106.04 9.06001H107.88C108.15 9.06001 108.73 9.03001 108.96 8.85001C109.1 8.74001 109.12 8.44001 109.12 8.28001C109.12 8.14001 109.11 7.95001 108.99 7.86001C108.76 7.69001 108.25 7.66001 107.98 7.66001H106.03L106.04 9.06001ZM65.48 8.86001C65.47 8.40001 65.47 7.95001 65.47 7.49001V2.65001H71.18V19.62H65.46L62.23 14.06C62.12 13.87 62.01 13.68 61.9 13.49C61.9 13.69 61.9 13.9 61.9 14.1V19.62H56.18V2.65001H61.91L65.02 8.07001C65.19 8.33001 65.34 8.59001 65.48 8.86001ZM141.56 11.15C141.56 8.75001 142.17 6.46001 143.85 4.69001C145.5 2.95001 147.68 2.26001 150.05 2.26001C152.43 2.26001 154.61 2.95001 156.28 4.69001C157.97 6.46001 158.59 8.74001 158.59 11.14C158.59 13.54 157.97 15.83 156.27 17.6C154.6 19.34 152.42 20.03 150.04 20.03C147.67 20.03 145.5 19.34 143.84 17.6C142.17 15.84 141.56 13.55 141.56 11.15ZM147.47 11.15C147.47 12.09 147.6 13.27 148.19 14.04C148.66 14.65 149.3 14.86 150.05 14.86C150.82 14.86 151.46 14.65 151.94 14.03C152.54 13.26 152.67 12.09 152.67 11.14C152.67 10.19 152.54 9.03001 151.94 8.26001C151.46 7.64001 150.82 7.43001 150.05 7.43001C149.29 7.43001 148.65 7.64001 148.19 8.25001C147.6 9.04001 147.47 10.21 147.47 11.15ZM168.16 8.86001C168.15 8.40001 168.15 7.95001 168.15 7.49001V2.65001H173.86V19.62H168.14L164.91 14.06C164.8 13.87 164.69 13.68 164.58 13.49C164.58 13.69 164.58 13.9 164.58 14.1V19.62H158.86V2.65001H164.59L167.7 8.07001C167.86 8.33001 168.01 8.59001 168.16 8.86001Z" fill="white"/>
<path d="M57.2 18.62V3.66001H61.34L64.16 8.57001C64.62 9.37001 65.06 10.16 65.47 10.94C65.88 11.73 66.27 12.5 66.64 13.27C66.58 12.14 66.55 11.08 66.52 10.09C66.49 9.10001 66.48 8.23001 66.48 7.48001V3.66001H70.17V18.62H66.04L63.1 13.56C62.75 12.96 62.38 12.29 61.97 11.56C61.56 10.82 61.13 10.02 60.68 9.16001C60.75 10.13 60.81 11.04 60.84 11.88C60.87 12.72 60.89 13.46 60.89 14.11V18.62H57.2ZM73.03 3.66001H76.8V13C76.8 14.03 76.99 14.76 77.38 15.2C77.77 15.64 78.42 15.86 79.31 15.86C80.2 15.86 80.83 15.64 81.22 15.2C81.6 14.76 81.8 14.03 81.8 13V3.66001H85.61V12.54C85.61 13.79 85.49 14.79 85.25 15.53C85 16.28 84.6 16.91 84.04 17.42C83.45 17.95 82.76 18.36 81.98 18.62C81.2 18.89 80.32 19.02 79.33 19.02C78.35 19.02 77.47 18.88 76.69 18.62C75.91 18.35 75.22 17.95 74.63 17.42C74.06 16.9 73.65 16.27 73.4 15.52C73.15 14.77 73.03 13.78 73.03 12.54V3.66001ZM91.45 18.62V6.70001H87.17V3.66001H99.57V6.70001H95.29V18.62H91.45ZM105.03 10.07H107.88C108.65 10.07 109.22 9.93001 109.58 9.64001C109.94 9.36001 110.12 8.90001 110.12 8.28001C110.12 7.73001 109.94 7.32001 109.59 7.06001C109.24 6.79001 108.7 6.66001 107.98 6.66001H105.03V10.07ZM101.22 18.62V3.66001H108.38C110.28 3.66001 111.67 4.00001 112.57 4.68001C113.47 5.36001 113.91 6.41001 113.91 7.83001C113.91 8.67001 113.72 9.39001 113.33 9.99001C112.95 10.59 112.36 11.09 111.55 11.5C112.21 11.75 112.67 12.09 112.94 12.52C113.21 12.95 113.37 13.71 113.41 14.79C113.43 15.09 113.45 15.5 113.47 16.02C113.52 17.23 113.72 17.92 114.09 18.11V18.63H110.08C109.89 18.1 109.77 17.38 109.74 16.46C109.72 15.54 109.69 14.96 109.66 14.72C109.6 14.14 109.4 13.71 109.07 13.44C108.74 13.17 108.24 13.03 107.58 13.03H105.02V18.62H101.22ZM116.59 18.62V3.66001H120.41V18.62H116.59ZM126.44 18.62V6.70001H122.16V3.66001H134.56V6.70001H130.28V18.62H126.44ZM136.33 18.62V3.66001H140.15V18.62H136.33ZM146.46 11.15C146.46 12.67 146.77 13.84 147.39 14.65C148.01 15.46 148.9 15.87 150.06 15.87C151.22 15.87 152.12 15.46 152.75 14.65C153.38 13.84 153.69 12.67 153.69 11.15C153.69 9.64001 153.38 8.47001 152.75 7.65001C152.12 6.84001 151.23 6.43001 150.06 6.43001C148.9 6.43001 148.02 6.84001 147.39 7.65001C146.76 8.46001 146.46 9.63001 146.46 11.15ZM142.57 11.15C142.57 8.72001 143.24 6.80001 144.59 5.39001C145.93 3.98001 147.75 3.27001 150.06 3.27001C152.37 3.27001 154.2 3.98001 155.56 5.39001C156.92 6.81001 157.59 8.72001 157.59 11.15C157.59 13.58 156.91 15.49 155.56 16.91C154.2 18.32 152.37 19.03 150.06 19.03C147.76 19.03 145.94 18.32 144.59 16.91C143.24 15.5 142.57 13.58 142.57 11.15ZM159.87 18.62V3.66001H164.01L166.83 8.57001C167.29 9.37001 167.73 10.16 168.14 10.94C168.55 11.73 168.94 12.5 169.31 13.27C169.25 12.14 169.22 11.08 169.19 10.09C169.16 9.10001 169.15 8.23001 169.15 7.48001V3.66001H172.84V18.62H168.71L165.77 13.56C165.42 12.96 165.05 12.29 164.64 11.56C164.23 10.82 163.8 10.02 163.35 9.16001C163.42 10.13 163.48 11.04 163.51 11.88C163.54 12.72 163.56 13.46 163.56 14.11V18.62H159.87Z" fill="#E8268E"/>
<path fill-rule="evenodd" clip-rule="evenodd" d="M149.04 54.41V40.15H156.09L158.15 47.78C158.15 47.77 158.15 47.76 158.16 47.75L160.22 40.14H167.26V57.11H161.75V53.36L160.81 57.11H155.43L154.57 53.59V57.11H143.73L142.81 54.37H139.28L138.42 57.11H128.06L127.82 56.45C127.54 55.68 127.45 54.77 127.42 53.96C127.41 53.43 127.41 52.83 127.35 52.31C127.33 52.13 127.28 51.83 127.12 51.7C126.94 51.55 126.49 51.52 126.27 51.52H124.72V57.11H118.89V40.15H127.06C128.66 40.15 130.54 40.37 131.86 41.37C133.13 42.33 133.61 43.77 133.61 45.32C133.61 46.28 133.4 47.21 132.88 48.02C132.66 48.37 132.39 48.68 132.08 48.96C132.23 49.11 132.37 49.28 132.49 49.47C132.97 50.23 133.08 51.35 133.11 52.22C133.14 52.63 133.16 53.05 133.17 53.46C133.18 53.64 133.2 54.06 133.26 54.4L138.39 40.15H143.99L149.04 54.41ZM124.73 46.56H126.57C126.84 46.56 127.42 46.53 127.65 46.35C127.79 46.24 127.81 45.94 127.81 45.78C127.81 45.64 127.8 45.45 127.68 45.36C127.45 45.19 126.94 45.16 126.67 45.16H124.72L124.73 46.56ZM140.83 49.27H141.35L141.09 48.45L140.83 49.27ZM102.05 46.64C102.35 45.01 103.04 43.5 104.23 42.24C105.92 40.46 108.11 39.71 110.54 39.71C112.33 39.71 114.06 40.13 115.49 41.24C116.9 42.32 117.7 43.81 118.03 45.55L118.26 46.75H112.67L112.42 46.1C112.27 45.71 112.05 45.36 111.69 45.13C111.31 44.88 110.85 44.8 110.41 44.8C109.62 44.8 109.03 45.11 108.55 45.74C107.92 46.57 107.74 47.65 107.74 48.67C107.74 49.65 107.91 50.72 108.53 51.51C109.02 52.13 109.62 52.4 110.41 52.4C110.98 52.4 111.55 52.29 112.01 51.93C112.05 51.9 112.09 51.87 112.12 51.84H109.38V46.95H118.14V57.12H113.88L113.75 56.31C113.48 56.51 113.19 56.69 112.88 56.84C111.9 57.33 110.81 57.52 109.72 57.52C108.66 57.52 107.62 57.33 106.64 56.91C105.67 56.49 104.83 55.89 104.12 55.11C103.36 54.29 102.79 53.33 102.42 52.28C102.25 51.79 102.11 51.29 102.02 50.78C101.73 52.38 101.07 53.87 99.89 55.11C98.22 56.85 96.04 57.54 93.66 57.54C91.29 57.54 89.12 56.85 87.46 55.11C85.78 53.34 85.16 51.05 85.16 48.65C85.16 46.25 85.77 43.96 87.45 42.19C89.1 40.45 91.28 39.76 93.65 39.76C96.03 39.76 98.21 40.45 99.88 42.19C101.11 43.46 101.77 44.99 102.05 46.64ZM91.08 48.65C91.08 49.59 91.21 50.77 91.8 51.54C92.27 52.15 92.91 52.36 93.66 52.36C94.43 52.36 95.07 52.15 95.55 51.53C96.15 50.76 96.28 49.59 96.28 48.64C96.28 47.69 96.15 46.53 95.55 45.76C95.07 45.14 94.43 44.93 93.66 44.93C92.9 44.93 92.26 45.14 91.8 45.75C91.21 46.54 91.08 47.71 91.08 48.65ZM62.07 51.78V57.12H56.21V40.15H64.06C65.71 40.15 67.42 40.48 68.69 41.61C69.93 42.71 70.39 44.22 70.39 45.84C70.39 47.49 69.96 49.07 68.73 50.23C67.5 51.4 65.84 51.78 64.18 51.78H62.07ZM62.07 46.75H63.6C63.82 46.75 64.28 46.73 64.46 46.57C64.6 46.45 64.62 46.12 64.62 45.96C64.62 45.79 64.6 45.51 64.46 45.39C64.26 45.22 63.81 45.19 63.57 45.19H62.08L62.07 46.75ZM83.69 48.96C83.84 49.11 83.98 49.28 84.1 49.47C84.58 50.23 84.69 51.35 84.72 52.22C84.75 52.63 84.77 53.05 84.78 53.46C84.79 53.71 84.84 54.47 84.97 54.75L85.41 54.98V57.12H79.69L79.45 56.46C79.17 55.69 79.08 54.78 79.05 53.97C79.04 53.44 79.04 52.84 78.98 52.32C78.96 52.14 78.91 51.84 78.75 51.71C78.57 51.56 78.12 51.53 77.9 51.53H76.35V57.12H70.52V40.15H78.69C80.29 40.15 82.17 40.37 83.49 41.37C84.76 42.33 85.24 43.77 85.24 45.32C85.24 46.28 85.03 47.21 84.51 48.02C84.27 48.37 84 48.69 83.69 48.96ZM76.34 46.56H78.18C78.45 46.56 79.03 46.53 79.26 46.35C79.4 46.24 79.42 45.94 79.42 45.78C79.42 45.64 79.41 45.45 79.29 45.36C79.06 45.19 78.55 45.16 78.28 45.16H76.33V46.56H76.34ZM177.32 47.79C177.32 47.78 177.32 47.77 177.33 47.76L179.39 40.15H186.43V57.12H180.92V53.37L179.98 57.12H174.6L173.74 53.6V57.12H168.2V40.15H175.25L177.32 47.79ZM193.22 45.24V45.87H200.11V50.88H193.22V52.06H201V57.13H187.38V40.15H200.76V45.23L193.22 45.24Z" fill="white"/>
<path d="M61.06 47.76H63.6C64.29 47.76 64.8 47.61 65.13 47.32C65.46 47.03 65.62 46.57 65.62 45.95C65.62 45.35 65.45 44.91 65.11 44.61C64.77 44.32 64.25 44.17 63.56 44.17H61.06V47.76ZM57.22 56.12V41.16H64.06C65.79 41.16 67.11 41.56 68.02 42.36C68.93 43.16 69.38 44.32 69.38 45.84C69.38 47.43 68.93 48.65 68.04 49.5C67.15 50.35 65.86 50.78 64.18 50.78H61.06V56.12H57.22ZM75.33 47.57H78.18C78.95 47.57 79.52 47.43 79.88 47.14C80.24 46.86 80.42 46.4 80.42 45.78C80.42 45.23 80.24 44.82 79.89 44.56C79.54 44.29 79 44.16 78.27 44.16H75.32L75.33 47.57ZM71.52 56.12V41.16H78.68C80.58 41.16 81.97 41.5 82.87 42.18C83.77 42.86 84.21 43.91 84.21 45.33C84.21 46.17 84.02 46.89 83.63 47.49C83.25 48.09 82.66 48.59 81.85 49C82.51 49.25 82.97 49.59 83.24 50.02C83.51 50.45 83.67 51.21 83.71 52.29C83.73 52.59 83.75 53 83.77 53.52C83.82 54.73 84.02 55.42 84.39 55.61V56.13H80.38C80.19 55.6 80.07 54.88 80.04 53.96C80.02 53.04 79.99 52.46 79.96 52.22C79.9 51.64 79.7 51.21 79.37 50.94C79.04 50.67 78.54 50.53 77.88 50.53H75.32V56.12H71.52ZM90.07 48.65C90.07 50.17 90.38 51.34 91 52.15C91.62 52.96 92.51 53.37 93.67 53.37C94.83 53.37 95.73 52.96 96.36 52.15C96.99 51.34 97.3 50.17 97.3 48.65C97.3 47.14 96.99 45.97 96.36 45.15C95.73 44.34 94.84 43.93 93.67 43.93C92.51 43.93 91.63 44.34 91 45.15C90.38 45.96 90.07 47.13 90.07 48.65ZM86.18 48.65C86.18 46.22 86.85 44.3 88.2 42.89C89.54 41.48 91.36 40.77 93.67 40.77C95.98 40.77 97.81 41.48 99.17 42.89C100.53 44.31 101.2 46.22 101.2 48.65C101.2 51.08 100.52 52.99 99.17 54.41C97.81 55.82 95.98 56.53 93.67 56.53C91.37 56.53 89.55 55.82 88.2 54.41C86.86 53 86.18 51.08 86.18 48.65ZM114.76 56.12L114.45 54.19C113.89 54.98 113.22 55.56 112.44 55.94C111.67 56.32 110.76 56.52 109.73 56.52C108.76 56.52 107.87 56.34 107.04 55.99C106.22 55.64 105.49 55.12 104.86 54.43C104.2 53.73 103.71 52.9 103.37 51.94C103.03 50.98 102.86 49.94 102.86 48.81C102.86 46.37 103.56 44.41 104.96 42.93C106.36 41.45 108.22 40.72 110.54 40.72C112.29 40.72 113.74 41.16 114.88 42.04C116.02 42.92 116.74 44.15 117.05 45.74H113.38C113.14 45.1 112.76 44.61 112.26 44.28C111.76 43.95 111.14 43.79 110.42 43.79C109.32 43.79 108.43 44.24 107.76 45.13C107.08 46.02 106.74 47.2 106.74 48.67C106.74 50.12 107.07 51.27 107.74 52.13C108.41 52.99 109.3 53.41 110.42 53.41C111.31 53.41 112.05 53.18 112.64 52.73C113.23 52.28 113.59 51.64 113.73 50.83H110.4V47.96H117.14V56.12H114.76ZM123.72 47.57H126.57C127.34 47.57 127.91 47.43 128.27 47.14C128.63 46.86 128.81 46.4 128.81 45.78C128.81 45.23 128.63 44.82 128.28 44.56C127.93 44.29 127.39 44.16 126.67 44.16H123.72V47.57ZM119.91 56.12V41.16H127.07C128.97 41.16 130.36 41.5 131.26 42.18C132.16 42.86 132.6 43.91 132.6 45.33C132.6 46.17 132.41 46.89 132.02 47.49C131.64 48.09 131.05 48.59 130.24 49C130.9 49.25 131.36 49.59 131.63 50.02C131.9 50.45 132.06 51.21 132.1 52.29C132.12 52.59 132.14 53 132.16 53.52C132.21 54.73 132.41 55.42 132.78 55.61V56.13H128.77C128.58 55.6 128.46 54.88 128.43 53.96C128.41 53.04 128.38 52.46 128.35 52.22C128.29 51.64 128.09 51.21 127.76 50.94C127.43 50.67 126.93 50.53 126.27 50.53H123.71V56.12H119.91ZM139.46 50.28H142.73L141.06 45.12L139.46 50.28ZM139.1 41.16H143.28L148.56 56.12H144.45L143.53 53.38H138.54L137.68 56.12H133.71L139.1 41.16ZM150.04 56.12V41.16H155.31L157.28 48.44C157.46 49.08 157.62 49.71 157.76 50.32C157.9 50.93 158.03 51.52 158.13 52.09C158.26 51.48 158.4 50.84 158.57 50.18C158.73 49.51 158.92 48.8 159.13 48.03L160.99 41.17H166.25V56.13H162.76V49.5C162.76 49.03 162.77 48.38 162.79 47.53C162.81 46.69 162.85 45.71 162.9 44.61L160.03 56.12H156.23L153.42 44.61C153.47 45.94 153.5 47.13 153.53 48.19C153.56 49.25 153.57 50.08 153.57 50.67V56.12H150.04ZM169.21 56.12V41.16H174.48L176.45 48.44C176.63 49.08 176.79 49.71 176.93 50.32C177.07 50.93 177.2 51.52 177.3 52.09C177.43 51.48 177.57 50.84 177.74 50.18C177.9 49.51 178.09 48.8 178.3 48.03L180.16 41.17H185.42V56.13H181.93V49.5C181.93 49.03 181.94 48.38 181.96 47.53C181.98 46.69 182.02 45.71 182.07 44.61L179.2 56.12H175.4L172.59 44.61C172.64 45.94 172.67 47.13 172.7 48.19C172.73 49.25 172.74 50.08 172.74 50.67V56.12H169.21ZM188.38 56.12V41.16H199.74V44.23H192.2V46.87H199.09V49.86H192.2V53.06H199.98V56.12H188.38Z" fill="#005CA1"/>
<path fill-rule="evenodd" clip-rule="evenodd" d="M56.59 72.97H149.42V73.45H56.59V72.97Z" fill="#605D5C"/>
<path fill-rule="evenodd" clip-rule="evenodd" d="M175.61 90.37L187.65 76.9L168.02 72.55C171.78 75.27 174.42 78.12 175.5 81.95C175.66 82.52 175.79 83.11 175.88 83.73C176.16 85.67 176.08 87.85 175.61 90.37Z" fill="white"/>
<path fill-rule="evenodd" clip-rule="evenodd" d="M182.27 79.35C181.69 79.12 181.01 79.72 180.75 80.33C180.49 80.94 180.4 82.16 180.4 82.16C180.4 82.16 180.83 82.44 181.4 82.45C182.09 82.46 182.55 81.87 182.74 81.28C183.05 80.36 182.84 79.58 182.27 79.35Z" fill="#DE3483"/>
<path fill-rule="evenodd" clip-rule="evenodd" d="M182.66 78.2C183.51 78.2 184.23 78.77 184.22 79.94C184.21 80.26 184.17 80.57 184.11 80.86L187.65 76.9L181.54 75.55L180.96 79.02C181.49 78.43 182.07 78.2 182.66 78.2Z" fill="#DE3483"/>
<path fill-rule="evenodd" clip-rule="evenodd" d="M178.97 82.81L179.34 80.59L180.23 75.25L168.02 72.54C171.66 75.17 174.24 77.92 175.38 81.56L175.93 78.3H177.28L177.03 79.49C177.34 78.98 177.98 78.36 178.57 78.24C178.68 78.22 178.9 78.22 178.96 78.22L178.72 79.72C178.14 79.63 176.98 80.11 176.81 81.05L176.4 83.49H175.83C175.84 83.57 175.86 83.65 175.87 83.73C176.15 85.67 176.08 87.86 175.61 90.37L181.72 83.53H181.71C180.32 83.81 178.97 82.81 178.97 82.81Z" fill="#DE3483"/>
<path fill-rule="evenodd" clip-rule="evenodd" d="M170.01 94.71C170.2 95.02 170.29 95.29 170.34 95.67L170.36 95.83L171.1 94.88L169.92 94.55L170.01 94.71Z" fill="#DE3483"/>
<path fill-rule="evenodd" clip-rule="evenodd" d="M187.65 94.71C187.84 95.02 187.93 95.29 187.98 95.67L188 95.83L188.74 94.88L187.56 94.55L187.65 94.71Z" fill="#DE3483"/>
<path fill-rule="evenodd" clip-rule="evenodd" d="M157.55 93.87H158.12V96.42H157.55V95.31H156.58V96.42H156.01V93.87H156.58V94.89H157.55V93.87Z" fill="#435361"/>
<path fill-rule="evenodd" clip-rule="evenodd" d="M159.25 95.98H160.12L160.05 96.42H158.68V93.87H160.09V94.32H159.25V94.89H159.99L159.92 95.31H159.25V95.98Z" fill="#435361"/>
<path fill-rule="evenodd" clip-rule="evenodd" d="M161.83 95.34L161.58 94.39L161.32 95.34H161.83ZM161.94 95.77H161.19L161.01 96.42H160.46L161.24 93.87H161.92L162.69 96.42H162.12L161.94 95.77Z" fill="#435361"/>
<path fill-rule="evenodd" clip-rule="evenodd" d="M163.68 95.98H164.54L164.48 96.42H163.11V93.87H163.68V95.98Z" fill="#435361"/>
<path fill-rule="evenodd" clip-rule="evenodd" d="M164.49 93.87H166.4L166.33 94.32H165.7V96.42H165.13V94.32H164.49V93.87Z" fill="#435361"/>
<path fill-rule="evenodd" clip-rule="evenodd" d="M168.33 93.87H168.9V96.42H168.33V95.31H167.36V96.42H166.79V93.87H167.36V94.89H168.33V93.87Z" fill="#435361"/>
<path fill-rule="evenodd" clip-rule="evenodd" d="M173.65 93.87H174.22V96.42H173.65V95.31H172.68V96.42H172.11V93.87H172.68V94.89H173.65V93.87Z" fill="#435361"/>
<path fill-rule="evenodd" clip-rule="evenodd" d="M175.93 95.42V96.42H175.36V95.41L174.58 93.87H175.19L175.67 94.97L176.19 93.87H176.69L175.93 95.42Z" fill="#435361"/>
<path fill-rule="evenodd" clip-rule="evenodd" d="M178.13 94.96H178.98V96.33C178.81 96.39 178.46 96.48 178.13 96.48C177.68 96.48 177.35 96.36 177.12 96.13C176.9 95.9 176.77 95.56 176.77 95.18C176.77 94.32 177.37 93.82 178.18 93.82C178.47 93.82 178.69 93.87 178.83 93.93L178.75 94.42C178.61 94.36 178.44 94.31 178.16 94.31C177.69 94.31 177.32 94.59 177.32 95.15C177.32 95.69 177.65 96 178.12 96C178.25 96 178.36 95.98 178.4 95.97V95.38H178.05L178.13 94.96Z" fill="#435361"/>
<path fill-rule="evenodd" clip-rule="evenodd" d="M180.12 93.87V96.42H179.55V93.87H180.12Z" fill="#435361"/>
<path fill-rule="evenodd" clip-rule="evenodd" d="M181.26 95.98H182.13L182.06 96.42H180.7V93.87H182.1V94.32H181.26V94.89H182L181.93 95.31H181.26V95.98Z" fill="#435361"/>
<path fill-rule="evenodd" clip-rule="evenodd" d="M184.12 93.87H184.62V96.42H184.05L183.12 94.66V96.42H182.63V93.87H183.26L184.12 95.47V93.87Z" fill="#435361"/>
<path fill-rule="evenodd" clip-rule="evenodd" d="M185.75 95.98H186.62L186.55 96.42H185.19V93.87H186.59V94.32H185.75V94.89H186.49L186.43 95.31H185.75V95.98Z" fill="#435361"/>
<path fill-rule="evenodd" clip-rule="evenodd" d="M191.29 93.87H191.86V96.42H191.29V95.31H190.32V96.42H189.75V93.87H190.32V94.89H191.29V93.87Z" fill="#435361"/>
<path fill-rule="evenodd" clip-rule="evenodd" d="M194.08 95.14C194.08 94.68 193.87 94.29 193.48 94.29C193.09 94.29 192.87 94.68 192.87 95.15C192.87 95.64 193.1 96.01 193.48 96.01C193.86 96.01 194.08 95.64 194.08 95.14ZM194.65 95.12C194.65 95.97 194.17 96.47 193.45 96.47C192.73 96.47 192.3 95.9 192.3 95.16C192.3 94.39 192.77 93.82 193.49 93.82C194.24 93.82 194.65 94.41 194.65 95.12Z" fill="#435361"/>
<path fill-rule="evenodd" clip-rule="evenodd" d="M197.54 93.87L197.67 96.42H197.15L197.07 94.51L196.51 96.42H196.09L195.61 94.57L195.51 96.42H195.02L195.17 93.87H195.89L196.35 95.61L196.83 93.87H197.54Z" fill="#435361"/>
<path fill-rule="evenodd" clip-rule="evenodd" d="M198.78 95.98H199.65L199.58 96.42H198.22V93.87H199.62V94.32H198.78V94.89H199.52L199.45 95.31H198.78V95.98Z" fill="#435361"/>
<path d="M126.61 76.72C126.61 76.81 126.6 76.91 126.58 77.01C126.56 77.11 126.52 77.21 126.48 77.31C126.43 77.41 126.37 77.5 126.3 77.59C126.23 77.68 126.14 77.75 126.03 77.82C125.93 77.89 125.81 77.94 125.67 77.98C125.53 78.02 125.38 78.04 125.19 78.04H124.72L124.47 79.28C124.47 79.29 124.46 79.3 124.45 79.31C124.44 79.32 124.43 79.33 124.41 79.34C124.39 79.35 124.36 79.35 124.34 79.36C124.31 79.36 124.27 79.37 124.23 79.37C124.19 79.37 124.15 79.37 124.13 79.36C124.1 79.36 124.08 79.35 124.06 79.35C124.04 79.34 124.03 79.33 124.02 79.32C124.01 79.31 124.01 79.3 124.02 79.28L124.65 76.11C124.66 76.04 124.69 75.99 124.74 75.96C124.78 75.93 124.84 75.91 124.89 75.91H125.57C125.66 75.91 125.74 75.91 125.8 75.92C125.87 75.93 125.93 75.94 126 75.95C126.09 75.97 126.18 76 126.26 76.05C126.34 76.09 126.4 76.15 126.46 76.21C126.51 76.28 126.55 76.35 126.58 76.43C126.59 76.52 126.61 76.61 126.61 76.72ZM126.12 76.76C126.12 76.65 126.09 76.56 126.04 76.48C125.99 76.4 125.9 76.35 125.79 76.31C125.75 76.3 125.7 76.29 125.65 76.29C125.6 76.29 125.54 76.28 125.49 76.28H125.06L124.79 77.65H125.22C125.35 77.65 125.45 77.64 125.54 77.61C125.63 77.58 125.7 77.54 125.77 77.5C125.84 77.45 125.89 77.4 125.94 77.34C125.98 77.28 126.02 77.21 126.05 77.15C126.08 77.08 126.1 77.02 126.11 76.95C126.12 76.89 126.12 76.82 126.12 76.76ZM129.07 77.68C129.07 77.81 129.06 77.94 129.03 78.08C129.01 78.22 128.97 78.35 128.92 78.47C128.87 78.6 128.81 78.72 128.73 78.83C128.65 78.94 128.56 79.04 128.46 79.12C128.36 79.2 128.24 79.27 128.1 79.32C127.97 79.37 127.82 79.39 127.65 79.39C127.48 79.39 127.34 79.37 127.21 79.33C127.09 79.29 126.99 79.23 126.91 79.15C126.83 79.07 126.78 78.98 126.74 78.86C126.7 78.75 126.68 78.62 126.68 78.48C126.68 78.35 126.69 78.22 126.72 78.08C126.74 77.94 126.78 77.81 126.83 77.69C126.88 77.56 126.94 77.45 127.02 77.33C127.1 77.22 127.19 77.12 127.29 77.04C127.39 76.96 127.51 76.89 127.65 76.84C127.78 76.79 127.93 76.77 128.1 76.77C128.27 76.77 128.41 76.79 128.54 76.83C128.66 76.87 128.76 76.93 128.84 77.01C128.92 77.09 128.98 77.18 129.01 77.3C129.05 77.41 129.07 77.54 129.07 77.68ZM128.61 77.7C128.61 77.61 128.6 77.53 128.58 77.46C128.56 77.39 128.53 77.33 128.49 77.28C128.45 77.23 128.39 77.19 128.32 77.17C128.25 77.14 128.17 77.13 128.07 77.13C127.96 77.13 127.87 77.15 127.78 77.19C127.69 77.23 127.62 77.28 127.55 77.34C127.48 77.41 127.42 77.48 127.37 77.57C127.32 77.66 127.28 77.75 127.25 77.85C127.22 77.95 127.19 78.05 127.18 78.15C127.16 78.25 127.16 78.35 127.16 78.45C127.16 78.54 127.17 78.62 127.19 78.69C127.21 78.76 127.24 78.82 127.28 78.87C127.32 78.92 127.38 78.96 127.45 78.98C127.52 79.01 127.6 79.02 127.7 79.02C127.81 79.02 127.9 79 127.99 78.96C128.08 78.92 128.15 78.87 128.22 78.81C128.29 78.74 128.35 78.67 128.4 78.58C128.45 78.49 128.49 78.4 128.52 78.3C128.55 78.2 128.58 78.1 128.59 78C128.6 77.9 128.61 77.8 128.61 77.7ZM133.15 76.87C133.15 76.89 133.15 76.91 133.14 76.93C133.14 76.95 133.13 76.97 133.13 76.98C133.06 77.17 132.99 77.37 132.91 77.56C132.83 77.76 132.74 77.95 132.65 78.15C132.55 78.35 132.45 78.54 132.34 78.73C132.23 78.92 132.11 79.1 131.98 79.27C131.97 79.29 131.95 79.3 131.93 79.32C131.91 79.33 131.89 79.34 131.87 79.34C131.85 79.35 131.82 79.35 131.79 79.35C131.76 79.35 131.73 79.35 131.69 79.35C131.64 79.35 131.61 79.35 131.58 79.34C131.55 79.34 131.52 79.33 131.51 79.32C131.49 79.31 131.48 79.3 131.47 79.29C131.46 79.28 131.46 79.26 131.46 79.24L131.28 77.49L130.48 79.23C130.47 79.25 130.46 79.27 130.45 79.28C130.44 79.29 130.42 79.3 130.39 79.31C130.37 79.32 130.34 79.32 130.3 79.33C130.27 79.33 130.22 79.34 130.17 79.34C130.12 79.34 130.08 79.34 130.04 79.33C130 79.33 129.98 79.32 129.95 79.31C129.93 79.3 129.91 79.29 129.9 79.28C129.89 79.27 129.88 79.25 129.88 79.23L129.63 76.96C129.63 76.94 129.63 76.93 129.63 76.91C129.63 76.89 129.63 76.88 129.63 76.87C129.63 76.85 129.63 76.83 129.64 76.82C129.65 76.81 129.66 76.8 129.68 76.79C129.7 76.78 129.72 76.78 129.75 76.77C129.78 76.77 129.82 76.77 129.86 76.77C129.91 76.77 129.94 76.77 129.97 76.77C130 76.77 130.02 76.78 130.03 76.78C130.04 76.79 130.06 76.8 130.06 76.81C130.07 76.82 130.07 76.83 130.07 76.85L130.26 78.82V78.84L130.27 78.82L131.17 76.85C131.18 76.84 131.19 76.82 131.19 76.81C131.2 76.8 131.21 76.79 131.23 76.78C131.25 76.77 131.27 76.77 131.29 76.77C131.32 76.77 131.35 76.77 131.39 76.77C131.43 76.77 131.47 76.77 131.49 76.77C131.52 76.77 131.54 76.78 131.56 76.78C131.58 76.79 131.59 76.79 131.59 76.81C131.6 76.82 131.6 76.83 131.6 76.85L131.8 78.81V78.83L131.81 78.81C131.89 78.68 131.97 78.54 132.05 78.39C132.13 78.24 132.21 78.07 132.29 77.9C132.37 77.73 132.44 77.55 132.51 77.38C132.58 77.2 132.64 77.03 132.7 76.86C132.7 76.84 132.71 76.83 132.72 76.82C132.73 76.81 132.75 76.8 132.76 76.79C132.78 76.78 132.8 76.78 132.83 76.78C132.86 76.78 132.9 76.78 132.94 76.78C132.98 76.78 133.02 76.78 133.04 76.78C133.07 76.78 133.09 76.79 133.1 76.79C133.11 76.79 133.12 76.8 133.13 76.81C133.14 76.85 133.15 76.86 133.15 76.87ZM135.57 77.38C135.57 77.5 135.54 77.61 135.48 77.71C135.42 77.81 135.34 77.89 135.22 77.96C135.1 78.03 134.95 78.08 134.76 78.12C134.57 78.16 134.35 78.18 134.09 78.18H133.81C133.8 78.24 133.79 78.29 133.78 78.35C133.78 78.4 133.77 78.46 133.77 78.5C133.77 78.68 133.81 78.81 133.9 78.91C133.99 79 134.13 79.05 134.33 79.05C134.44 79.05 134.54 79.04 134.63 79.02C134.72 79 134.8 78.99 134.86 78.97C134.93 78.95 134.98 78.93 135.02 78.92C135.06 78.9 135.09 78.89 135.11 78.89C135.13 78.89 135.14 78.9 135.15 78.91C135.16 78.92 135.16 78.94 135.16 78.96C135.16 78.98 135.16 79 135.15 79.02C135.15 79.04 135.14 79.07 135.13 79.1C135.12 79.13 135.11 79.15 135.1 79.17C135.09 79.19 135.08 79.21 135.06 79.23C135.04 79.25 135 79.27 134.95 79.29C134.9 79.31 134.83 79.33 134.76 79.35C134.69 79.37 134.6 79.38 134.52 79.39C134.43 79.4 134.34 79.41 134.26 79.41C134.1 79.41 133.96 79.39 133.85 79.36C133.73 79.32 133.63 79.27 133.55 79.2C133.47 79.13 133.41 79.04 133.37 78.93C133.33 78.82 133.31 78.69 133.31 78.54C133.31 78.43 133.32 78.3 133.34 78.17C133.36 78.04 133.4 77.91 133.44 77.78C133.49 77.65 133.55 77.53 133.63 77.41C133.71 77.29 133.8 77.19 133.9 77.1C134.01 77.01 134.13 76.94 134.26 76.88C134.4 76.82 134.55 76.8 134.73 76.8C134.88 76.8 135 76.82 135.11 76.86C135.21 76.9 135.3 76.94 135.36 77C135.43 77.06 135.47 77.12 135.5 77.19C135.56 77.23 135.57 77.3 135.57 77.38ZM135.12 77.42C135.12 77.33 135.08 77.26 135.01 77.2C134.94 77.14 134.84 77.12 134.71 77.12C134.6 77.12 134.49 77.14 134.41 77.18C134.32 77.22 134.24 77.27 134.17 77.34C134.1 77.41 134.04 77.49 134 77.57C133.95 77.66 133.91 77.75 133.88 77.85H134.15C134.34 77.85 134.49 77.84 134.61 77.81C134.73 77.79 134.83 77.76 134.91 77.72C134.99 77.68 135.04 77.63 135.07 77.58C135.11 77.53 135.12 77.47 135.12 77.42ZM137.71 76.89C137.71 76.9 137.71 76.91 137.71 76.93C137.71 76.95 137.7 76.97 137.7 77C137.7 77.03 137.69 77.05 137.68 77.08C137.67 77.11 137.66 77.13 137.65 77.16C137.64 77.18 137.63 77.2 137.62 77.22C137.61 77.24 137.6 77.24 137.58 77.24C137.57 77.24 137.55 77.24 137.53 77.23C137.51 77.22 137.49 77.22 137.47 77.21C137.45 77.2 137.43 77.19 137.4 77.19C137.37 77.18 137.34 77.18 137.31 77.18C137.25 77.18 137.18 77.21 137.1 77.26C137.02 77.31 136.94 77.38 136.87 77.48C136.79 77.57 136.72 77.68 136.66 77.81C136.6 77.93 136.55 78.07 136.52 78.22L136.31 79.28C136.31 79.29 136.3 79.31 136.29 79.32C136.28 79.33 136.27 79.34 136.25 79.35C136.23 79.36 136.21 79.36 136.18 79.37C136.15 79.37 136.11 79.38 136.07 79.38C136.03 79.38 135.99 79.38 135.96 79.37C135.93 79.37 135.91 79.36 135.9 79.35C135.89 79.34 135.88 79.33 135.87 79.32C135.87 79.31 135.87 79.3 135.87 79.28L136.34 76.89C136.34 76.88 136.35 76.87 136.36 76.86C136.37 76.85 136.38 76.84 136.4 76.83C136.42 76.82 136.44 76.82 136.47 76.82C136.5 76.82 136.53 76.82 136.56 76.82C136.6 76.82 136.63 76.82 136.65 76.82C136.67 76.82 136.69 76.83 136.71 76.83C136.72 76.84 136.73 76.85 136.74 76.86C136.74 76.87 136.74 76.88 136.74 76.89L136.65 77.33C136.69 77.26 136.74 77.19 136.79 77.12C136.85 77.05 136.91 76.99 136.97 76.94C137.04 76.89 137.1 76.85 137.18 76.82C137.25 76.79 137.32 76.77 137.39 76.77C137.42 76.77 137.45 76.77 137.48 76.78C137.51 76.78 137.54 76.79 137.57 76.8C137.6 76.81 137.62 76.81 137.64 76.82C137.66 76.83 137.68 76.84 137.69 76.85C137.7 76.85 137.71 76.87 137.71 76.89ZM140.02 77.38C140.02 77.5 139.99 77.61 139.93 77.71C139.87 77.81 139.79 77.89 139.67 77.96C139.55 78.03 139.4 78.08 139.21 78.12C139.02 78.16 138.8 78.18 138.54 78.18H138.26C138.25 78.24 138.24 78.29 138.23 78.35C138.23 78.4 138.22 78.46 138.22 78.5C138.22 78.68 138.26 78.81 138.35 78.91C138.44 79 138.58 79.05 138.78 79.05C138.89 79.05 138.99 79.04 139.08 79.02C139.17 79 139.25 78.99 139.31 78.97C139.38 78.95 139.43 78.93 139.47 78.92C139.51 78.9 139.54 78.89 139.56 78.89C139.58 78.89 139.59 78.9 139.6 78.91C139.61 78.92 139.61 78.94 139.61 78.96C139.61 78.98 139.61 79 139.6 79.02C139.6 79.04 139.59 79.07 139.58 79.1C139.57 79.13 139.56 79.15 139.55 79.17C139.54 79.19 139.53 79.21 139.51 79.23C139.49 79.25 139.45 79.27 139.4 79.29C139.35 79.31 139.28 79.33 139.21 79.35C139.14 79.37 139.05 79.38 138.97 79.39C138.88 79.4 138.79 79.41 138.71 79.41C138.55 79.41 138.41 79.39 138.3 79.36C138.18 79.32 138.08 79.27 138 79.2C137.92 79.13 137.86 79.04 137.82 78.93C137.78 78.82 137.76 78.69 137.76 78.54C137.76 78.43 137.77 78.3 137.79 78.17C137.81 78.04 137.85 77.91 137.89 77.78C137.94 77.65 138 77.53 138.08 77.41C138.16 77.29 138.25 77.19 138.35 77.1C138.46 77.01 138.58 76.94 138.71 76.88C138.85 76.82 139 76.8 139.18 76.8C139.33 76.8 139.45 76.82 139.56 76.86C139.66 76.9 139.75 76.94 139.81 77C139.88 77.06 139.92 77.12 139.95 77.19C140.01 77.23 140.02 77.3 140.02 77.38ZM139.57 77.42C139.57 77.33 139.53 77.26 139.46 77.2C139.39 77.14 139.29 77.12 139.16 77.12C139.05 77.12 138.94 77.14 138.86 77.18C138.77 77.22 138.69 77.27 138.62 77.34C138.55 77.41 138.49 77.49 138.45 77.57C138.4 77.66 138.36 77.75 138.33 77.85H138.6C138.79 77.85 138.94 77.84 139.06 77.81C139.18 77.79 139.28 77.76 139.36 77.72C139.44 77.68 139.49 77.63 139.52 77.58C139.56 77.53 139.57 77.47 139.57 77.42ZM142.32 79.27C142.31 79.3 142.3 79.32 142.26 79.33C142.23 79.34 142.18 79.35 142.1 79.35C142.06 79.35 142.03 79.35 142.01 79.34C141.99 79.34 141.97 79.33 141.95 79.33C141.94 79.32 141.93 79.32 141.92 79.31C141.92 79.3 141.91 79.29 141.92 79.27L142.01 78.83C141.99 78.89 141.95 78.95 141.89 79.02C141.83 79.09 141.76 79.15 141.68 79.2C141.6 79.26 141.51 79.3 141.41 79.34C141.31 79.38 141.21 79.39 141.1 79.39C141 79.39 140.91 79.38 140.83 79.35C140.75 79.32 140.69 79.29 140.64 79.24C140.59 79.19 140.55 79.14 140.51 79.08C140.48 79.02 140.45 78.96 140.43 78.89C140.41 78.83 140.4 78.76 140.39 78.7C140.38 78.63 140.38 78.57 140.38 78.52C140.38 78.42 140.39 78.3 140.41 78.18C140.43 78.05 140.46 77.92 140.5 77.8C140.54 77.67 140.6 77.55 140.66 77.42C140.73 77.3 140.81 77.19 140.9 77.09C140.99 77 141.1 76.92 141.22 76.86C141.34 76.8 141.48 76.77 141.64 76.77C141.72 76.77 141.79 76.78 141.85 76.8C141.92 76.82 141.98 76.84 142.03 76.87C142.09 76.9 142.13 76.93 142.18 76.97C142.23 77.01 142.27 77.05 142.3 77.1L142.57 75.75C142.57 75.74 142.58 75.73 142.59 75.71C142.6 75.7 142.61 75.69 142.63 75.68C142.65 75.67 142.67 75.67 142.7 75.66C142.73 75.66 142.77 75.65 142.81 75.65C142.85 75.65 142.89 75.65 142.91 75.66C142.94 75.66 142.96 75.67 142.98 75.68C143 75.69 143.01 75.69 143.01 75.71C143.01 75.72 143.01 75.73 143.01 75.75L142.32 79.27ZM142.23 77.52C142.15 77.4 142.06 77.31 141.96 77.24C141.86 77.18 141.76 77.14 141.64 77.14C141.55 77.14 141.46 77.16 141.39 77.21C141.31 77.25 141.25 77.31 141.19 77.38C141.13 77.45 141.08 77.54 141.04 77.63C141 77.72 140.96 77.82 140.93 77.92C140.9 78.02 140.88 78.12 140.87 78.22C140.86 78.32 140.85 78.41 140.85 78.49C140.85 78.66 140.88 78.79 140.94 78.88C141 78.97 141.09 79.02 141.22 79.02C141.32 79.02 141.42 78.99 141.51 78.94C141.61 78.89 141.7 78.81 141.78 78.72C141.87 78.63 141.94 78.51 142.01 78.39C142.08 78.26 142.12 78.12 142.16 77.97L142.23 77.52ZM146.76 77.63C146.76 77.74 146.75 77.85 146.73 77.98C146.71 78.11 146.68 78.24 146.64 78.37C146.6 78.5 146.54 78.63 146.48 78.75C146.41 78.87 146.33 78.98 146.24 79.08C146.15 79.17 146.04 79.25 145.91 79.31C145.79 79.37 145.65 79.4 145.5 79.4C145.34 79.4 145.21 79.37 145.09 79.31C144.98 79.25 144.88 79.16 144.79 79.05L144.74 79.28C144.74 79.31 144.72 79.33 144.68 79.34C144.65 79.35 144.59 79.36 144.52 79.36C144.45 79.36 144.4 79.35 144.37 79.34C144.34 79.33 144.34 79.31 144.34 79.28L145.05 75.74C145.05 75.73 145.06 75.71 145.07 75.7C145.08 75.69 145.09 75.68 145.11 75.67C145.13 75.66 145.15 75.66 145.18 75.65C145.21 75.65 145.25 75.64 145.29 75.64C145.33 75.64 145.37 75.64 145.39 75.65C145.42 75.65 145.44 75.66 145.45 75.67C145.47 75.68 145.48 75.69 145.48 75.7C145.48 75.71 145.48 75.72 145.48 75.74L145.27 76.8C145.26 76.85 145.25 76.89 145.24 76.94C145.23 76.99 145.21 77.04 145.2 77.09C145.19 77.14 145.17 77.18 145.16 77.23C145.15 77.27 145.13 77.31 145.12 77.34C145.15 77.28 145.19 77.21 145.25 77.15C145.31 77.08 145.38 77.02 145.46 76.97C145.54 76.91 145.63 76.87 145.73 76.83C145.83 76.79 145.93 76.77 146.02 76.77C146.13 76.77 146.22 76.78 146.29 76.81C146.37 76.84 146.43 76.88 146.48 76.92C146.53 76.97 146.58 77.02 146.61 77.08C146.64 77.14 146.67 77.2 146.69 77.27C146.71 77.33 146.72 77.4 146.73 77.46C146.76 77.52 146.76 77.58 146.76 77.63ZM146.31 77.67C146.31 77.62 146.31 77.57 146.3 77.51C146.29 77.45 146.27 77.39 146.25 77.34C146.22 77.29 146.19 77.24 146.14 77.21C146.09 77.17 146.03 77.16 145.94 77.16C145.85 77.16 145.75 77.19 145.65 77.24C145.55 77.3 145.46 77.37 145.37 77.47C145.29 77.57 145.21 77.68 145.14 77.81C145.07 77.94 145.03 78.08 145 78.24L144.91 78.68C144.99 78.8 145.08 78.89 145.18 78.95C145.27 79.01 145.38 79.04 145.5 79.04C145.59 79.04 145.67 79.02 145.75 78.98C145.82 78.94 145.89 78.88 145.95 78.81C146.01 78.74 146.06 78.66 146.11 78.57C146.15 78.48 146.19 78.38 146.22 78.28C146.25 78.18 146.27 78.08 146.29 77.98C146.3 77.85 146.31 77.76 146.31 77.67ZM149.41 76.87C149.41 76.89 149.41 76.91 149.4 76.93C149.4 76.95 149.39 76.97 149.38 76.99C149.32 77.15 149.26 77.32 149.19 77.49C149.12 77.66 149.04 77.85 148.95 78.04C148.86 78.23 148.75 78.43 148.63 78.64C148.51 78.85 148.36 79.06 148.19 79.29L147.5 80.23C147.49 80.24 147.48 80.26 147.46 80.27C147.44 80.28 147.42 80.29 147.4 80.3C147.38 80.31 147.35 80.31 147.32 80.32C147.29 80.32 147.25 80.32 147.21 80.32C147.16 80.32 147.12 80.32 147.09 80.31C147.06 80.31 147.03 80.3 147.02 80.29C147 80.28 147 80.27 147 80.25C147 80.23 147.01 80.21 147.03 80.19L147.68 79.36L147.29 77.03C147.29 77.01 147.28 76.99 147.28 76.97C147.28 76.95 147.28 76.94 147.28 76.93C147.28 76.91 147.28 76.89 147.29 76.88C147.3 76.87 147.31 76.86 147.33 76.85C147.35 76.84 147.37 76.84 147.4 76.83C147.43 76.83 147.46 76.83 147.51 76.83C147.56 76.83 147.6 76.83 147.62 76.83C147.65 76.83 147.67 76.84 147.68 76.84C147.7 76.85 147.71 76.86 147.71 76.87C147.72 76.88 147.72 76.9 147.72 76.92L148.03 78.86H148.04C148.15 78.71 148.25 78.55 148.34 78.39C148.43 78.23 148.51 78.07 148.58 77.91C148.65 77.75 148.72 77.58 148.79 77.41C148.85 77.24 148.91 77.07 148.97 76.9C148.97 76.89 148.98 76.87 148.99 76.86C149 76.85 149.01 76.84 149.03 76.83C149.05 76.82 149.07 76.82 149.11 76.82C149.14 76.82 149.18 76.82 149.23 76.82C149.31 76.82 149.36 76.83 149.39 76.84C149.4 76.83 149.41 76.85 149.41 76.87Z" fill="#605D5C"/>
</svg>
