<?xml version="1.0" encoding="utf-8"?>
<!-- Generator: Adobe Illustrator 23.0.3, SVG Export Plug-In . SVG Version: 6.00 Build 0)  -->
<svg version="1.1" id="Layer_1" xmlns="http://www.w3.org/2000/svg" xmlns:xlink="http://www.w3.org/1999/xlink" x="0px" y="0px"
	 viewBox="0 0 40 40" style="enable-background:new 0 0 40 40;" xml:space="preserve">
<style type="text/css">
	.st0{fill:#B3B3B3;}
	.st1{fill:#B67F5F;}
	.st2{fill:#E8268E;}
	.st3{fill:#AA1F6F;}
	.st4{fill:#005CA1;}
	.st5{fill:#CCCCCC;}
	.st6{fill:#E6E6E6;}
	.st7{fill:#191919;}
	.st8{fill:#CD916E;}
	.st9{fill:#1C1C1C;}
	.st10{fill:#CC3112;}
</style>
<g>
	<path class="st0" d="M26.85,23.77c-0.72,0.77-1.57,1.42-2.51,1.91v1.61l0,0V29c0,1.21,0.76,2.3,1.9,2.71l0,0l2.72,1l0.78,0.28l0,0
		l2.54,0.89c-0.46-3.23-2.09-5.79-3-8.6C28.26,25.24,27.34,24.67,26.85,23.77z"/>
	<polygon class="st0" points="10.23,33 10.23,33 9.37,33.3 9.37,33.3 	"/>
	<polygon class="st1" points="13.73,31.76 13.73,31.76 13.73,31.76 10.97,32.74 11.03,32.72 	"/>
	<path class="st1" d="M36.62,40L36.62,40v-1.51c0-0.75-0.19-1.5-0.57-2.15c0.38,0.65,0.57,1.4,0.57,2.15V40z"/>
	<polygon class="st0" points="8.87,33.48 6.27,34.4 8.83,33.49 	"/>
	<polygon class="st2" points="33.73,34.4 32.31,33.89 32.31,33.89 	"/>
	<path class="st2" d="M36.05,36.34c-0.51-0.91-1.33-1.6-2.32-1.94C34.72,34.74,35.54,35.43,36.05,36.34z"/>
	<polygon class="st2" points="29.77,33 32.31,33.89 32.31,33.89 29.77,33 	"/>
	<path class="st2" d="M28.94,32.71L28.94,32.71l-2.72-1l0,0L28.94,32.71z"/>
	<polygon class="st3" points="29.77,33 28.99,32.72 29.77,33 	"/>
	<polygon class="st3" points="29.77,33 29.77,33 28.99,32.72 28.94,32.71 	"/>
	<path class="st0" d="M32.29,34L32.29,34c-0.01-0.03-0.01-0.05,0-0.08L29.77,33l-0.33,1H32.29z"/>
	<path class="st0" d="M28.4,32.52l0.54,0.19l-2.67-0.95l0,0c-0.4,0.78-0.86,1.53-1.37,2.24h3C28.09,33.45,28.26,33,28.4,32.52z"/>
	<path class="st0" d="M28.4,32.52c-0.14,0.44-0.31,0.93-0.49,1.45h1.53l0.33-1l-0.83-0.29L28.4,32.52z"/>
	<path class="st0" d="M3.38,38.49c-0.01-0.17-0.01-0.35,0-0.52C3.37,38.14,3.37,38.32,3.38,38.49z"/>
	<path class="st0" d="M6.27,34.4C4.71,34.95,3.6,36.35,3.41,38C3.6,36.35,4.71,34.95,6.27,34.4z"/>
	<path class="st0" d="M12.86,40c-1-2.25-1.85-4.67-2.63-7l-0.86,0.3C9.9,35.51,10.45,37.77,11,40H12.86z"/>
	<path class="st0" d="M20,39.36L19.24,40h1.52L20,39.36z"/>
	<path class="st5" d="M24.34,29v-1.71c-0.24,0.11-0.48,0.2-0.73,0.29V34h1.29c0.5-0.71,0.95-1.45,1.34-2.22
		C25.08,31.36,24.31,30.24,24.34,29z"/>
	<path class="st5" d="M20,39.36c1.86-1.57,3.51-3.37,4.9-5.36h-1.29v-6.42c-1.16,0.4-2.38,0.61-3.61,0.61c-1.49,0-2.97-0.3-4.34-0.9
		l0,0V29c0,1.21-0.76,2.3-1.9,2.71C15.33,34.64,17.45,37.24,20,39.36z"/>
	<path class="st5" d="M20,28.19c1.23,0,2.45-0.21,3.61-0.61V26c-1.14,0.48-2.36,0.72-3.6,0.72l0,0c-1.51,0-3-0.36-4.34-1.06v1.61
		l0,0C17.04,27.87,18.51,28.18,20,28.19z"/>
	<path class="st5" d="M24.34,25.68c-0.24,0.13-0.48,0.24-0.73,0.34v1.56c0.25-0.09,0.49-0.18,0.73-0.29V25.68z"/>
	<path class="st0" d="M12.05,22.41c0.02,0.8-0.61,1.47-1.41,1.49c-0.8,0.02-1.47-0.61-1.49-1.41c-0.02-0.8,0.61-1.47,1.41-1.49
		c0.01,0,0.03,0,0.04,0c0.31,0,0.61,0.1,0.86,0.28c-0.25-0.55-0.45-1.12-0.59-1.71H10.6c-1.6,0-2.89,1.29-2.89,2.89
		c0,1.6,1.29,2.89,2.89,2.89c1.07,0,2.05-0.59,2.55-1.53c-0.41-0.44-0.78-0.92-1.1-1.44V22.41z"/>
	<path class="st6" d="M10.6,21c-0.8,0-1.45,0.65-1.45,1.45c0,0.8,0.65,1.45,1.45,1.45s1.45-0.65,1.45-1.45v-0.08
		c-0.22-0.35-0.42-0.71-0.59-1.09C11.21,21.1,10.91,21,10.6,21z"/>
	<path class="st0" d="M29.4,21c0.8,0.07,1.39,0.77,1.32,1.57c-0.06,0.71-0.62,1.27-1.32,1.32c-0.2,0-0.4-0.04-0.58-0.12
		c0.12,0.53,0.27,1.05,0.45,1.56h0.13c1.6,0,2.89-1.29,2.89-2.89c0-1.6-1.29-2.89-2.89-2.89l0,0h-0.27
		c-0.14,0.59-0.34,1.16-0.59,1.71C28.8,21.09,29.1,21,29.4,21z"/>
	<path class="st0" d="M28,22.41c0-0.03,0-0.05,0-0.08c-0.32,0.51-0.7,1-1.11,1.44c0.48,0.9,1.4,1.48,2.42,1.52
		c-0.18-0.51-0.33-1.03-0.45-1.56C28.34,23.5,28,22.98,28,22.41z"/>
	<path class="st6" d="M28.81,23.67v0.06c0.18,0.08,0.38,0.12,0.58,0.12c0.8-0.07,1.39-0.77,1.32-1.57
		c-0.06-0.71-0.62-1.27-1.32-1.32c-0.31,0-0.61,0.1-0.86,0.28l0,0C28.55,22.06,28.65,22.87,28.81,23.67z"/>
	<path class="st6" d="M28.54,21.25c-0.16,0.37-0.34,0.73-0.54,1.08c0,0.03,0,0.05,0,0.08c0,0.57,0.34,1.09,0.87,1.32v-0.06
		C28.69,22.88,28.58,22.07,28.54,21.25z"/>
	<path class="st7" d="M31.29,9.06l0.06,0.3L31.29,9.06z"/>
	<path class="st7" d="M31.23,8.8c0,0.06,0,0.12,0.05,0.18S31.25,8.86,31.23,8.8z"/>
	<path class="st7" d="M31,8c0,0.06,0,0.13,0.07,0.2S31,8.09,31,8z"/>
	<path class="st7" d="M31.17,8.54c0,0.06,0,0.12,0,0.19S31.18,8.6,31.17,8.54z"/>
	<path class="st7" d="M31.09,8.28l0.06,0.19L31.09,8.28z"/>
	<path class="st7" d="M31.38,9.5c0,0,0,0.08,0,0.12S31.39,9.54,31.38,9.5z"/>
	<path class="st6" d="M24.34,17.35c-0.26,0-0.5-0.14-0.63-0.36h-7.42c-0.13,0.22-0.37,0.36-0.63,0.36C15.4,17.36,15.14,17.23,15,17
		h-1.39c-0.08,0.29-0.12,0.58-0.1,0.88c0.15,2.61,1.37,5.04,3.39,6.71h6.71v-6.52h5.06c0,0-0.08,0.64-0.12,1.57
		c0.19-0.05,0.38-0.09,0.58-0.11c0.06-0.24,0.11-0.49,0.14-0.74h0.38c0.95,0.02,1.77-0.68,1.91-1.62V17H25
		C24.86,17.23,24.61,17.36,24.34,17.35z M23.2,20.35c-0.36,1.46-1.69,2.48-3.2,2.42c-1.49,0.06-2.83-0.93-3.2-2.38
		c-0.04-0.25,0.13-0.48,0.37-0.51c0.02,0,0.04,0,0.06-0.01h5.54c0.25,0.01,0.44,0.22,0.44,0.46c0,0.02,0,0.04-0.01,0.06V20.35z"/>
	<path class="st6" d="M24.34,24.58v1.1c0.94-0.49,1.79-1.14,2.51-1.91c-0.23-0.42-0.34-0.89-0.34-1.36c-0.01-1.26,0.8-2.38,2-2.77
		c0-0.93,0.12-1.57,0.12-1.57h-5.02v6.51H24.34z"/>
	<path class="st6" d="M16.9,24.58c1.31,1.06,2.89,1.76,4.56,2c-0.48,0.08-0.96,0.12-1.45,0.12c1.24,0,2.46-0.24,3.6-0.72v-1.4H16.9z
		"/>
	<path class="st6" d="M24.34,24.58h-0.73V26c0.25-0.1,0.49-0.21,0.73-0.34V24.58z"/>
	<path class="st6" d="M28.54,21.25L28.54,21.25c0.25-0.55,0.45-1.12,0.59-1.71c-0.2,0.02-0.39,0.06-0.58,0.11
		C28.53,20.12,28.52,20.67,28.54,21.25z"/>
	<path class="st6" d="M26.51,22.41c0,0.47,0.11,0.94,0.34,1.36c0.43-0.44,0.81-0.93,1.15-1.44c0.02-0.43,0.23-0.83,0.58-1.08
		c0-0.58,0-1.13,0-1.61C27.36,20.01,26.52,21.13,26.51,22.41z"/>
	<path class="st6" d="M28,22.33c0.22-0.35,0.41-0.71,0.58-1.08l0,0C28.24,21.5,28.02,21.9,28,22.33z"/>
	<path class="st8" d="M20.86,9.34L21,9.54L20.86,9.34z"/>
	<path class="st8" d="M18.64,10c0.08-0.1,0.16-0.2,0.23-0.31C18.8,9.8,18.73,9.9,18.64,10z"/>
	<path class="st8" d="M21.12,9.71c0.05,0.06,0.1,0.12,0.14,0.19C21.22,9.83,21.18,9.77,21.12,9.71z"/>
	<path class="st8" d="M18.1,10.69l0.23-0.28L18.1,10.69z"/>
	<path class="st8" d="M17.54,11.3l0.24-0.26L17.54,11.3z"/>
	<path class="st8" d="M18.39,10.34l0.19-0.24L18.39,10.34z"/>
	<path class="st8" d="M17.85,11l0.19-0.22L17.85,11z"/>
	<path class="st8" d="M21.38,10.06l0.15,0.18L21.38,10.06z"/>
	<path class="st8" d="M21.92,10.71l0.14,0.16L21.92,10.71z"/>
	<path class="st8" d="M23.3,12.1l0.11,0.1L23.3,12.1z"/>
	<path class="st8" d="M21.65,10.39c0.05,0.05,0.1,0.11,0.14,0.17C21.75,10.5,21.7,10.44,21.65,10.39z"/>
	<path class="st8" d="M17,11.84l0.24-0.22L17,11.84z"/>
	<path class="st8" d="M23.58,12.34c0.03,0.03,0.06,0.06,0.1,0.08C23.65,12.4,23.61,12.37,23.58,12.34z"/>
	<path class="st8" d="M22.19,11l0.14,0.14L22.19,11z"/>
	<path class="st8" d="M23,11.85l0.12,0.11L23,11.85z"/>
	<path class="st8" d="M22.47,11.31l0.13,0.14L22.47,11.31z"/>
	<path class="st8" d="M23.85,12.57l0.1,0.07L23.85,12.57z"/>
	<path class="st8" d="M14.63,13.62l0.11-0.06L14.63,13.62z"/>
	<path class="st8" d="M16.18,12.54l0.23-0.19L16.18,12.54z"/>
	<path class="st8" d="M16.74,12.07l0.22-0.21L16.74,12.07z"/>
	<path class="st8" d="M16.47,12.3l0.19-0.16L16.47,12.3z"/>
	<path class="st8" d="M15.93,12.73l0.17-0.12L15.93,12.73z"/>
	<path class="st8" d="M14.86,13.48l0.11-0.07L14.86,13.48z"/>
	<path class="st8" d="M15.08,13.34l0.21-0.14L15.08,13.34z"/>
	<path class="st8" d="M15.63,13l0.22-0.16L15.63,13z"/>
	<path class="st8" d="M15.39,13.13l0.14-0.1L15.39,13.13z"/>
	<path class="st8" d="M18.91,9.66l0.2-0.28L18.91,9.66z"/>
	<path class="st8" d="M19.48,8.85L19.48,8.85C19.45,8.9,19.43,8.95,19.4,9c-0.08,0.12-0.16,0.23-0.23,0.35
		c0.07-0.11,0.15-0.22,0.22-0.34L19.48,8.85z"/>
	<path class="st8" d="M22.87,11.71l-0.13-0.12L22.87,11.71z"/>
	<path class="st6" d="M29.76,15.18c-1.14,0.83-2.65,0.96-3.92,0.34c-2.14-1.03-4.01-2.55-5.47-4.42c-0.1,0.07-0.21,0.1-0.33,0.1
		c-0.14,0-0.27-0.05-0.38-0.13c-1.26,1.62-2.81,2.98-4.59,4c-0.69,0.4-1.2,1.05-1.42,1.81c-0.01,0.05-0.01,0.09,0,0.14H15
		c-0.06-0.11-0.1-0.24-0.1-0.37V15.9c0-0.4,0.32-0.72,0.72-0.72c0,0,0,0,0,0c0.4,0,0.72,0.32,0.73,0.72v0.72
		c0,0.13-0.04,0.26-0.1,0.37h7.42c-0.06-0.11-0.1-0.24-0.1-0.37V15.9c0.01-0.4,0.33-0.72,0.73-0.72c0.4,0,0.72,0.32,0.72,0.72v0.72
		c0.03,0.13,0.02,0.26-0.02,0.38h6.6l0,0c0.01-0.99-0.79-1.81-1.78-1.82C29.8,15.18,29.78,15.18,29.76,15.18z"/>
	<path class="st8" d="M17.5,11.34l-0.2,0.21L17.5,11.34z"/>
	<path class="st8" d="M28.49,15c0.39,0.08,0.78,0.15,1.18,0.19C29.28,15.15,28.88,15.08,28.49,15z"/>
	<path class="st8" d="M24.13,12.78l0.08,0.06L24.13,12.78z"/>
	<path class="st6" d="M15.66,17.35c0.26,0,0.5-0.14,0.63-0.36H15C15.14,17.22,15.39,17.36,15.66,17.35z"/>
	<path class="st6" d="M16.39,16.62V15.9c-0.01-0.4-0.33-0.72-0.73-0.72c-0.4,0-0.72,0.32-0.72,0.72c0,0,0,0,0,0v0.72
		C14.93,16.75,14.95,16.88,15,17h1.25C16.33,16.89,16.38,16.76,16.39,16.62z"/>
	<path class="st6" d="M24.34,17.35c0.27,0.01,0.52-0.12,0.66-0.35h-1.29C23.85,17.22,24.09,17.35,24.34,17.35z"/>
	<path class="st6" d="M25.06,16.62V15.9c0-0.4-0.32-0.72-0.72-0.72c-0.4,0-0.72,0.32-0.73,0.72v0.72c0,0.13,0.04,0.26,0.1,0.37H25
		C25.05,16.87,25.08,16.75,25.06,16.62z"/>
	<path class="st6" d="M22.77,19.87h-5.54c-0.25,0.01-0.44,0.22-0.44,0.46c0,0.02,0,0.04,0.01,0.06c0.37,1.45,1.71,2.44,3.2,2.38
		c1.49,0.06,2.83-0.93,3.2-2.38c0.04-0.25-0.13-0.48-0.37-0.51C22.81,19.87,22.79,19.87,22.77,19.87z"/>
	<path class="st1" d="M13.15,23.77L13.15,23.77c0.72,0.77,1.57,1.42,2.51,1.91l0,0C14.73,25.19,13.88,24.54,13.15,23.77z"/>
	<path class="st1" d="M10.73,18.79h-0.38c-0.82,0.01-1.56-0.5-1.84-1.28c0.28,0.78,1.02,1.29,1.84,1.28H10.73
		c0.03,0.25,0.08,0.5,0.14,0.74l0,0C10.81,19.29,10.76,19.04,10.73,18.79z"/>
	<path class="st1" d="M20,26.74L20,26.74c-1.51,0-3-0.36-4.34-1.06l0,0C17,26.38,18.49,26.74,20,26.74z"/>
	<path class="st1" d="M11.46,21.24c-0.25-0.55-0.45-1.12-0.59-1.71l0,0C11.01,20.12,11.21,20.69,11.46,21.24z"/>
	<path class="st1" d="M12.05,22.33L12.05,22.33c0.32,0.52,0.69,1,1.1,1.44l0,0C12.74,23.33,12.37,22.85,12.05,22.33z"/>
	<path class="st1" d="M11.46,21.24c0.17,0.38,0.37,0.74,0.59,1.09l0,0C11.83,21.98,11.63,21.62,11.46,21.24z"/>
	<path class="st1" d="M15.53,13l0.1-0.07L15.53,13z"/>
	<path class="st1" d="M15.29,13.2l0.1-0.07L15.29,13.2z"/>
	<path class="st1" d="M17.3,11.55l-0.07,0.07L17.3,11.55z"/>
	<path class="st1" d="M15.85,12.8l0.08-0.07L15.85,12.8z"/>
	<path class="st1" d="M15,13.41l0.11-0.07L15,13.41z"/>
	<path class="st1" d="M16.1,12.61l0.08-0.07L16.1,12.61z"/>
	<path class="st1" d="M14.2,13.87l0.14-0.08L14.2,13.87z"/>
	<path class="st1" d="M13.67,14.14l0.16-0.08L13.67,14.14z"/>
	<path class="st1" d="M13.49,14.23c-0.49,0.23-0.94,0.41-1.33,0.55c0.51-0.18,1-0.38,1.48-0.62L13.49,14.23z"/>
	<path class="st1" d="M11.94,14.85l0.19-0.06L11.94,14.85z"/>
	<path class="st1" d="M11.74,14.91l0.15-0.05L11.74,14.91z"/>
	<path class="st1" d="M11.51,15l0.18-0.05L11.51,15z"/>
	<path class="st1" d="M14.74,13.56l0.12-0.08L14.74,13.56z"/>
	<path class="st1" d="M14.42,13.75l0.21-0.13L14.42,13.75z"/>
	<path class="st1" d="M9.86,15.22C9.03,15.4,8.43,16.14,8.44,17C8.43,16.14,9.03,15.4,9.86,15.22z"/>
	<path class="st1" d="M13.84,14.06c0.1-0.05,0.2-0.1,0.29-0.16C14.04,13.96,13.94,14.01,13.84,14.06z"/>
	<path class="st1" d="M20.74,9.16l0.12,0.18L20.74,9.16z"/>
	<path class="st1" d="M25.23,13.54c1.01,0.64,2.11,1.13,3.26,1.46C27.34,14.67,26.25,14.18,25.23,13.54z"/>
	<path class="st1" d="M21,9.54l0.12,0.17L21,9.54z"/>
	<path class="st1" d="M24,12.64l0.18,0.14L24,12.64z"/>
	<path class="st1" d="M21.26,9.9l0.12,0.16L21.26,9.9z"/>
	<path class="st1" d="M18.58,10.1l0.06-0.08L18.58,10.1z"/>
	<path class="st1" d="M22.33,11.16l0.14,0.15L22.33,11.16z"/>
	<path class="st1" d="M19.11,9.38l0.06-0.08L19.11,9.38z"/>
	<path class="st1" d="M21.79,10.56l0.13,0.15L21.79,10.56z"/>
	<path class="st1" d="M24.72,13.2l0.23,0.16L24.72,13.2z"/>
	<path class="st1" d="M25,13.38l0.22,0.14L25,13.38z"/>
	<path class="st1" d="M24.21,12.84l0.19,0.14L24.21,12.84z"/>
	<path class="st1" d="M21.53,10.24l0.12,0.15L21.53,10.24z"/>
	<path class="st1" d="M22.06,10.87l0.13,0.15L22.06,10.87z"/>
	<path class="st1" d="M22.87,11.71l0.15,0.14L22.87,11.71z"/>
	<path class="st1" d="M22.74,11.59l-0.14-0.14L22.74,11.59z"/>
	<path class="st1" d="M16.66,12.14l0.08-0.07L16.66,12.14z"/>
	<path class="st1" d="M23.41,12.2l0.17,0.14L23.41,12.2z"/>
	<path class="st1" d="M17.78,11l0.07-0.07L17.78,11z"/>
	<path class="st1" d="M23.68,12.42l0.17,0.15L23.68,12.42z"/>
	<path class="st1" d="M23.14,12l0.16,0.14L23.14,12z"/>
	<path class="st1" d="M24.47,13l0.21,0.15L24.47,13z"/>
	<path class="st1" d="M18,10.75l0.06-0.06L18,10.75z"/>
	<path class="st1" d="M18.33,10.41l0.06-0.07L18.33,10.41z"/>
	<path class="st6" d="M10.87,19.53c0.14,0.59,0.34,1.16,0.59,1.71c0.35,0.26,0.56,0.66,0.59,1.09c0.32,0.52,0.69,1,1.1,1.44
		c0.23-0.42,0.34-0.89,0.34-1.36C13.5,20.92,12.36,19.66,10.87,19.53z"/>
	<path class="st6" d="M11.46,21.24c0.17,0.38,0.37,0.74,0.59,1.09C12.03,21.9,11.81,21.5,11.46,21.24z"/>
	<path class="st6" d="M10.35,18.79h0.38c0.03,0.25,0.08,0.5,0.14,0.74c1.49,0.13,2.63,1.39,2.62,2.88c0,0.47-0.11,0.94-0.34,1.36
		c0.72,0.77,1.57,1.42,2.51,1.91v-1.1h1.24c-2.02-1.67-3.24-4.1-3.39-6.71c-0.02-0.3,0.02-0.59,0.1-0.88H8.44v0.18
		c0.02,0.11,0.04,0.23,0.07,0.34C8.79,18.29,9.53,18.8,10.35,18.79z"/>
	<path class="st6" d="M16.9,24.58h-1.24v1.1c1.34,0.7,2.83,1.06,4.34,1.06l0,0c0.49,0,0.97-0.04,1.45-0.12
		C19.78,26.36,18.21,25.66,16.9,24.58z"/>
	<path class="st6" d="M15.07,15c1.78-1.02,3.33-2.38,4.59-4c-0.23-0.19-0.35-0.47-0.34-0.76V9.42c0-0.2,0.05-0.4,0.16-0.57L19.39,9
		c-0.07,0.12-0.15,0.23-0.22,0.34l-0.06,0.08l-0.2,0.28v0.05c-0.07,0.11-0.15,0.21-0.23,0.31l-0.06,0.08l-0.19,0.24l-0.06,0.07
		l-0.23,0.28l-0.06,0.06l-0.19,0.22l-0.07,0.07l-0.24,0.26l0,0l-0.2,0.21l-0.07,0.07l-0.24,0.22l0,0l-0.22,0.21l-0.08,0.07
		l-0.19,0.16h-0.06l-0.23,0.19l-0.08,0.07l-0.17,0.12l-0.08,0.07l-0.22,0.16l-0.1,0.07l-0.14,0.1l-0.1,0.07l-0.21,0.14l-0.11,0.07
		l-0.11,0.07l-0.12,0.08l-0.11,0.06l-0.21,0.13h-0.08l-0.14,0.08h-0.07c-0.09,0.06-0.19,0.11-0.29,0.16l0,0L13.79,14l0,0
		c-0.48,0.24-0.97,0.44-1.48,0.62l0,0l-0.19,0.06l0,0l-0.15,0.05h-0.05l-0.18,0.05c-0.3,0.08-1.27,0.2-1.27,0.2
		c-0.13-0.02-0.25-0.02-0.38,0c-0.99,0.08-1.73,0.94-1.66,1.93c0,0.03,0.01,0.06,0.01,0.09l0,0h5.17c-0.01-0.05-0.01-0.09,0-0.14
		C13.83,16.07,14.36,15.4,15.07,15z"/>
	<path class="st6" d="M20.76,9.42v0.89c0.01,0.31-0.13,0.61-0.39,0.79c1.46,1.87,3.33,3.39,5.47,4.42c1.27,0.62,2.78,0.49,3.92-0.34
		h-0.09c-0.4-0.04-0.79-0.1-1.18-0.18c-1.15-0.33-2.25-0.81-3.26-1.44l0,0L25,13.38l0,0l-0.23-0.16l0,0L24.47,13H24.4l-0.19-0.14
		l-0.08-0.06L24,12.64l-0.1-0.07l-0.17-0.15c-0.04-0.02-0.07-0.05-0.1-0.08l-0.17-0.14l-0.11-0.1L23.14,12L23,11.85l-0.15-0.14
		l-0.13-0.12l-0.14-0.14l-0.13-0.14l-0.14-0.15L22.19,11l-0.13-0.15l-0.14-0.16l-0.13-0.15c-0.04-0.06-0.09-0.12-0.14-0.17
		l-0.12-0.15l-0.15-0.18l-0.12-0.16c-0.04-0.07-0.09-0.13-0.14-0.19L21,9.54l-0.14-0.2l-0.12-0.18l0,0
		C20.76,9.25,20.77,9.33,20.76,9.42z"/>
	<path class="st9" d="M31.48,10.16c0,0.06,0,0.11,0,0.17S31.49,10.22,31.48,10.16z"/>
	<path class="st9" d="M31.51,10.44c0,0.06,0,0.11,0,0.17S31.52,10.5,31.51,10.44z"/>
	<path class="st9" d="M31.53,10.72c0,0.06,0,0.12,0,0.18S31.54,10.78,31.53,10.72z"/>
	<path class="st0" d="M8.44,17c0-0.84,0.59-1.57,1.42-1.75c0.13-0.02,0.25-0.02,0.38,0c0,0,1-0.12,1.27-0.2L11.69,15h0.05l0.15-0.05
		l0,0l0.19-0.06l0,0c0.39-0.14,0.84-0.32,1.33-0.55l0.15-0.07l0,0l0.16-0.08l0,0c0.1-0.05,0.2-0.1,0.29-0.16h0.07l0.14-0.08h0.08
		l0.21-0.13l0.11-0.06l0.12-0.08l0.11-0.07l0.11-0.07l0.21-0.14l0.1-0.07l0.14-0.1l0.1-0.07L15.73,13l0.08-0.07l0.17-0.12l0.08-0.07
		l0.23-0.19h0.06l0.19-0.16l0.08-0.07l0.22-0.21l0,0l0.24-0.22l0.07-0.07l0.2-0.21l0,0l0.24-0.26l0.07-0.07l0.19-0.22L17.91,11
		l0.23-0.28l0.06-0.07l0.19-0.24l0.06-0.08c0.08-0.1,0.16-0.2,0.23-0.31V9.97l0.2-0.28l0.06-0.08c0.07-0.12,0.15-0.23,0.23-0.35
		c0.03-0.04,0.06-0.08,0.09-0.11c0.03-0.37,0.35-0.65,0.71-0.62c0.01,0,0.02,0,0.03,0c0.34,0.02,0.62,0.27,0.68,0.61l0,0l0.12,0.18
		l0.14,0.2l0.12,0.17c0.05,0.06,0.1,0.12,0.14,0.19l0.12,0.16l0.15,0.18l0.12,0.15c0.05,0.05,0.1,0.11,0.14,0.17l0.13,0.15L22,10.85
		L22.13,11l0.14,0.14l0.14,0.15l0.13,0.14l0.14,0.14l0.13,0.12l0.15,0.14l0.12,0.11l0.16,0.14l0.11,0.1l0.17,0.14
		c0.03,0.03,0.06,0.06,0.1,0.08l0.17,0.15l0.1,0.07l0.18,0.14l0.08,0.06l0.19,0.14h0.07l0.21,0.15l0,0l0.23,0.16l0,0l0.22,0.14l0,0
		c1.06,0.7,2.21,1.23,3.42,1.59c0.39,0.08,0.78,0.15,1.18,0.19h0.09c0.99,0,1.8,0.81,1.8,1.8c0,0,0,0.01,0,0.01v-4
		c-0.23,0-0.47,0-0.72,0c-5.19,0-9.39-4.2-9.39-9.39c0,0,0-0.01,0-0.01c0-1.16,0.22-2.32,0.65-3.4C26.28,0.97,29.69,3.96,31,8
		c-1.96-6.08-8.48-9.41-14.55-7.45C11.68,2.1,8.44,6.54,8.44,11.56V17L8.44,17z"/>
	<path class="st0" d="M22.1,0.2c-0.43,1.09-0.65,2.24-0.65,3.41c0,5.19,4.2,9.39,9.39,9.39c0.25,0,0.49,0,0.72,0v-1.79
		c0-0.07,0-0.14,0-0.21v-0.1c0-0.06,0-0.12,0-0.18v-0.11c0-0.06,0-0.11,0-0.17s0-0.08,0-0.11s0-0.11,0-0.17s0-0.07,0-0.11V9.89
		c0,0,0-0.08,0-0.12V9.62c0,0,0-0.08,0-0.12V9.36l-0.06-0.3V9c0-0.06,0-0.12-0.05-0.18V8.75c0-0.07,0-0.13,0-0.19V8.49L31.39,8.3
		l0,0c0-0.07,0-0.14-0.07-0.2V8C29.96,3.88,26.4,0.86,22.1,0.2z"/>
	<polygon class="st0" points="10.23,33 10.23,33 10.97,32.74 	"/>
	<polygon class="st0" points="11.03,32.72 10.97,32.74 10.23,33 10.23,33 	"/>
	<polygon class="st0" points="9.37,33.3 8.87,33.48 9.37,33.3 	"/>
	<polygon class="st0" points="9.37,33.3 9.37,33.3 8.87,33.48 8.83,33.49 	"/>
	<path class="st0" d="M25.54,40c0.89-1.96,1.68-3.96,2.37-6h-3c-1.4,1.99-3.05,3.79-4.91,5.36L20.76,40H25.54z"/>
	<path class="st0" d="M32.32,34h-2.88c-0.69,2-1.45,4.09-2.3,6h9.48v-1.51c0-1.84-1.16-3.48-2.89-4.09l-1.42-0.51
		C32.31,33.93,32.31,33.97,32.32,34z"/>
	<path class="st0" d="M25.54,40h1.6c0.85-1.94,1.61-4,2.3-6h-1.53C27.23,36.04,26.44,38.04,25.54,40z"/>
	<path class="st0" d="M8,33.79l0.83-0.3L6.27,34.4C4.71,34.95,3.6,36.35,3.41,38c-0.01,0.17-0.01,0.35,0,0.52V40h6.14
		C9,37.93,8.49,35.84,8,33.79z"/>
	<path class="st0" d="M11,32.72l0.57-0.2c0.82,2.54,1.79,5.04,2.89,7.48h4.78L20,39.36c-2.55-2.11-4.67-4.7-6.24-7.61l0,0L11,32.72z
		"/>
	<path class="st0" d="M14.46,40c-1.09-2.44-2.05-4.94-2.86-7.48l-0.57,0.2L10.23,33c0.78,2.33,1.64,4.75,2.63,7H14.46z"/>
	<path class="st0" d="M9.37,33.3l-0.54,0.19L8,33.79c0.49,2.05,1,4.14,1.55,6.21H11C10.45,37.77,9.9,35.51,9.37,33.3z"/>
	<path class="st0" d="M20.6,9l0.12,0.19C20.68,8.82,20.38,8.54,20,8.53c-0.22,0.01-0.43,0.12-0.55,0.31
		c0.28-0.29,0.73-0.29,1.02-0.01C20.52,8.88,20.57,8.94,20.6,9z"/>
	<path class="st10" d="M20.61,9c0.04,0.06,0.08,0.12,0.11,0.18l0,0L20.6,9c-0.22-0.33-0.67-0.42-1-0.2
		c-0.04,0.03-0.08,0.06-0.11,0.09l0,0c0.29-0.28,0.75-0.28,1.03,0C20.56,8.93,20.59,8.96,20.61,9z"/>
	<path class="st6" d="M19.66,11.07c0.11,0.08,0.24,0.13,0.38,0.13c0.12,0,0.23-0.03,0.33-0.1c-0.13-0.15-0.25-0.31-0.37-0.48
		C19.89,10.78,19.77,10.92,19.66,11.07z"/>
	<path class="st6" d="M20.76,10.31V9.42c0.02-0.09,0.02-0.19,0-0.28c-0.05-0.05-0.1-0.1-0.15-0.14c-0.22-0.34-0.67-0.43-1.01-0.21
		c-0.04,0.03-0.08,0.06-0.12,0.1c-0.11,0.17-0.16,0.37-0.16,0.57v0.89c-0.01,0.29,0.11,0.57,0.34,0.76
		c0.11-0.15,0.23-0.29,0.34-0.45c0.12,0.17,0.24,0.33,0.37,0.48C20.64,10.95,20.79,10.64,20.76,10.31z"/>
</g>
</svg>
