<?xml version="1.0" encoding="utf-8"?>
<!-- Generator: Adobe Illustrator 23.0.3, SVG Export Plug-In . SVG Version: 6.00 Build 0)  -->
<svg version="1.1" id="Layer_1" xmlns="http://www.w3.org/2000/svg" xmlns:xlink="http://www.w3.org/1999/xlink" x="0px" y="0px"
	 viewBox="0 0 100 100" style="enable-background:new 0 0 100 100;" xml:space="preserve">
<style type="text/css">
	.st0{fill:#61BB46;}
	.st1{fill:#CCF49F;}
	.st2{fill:#3F8428;}
	.st3{fill:#FFFFFF;}
</style>
<g>
	<path class="st0" d="M100,50c0,27.61-22.39,50-50,50C22.38,100,0,77.61,0,50C0,22.39,22.38,0,50,0C77.62,0,100,22.39,100,50L100,50
		z"/>
	<path class="st1" d="M100,50"/>
	<path class="st2" d="M57.5,92.5c-27.62,0-50-22.39-50-50c0-11.89,4.2-22.86,11.14-31.44C7.29,20.22,0,34.28,0,50
		c0,27.62,22.39,50,50,50c15.72,0,29.77-7.28,38.93-18.63C80.35,88.31,69.4,92.5,57.5,92.5L57.5,92.5z M57.5,92.5"/>
	<path class="st3" d="M42.5,70c-1.28,0-2.56-0.49-3.54-1.46l-12.5-12.5c-1.95-1.95-1.95-5.12,0-7.07c1.95-1.95,5.12-1.95,7.07,0
		l8.97,8.97l23.96-23.97c1.95-1.95,5.12-1.95,7.07,0c1.95,1.95,1.95,5.12,0,7.07l-27.5,27.5C45.06,69.51,43.78,70,42.5,70L42.5,70z
		 M42.5,70"/>
</g>
</svg>
